<svg width="100" height="100" viewBox="0 0 100 100" fill="none" xmlns="http://www.w3.org/2000/svg">
<g clip-path="url(#clip0_99_510)">
<mask id="mask0_99_510" style="mask-type:luminance" maskUnits="userSpaceOnUse" x="0" y="0" width="100" height="100">
<path d="M100 0H0V100H100V0Z" fill="white"/>
</mask>
<g mask="url(#mask0_99_510)">
<path d="M50 100C77.6142 100 100 77.6142 100 50C100 22.3858 77.6142 0 50 0C22.3858 0 0 22.3858 0 50C0 77.6142 22.3858 100 50 100Z" fill="#F8F5F2"/>
<path d="M24.8197 71.3599C24.8197 71.3599 24.7984 71.3386 24.7557 71.2959L23.7957 71.7439L22.8357 72.0639L21.8117 72.5119C21.6411 72.5972 21.5131 72.5546 21.4277 72.3839C21.3851 72.2986 21.3851 72.2132 21.4277 72.1279C21.3851 72.0852 21.3424 72.0426 21.2997 71.9999C21.2571 71.7866 21.3211 71.6586 21.4917 71.6159L22.7717 71.1679L23.6677 70.6559C23.6677 70.6559 23.6891 70.6559 23.7318 70.6559L24.3717 70.3999C24.3717 70.2719 24.3931 70.1439 24.4357 70.0159C24.3931 70.0159 24.3717 70.0159 24.3717 70.0159L23.2837 70.3359L22.3237 70.6559C22.1531 70.6986 22.0464 70.6346 22.0037 70.4639C21.9184 70.2506 21.9824 70.1226 22.1957 70.0799L23.0917 69.7599C23.1344 69.7599 23.1557 69.7599 23.1557 69.7599L24.2437 69.5039L24.5637 69.3759C24.6064 69.2052 24.6704 69.0346 24.7557 68.8639L23.7957 69.3119L22.6437 69.7599C22.4731 69.8026 22.3451 69.7386 22.2597 69.5679C22.2171 69.3972 22.2811 69.2692 22.4517 69.1839L23.5397 68.7999L24.6277 68.2879L25.0117 68.1599C25.0971 67.8186 25.0971 67.6052 25.0117 67.5199C24.9691 67.5199 24.9477 67.5199 24.9477 67.5199L23.8597 67.8399L22.8997 68.1599C22.6864 68.2452 22.5584 68.1812 22.5157 67.9679C22.4304 67.7972 22.4944 67.6906 22.7077 67.6479L23.6677 67.2639C23.7104 67.2639 23.7318 67.2639 23.7318 67.2639L24.8197 66.9439L25.4597 66.7519C25.5024 66.6239 25.5664 66.4746 25.6517 66.3039L24.6277 66.7519L23.7318 67.1999C23.5611 67.2852 23.4331 67.2426 23.3477 67.0719C23.2197 66.9012 23.2411 66.7732 23.4117 66.6879L24.3717 66.2399C24.3717 66.2399 24.3717 66.2186 24.3717 66.1759L25.4597 65.7919L25.9078 65.5999C25.9504 65.4292 25.9718 65.3012 25.9718 65.2159L25.0117 65.5359L24.0517 65.9199C23.8811 65.9626 23.7531 65.8986 23.6677 65.7279C23.5824 65.5572 23.6464 65.4292 23.8597 65.3439L24.8197 64.9599L25.7797 64.7039L26.3558 64.3839C26.4838 64.0426 26.5264 63.8292 26.4838 63.7439L25.3957 64.1279L24.3077 64.6399C24.0944 64.7252 23.9664 64.6612 23.9237 64.4479C23.8384 64.2772 23.8811 64.1492 24.0517 64.0639L25.1397 63.6159C25.1397 63.6159 25.1611 63.6159 25.2037 63.6159L26.2918 63.1679C26.3344 63.1679 26.3558 63.1679 26.3558 63.1679L26.9958 62.9759C26.9958 62.8906 27.0384 62.7626 27.1238 62.5919L26.8038 62.7199L25.8438 62.9759L24.7557 63.4239C24.5851 63.5092 24.4571 63.4452 24.3717 63.2319C24.3291 63.0612 24.3931 62.9546 24.5637 62.9119L25.6517 62.4639C25.6944 62.4639 25.7157 62.4639 25.7157 62.4639L26.6118 62.1439L27.4438 61.8879C27.5291 61.6746 27.6144 61.4612 27.6998 61.2479L27.3798 61.3759L26.3558 61.8879L25.2677 62.1439C25.0971 62.2292 24.9904 62.1652 24.9477 61.9519C24.8624 61.7812 24.9264 61.6746 25.1397 61.6319L26.1638 61.3119L27.1238 60.8639C27.1664 60.8212 27.1878 60.7999 27.1878 60.7999L27.9557 60.6079C27.9557 60.5652 27.9984 60.4586 28.0838 60.2879C28.0838 60.2452 28.1051 60.2239 28.1478 60.2239L27.7638 60.2879L26.8038 60.7999L25.6517 61.2479C25.4811 61.3332 25.3531 61.2906 25.2677 61.1199C25.1824 60.9492 25.2464 60.8212 25.4597 60.7359L26.5478 60.2879L27.5078 59.7759C27.5078 59.7759 27.5291 59.7759 27.5718 59.7759L28.4038 59.5199C28.4891 59.3066 28.4678 59.1786 28.3398 59.1359L27.3158 59.5199L26.2918 60.0319C26.1211 60.1172 25.9931 60.0532 25.9078 59.8399C25.8224 59.6692 25.8651 59.5412 26.0358 59.4559L27.1238 59.0079L28.0838 58.6239L28.9158 58.2399C28.9584 58.1119 29.0224 57.9839 29.1078 57.8559L28.5318 58.1119L27.5718 58.3679L26.5478 58.7519C26.3771 58.8372 26.2491 58.7732 26.1638 58.5599C26.1211 58.3892 26.1851 58.2826 26.3558 58.2399L27.3798 57.8559L28.3398 57.5359L29.3638 57.0879C29.4918 56.8319 29.5771 56.6399 29.6198 56.5119L28.7238 56.7679L27.6358 57.0879L26.6758 57.3439C26.4624 57.4292 26.3344 57.3652 26.2918 57.1519C26.2491 56.9812 26.3131 56.8746 26.4838 56.8319L27.5078 56.5119L28.5958 56.1919L29.8758 55.7439C30.0038 55.5306 30.1104 55.3172 30.1958 55.1039L29.2358 55.3599L28.3398 55.8079L27.2518 56.1279C27.0811 56.2132 26.9744 56.1706 26.9318 55.9999C26.8464 55.7866 26.8891 55.6586 27.0598 55.6159L28.1478 55.2319L29.0438 54.8479C29.0864 54.8479 29.1078 54.8479 29.1078 54.8479L30.1318 54.5279L30.4518 54.3999C30.4944 54.3572 30.5158 54.2932 30.5158 54.2079C30.5584 54.2079 30.6011 54.1652 30.6438 54.0799L29.8758 54.2719L28.8518 54.5919L27.8918 55.1039C27.7211 55.1892 27.5931 55.1466 27.5078 54.9759C27.4224 54.7626 27.4651 54.6132 27.6358 54.5279L28.6598 54.0799C28.7024 54.0372 28.7238 54.0159 28.7238 54.0159L29.6838 53.7599L30.6438 53.4399L31.2198 53.1839C31.3051 53.0132 31.3904 52.7999 31.4758 52.5439L31.1558 52.6719L30.1958 53.1199L29.1718 53.5679L28.0198 53.8879C27.8491 53.9306 27.7424 53.8666 27.6998 53.6959C27.6144 53.4826 27.6784 53.3546 27.8918 53.3119L28.9798 53.0559L29.9398 52.5439L30.9638 52.1599C30.9638 52.1172 30.9638 52.0959 30.9638 52.0959L31.6678 51.9039C31.7531 51.7332 31.7744 51.6266 31.7318 51.5839L30.6438 52.0959L29.6838 52.5439C29.6411 52.5866 29.6198 52.6079 29.6198 52.6079L28.5318 52.9279C28.3611 53.0132 28.2331 52.9492 28.1478 52.7359C28.1051 52.5652 28.1691 52.4586 28.3398 52.4159L29.4278 52.0319L30.3878 51.5839L31.4758 51.0719L31.9878 50.8159C31.9878 50.7732 32.0091 50.7519 32.0518 50.7519C32.0944 50.5386 32.1158 50.3679 32.1158 50.2399L30.9638 50.4959L29.9398 50.9439L29.0438 51.3919C28.8731 51.4772 28.7451 51.4346 28.6598 51.2639C28.5744 51.0932 28.6171 50.9652 28.7878 50.8799L29.6838 50.4319C29.6838 50.4319 29.6838 50.4106 29.6838 50.3679C29.7264 50.3679 29.7478 50.3679 29.7478 50.3679L30.7718 49.9839C30.7718 49.9839 30.7931 49.9839 30.8358 49.9839C30.8358 49.9412 30.8358 49.9199 30.8358 49.9199L31.9238 49.6639L32.3718 49.5359C32.4144 49.3652 32.4358 49.2159 32.4358 49.0879L31.3478 49.3439L30.4518 49.7279L29.3638 50.2399C29.1931 50.2826 29.0651 50.2186 28.9798 50.0479C28.8944 49.8772 28.9584 49.7492 29.1718 49.6639L30.1958 49.2159L31.1558 48.8319C31.1984 48.8319 31.2198 48.8319 31.2198 48.8319L32.6278 48.3839C32.6704 48.2559 32.7131 48.0852 32.7558 47.8719L31.7958 48.2559L30.6438 48.5759L29.6838 49.0879C29.5131 49.1732 29.3851 49.1306 29.2998 48.9599C29.2144 48.7892 29.2571 48.6612 29.4278 48.5759L30.3878 48.0639C30.3878 48.0639 30.4091 48.0639 30.4518 48.0639L31.6038 47.6799L32.8838 47.2319C32.9264 47.1039 32.9478 46.9759 32.9478 46.8479L32.1158 47.1039L31.2198 47.4239L30.0677 47.8079C29.8971 47.8932 29.7691 47.8292 29.6838 47.6159C29.6411 47.4452 29.7051 47.3386 29.8758 47.2959L31.0278 46.9119L31.9238 46.5279L33.1398 46.1439C33.1824 45.9732 33.1184 45.8879 32.9478 45.8879L31.8598 46.3999L30.7078 46.6559C30.5371 46.7412 30.4304 46.6772 30.3878 46.4639C30.3451 46.2932 30.4091 46.1866 30.5798 46.1439L31.6678 45.8239L32.6918 45.3759L33.3958 44.9919C33.4384 44.8212 33.4598 44.6506 33.4598 44.4799L33.0758 44.6719L31.9878 45.1839L30.8358 45.6319C30.6651 45.7172 30.5584 45.6746 30.5158 45.5039C30.4304 45.3332 30.4731 45.2052 30.6438 45.1199L31.7318 44.6719L32.8198 44.1599L33.6518 43.7759C33.6944 43.5626 33.6944 43.4346 33.6518 43.3919L32.6918 43.6479L31.6038 44.0959C31.4331 44.1386 31.3051 44.0746 31.2198 43.9039C31.1344 43.7332 31.1984 43.6052 31.4118 43.5199L32.5638 43.1359L33.4598 42.8159L33.9078 42.6879C33.9078 42.6026 33.9291 42.5172 33.9718 42.4319L33.0758 42.8159L31.9878 43.3279C31.7744 43.4132 31.6464 43.3706 31.6038 43.1999C31.5184 43.0292 31.5611 42.9012 31.7318 42.8159L32.8198 42.3039L34.1638 41.7279C34.1638 41.5999 34.1851 41.4719 34.2278 41.3439L33.3958 41.7919L32.3718 42.1759C32.2011 42.2612 32.0731 42.2186 31.9878 42.0479C31.9024 41.8772 31.9664 41.7492 32.1798 41.6639L33.1398 41.2159L34.0998 40.7679L34.4198 40.5759C34.5051 40.3626 34.5691 40.1492 34.6118 39.9359L33.8438 40.2559L32.6918 40.6399C32.5211 40.6826 32.4144 40.6186 32.3718 40.4479C32.2864 40.2346 32.3504 40.1066 32.5638 40.0639L33.6518 39.6799L34.8038 39.2319C34.8891 39.0612 34.9531 38.9119 34.9958 38.7839L34.0998 38.9759L33.0118 39.4239C32.8411 39.4666 32.7131 39.4026 32.6278 39.2319C32.5851 39.0612 32.6491 38.9332 32.8198 38.8479L33.9078 38.4639C33.9078 38.4639 33.9291 38.4639 33.9718 38.4639C33.9718 38.4212 33.9718 38.3999 33.9718 38.3999L35.1878 38.0799C35.2304 37.9519 35.2731 37.8239 35.3158 37.6959L34.6118 38.0159L33.5878 38.4639C33.4171 38.5492 33.2891 38.4852 33.2038 38.2719C33.1184 38.1012 33.1611 37.9946 33.3318 37.9519L34.4198 37.5039L35.3158 37.0559C35.3584 37.0559 35.4651 37.0346 35.6358 36.9919C35.7211 36.7359 35.8064 36.5012 35.8918 36.2879L35.0598 36.5439L33.9718 36.9919C33.8011 37.0772 33.6731 37.0346 33.5878 36.8639C33.5451 36.6932 33.6091 36.5652 33.7798 36.4799L34.8038 35.9679C34.8038 35.9679 34.8251 35.9679 34.8678 35.9679L35.8918 35.6479L36.3398 35.5199C36.3824 35.3919 36.4464 35.2852 36.5318 35.1999L35.6358 35.5839L34.6118 35.9039C34.3984 35.9892 34.2704 35.9466 34.2278 35.7759C34.1851 35.5626 34.2491 35.4346 34.4198 35.3919L35.4438 35.0079L36.4038 34.6239L36.9798 34.3679C37.0651 34.1119 37.0864 33.9412 37.0438 33.8559C37.0011 33.8559 36.9798 33.8559 36.9798 33.8559L36.0838 34.2399L34.9318 34.6879C34.7611 34.7306 34.6544 34.6666 34.6118 34.4959C34.5264 34.3252 34.5691 34.1972 34.7398 34.1119L35.8918 33.7279L36.7878 33.3439L37.4278 33.0239C37.5131 32.8106 37.5558 32.6612 37.5558 32.5759L36.4678 32.9599L35.5718 33.2799C35.3584 33.3226 35.2304 33.2586 35.1878 33.0879C35.1451 32.9172 35.2091 32.7892 35.3798 32.7039L36.2758 32.4479L37.3638 31.9999L37.8758 31.8719C37.9611 31.6586 37.9398 31.5306 37.8118 31.4879L36.7238 31.9359L35.6998 32.3839C35.4864 32.4692 35.3584 32.4266 35.3158 32.2559C35.2304 32.0426 35.2731 31.9146 35.4438 31.8719L36.5318 31.4239L37.5558 30.9759L38.3238 30.5919C38.3664 30.4639 38.4091 30.3359 38.4518 30.2079L38.1318 30.3359L37.0438 30.6559L36.0838 30.9119C35.9131 30.9972 35.7851 30.9332 35.6998 30.7199C35.6571 30.5492 35.7211 30.4426 35.8918 30.3999L36.9158 30.0799L37.9398 29.8239L38.7718 29.5039C38.8571 29.2906 38.9211 29.0986 38.9638 28.9279L38.1958 29.1839L37.1718 29.5039C36.9584 29.5466 36.8304 29.4826 36.7878 29.3119C36.7451 29.1412 36.8091 29.0132 36.9798 28.9279L38.0678 28.6719L39.3478 28.1599C39.4758 27.8612 39.6464 27.5839 39.8598 27.3279C40.0731 27.0719 40.3078 26.8586 40.5638 26.6879C41.1184 26.2612 41.7158 26.0266 42.3558 25.9839C42.9958 25.9412 43.6571 25.9412 44.3398 25.9839C45.3638 26.0692 46.3664 26.1546 47.3478 26.2399C48.3718 26.3252 49.3958 26.3679 50.4198 26.3679C50.9744 26.3679 51.5291 26.3679 52.0838 26.3679C52.6384 26.3679 53.1718 26.3466 53.6838 26.3039C54.0678 26.3039 54.4304 26.3039 54.7718 26.3039C55.1131 26.3039 55.4544 26.3039 55.7958 26.3039C55.8384 26.3039 55.9024 26.2826 55.9878 26.2399C56.6278 26.2399 57.2464 26.2826 57.8438 26.3679C58.4838 26.4106 59.0811 26.6239 59.6357 27.0079C60.1904 27.3919 60.5744 27.8826 60.7878 28.4799C61.0438 29.0346 61.2784 29.6106 61.4918 30.2079C61.9611 31.3172 62.3238 32.4692 62.5798 33.6639C62.8784 34.8159 63.2411 35.9466 63.6678 37.0559C64.3078 37.9519 64.7984 39.0612 65.1398 40.3839C65.5238 41.7066 65.8438 43.0932 66.0998 44.5439C66.3984 45.9519 66.7398 47.2959 67.1238 48.5759C67.5078 49.8132 68.0198 50.7732 68.6598 51.4559C68.6598 51.4559 68.6811 51.4986 68.7238 51.5839C68.7664 51.6266 68.7878 51.6479 68.7878 51.6479C69.3424 52.6292 69.7478 53.6746 70.0038 54.7839C70.2598 55.8932 70.4944 57.0026 70.7078 58.1119C70.9638 59.2212 71.3478 60.2666 71.8598 61.2479C71.8598 61.2479 71.8811 61.2692 71.9238 61.3119C71.9238 61.3546 71.9451 61.3759 71.9878 61.3759C72.2864 62.3572 72.5851 63.3386 72.8838 64.3199C73.2251 65.2586 73.5878 66.1972 73.9718 67.1359C74.1424 67.6052 74.2918 68.0106 74.4198 68.3519C74.4624 68.4799 74.5051 68.6292 74.5478 68.7999C74.6331 68.9279 74.7184 69.0559 74.8038 69.1839C74.8891 69.2692 74.9531 69.3546 74.9958 69.4399C75.0384 69.5679 75.0598 69.6746 75.0598 69.7599C75.1024 69.8452 75.1451 69.9519 75.1878 70.0799C75.3158 70.5066 75.2518 70.8479 74.9958 71.1039C74.7398 71.4452 74.4838 71.7652 74.2278 72.0639C74.0144 72.3626 73.7371 72.6186 73.3958 72.8319C73.1824 72.9599 72.9691 73.0239 72.7558 73.0239C72.5851 73.0666 72.3931 73.0879 72.1798 73.0879C71.9664 73.0452 71.8171 73.0452 71.7318 73.0879C71.1344 73.1306 70.6438 73.1732 70.2598 73.2159L69.7478 73.4079L68.7878 73.8559C68.6171 73.9412 68.4891 73.8986 68.4038 73.7279C68.3611 73.5999 68.3824 73.4932 68.4678 73.4079L67.6998 73.7279C67.5291 73.8132 67.4011 73.7706 67.3158 73.5999C67.2731 73.5146 67.2518 73.4506 67.2518 73.4079C67.1238 73.4079 66.9744 73.4079 66.8038 73.4079C66.6758 73.4506 66.5051 73.4719 66.2918 73.4719C66.2064 73.5146 66.1211 73.5146 66.0358 73.4719C65.9504 73.4719 65.8651 73.4719 65.7798 73.4719L65.0758 73.7279C64.8624 73.8132 64.7344 73.7706 64.6918 73.5999C64.6491 73.5572 64.6278 73.5146 64.6278 73.4719C64.5851 73.4719 64.5638 73.4719 64.5638 73.4719L63.9878 73.6639C63.8171 73.7492 63.6891 73.7066 63.6038 73.5359L62.9638 73.7919C62.7504 73.8772 62.6224 73.8346 62.5798 73.6639C62.5371 73.5786 62.5371 73.5146 62.5798 73.4719C62.4518 73.4719 62.3451 73.4719 62.2598 73.4719C62.1744 73.4719 62.0678 73.4719 61.9398 73.4719C61.8118 73.5146 61.7051 73.5146 61.6198 73.4719C61.3638 73.4292 61.1504 73.4079 60.9798 73.4079L60.5318 73.5999C60.3611 73.6852 60.2331 73.6426 60.1478 73.4719C60.1478 73.4719 60.1264 73.4506 60.0838 73.4079L59.2518 73.6639C59.0811 73.7492 58.9531 73.6852 58.8678 73.4719L58.0998 73.6639C57.9291 73.7492 57.8224 73.7066 57.7798 73.5359C57.7371 73.4506 57.7371 73.3652 57.7798 73.2799L56.8838 73.6639C56.7131 73.7492 56.5851 73.7066 56.4998 73.5359C56.4144 73.3652 56.4571 73.2372 56.6278 73.1519L57.5878 72.7039L58.4198 72.3839C58.3771 72.3412 58.3344 72.2986 58.2918 72.2559L57.5238 72.5759L56.4998 73.0239L55.5398 73.4079C55.3691 73.4932 55.2411 73.4506 55.1558 73.2799C55.0704 73.1092 55.1131 72.9812 55.2838 72.8959L56.3078 72.5119L57.2678 72.0639L57.9718 71.7439C57.8864 71.6159 57.7798 71.4239 57.6518 71.1679C57.6091 71.1252 57.5664 71.0826 57.5238 71.0399L56.3718 71.5519L55.4118 71.9359C55.4118 71.9359 55.3904 71.9359 55.3478 71.9359L54.2598 72.1919C54.0464 72.2772 53.9184 72.2132 53.8758 71.9999C53.8331 71.8292 53.8971 71.7226 54.0678 71.6799L55.2198 71.3599L56.1798 71.0399L57.3318 70.5279C57.3318 70.3999 57.3104 70.2932 57.2678 70.2079C57.2251 70.1226 57.1824 70.0159 57.1398 69.8879C57.1398 69.8879 57.0971 69.8879 57.0118 69.8879L55.9878 70.2719L55.0278 70.7199L54.0678 71.2319C53.8971 71.3172 53.7691 71.2746 53.6838 71.1039C53.5984 70.9332 53.6411 70.8052 53.8118 70.7199L54.7718 70.2079L55.7318 69.6959C55.7318 69.6959 55.7531 69.6959 55.7958 69.6959L56.9478 69.3119C56.8624 69.0559 56.7771 68.8639 56.6918 68.7359L55.5398 69.2479L54.6438 69.5679L53.5558 70.0159C53.3851 70.1012 53.2571 70.0586 53.1718 69.8879C53.0864 69.7172 53.1291 69.5892 53.2998 69.5039L54.3878 68.9919C54.4304 68.9919 54.4518 68.9919 54.4518 68.9919L55.3478 68.7359L56.4358 68.2239C56.4784 68.2239 56.5424 68.2026 56.6278 68.1599C56.5424 67.9892 56.4784 67.8399 56.4358 67.7119C56.4358 67.7119 56.3931 67.7119 56.3078 67.7119L55.2838 68.1599L54.1958 68.4799L53.1718 68.7999C52.9584 68.8426 52.8304 68.7786 52.7878 68.6079C52.7451 68.4372 52.8091 68.3092 52.9798 68.2239L54.0678 67.9679L55.0918 67.5839L56.0518 67.1999C55.9664 67.2426 55.8598 67.2639 55.7318 67.2639C55.6038 67.2639 55.4758 67.2639 55.3478 67.2639C55.2624 67.2639 55.1344 67.2639 54.9638 67.2639L53.9398 67.5839L52.9158 67.8399C52.7024 67.9252 52.5744 67.8612 52.5318 67.6479C52.4891 67.4772 52.5531 67.3706 52.7238 67.3279L53.1718 67.1999C53.1718 67.1999 53.1504 67.1999 53.1078 67.1999L52.6598 67.3279L51.6358 67.7759C51.4651 67.8612 51.3371 67.8186 51.2518 67.6479C51.2091 67.6052 51.1878 67.5626 51.1878 67.5199L50.3558 67.7759C50.3131 67.8186 50.1638 67.8186 49.9078 67.7759L48.7558 68.0959C48.5851 68.1812 48.4784 68.1386 48.4358 67.9679C48.3931 67.8399 48.4144 67.7332 48.4998 67.6479L47.6678 67.8399C47.4544 67.9252 47.3264 67.8612 47.2838 67.6479C47.2838 67.6479 47.2838 67.6266 47.2838 67.5839L46.3878 67.8399C46.2171 67.9252 46.1104 67.8826 46.0678 67.7119L45.6198 67.9039C45.4491 67.9892 45.3211 67.9466 45.2358 67.7759C45.1931 67.7332 45.1931 67.6692 45.2358 67.5839L44.1478 67.8399C43.9771 67.9252 43.8491 67.8612 43.7638 67.6479C43.6784 67.9039 43.5931 68.1599 43.5078 68.4159C43.4651 68.6719 43.4011 68.9279 43.3158 69.1839C43.1024 69.7386 42.8678 70.2719 42.6118 70.7839C42.3984 71.2532 42.0358 71.6586 41.5238 71.9999C41.2251 72.2132 40.9051 72.3412 40.5638 72.3839C40.2224 72.4692 39.8811 72.5332 39.5398 72.5759C39.2838 72.6186 39.0278 72.6399 38.7718 72.6399C38.5584 72.6399 38.3238 72.6612 38.0678 72.7039L37.1718 73.0239L36.0838 73.4079L34.9318 73.8559C34.7611 73.9412 34.6331 73.8986 34.5478 73.7279C34.4624 73.5572 34.5264 73.4292 34.7398 73.3439L35.1878 73.1519L34.8038 73.2799L33.8438 73.5359C33.8011 73.5786 33.7584 73.5999 33.7158 73.5999L32.8198 73.9199C32.6491 74.0052 32.5211 73.9626 32.4358 73.7919C32.3504 73.6212 32.4144 73.4932 32.6278 73.4079L33.8438 72.8319C33.8011 72.8319 33.7371 72.8532 33.6518 72.8959L32.6918 73.3439L31.6038 73.5999C31.4331 73.6852 31.3264 73.6212 31.2838 73.4079C31.2411 73.3652 31.2411 73.3012 31.2838 73.2159C31.2411 73.2159 31.2198 73.2159 31.2198 73.2159L30.2598 73.4719C30.0891 73.5572 29.9611 73.5146 29.8758 73.3439L28.8518 73.5999C28.6811 73.6852 28.5744 73.6212 28.5318 73.4079C28.4891 73.4079 28.4891 73.3866 28.5318 73.3439L28.0838 73.4719L26.9318 73.7279C26.7611 73.8132 26.6544 73.7492 26.6118 73.5359C26.5691 73.3652 26.6331 73.2586 26.8038 73.2159L27.8278 72.9599C27.8278 72.9172 27.9344 72.8746 28.1478 72.8319C27.9771 72.8319 27.8064 72.8319 27.6358 72.8319L26.6118 73.2799L25.5877 73.7279C25.4171 73.8132 25.2891 73.7706 25.2037 73.5999C25.1611 73.5146 25.1611 73.4292 25.2037 73.3439L24.3077 73.5999C24.1371 73.6852 24.0304 73.6426 23.9877 73.4719C23.9877 73.4292 23.9877 73.4079 23.9877 73.4079L23.3477 73.5999C23.1771 73.6852 23.0491 73.6212 22.9637 73.4079C22.9637 73.3652 22.9637 73.3226 22.9637 73.2799C22.9211 73.1092 22.9851 73.0026 23.1557 72.9599L24.1797 72.6399L25.2677 72.3199L25.7797 72.1279L24.8197 71.3599ZM60.7878 71.6159C60.9584 71.5732 61.0864 71.6372 61.1718 71.8079C61.1718 71.8506 61.1718 71.8719 61.1718 71.8719C61.2571 71.9146 61.3424 71.9359 61.4278 71.9359L61.9398 71.6799C62.1104 71.5946 62.2384 71.6372 62.3238 71.8079C62.3238 71.8079 62.3238 71.8292 62.3238 71.8719L63.1558 71.6159C63.3691 71.5732 63.4971 71.6372 63.5398 71.8079C63.5398 71.8079 63.5398 71.8292 63.5398 71.8719L64.3718 71.6159C64.5424 71.5732 64.6491 71.6372 64.6918 71.8079C64.7344 71.8506 64.7558 71.8719 64.7558 71.8719L65.5238 71.6159C65.7371 71.5732 65.8651 71.6372 65.9078 71.8079C65.9078 71.8506 65.9078 71.8932 65.9078 71.9359C65.9504 71.9359 65.9931 71.9359 66.0358 71.9359L66.6758 71.6799C66.8464 71.5946 66.9744 71.6372 67.0598 71.8079C67.0598 71.8079 67.0598 71.8292 67.0598 71.8719C67.1024 71.8719 67.1451 71.8719 67.1878 71.8719L67.8918 71.6159C68.0624 71.5732 68.1904 71.6372 68.2758 71.8079C68.4038 71.8079 68.5104 71.8079 68.5958 71.8079L69.1078 71.6159C69.2358 71.5732 69.3211 71.5946 69.3638 71.6799C69.5344 71.6799 69.6838 71.6799 69.8118 71.6799C69.9398 71.6799 70.0891 71.6586 70.2598 71.6159C70.3451 71.6159 70.4091 71.6159 70.4518 71.6159C70.7931 71.6159 71.1771 71.5946 71.6038 71.5519C71.6464 71.5519 71.7531 71.5519 71.9238 71.5519C72.2651 71.5946 72.4784 71.5732 72.5638 71.4879C72.8198 71.3599 73.0331 71.1892 73.2038 70.9759C73.3744 70.7626 73.5238 70.5492 73.6518 70.3359C73.6518 70.2932 73.6518 70.2719 73.6518 70.2719C73.5664 70.2292 73.5238 70.1866 73.5238 70.1439C73.4384 69.9306 73.3531 69.7386 73.2678 69.5679C73.1824 69.3546 73.0971 69.1412 73.0118 68.9279C72.8838 68.5866 72.7131 68.1812 72.4998 67.7119C72.1584 66.7732 71.8171 65.8132 71.4758 64.8319C71.1344 63.8506 70.8144 62.8692 70.5158 61.8879C70.0038 60.9492 69.6198 59.9252 69.3638 58.8159C69.1504 57.7066 68.9158 56.6186 68.6598 55.5519C68.4038 54.4426 68.0198 53.4186 67.5078 52.4799C66.7398 51.6266 66.1638 50.5599 65.7798 49.2799C65.3958 47.9999 65.0758 46.6559 64.8198 45.2479C64.5638 43.7972 64.2438 42.4319 63.8598 41.1519C63.5184 39.8719 63.0064 38.7839 62.3238 37.8879C62.3238 37.8879 62.3238 37.8666 62.3238 37.8239C62.2811 37.7812 62.2598 37.7599 62.2598 37.7599C61.8331 36.6079 61.4704 35.4346 61.1718 34.2399C60.9158 33.0452 60.5531 31.8932 60.0838 30.7839C59.9131 30.3572 59.7424 29.9092 59.5718 29.4399C59.4011 28.9279 59.1238 28.5439 58.7397 28.2879C58.3984 28.0319 57.9931 27.8826 57.5238 27.8399C57.0971 27.7972 56.6704 27.7759 56.2438 27.7759C56.0731 27.8186 55.9451 27.8399 55.8598 27.8399C55.4758 27.8399 55.1131 27.8399 54.7718 27.8399C54.4304 27.8399 54.0678 27.8399 53.6838 27.8399C53.1718 27.8826 52.6384 27.9039 52.0838 27.9039C51.5291 27.9039 50.9744 27.9039 50.4198 27.9039C49.3958 27.9039 48.3504 27.8612 47.2838 27.7759C46.2598 27.6906 45.2358 27.6052 44.2118 27.5199C44.1691 27.5199 44.0624 27.5199 43.8918 27.5199C43.4651 27.4772 43.0384 27.4772 42.6118 27.5199C42.1851 27.5199 41.8011 27.6479 41.4598 27.9039C41.0758 28.2026 40.7771 28.6079 40.5638 29.1199C40.3504 29.6319 40.1584 30.1012 39.9878 30.5279C39.8598 30.8692 39.7318 31.2319 39.6038 31.6159C39.6038 31.7012 39.5611 31.7652 39.4758 31.8079C39.3904 32.1066 39.2838 32.4266 39.1558 32.7679C39.1984 32.8959 39.1558 33.0026 39.0278 33.0879C38.9424 33.3439 38.8358 33.6212 38.7078 33.9199C38.7931 34.0906 38.7718 34.1972 38.6438 34.2399C38.5158 34.5386 38.4091 34.8372 38.3238 35.1359C38.3664 35.2639 38.3238 35.3706 38.1958 35.4559C38.1958 35.4986 38.1744 35.5412 38.1318 35.5839C38.1318 35.6266 38.1104 35.6479 38.0678 35.6479C37.9398 35.7759 37.8118 35.9466 37.6838 36.1599C37.7691 36.1599 37.8331 36.2026 37.8758 36.2879C37.9611 36.4586 37.9184 36.5866 37.7478 36.6719L37.2358 36.9279C37.1504 37.0986 37.1078 37.2479 37.1078 37.3759C37.2784 37.2906 37.4064 37.3332 37.4918 37.5039C37.5344 37.6746 37.4704 37.8026 37.2998 37.8879L36.7238 38.1439C36.6811 38.3146 36.6811 38.4426 36.7238 38.5279C36.8944 38.4852 37.0011 38.5706 37.0438 38.7839C37.1291 38.9546 37.0651 39.0612 36.8518 39.1039L36.4038 39.2319C36.3611 39.4026 36.3184 39.5732 36.2758 39.7439C36.4464 39.7012 36.5531 39.7652 36.5958 39.9359C36.6811 40.1066 36.6384 40.2346 36.4678 40.3199L36.0838 40.4479C36.0411 40.6186 35.9984 40.7892 35.9558 40.9599C36.0838 40.9599 36.1691 41.0239 36.2118 41.1519C36.2971 41.3226 36.1691 41.4719 35.8278 41.5999C35.7851 41.7706 35.7424 41.9626 35.6998 42.1759C35.7424 42.2186 35.7851 42.2826 35.8278 42.3679C35.8704 42.5386 35.7851 42.6666 35.5718 42.7519C35.5291 43.0079 35.4651 43.2852 35.3798 43.5839C35.4224 43.6692 35.4011 43.7546 35.3158 43.8399C35.0171 45.2906 34.7184 46.7626 34.4198 48.2559C34.1211 49.7492 33.7584 51.0932 33.3318 52.2879C32.9478 53.4399 32.4784 54.3146 31.9238 54.9119C31.4971 55.8932 31.0918 56.8959 30.7078 57.9199C30.3238 58.9439 29.9184 59.9466 29.4918 60.9279C29.3638 61.2266 29.2358 61.5466 29.1078 61.8879C28.9798 62.1866 28.8304 62.5066 28.6598 62.8479C28.7024 62.9332 28.6811 62.9972 28.5958 63.0399C28.4678 63.3812 28.3398 63.6799 28.2118 63.9359C28.2971 64.1066 28.2544 64.2346 28.0838 64.3199C27.9558 64.5759 27.8491 64.8106 27.7638 65.0239C27.8064 65.0666 27.8278 65.1092 27.8278 65.1519C27.8704 65.3226 27.7851 65.4506 27.5718 65.5359C27.4864 65.7919 27.4011 66.0266 27.3158 66.2399C27.3584 66.2399 27.3798 66.2826 27.3798 66.3679C27.4651 66.5386 27.3798 66.6666 27.1238 66.7519C27.0384 66.9652 26.9531 67.1786 26.8678 67.3919C26.9104 67.4346 26.9318 67.4772 26.9318 67.5199C27.0171 67.6906 26.9318 67.8612 26.6758 68.0319C26.5904 68.2026 26.5264 68.3946 26.4838 68.6079C26.4838 68.6506 26.5051 68.6932 26.5478 68.7359C26.6331 68.9066 26.5264 69.0559 26.2278 69.1839C26.1424 69.4399 26.0784 69.6532 26.0358 69.8239C26.0784 69.8239 26.1211 69.8666 26.1638 69.9519C26.2064 70.0799 26.1638 70.1866 26.0358 70.2719C26.0784 70.3146 26.0998 70.3572 26.0998 70.3999L27.1878 71.2959C27.5718 71.2959 27.9558 71.2959 28.3398 71.2959C28.7238 71.2959 29.1078 71.2959 29.4918 71.2959C30.7291 71.3386 31.9451 71.3599 33.1398 71.3599C34.3344 71.3599 35.5291 71.2959 36.7238 71.1679C36.8944 71.1679 37.0438 71.1679 37.1718 71.1679C37.3424 71.1679 37.4918 71.1679 37.6198 71.1679C37.9184 71.1679 38.1958 71.1679 38.4518 71.1679C38.7504 71.1252 39.0278 71.0826 39.2838 71.0399C39.5398 70.9972 39.7744 70.9759 39.9878 70.9759C40.2438 70.9332 40.4784 70.8479 40.6918 70.7199C41.0331 70.5066 41.2678 70.2079 41.3958 69.8239C41.5664 69.4399 41.7158 69.0559 41.8438 68.6719C41.9291 68.4159 42.0144 68.1599 42.0998 67.9039C42.1851 67.6052 42.2704 67.3066 42.3558 67.0079C42.3558 66.9226 42.3771 66.8586 42.4198 66.8159C42.4624 66.7732 42.4838 66.7306 42.4838 66.6879C42.5691 66.4319 42.6118 66.1972 42.6118 65.9839C42.6118 65.7706 42.7611 65.5786 43.0598 65.4079C43.2304 65.2799 43.4011 65.2159 43.5718 65.2159C43.7424 65.2159 43.9131 65.2372 44.0838 65.2799C44.2544 65.3226 44.4038 65.3439 44.5318 65.3439C44.9158 65.3866 45.2998 65.4292 45.6838 65.4719C46.0678 65.4719 46.4518 65.4719 46.8358 65.4719C48.1158 65.5572 49.3744 65.5999 50.6118 65.5999C51.8918 65.5999 53.1718 65.6212 54.4518 65.6639C54.6651 65.6639 54.8784 65.6852 55.0918 65.7279C55.3051 65.7279 55.5398 65.7279 55.7958 65.7279C55.8811 65.7279 56.0304 65.7066 56.2438 65.6639C56.4144 65.6639 56.5851 65.6639 56.7558 65.6639C56.9691 65.6639 57.1611 65.7279 57.3318 65.8559C57.5878 66.0266 57.7158 66.2399 57.7158 66.4959C57.7584 66.7092 57.8224 66.9439 57.9078 67.1999C58.0358 67.5839 58.1424 67.9679 58.2278 68.3519C58.3558 68.6932 58.4838 69.0559 58.6118 69.4399C58.6971 69.6106 58.7611 69.7812 58.8038 69.9519C58.8464 70.1226 58.9104 70.2932 58.9958 70.4639C59.0384 70.5919 59.1024 70.7412 59.1878 70.9119C59.2731 71.0399 59.3798 71.1679 59.5078 71.2959C59.5504 71.2959 59.5718 71.3172 59.5718 71.3599C59.6571 71.4452 59.7211 71.5092 59.7638 71.5519C59.9344 71.6372 60.1264 71.7226 60.3398 71.8079L60.7878 71.6159ZM45.8758 54.1439C45.4918 53.6746 45.4704 53.3546 45.8118 53.1839L46.3238 52.8639C46.6224 52.0959 46.8784 51.3066 47.0918 50.4959C47.3051 49.6852 47.5184 48.8746 47.7318 48.0639C47.6464 48.0639 47.5611 48.0212 47.4758 47.9359C47.4331 47.7652 47.5824 47.5946 47.9238 47.4239C48.0091 47.1252 48.0944 46.8479 48.1798 46.5919C48.0944 46.4212 48.1584 46.2719 48.3718 46.1439C48.4144 45.9732 48.4571 45.8239 48.4998 45.6959C48.5851 45.5252 48.6491 45.3759 48.6918 45.2479C48.5211 45.2906 48.3931 45.2266 48.3078 45.0559C48.2651 44.8426 48.3291 44.7146 48.4998 44.6719L49.0758 44.5439C49.1611 44.2026 49.2464 43.8826 49.3318 43.5839C49.3318 43.5839 49.3531 43.5626 49.3958 43.5199C49.2678 43.6479 49.1398 43.6479 49.0118 43.5199C48.8411 43.4346 48.8624 43.2426 49.0758 42.9439C49.0758 42.9012 49.1184 42.8586 49.2038 42.8159C49.2891 42.7732 49.3744 42.7519 49.4598 42.7519C49.5024 42.3252 49.7158 42.0692 50.0998 41.9839C50.4838 41.8986 50.7184 41.9839 50.8038 42.2399C50.8891 42.4532 50.9531 42.6879 50.9958 42.9439C50.9958 43.1999 51.0171 43.3706 51.0598 43.4559C51.2304 44.0106 51.4011 44.5652 51.5718 45.1199C51.7424 45.6319 51.9131 46.1652 52.0838 46.7199C52.3398 47.6586 52.5958 48.6186 52.8518 49.5999C53.1504 50.5386 53.4491 51.4772 53.7478 52.4159C53.7904 52.5012 53.8758 52.6506 54.0038 52.8639C54.0891 53.0346 54.1531 53.2266 54.1958 53.4399C54.2811 53.6106 54.2171 53.8026 54.0038 54.0159C53.8331 54.2292 53.6411 54.3359 53.4278 54.3359C53.2571 54.3359 53.0651 54.3146 52.8518 54.2719C52.6384 54.1866 52.4891 54.1439 52.4038 54.1439C51.5931 54.1012 50.7824 54.0586 49.9718 54.0159C49.1611 53.9732 48.3504 53.9306 47.5398 53.8879C47.4544 54.1012 47.3691 54.2932 47.2838 54.4639C47.1131 54.8479 46.7931 54.8692 46.3238 54.5279C46.1958 54.5279 46.0891 54.4852 46.0038 54.3999C45.9184 54.3146 45.8758 54.2292 45.8758 54.1439ZM49.7798 46.6559L50.4198 46.4639C50.3344 46.2079 50.2278 46.0372 50.0998 45.9519C50.0144 46.1652 49.9078 46.3999 49.7798 46.6559ZM50.8038 47.8079C50.7184 47.5519 50.6544 47.3386 50.6118 47.1679C50.5691 47.0826 50.5478 47.0399 50.5478 47.0399L49.5238 47.3599C49.4384 47.7012 49.3318 48.0852 49.2038 48.5119L49.7158 48.3199L50.8038 47.8079ZM51.1238 48.9599C51.0384 48.7039 50.9744 48.4906 50.9318 48.3199L49.9718 48.8319C49.9291 48.8319 49.9078 48.8319 49.9078 48.8319L49.0118 49.1519C48.9264 49.4506 48.8838 49.6852 48.8838 49.8559L49.9718 49.3439L51.1238 48.9599ZM51.4438 50.0479C51.3584 49.7919 51.2731 49.6212 51.1878 49.5359L50.1638 49.9199L49.0758 50.3679L48.6278 50.4959C48.5851 50.6666 48.5424 50.8372 48.4998 51.0079L49.1398 50.7519C49.1398 50.7519 49.1611 50.7519 49.2038 50.7519L50.2918 50.4959L51.4438 50.0479ZM48.1158 52.3519C48.4144 52.3946 48.7558 52.4159 49.1398 52.4159L49.8438 52.0959L50.8038 51.7119C50.8038 51.7119 50.8251 51.6906 50.8678 51.6479L51.8278 51.3919C51.7851 51.2639 51.7424 51.1359 51.6998 51.0079C51.6571 50.8799 51.5718 50.7732 51.4438 50.6879L50.4838 51.0079L49.3318 51.3279L48.3078 51.6479C48.2651 51.9039 48.2011 52.1386 48.1158 52.3519ZM50.4198 52.4799C50.6758 52.5226 50.9318 52.5439 51.1878 52.5439C51.4864 52.5439 51.8064 52.5226 52.1478 52.4799C52.1051 52.3092 52.0624 52.1172 52.0198 51.9039L51.0598 52.2239L50.4198 52.4799ZM49.9718 67.1359C49.8864 67.1359 49.8011 67.1359 49.7158 67.1359L49.1398 67.3919L49.9718 67.1359ZM74.6118 69.1199C74.4838 69.0346 74.3771 68.9706 74.2918 68.9279C74.1638 68.8852 74.0571 68.8852 73.9718 68.9279C73.8864 68.9279 73.8438 68.9279 73.8438 68.9279C73.8438 68.9279 73.9291 68.9492 74.0998 68.9919C74.2704 68.9919 74.4411 69.0346 74.6118 69.1199ZM32.1798 72.8959C32.1371 72.8959 32.0944 72.8959 32.0518 72.8959L31.6678 73.0239L32.1798 72.8959Z" fill="black"/>
</g>
</g>
<defs>
<clipPath id="clip0_99_510">
<rect width="100" height="100" fill="white"/>
</clipPath>
</defs>
</svg>
