<svg width="367" height="206" viewBox="0 0 367 206" fill="none" xmlns="http://www.w3.org/2000/svg">
<g filter="url(#filter0_d_225_460)">
<rect x="4" y="2" width="359" height="198" rx="4" fill="white"/>
<path d="M144.656 183.992C144.656 184.344 144.48 184.52 144.128 184.52H143.136C142.891 184.52 142.731 184.429 142.656 184.248H141.184C141.109 184.429 140.949 184.52 140.704 184.52H139.712C139.36 184.52 139.184 184.344 139.184 183.992V174.472C139.184 174.12 139.36 173.944 139.712 173.944H140.704C140.949 173.944 141.109 174.04 141.184 174.232H144.128C144.48 174.232 144.656 174.408 144.656 174.76V183.992ZM147.12 187.096C147.12 187.448 146.944 187.624 146.592 187.624H145.6C145.248 187.624 145.072 187.448 145.072 187.096V185.912C144.923 185.827 144.848 185.688 144.848 185.496C144.848 185.293 144.923 185.155 145.072 185.08V182.104C145.072 181.752 145.248 181.576 145.6 181.576H146.592C146.731 181.576 146.843 181.608 146.928 181.672H147.936V181.368C147.936 181.272 147.952 181.192 147.984 181.128H145.376C145.024 181.128 144.848 180.968 144.848 180.648C144.848 180.328 145.024 180.168 145.376 180.168H146.064V180.12V178.888H145.888C145.536 178.888 145.36 178.728 145.36 178.408C145.36 178.088 145.536 177.928 145.888 177.928H146.064V176.808H145.632C145.28 176.808 145.104 176.648 145.104 176.328C145.104 176.008 145.28 175.848 145.632 175.848H146.064V174.504C146.064 174.152 146.24 173.976 146.592 173.976H147.584C147.936 173.976 148.112 174.152 148.112 174.504V175.848H149.376V174.504C149.376 174.152 149.552 173.976 149.904 173.976H150.896C151.248 173.976 151.424 174.152 151.424 174.504V175.848H151.968C152.32 175.848 152.496 176.008 152.496 176.328C152.496 176.648 152.32 176.808 151.968 176.808H151.424V177.928H151.712C152.064 177.928 152.24 178.088 152.24 178.408C152.24 178.728 152.064 178.888 151.712 178.888H151.424V180.12V180.168H152.208C152.56 180.168 152.736 180.328 152.736 180.648C152.736 180.968 152.56 181.128 152.208 181.128H149.616C149.648 181.192 149.664 181.272 149.664 181.368V181.672H152.048C152.4 181.672 152.576 181.848 152.576 182.2V185.128C152.683 185.213 152.736 185.336 152.736 185.496C152.736 185.656 152.683 185.779 152.576 185.864V187.32C152.576 187.683 152.395 187.853 152.032 187.832L150.208 187.752C149.877 187.731 149.712 187.587 149.712 187.32C149.712 187.149 149.749 187.016 149.824 186.92C149.909 186.824 150.016 186.781 150.144 186.792L150.528 186.808V185.976H147.12V187.096ZM142.608 175.192H141.232V177.176H142.608V175.192ZM148.112 177.928H149.376V176.808H148.112V177.928ZM141.232 180.264H142.608V178.136H141.232V180.264ZM148.112 180.12V180.168H149.376V180.12V178.888H148.112V180.12ZM141.232 183.288H142.608V181.224H141.232V183.288ZM147.12 183.352H147.952V182.632H147.12V183.352ZM150.528 182.632H149.68V183.352H150.528V182.632ZM147.968 184.968V184.312H147.12V185.016H147.968V184.968ZM149.696 184.968V185.016H150.528V184.312H149.696V184.968ZM141.024 187.4C140.939 187.72 140.731 187.864 140.4 187.832L139.472 187.72C139.184 187.688 139.04 187.544 139.04 187.288C139.04 187.267 139.04 187.24 139.04 187.208C139.04 187.176 139.045 187.144 139.056 187.112L139.536 185.192C139.621 184.872 139.824 184.728 140.144 184.76L141.072 184.872C141.371 184.904 141.52 185.053 141.52 185.32C141.52 185.384 141.515 185.437 141.504 185.48L141.024 187.4ZM144.624 186.536C144.635 186.579 144.64 186.632 144.64 186.696C144.64 186.963 144.491 187.112 144.192 187.144L143.264 187.256C142.944 187.288 142.741 187.144 142.656 186.824L142.32 185.48C142.309 185.437 142.304 185.384 142.304 185.32C142.304 185.053 142.453 184.904 142.752 184.872L143.68 184.76C144 184.728 144.203 184.872 144.288 185.192L144.624 186.536ZM156.4 187.512C156.304 187.608 156.192 187.656 156.064 187.656C156.011 187.656 155.941 187.64 155.856 187.608L155.52 187.448C155.264 187.331 155.136 187.149 155.136 186.904C155.136 186.744 155.205 186.595 155.344 186.456L161.44 180.392L157.008 175.32C156.901 175.203 156.848 175.064 156.848 174.904C156.848 174.659 156.976 174.477 157.232 174.36L157.68 174.168C157.712 174.147 157.744 174.136 157.776 174.136C157.808 174.136 157.84 174.136 157.872 174.136C158.032 174.136 158.155 174.195 158.24 174.312L168.864 186.472C168.971 186.589 169.024 186.728 169.024 186.888C169.024 187.133 168.896 187.315 168.64 187.432L168.192 187.624C168.16 187.635 168.128 187.64 168.096 187.64C168.064 187.651 168.032 187.656 168 187.656C167.84 187.656 167.717 187.597 167.632 187.48L162.432 181.512L156.4 187.512Z" fill="black"/>
<path d="M37.104 186.04C37.456 186.04 37.632 186.2 37.632 186.52C37.632 186.84 37.456 187 37.104 187H31.344C31.0453 187 30.896 186.904 30.896 186.712C30.896 186.595 30.96 186.472 31.088 186.344C32.1227 185.235 33.024 184.152 33.792 183.096C34.56 182.029 35.152 181.048 35.568 180.152C35.9947 179.256 36.208 178.515 36.208 177.928C36.208 177.523 36.128 177.144 35.968 176.792C35.8187 176.44 35.616 176.157 35.36 175.944C35.104 175.731 34.832 175.624 34.544 175.624C33.9573 175.624 33.4827 175.971 33.12 176.664C32.768 177.347 32.5707 178.339 32.528 179.64C32.5067 180.003 32.3253 180.184 31.984 180.184H30.992C30.6293 180.184 30.4587 180.003 30.48 179.64C30.608 176.323 31.9627 174.664 34.544 174.664C35.216 174.664 35.8293 174.813 36.384 175.112C36.9493 175.411 37.4027 175.811 37.744 176.312C38.0853 176.803 38.256 177.341 38.256 177.928C38.256 178.504 38.064 179.213 37.68 180.056C37.296 180.888 36.7467 181.811 36.032 182.824C35.3173 183.837 34.4587 184.909 33.456 186.04H37.104ZM43.7104 174.68C45.0437 174.68 46.0517 175.187 46.7344 176.2C47.417 177.213 47.7584 178.675 47.7584 180.584C47.7584 182.707 47.3957 184.333 46.6704 185.464C45.9557 186.595 44.8997 187.16 43.5024 187.16C42.1264 187.16 41.065 186.595 40.3184 185.464C39.5824 184.333 39.2144 182.749 39.2144 180.712C39.2144 178.749 39.593 177.256 40.3504 176.232C41.1077 175.197 42.2277 174.68 43.7104 174.68ZM43.7104 175.64C42.9637 175.64 42.3664 176.083 41.9184 176.968C41.481 177.853 41.2624 179.101 41.2624 180.712C41.2624 181.779 41.3637 182.728 41.5664 183.56C41.7797 184.381 42.057 185.027 42.3984 185.496C42.7397 185.965 43.1077 186.2 43.5024 186.2C43.9184 186.2 44.2917 185.965 44.6224 185.496C44.953 185.027 45.2144 184.371 45.4064 183.528C45.609 182.685 45.7104 181.704 45.7104 180.584C45.7104 179.592 45.6197 178.728 45.4384 177.992C45.2677 177.245 45.0277 176.669 44.7184 176.264C44.4197 175.848 44.0837 175.64 43.7104 175.64ZM55.3384 186.04C55.6904 186.04 55.8664 186.2 55.8664 186.52C55.8664 186.84 55.6904 187 55.3384 187H49.5784C49.2797 187 49.1304 186.904 49.1304 186.712C49.1304 186.595 49.1944 186.472 49.3224 186.344C50.357 185.235 51.2584 184.152 52.0264 183.096C52.7944 182.029 53.3864 181.048 53.8024 180.152C54.229 179.256 54.4424 178.515 54.4424 177.928C54.4424 177.523 54.3624 177.144 54.2024 176.792C54.053 176.44 53.8504 176.157 53.5944 175.944C53.3384 175.731 53.0664 175.624 52.7784 175.624C52.1917 175.624 51.717 175.971 51.3544 176.664C51.0024 177.347 50.805 178.339 50.7624 179.64C50.741 180.003 50.5597 180.184 50.2184 180.184H49.2264C48.8637 180.184 48.693 180.003 48.7144 179.64C48.8424 176.323 50.197 174.664 52.7784 174.664C53.4504 174.664 54.0637 174.813 54.6184 175.112C55.1837 175.411 55.637 175.811 55.9784 176.312C56.3197 176.803 56.4904 177.341 56.4904 177.928C56.4904 178.504 56.2984 179.213 55.9144 180.056C55.5304 180.888 54.981 181.811 54.2664 182.824C53.5517 183.837 52.693 184.909 51.6904 186.04H55.3384ZM57.5344 186.504C57.3424 186.419 57.2464 186.301 57.2464 186.152C57.2464 185.992 57.337 185.864 57.5184 185.768L57.8064 185.608C57.9344 185.544 58.0464 185.512 58.1424 185.512C58.281 185.512 58.409 185.549 58.5264 185.624C58.8997 185.837 59.2944 185.992 59.7104 186.088C60.137 186.173 60.5157 186.216 60.8464 186.216C61.4544 186.216 61.945 185.987 62.3184 185.528C62.7024 185.059 62.8944 184.445 62.8944 183.688C62.8944 181.715 62.2064 180.728 60.8304 180.728C60.521 180.728 60.1744 180.776 59.7904 180.872C59.4064 180.957 58.9797 181.091 58.5104 181.272C58.4144 181.304 58.3237 181.32 58.2384 181.32C57.9824 181.32 57.865 181.165 57.8864 180.856L58.0944 175.176C58.105 174.835 58.2864 174.664 58.6384 174.664L59.6304 174.68C59.8117 174.68 59.945 174.733 60.0304 174.84H64.1264C64.4784 174.84 64.6544 175 64.6544 175.32C64.6544 175.64 64.4784 175.8 64.1264 175.8H60.1264L59.9664 179.8C60.1264 179.779 60.281 179.763 60.4304 179.752C60.5904 179.741 60.7397 179.736 60.8784 179.736C61.689 179.736 62.3984 179.891 63.0064 180.2C63.6144 180.509 64.089 180.963 64.4304 181.56C64.7717 182.147 64.9424 182.856 64.9424 183.688C64.9424 184.36 64.761 184.963 64.3984 185.496C64.0464 186.019 63.561 186.429 62.9424 186.728C62.3237 187.027 61.625 187.176 60.8464 187.176C60.505 187.176 60.1317 187.144 59.7264 187.08C59.3317 187.027 58.9424 186.947 58.5584 186.84C58.1744 186.733 57.833 186.621 57.5344 186.504ZM68.6219 186.696C68.5152 186.995 68.3019 187.123 67.9819 187.08L67.1179 186.936C66.8405 186.883 66.7019 186.739 66.7019 186.504C66.7019 186.472 66.7019 186.44 66.7019 186.408C66.7125 186.376 66.7232 186.339 66.7339 186.296L70.6859 175.144C70.7925 174.845 71.0059 174.717 71.3259 174.76L72.1899 174.904C72.4672 174.957 72.6059 175.101 72.6059 175.336C72.6059 175.368 72.6059 175.4 72.6059 175.432C72.6059 175.464 72.5952 175.501 72.5739 175.544L68.6219 186.696ZM78.8666 174.68C80.2 174.68 81.208 175.187 81.8906 176.2C82.5733 177.213 82.9146 178.675 82.9146 180.584C82.9146 182.707 82.552 184.333 81.8266 185.464C81.112 186.595 80.056 187.16 78.6586 187.16C77.2826 187.16 76.2213 186.595 75.4746 185.464C74.7386 184.333 74.3706 182.749 74.3706 180.712C74.3706 178.749 74.7493 177.256 75.5066 176.232C76.264 175.197 77.384 174.68 78.8666 174.68ZM78.8666 175.64C78.12 175.64 77.5226 176.083 77.0746 176.968C76.6373 177.853 76.4186 179.101 76.4186 180.712C76.4186 181.779 76.52 182.728 76.7226 183.56C76.936 184.381 77.2133 185.027 77.5546 185.496C77.896 185.965 78.264 186.2 78.6586 186.2C79.0746 186.2 79.448 185.965 79.7786 185.496C80.1093 185.027 80.3706 184.371 80.5626 183.528C80.7653 182.685 80.8666 181.704 80.8666 180.584C80.8666 179.592 80.776 178.728 80.5946 177.992C80.424 177.245 80.184 176.669 79.8746 176.264C79.576 175.848 79.24 175.64 78.8666 175.64ZM89.9723 180.84C90.6443 181.149 91.1989 181.587 91.6363 182.152C92.0736 182.717 92.2923 183.325 92.2923 183.976C92.2923 184.605 92.1056 185.165 91.7323 185.656C91.3589 186.136 90.8523 186.509 90.2123 186.776C89.5723 187.043 88.8576 187.176 88.0683 187.176C87.2149 187.176 86.4523 187.053 85.7803 186.808C85.1189 186.563 84.5963 186.216 84.2122 185.768C83.8283 185.32 83.6363 184.787 83.6363 184.168C83.6363 183.453 83.8549 182.803 84.2923 182.216C84.7403 181.619 85.3109 181.16 86.0043 180.84C85.4176 180.52 84.9376 180.083 84.5643 179.528C84.1909 178.973 84.0043 178.381 84.0043 177.752C84.0043 177.208 84.1749 176.701 84.5163 176.232C84.8683 175.763 85.3376 175.384 85.9243 175.096C86.5109 174.808 87.1669 174.664 87.8923 174.664C88.4149 174.664 88.9109 174.76 89.3803 174.952C89.8603 175.133 90.2816 175.384 90.6443 175.704C91.0069 176.024 91.2949 176.387 91.5083 176.792C91.7216 177.187 91.8283 177.592 91.8283 178.008C91.8283 178.584 91.6523 179.123 91.3003 179.624C90.9589 180.125 90.5163 180.531 89.9723 180.84ZM87.8923 175.624C87.3269 175.624 86.8789 175.832 86.5483 176.248C86.2176 176.653 86.0523 177.155 86.0523 177.752C86.0523 178.2 86.1483 178.627 86.3403 179.032C86.5323 179.437 86.7776 179.768 87.0763 180.024C87.3749 180.28 87.6843 180.408 88.0043 180.408C88.2923 180.408 88.5696 180.296 88.8363 180.072C89.1136 179.837 89.3376 179.539 89.5083 179.176C89.6896 178.803 89.7803 178.413 89.7803 178.008C89.7803 177.613 89.6949 177.235 89.5243 176.872C89.3536 176.509 89.1243 176.211 88.8363 175.976C88.5483 175.741 88.2336 175.624 87.8923 175.624ZM88.0683 186.216C88.7189 186.216 89.2416 186.024 89.6363 185.64C90.0416 185.245 90.2443 184.691 90.2443 183.976C90.2443 183.517 90.1376 183.091 89.9243 182.696C89.7109 182.301 89.4336 181.981 89.0923 181.736C88.7509 181.491 88.3883 181.368 88.0043 181.368C87.5883 181.368 87.2043 181.496 86.8523 181.752C86.5003 181.997 86.2176 182.333 86.0043 182.76C85.7909 183.187 85.6843 183.656 85.6843 184.168C85.6843 184.883 85.8869 185.405 86.2923 185.736C86.6976 186.056 87.2896 186.216 88.0683 186.216ZM95.9656 186.696C95.859 186.995 95.6456 187.123 95.3256 187.08L94.4616 186.936C94.1843 186.883 94.0456 186.739 94.0456 186.504C94.0456 186.472 94.0456 186.44 94.0456 186.408C94.0563 186.376 94.067 186.339 94.0776 186.296L98.0296 175.144C98.1363 174.845 98.3496 174.717 98.6696 174.76L99.5336 174.904C99.811 174.957 99.9496 175.101 99.9496 175.336C99.9496 175.368 99.9496 175.4 99.9496 175.432C99.9496 175.464 99.939 175.501 99.9176 175.544L95.9656 186.696ZM108.338 186.04C108.69 186.04 108.866 186.2 108.866 186.52C108.866 186.84 108.69 187 108.338 187H102.578C102.28 187 102.13 186.904 102.13 186.712C102.13 186.595 102.194 186.472 102.322 186.344C103.357 185.235 104.258 184.152 105.026 183.096C105.794 182.029 106.386 181.048 106.802 180.152C107.229 179.256 107.442 178.515 107.442 177.928C107.442 177.523 107.362 177.144 107.202 176.792C107.053 176.44 106.85 176.157 106.594 175.944C106.338 175.731 106.066 175.624 105.778 175.624C105.192 175.624 104.717 175.971 104.354 176.664C104.002 177.347 103.805 178.339 103.762 179.64C103.741 180.003 103.56 180.184 103.218 180.184H102.226C101.864 180.184 101.693 180.003 101.714 179.64C101.842 176.323 103.197 174.664 105.778 174.664C106.45 174.664 107.064 174.813 107.618 175.112C108.184 175.411 108.637 175.811 108.978 176.312C109.32 176.803 109.49 177.341 109.49 177.928C109.49 178.504 109.298 179.213 108.914 180.056C108.53 180.888 107.981 181.811 107.266 182.824C106.552 183.837 105.693 184.909 104.69 186.04H108.338ZM110.214 184.216C110.193 184.035 110.23 183.901 110.326 183.816C110.422 183.72 110.556 183.672 110.726 183.672H111.718C112.038 183.672 112.22 183.848 112.262 184.2C112.39 185.544 113.068 186.216 114.294 186.216C114.956 186.216 115.425 186.051 115.702 185.72C115.98 185.379 116.118 184.787 116.118 183.944C116.118 183.325 116.044 182.856 115.894 182.536C115.745 182.205 115.489 181.971 115.126 181.832C114.764 181.693 114.262 181.613 113.622 181.592C113.345 181.581 113.174 181.475 113.11 181.272C113.1 181.251 113.094 181.229 113.094 181.208C113.084 181.187 113.078 181.171 113.078 181.16C113.078 181.149 113.078 181.16 113.078 181.192C113.078 181.16 113.078 181.128 113.078 181.096C113.078 181.075 113.078 181.053 113.078 181.032C113.078 181.011 113.084 180.995 113.094 180.984C113.094 180.973 113.094 180.963 113.094 180.952C113.105 180.931 113.11 180.915 113.11 180.904C113.11 180.893 113.116 180.883 113.126 180.872C113.201 180.701 113.366 180.616 113.622 180.616C114.166 180.595 114.604 180.547 114.934 180.472C115.265 180.397 115.516 180.264 115.686 180.072C115.857 179.88 115.969 179.613 116.022 179.272C116.086 178.92 116.118 178.472 116.118 177.928C116.118 177.523 116.038 177.149 115.878 176.808C115.729 176.456 115.526 176.179 115.27 175.976C115.014 175.763 114.742 175.656 114.454 175.656C113.932 175.656 113.484 175.928 113.11 176.472C112.737 177.005 112.513 177.699 112.438 178.552C112.428 178.904 112.252 179.08 111.91 179.08H110.918C110.748 179.08 110.614 179.032 110.518 178.936C110.433 178.84 110.396 178.707 110.406 178.536C110.481 177.757 110.694 177.085 111.046 176.52C111.398 175.944 111.868 175.496 112.454 175.176C113.041 174.856 113.708 174.696 114.454 174.696C115.126 174.696 115.74 174.845 116.294 175.144C116.86 175.432 117.313 175.821 117.654 176.312C117.996 176.803 118.166 177.341 118.166 177.928C118.166 178.781 118.033 179.464 117.766 179.976C117.5 180.488 117.046 180.872 116.406 181.128C117.004 181.384 117.446 181.741 117.734 182.2C118.022 182.648 118.166 183.229 118.166 183.944C118.166 185.011 117.83 185.816 117.158 186.36C116.497 186.904 115.542 187.176 114.294 187.176C113.153 187.176 112.22 186.915 111.494 186.392C110.769 185.869 110.342 185.144 110.214 184.216Z" fill="black"/>
<path d="M151.504 138.88C151.408 139.189 151.2 139.323 150.88 139.28L149.968 139.136C149.68 139.104 149.536 138.96 149.536 138.704C149.536 138.661 149.547 138.597 149.568 138.512L150.496 135.408C150.592 135.099 150.8 134.965 151.12 135.008L152.032 135.152C152.32 135.184 152.464 135.328 152.464 135.584C152.464 135.627 152.453 135.691 152.432 135.776L151.504 138.88ZM146.416 138.56C146.437 138.645 146.448 138.715 146.448 138.768C146.448 139.013 146.304 139.152 146.016 139.184L145.12 139.312C145.099 139.312 145.077 139.317 145.056 139.328C145.035 139.328 145.013 139.328 144.992 139.328C144.736 139.328 144.571 139.195 144.496 138.928L143.488 135.776C143.467 135.691 143.456 135.621 143.456 135.568C143.456 135.323 143.6 135.184 143.888 135.152L144.784 135.024C144.805 135.024 144.827 135.024 144.848 135.024C144.88 135.013 144.901 135.008 144.912 135.008C145.168 135.008 145.333 135.141 145.408 135.408L146.416 138.56ZM145.664 148.256C145.664 148.608 145.488 148.784 145.136 148.784H144.144C143.792 148.784 143.616 148.608 143.616 148.256V140.288C143.616 139.936 143.792 139.76 144.144 139.76H145.136C145.264 139.76 145.371 139.787 145.456 139.84H146.976V139.808V135.616C146.976 135.264 147.152 135.088 147.504 135.088H148.496C148.848 135.088 149.024 135.264 149.024 135.616V139.808V139.84H152C152.352 139.84 152.528 140.016 152.528 140.368V148.144C152.528 148.507 152.347 148.677 151.984 148.656L149.36 148.496C149.04 148.475 148.88 148.336 148.88 148.08C148.88 147.696 149.072 147.515 149.456 147.536L150.48 147.6V146.048H145.664V148.256ZM142.288 137.696C142.405 137.835 142.464 137.952 142.464 138.048C142.464 138.208 142.357 138.336 142.144 138.432L141.68 138.64C141.552 138.693 141.451 138.72 141.376 138.72C141.216 138.72 141.072 138.651 140.944 138.512L139.408 136.928C139.291 136.811 139.232 136.693 139.232 136.576C139.232 136.416 139.339 136.288 139.552 136.192L140.016 135.984C140.144 135.931 140.245 135.904 140.32 135.904C140.48 135.904 140.624 135.973 140.752 136.112L142.288 137.696ZM142.224 141.856C142.363 141.963 142.432 142.085 142.432 142.224C142.432 142.373 142.341 142.496 142.16 142.592L141.792 142.784C141.685 142.848 141.573 142.88 141.456 142.88C141.317 142.88 141.189 142.827 141.072 142.72L139.408 141.328C139.269 141.221 139.2 141.104 139.2 140.976C139.2 140.827 139.296 140.699 139.488 140.592L139.84 140.4C139.904 140.368 139.963 140.341 140.016 140.32C140.069 140.299 140.123 140.288 140.176 140.288C140.293 140.288 140.421 140.347 140.56 140.464L142.224 141.856ZM150.48 140.8H145.664V142.48H150.48V140.8ZM145.664 145.088H150.48V143.44H145.664V145.088ZM141.024 145.024C141.152 144.853 141.301 144.768 141.472 144.768C141.547 144.768 141.632 144.784 141.728 144.816L142.336 145.024C142.56 145.099 142.672 145.227 142.672 145.408C142.672 145.504 142.629 145.611 142.544 145.728L140.704 148.16C140.576 148.331 140.427 148.416 140.256 148.416C140.181 148.416 140.096 148.4 140 148.368L139.392 148.16C139.168 148.075 139.056 147.947 139.056 147.776C139.056 147.68 139.099 147.573 139.184 147.456L141.024 145.024ZM155.76 141.936C155.6 141.968 155.456 141.936 155.328 141.84C155.211 141.733 155.152 141.595 155.152 141.424C155.152 141.168 155.312 140.997 155.632 140.912C156.699 140.645 157.515 140.176 158.08 139.504H155.904C155.723 139.504 155.573 139.445 155.456 139.328C155.339 139.211 155.28 139.072 155.28 138.912C155.28 138.816 155.296 138.731 155.328 138.656L155.904 137.232C156.011 136.976 156.197 136.875 156.464 136.928L157.264 137.072C157.285 137.072 157.307 137.077 157.328 137.088H159.152C159.195 136.875 159.227 136.656 159.248 136.432H155.792C155.643 136.432 155.515 136.389 155.408 136.304C155.301 136.208 155.248 136.091 155.248 135.952C155.248 135.813 155.301 135.701 155.408 135.616C155.515 135.52 155.643 135.472 155.792 135.472H159.312C159.365 135.152 159.547 134.992 159.856 134.992H160.816C160.976 134.992 161.109 135.045 161.216 135.152C161.323 135.248 161.371 135.355 161.36 135.472H162.752C162.773 135.333 162.832 135.221 162.928 135.136C163.035 135.04 163.157 134.992 163.296 134.992H164.256C164.405 134.992 164.533 135.045 164.64 135.152C164.747 135.248 164.8 135.355 164.8 135.472H168.272C168.421 135.472 168.549 135.525 168.656 135.632C168.763 135.739 168.816 135.867 168.816 136.016V137.68C168.816 137.829 168.763 137.957 168.656 138.064C168.549 138.171 168.421 138.224 168.272 138.224H167.312C167.152 138.224 167.019 138.165 166.912 138.048H164.8V138.544H168.384C168.565 138.544 168.709 138.608 168.816 138.736C168.923 138.864 168.965 139.019 168.944 139.2L168.704 140.752C168.683 140.891 168.619 141.003 168.512 141.088C168.405 141.173 168.283 141.211 168.144 141.2L166.016 141.04C165.845 141.019 165.707 140.96 165.6 140.864C165.504 140.768 165.467 140.651 165.488 140.512V140.496C165.509 140.347 165.573 140.235 165.68 140.16C165.787 140.085 165.909 140.053 166.048 140.064L166.736 140.112L166.832 139.504H164.8V140.512C164.8 140.661 164.747 140.789 164.64 140.896C164.533 141.003 164.405 141.056 164.256 141.056H163.296C163.147 141.056 163.019 141.003 162.912 140.896C162.805 140.789 162.752 140.661 162.752 140.512V139.504H160.176C159.632 140.251 158.869 140.843 157.888 141.28H157.952C158.059 141.28 158.155 141.307 158.24 141.36H167.008C167.157 141.36 167.285 141.413 167.392 141.52C167.499 141.627 167.552 141.755 167.552 141.904V146.608C167.552 146.757 167.499 146.885 167.392 146.992C167.285 147.099 167.157 147.152 167.008 147.152H166.048C165.973 147.152 165.899 147.136 165.824 147.104H158.176C158.101 147.136 158.027 147.152 157.952 147.152H156.992C156.843 147.152 156.715 147.099 156.608 146.992C156.501 146.885 156.448 146.757 156.448 146.608V141.824C156.448 141.792 156.448 141.776 156.448 141.776C156.224 141.829 155.995 141.883 155.76 141.936ZM161.184 137.088H162.752V136.432H161.296C161.264 136.656 161.227 136.875 161.184 137.088ZM166.768 136.432H164.8V137.088H166.768V136.432ZM157.424 138.544H158.704C158.779 138.384 158.843 138.219 158.896 138.048H157.616L157.424 138.544ZM160.736 138.544H162.752V138.048H160.944C160.88 138.219 160.811 138.384 160.736 138.544ZM165.504 142.32H158.496V142.912H165.504V142.32ZM158.496 144.544H165.504V143.872H158.496V144.544ZM158.496 146.144H165.504V145.504H158.496V146.144ZM157.728 148.96C157.696 148.971 157.648 148.976 157.584 148.976C157.392 148.976 157.253 148.901 157.168 148.752C157.104 148.656 157.072 148.555 157.072 148.448C157.072 148.203 157.227 148.027 157.536 147.92L159.84 147.248C159.872 147.237 159.92 147.232 159.984 147.232C160.176 147.232 160.315 147.307 160.4 147.456C160.464 147.552 160.496 147.653 160.496 147.76C160.496 148.005 160.341 148.181 160.032 148.288L157.728 148.96ZM166.672 148C166.832 148.043 166.955 148.112 167.04 148.208C167.136 148.315 167.184 148.421 167.184 148.528C167.184 148.581 167.168 148.635 167.136 148.688L167.04 148.832C166.955 148.981 166.816 149.056 166.624 149.056C166.56 149.056 166.512 149.051 166.48 149.04L163.904 148.288C163.744 148.245 163.616 148.171 163.52 148.064C163.435 147.968 163.392 147.867 163.392 147.76C163.392 147.696 163.408 147.643 163.44 147.6L163.536 147.456C163.621 147.307 163.76 147.232 163.952 147.232C164.016 147.232 164.064 147.237 164.096 147.248L166.672 148Z" fill="black"/>
<path d="M37.104 147.04C37.456 147.04 37.632 147.2 37.632 147.52C37.632 147.84 37.456 148 37.104 148H31.344C31.0453 148 30.896 147.904 30.896 147.712C30.896 147.595 30.96 147.472 31.088 147.344C32.1227 146.235 33.024 145.152 33.792 144.096C34.56 143.029 35.152 142.048 35.568 141.152C35.9947 140.256 36.208 139.515 36.208 138.928C36.208 138.523 36.128 138.144 35.968 137.792C35.8187 137.44 35.616 137.157 35.36 136.944C35.104 136.731 34.832 136.624 34.544 136.624C33.9573 136.624 33.4827 136.971 33.12 137.664C32.768 138.347 32.5707 139.339 32.528 140.64C32.5067 141.003 32.3253 141.184 31.984 141.184H30.992C30.6293 141.184 30.4587 141.003 30.48 140.64C30.608 137.323 31.9627 135.664 34.544 135.664C35.216 135.664 35.8293 135.813 36.384 136.112C36.9493 136.411 37.4027 136.811 37.744 137.312C38.0853 137.803 38.256 138.341 38.256 138.928C38.256 139.504 38.064 140.213 37.68 141.056C37.296 141.888 36.7467 142.811 36.032 143.824C35.3173 144.837 34.4587 145.909 33.456 147.04H37.104ZM43.7104 135.68C45.0437 135.68 46.0517 136.187 46.7344 137.2C47.417 138.213 47.7584 139.675 47.7584 141.584C47.7584 143.707 47.3957 145.333 46.6704 146.464C45.9557 147.595 44.8997 148.16 43.5024 148.16C42.1264 148.16 41.065 147.595 40.3184 146.464C39.5824 145.333 39.2144 143.749 39.2144 141.712C39.2144 139.749 39.593 138.256 40.3504 137.232C41.1077 136.197 42.2277 135.68 43.7104 135.68ZM43.7104 136.64C42.9637 136.64 42.3664 137.083 41.9184 137.968C41.481 138.853 41.2624 140.101 41.2624 141.712C41.2624 142.779 41.3637 143.728 41.5664 144.56C41.7797 145.381 42.057 146.027 42.3984 146.496C42.7397 146.965 43.1077 147.2 43.5024 147.2C43.9184 147.2 44.2917 146.965 44.6224 146.496C44.953 146.027 45.2144 145.371 45.4064 144.528C45.609 143.685 45.7104 142.704 45.7104 141.584C45.7104 140.592 45.6197 139.728 45.4384 138.992C45.2677 138.245 45.0277 137.669 44.7184 137.264C44.4197 136.848 44.0837 136.64 43.7104 136.64ZM55.3384 147.04C55.6904 147.04 55.8664 147.2 55.8664 147.52C55.8664 147.84 55.6904 148 55.3384 148H49.5784C49.2797 148 49.1304 147.904 49.1304 147.712C49.1304 147.595 49.1944 147.472 49.3224 147.344C50.357 146.235 51.2584 145.152 52.0264 144.096C52.7944 143.029 53.3864 142.048 53.8024 141.152C54.229 140.256 54.4424 139.515 54.4424 138.928C54.4424 138.523 54.3624 138.144 54.2024 137.792C54.053 137.44 53.8504 137.157 53.5944 136.944C53.3384 136.731 53.0664 136.624 52.7784 136.624C52.1917 136.624 51.717 136.971 51.3544 137.664C51.0024 138.347 50.805 139.339 50.7624 140.64C50.741 141.003 50.5597 141.184 50.2184 141.184H49.2264C48.8637 141.184 48.693 141.003 48.7144 140.64C48.8424 137.323 50.197 135.664 52.7784 135.664C53.4504 135.664 54.0637 135.813 54.6184 136.112C55.1837 136.411 55.637 136.811 55.9784 137.312C56.3197 137.803 56.4904 138.341 56.4904 138.928C56.4904 139.504 56.2984 140.213 55.9144 141.056C55.5304 141.888 54.981 142.811 54.2664 143.824C53.5517 144.837 52.693 145.909 51.6904 147.04H55.3384ZM57.5344 147.504C57.3424 147.419 57.2464 147.301 57.2464 147.152C57.2464 146.992 57.337 146.864 57.5184 146.768L57.8064 146.608C57.9344 146.544 58.0464 146.512 58.1424 146.512C58.281 146.512 58.409 146.549 58.5264 146.624C58.8997 146.837 59.2944 146.992 59.7104 147.088C60.137 147.173 60.5157 147.216 60.8464 147.216C61.4544 147.216 61.945 146.987 62.3184 146.528C62.7024 146.059 62.8944 145.445 62.8944 144.688C62.8944 142.715 62.2064 141.728 60.8304 141.728C60.521 141.728 60.1744 141.776 59.7904 141.872C59.4064 141.957 58.9797 142.091 58.5104 142.272C58.4144 142.304 58.3237 142.32 58.2384 142.32C57.9824 142.32 57.865 142.165 57.8864 141.856L58.0944 136.176C58.105 135.835 58.2864 135.664 58.6384 135.664L59.6304 135.68C59.8117 135.68 59.945 135.733 60.0304 135.84H64.1264C64.4784 135.84 64.6544 136 64.6544 136.32C64.6544 136.64 64.4784 136.8 64.1264 136.8H60.1264L59.9664 140.8C60.1264 140.779 60.281 140.763 60.4304 140.752C60.5904 140.741 60.7397 140.736 60.8784 140.736C61.689 140.736 62.3984 140.891 63.0064 141.2C63.6144 141.509 64.089 141.963 64.4304 142.56C64.7717 143.147 64.9424 143.856 64.9424 144.688C64.9424 145.36 64.761 145.963 64.3984 146.496C64.0464 147.019 63.561 147.429 62.9424 147.728C62.3237 148.027 61.625 148.176 60.8464 148.176C60.505 148.176 60.1317 148.144 59.7264 148.08C59.3317 148.027 58.9424 147.947 58.5584 147.84C58.1744 147.733 57.833 147.621 57.5344 147.504ZM68.6219 147.696C68.5152 147.995 68.3019 148.123 67.9819 148.08L67.1179 147.936C66.8405 147.883 66.7019 147.739 66.7019 147.504C66.7019 147.472 66.7019 147.44 66.7019 147.408C66.7125 147.376 66.7232 147.339 66.7339 147.296L70.6859 136.144C70.7925 135.845 71.0059 135.717 71.3259 135.76L72.1899 135.904C72.4672 135.957 72.6059 136.101 72.6059 136.336C72.6059 136.368 72.6059 136.4 72.6059 136.432C72.6059 136.464 72.5952 136.501 72.5739 136.544L68.6219 147.696ZM78.8666 135.68C80.2 135.68 81.208 136.187 81.8906 137.2C82.5733 138.213 82.9146 139.675 82.9146 141.584C82.9146 143.707 82.552 145.333 81.8266 146.464C81.112 147.595 80.056 148.16 78.6586 148.16C77.2826 148.16 76.2213 147.595 75.4746 146.464C74.7386 145.333 74.3706 143.749 74.3706 141.712C74.3706 139.749 74.7493 138.256 75.5066 137.232C76.264 136.197 77.384 135.68 78.8666 135.68ZM78.8666 136.64C78.12 136.64 77.5226 137.083 77.0746 137.968C76.6373 138.853 76.4186 140.101 76.4186 141.712C76.4186 142.779 76.52 143.728 76.7226 144.56C76.936 145.381 77.2133 146.027 77.5546 146.496C77.896 146.965 78.264 147.2 78.6586 147.2C79.0746 147.2 79.448 146.965 79.7786 146.496C80.1093 146.027 80.3706 145.371 80.5626 144.528C80.7653 143.685 80.8666 142.704 80.8666 141.584C80.8666 140.592 80.776 139.728 80.5946 138.992C80.424 138.245 80.184 137.669 79.8746 137.264C79.576 136.848 79.24 136.64 78.8666 136.64ZM89.9723 147.6C89.9083 147.931 89.7109 148.08 89.3803 148.048L88.4043 147.952C88.0416 147.92 87.8923 147.723 87.9563 147.36L88.6443 143.712C88.2283 143.883 87.7963 143.968 87.3483 143.968C86.1536 143.968 85.2363 143.616 84.5963 142.912C83.9563 142.197 83.6363 141.179 83.6363 139.856C83.6363 139.312 83.7429 138.789 83.9563 138.288C84.1696 137.787 84.4576 137.339 84.8203 136.944C85.1936 136.549 85.6149 136.24 86.0843 136.016C86.5643 135.781 87.0709 135.664 87.6043 135.664C88.4469 135.664 89.1616 135.84 89.7483 136.192C90.3456 136.533 90.7883 137.013 91.0763 137.632C91.3643 138.24 91.4816 138.944 91.4283 139.744C91.4283 139.787 91.4229 139.824 91.4123 139.856C91.4123 139.909 91.4069 139.968 91.3963 140.032L89.9723 147.6ZM85.6843 139.856C85.6843 140.88 85.8336 141.664 86.1323 142.208C86.4309 142.741 86.8363 143.008 87.3483 143.008C87.5723 143.008 87.8123 142.864 88.0683 142.576C88.3349 142.288 88.5856 141.904 88.8203 141.424C89.0549 140.944 89.2363 140.421 89.3643 139.856L89.3803 139.792C89.3909 139.739 89.4016 139.696 89.4123 139.664V139.6C89.4123 139.536 89.4123 139.472 89.4123 139.408C89.4229 139.344 89.4283 139.28 89.4283 139.216C89.4283 138.469 89.2629 137.851 88.9323 137.36C88.6123 136.869 88.1696 136.624 87.6043 136.624C87.3803 136.624 87.1509 136.72 86.9163 136.912C86.6923 137.104 86.4843 137.355 86.2923 137.664C86.1109 137.973 85.9616 138.32 85.8443 138.704C85.7376 139.088 85.6843 139.472 85.6843 139.856ZM95.1219 147.696C95.0152 147.995 94.8019 148.123 94.4819 148.08L93.6179 147.936C93.3405 147.883 93.2019 147.739 93.2019 147.504C93.2019 147.472 93.2019 147.44 93.2019 147.408C93.2125 147.376 93.2232 147.339 93.2339 147.296L97.1859 136.144C97.2925 135.845 97.5059 135.717 97.8259 135.76L98.6899 135.904C98.9672 135.957 99.1059 136.101 99.1059 136.336C99.1059 136.368 99.1059 136.4 99.1059 136.432C99.1059 136.464 99.0952 136.501 99.0739 136.544L95.1219 147.696ZM104.823 147.456C104.823 147.605 104.769 147.733 104.663 147.84C104.556 147.947 104.428 148 104.279 148H103.319C103.169 148 103.041 147.947 102.935 147.84C102.828 147.733 102.775 147.605 102.775 147.456V139.44C102.732 139.461 102.684 139.472 102.631 139.472C102.567 139.472 102.519 139.467 102.487 139.456L101.799 139.28C101.66 139.248 101.548 139.184 101.463 139.088C101.388 138.981 101.351 138.869 101.351 138.752C101.351 138.667 101.377 138.56 101.431 138.432L102.743 136.016C102.849 135.813 103.009 135.728 103.223 135.76L104.359 135.904C104.497 135.915 104.609 135.968 104.695 136.064C104.78 136.16 104.823 136.277 104.823 136.416V147.456ZM112.901 147.04C113.253 147.04 113.429 147.2 113.429 147.52C113.429 147.84 113.253 148 112.901 148H107.141C106.842 148 106.693 147.904 106.693 147.712C106.693 147.595 106.757 147.472 106.885 147.344C107.92 146.235 108.821 145.152 109.589 144.096C110.357 143.029 110.949 142.048 111.365 141.152C111.792 140.256 112.005 139.515 112.005 138.928C112.005 138.523 111.925 138.144 111.765 137.792C111.616 137.44 111.413 137.157 111.157 136.944C110.901 136.731 110.629 136.624 110.341 136.624C109.754 136.624 109.28 136.971 108.917 137.664C108.565 138.347 108.368 139.339 108.325 140.64C108.304 141.003 108.122 141.184 107.781 141.184H106.789C106.426 141.184 106.256 141.003 106.277 140.64C106.405 137.323 107.76 135.664 110.341 135.664C111.013 135.664 111.626 135.813 112.181 136.112C112.746 136.411 113.2 136.811 113.541 137.312C113.882 137.803 114.053 138.341 114.053 138.928C114.053 139.504 113.861 140.213 113.477 141.056C113.093 141.888 112.544 142.811 111.829 143.824C111.114 144.837 110.256 145.909 109.253 147.04H112.901Z" fill="black"/>
<path d="M144.656 104.992C144.656 105.344 144.48 105.52 144.128 105.52H143.136C142.891 105.52 142.731 105.429 142.656 105.248H141.184C141.109 105.429 140.949 105.52 140.704 105.52H139.712C139.36 105.52 139.184 105.344 139.184 104.992V95.472C139.184 95.12 139.36 94.944 139.712 94.944H140.704C140.949 94.944 141.109 95.04 141.184 95.232H144.128C144.48 95.232 144.656 95.408 144.656 95.76V104.992ZM147.12 108.096C147.12 108.448 146.944 108.624 146.592 108.624H145.6C145.248 108.624 145.072 108.448 145.072 108.096V106.912C144.923 106.827 144.848 106.688 144.848 106.496C144.848 106.293 144.923 106.155 145.072 106.08V103.104C145.072 102.752 145.248 102.576 145.6 102.576H146.592C146.731 102.576 146.843 102.608 146.928 102.672H147.936V102.368C147.936 102.272 147.952 102.192 147.984 102.128H145.376C145.024 102.128 144.848 101.968 144.848 101.648C144.848 101.328 145.024 101.168 145.376 101.168H146.064V101.12V99.888H145.888C145.536 99.888 145.36 99.728 145.36 99.408C145.36 99.088 145.536 98.928 145.888 98.928H146.064V97.808H145.632C145.28 97.808 145.104 97.648 145.104 97.328C145.104 97.008 145.28 96.848 145.632 96.848H146.064V95.504C146.064 95.152 146.24 94.976 146.592 94.976H147.584C147.936 94.976 148.112 95.152 148.112 95.504V96.848H149.376V95.504C149.376 95.152 149.552 94.976 149.904 94.976H150.896C151.248 94.976 151.424 95.152 151.424 95.504V96.848H151.968C152.32 96.848 152.496 97.008 152.496 97.328C152.496 97.648 152.32 97.808 151.968 97.808H151.424V98.928H151.712C152.064 98.928 152.24 99.088 152.24 99.408C152.24 99.728 152.064 99.888 151.712 99.888H151.424V101.12V101.168H152.208C152.56 101.168 152.736 101.328 152.736 101.648C152.736 101.968 152.56 102.128 152.208 102.128H149.616C149.648 102.192 149.664 102.272 149.664 102.368V102.672H152.048C152.4 102.672 152.576 102.848 152.576 103.2V106.128C152.683 106.213 152.736 106.336 152.736 106.496C152.736 106.656 152.683 106.779 152.576 106.864V108.32C152.576 108.683 152.395 108.853 152.032 108.832L150.208 108.752C149.877 108.731 149.712 108.587 149.712 108.32C149.712 108.149 149.749 108.016 149.824 107.92C149.909 107.824 150.016 107.781 150.144 107.792L150.528 107.808V106.976H147.12V108.096ZM142.608 96.192H141.232V98.176H142.608V96.192ZM148.112 98.928H149.376V97.808H148.112V98.928ZM141.232 101.264H142.608V99.136H141.232V101.264ZM148.112 101.12V101.168H149.376V101.12V99.888H148.112V101.12ZM141.232 104.288H142.608V102.224H141.232V104.288ZM147.12 104.352H147.952V103.632H147.12V104.352ZM150.528 103.632H149.68V104.352H150.528V103.632ZM147.968 105.968V105.312H147.12V106.016H147.968V105.968ZM149.696 105.968V106.016H150.528V105.312H149.696V105.968ZM141.024 108.4C140.939 108.72 140.731 108.864 140.4 108.832L139.472 108.72C139.184 108.688 139.04 108.544 139.04 108.288C139.04 108.267 139.04 108.24 139.04 108.208C139.04 108.176 139.045 108.144 139.056 108.112L139.536 106.192C139.621 105.872 139.824 105.728 140.144 105.76L141.072 105.872C141.371 105.904 141.52 106.053 141.52 106.32C141.52 106.384 141.515 106.437 141.504 106.48L141.024 108.4ZM144.624 107.536C144.635 107.579 144.64 107.632 144.64 107.696C144.64 107.963 144.491 108.112 144.192 108.144L143.264 108.256C142.944 108.288 142.741 108.144 142.656 107.824L142.32 106.48C142.309 106.437 142.304 106.384 142.304 106.32C142.304 106.053 142.453 105.904 142.752 105.872L143.68 105.76C144 105.728 144.203 105.872 144.288 106.192L144.624 107.536ZM156.4 108.512C156.304 108.608 156.192 108.656 156.064 108.656C156.011 108.656 155.941 108.64 155.856 108.608L155.52 108.448C155.264 108.331 155.136 108.149 155.136 107.904C155.136 107.744 155.205 107.595 155.344 107.456L161.44 101.392L157.008 96.32C156.901 96.2027 156.848 96.064 156.848 95.904C156.848 95.6587 156.976 95.4773 157.232 95.36L157.68 95.168C157.712 95.1467 157.744 95.136 157.776 95.136C157.808 95.136 157.84 95.136 157.872 95.136C158.032 95.136 158.155 95.1947 158.24 95.312L168.864 107.472C168.971 107.589 169.024 107.728 169.024 107.888C169.024 108.133 168.896 108.315 168.64 108.432L168.192 108.624C168.16 108.635 168.128 108.64 168.096 108.64C168.064 108.651 168.032 108.656 168 108.656C167.84 108.656 167.717 108.597 167.632 108.48L162.432 102.512L156.4 108.512Z" fill="black"/>
<path d="M37.104 107.04C37.456 107.04 37.632 107.2 37.632 107.52C37.632 107.84 37.456 108 37.104 108H31.344C31.0453 108 30.896 107.904 30.896 107.712C30.896 107.595 30.96 107.472 31.088 107.344C32.1227 106.235 33.024 105.152 33.792 104.096C34.56 103.029 35.152 102.048 35.568 101.152C35.9947 100.256 36.208 99.5147 36.208 98.928C36.208 98.5227 36.128 98.144 35.968 97.792C35.8187 97.44 35.616 97.1573 35.36 96.944C35.104 96.7307 34.832 96.624 34.544 96.624C33.9573 96.624 33.4827 96.9707 33.12 97.664C32.768 98.3467 32.5707 99.3387 32.528 100.64C32.5067 101.003 32.3253 101.184 31.984 101.184H30.992C30.6293 101.184 30.4587 101.003 30.48 100.64C30.608 97.3227 31.9627 95.664 34.544 95.664C35.216 95.664 35.8293 95.8133 36.384 96.112C36.9493 96.4107 37.4027 96.8107 37.744 97.312C38.0853 97.8027 38.256 98.3413 38.256 98.928C38.256 99.504 38.064 100.213 37.68 101.056C37.296 101.888 36.7467 102.811 36.032 103.824C35.3173 104.837 34.4587 105.909 33.456 107.04H37.104ZM43.7104 95.68C45.0437 95.68 46.0517 96.1867 46.7344 97.2C47.417 98.2133 47.7584 99.6747 47.7584 101.584C47.7584 103.707 47.3957 105.333 46.6704 106.464C45.9557 107.595 44.8997 108.16 43.5024 108.16C42.1264 108.16 41.065 107.595 40.3184 106.464C39.5824 105.333 39.2144 103.749 39.2144 101.712C39.2144 99.7493 39.593 98.256 40.3504 97.232C41.1077 96.1973 42.2277 95.68 43.7104 95.68ZM43.7104 96.64C42.9637 96.64 42.3664 97.0827 41.9184 97.968C41.481 98.8533 41.2624 100.101 41.2624 101.712C41.2624 102.779 41.3637 103.728 41.5664 104.56C41.7797 105.381 42.057 106.027 42.3984 106.496C42.7397 106.965 43.1077 107.2 43.5024 107.2C43.9184 107.2 44.2917 106.965 44.6224 106.496C44.953 106.027 45.2144 105.371 45.4064 104.528C45.609 103.685 45.7104 102.704 45.7104 101.584C45.7104 100.592 45.6197 99.728 45.4384 98.992C45.2677 98.2453 45.0277 97.6693 44.7184 97.264C44.4197 96.848 44.0837 96.64 43.7104 96.64ZM55.3384 107.04C55.6904 107.04 55.8664 107.2 55.8664 107.52C55.8664 107.84 55.6904 108 55.3384 108H49.5784C49.2797 108 49.1304 107.904 49.1304 107.712C49.1304 107.595 49.1944 107.472 49.3224 107.344C50.357 106.235 51.2584 105.152 52.0264 104.096C52.7944 103.029 53.3864 102.048 53.8024 101.152C54.229 100.256 54.4424 99.5147 54.4424 98.928C54.4424 98.5227 54.3624 98.144 54.2024 97.792C54.053 97.44 53.8504 97.1573 53.5944 96.944C53.3384 96.7307 53.0664 96.624 52.7784 96.624C52.1917 96.624 51.717 96.9707 51.3544 97.664C51.0024 98.3467 50.805 99.3387 50.7624 100.64C50.741 101.003 50.5597 101.184 50.2184 101.184H49.2264C48.8637 101.184 48.693 101.003 48.7144 100.64C48.8424 97.3227 50.197 95.664 52.7784 95.664C53.4504 95.664 54.0637 95.8133 54.6184 96.112C55.1837 96.4107 55.637 96.8107 55.9784 97.312C56.3197 97.8027 56.4904 98.3413 56.4904 98.928C56.4904 99.504 56.2984 100.213 55.9144 101.056C55.5304 101.888 54.981 102.811 54.2664 103.824C53.5517 104.837 52.693 105.909 51.6904 107.04H55.3384ZM57.5344 107.504C57.3424 107.419 57.2464 107.301 57.2464 107.152C57.2464 106.992 57.337 106.864 57.5184 106.768L57.8064 106.608C57.9344 106.544 58.0464 106.512 58.1424 106.512C58.281 106.512 58.409 106.549 58.5264 106.624C58.8997 106.837 59.2944 106.992 59.7104 107.088C60.137 107.173 60.5157 107.216 60.8464 107.216C61.4544 107.216 61.945 106.987 62.3184 106.528C62.7024 106.059 62.8944 105.445 62.8944 104.688C62.8944 102.715 62.2064 101.728 60.8304 101.728C60.521 101.728 60.1744 101.776 59.7904 101.872C59.4064 101.957 58.9797 102.091 58.5104 102.272C58.4144 102.304 58.3237 102.32 58.2384 102.32C57.9824 102.32 57.865 102.165 57.8864 101.856L58.0944 96.176C58.105 95.8347 58.2864 95.664 58.6384 95.664L59.6304 95.68C59.8117 95.68 59.945 95.7333 60.0304 95.84H64.1264C64.4784 95.84 64.6544 96 64.6544 96.32C64.6544 96.64 64.4784 96.8 64.1264 96.8H60.1264L59.9664 100.8C60.1264 100.779 60.281 100.763 60.4304 100.752C60.5904 100.741 60.7397 100.736 60.8784 100.736C61.689 100.736 62.3984 100.891 63.0064 101.2C63.6144 101.509 64.089 101.963 64.4304 102.56C64.7717 103.147 64.9424 103.856 64.9424 104.688C64.9424 105.36 64.761 105.963 64.3984 106.496C64.0464 107.019 63.561 107.429 62.9424 107.728C62.3237 108.027 61.625 108.176 60.8464 108.176C60.505 108.176 60.1317 108.144 59.7264 108.08C59.3317 108.027 58.9424 107.947 58.5584 107.84C58.1744 107.733 57.833 107.621 57.5344 107.504ZM68.6219 107.696C68.5152 107.995 68.3019 108.123 67.9819 108.08L67.1179 107.936C66.8405 107.883 66.7019 107.739 66.7019 107.504C66.7019 107.472 66.7019 107.44 66.7019 107.408C66.7125 107.376 66.7232 107.339 66.7339 107.296L70.6859 96.144C70.7925 95.8453 71.0059 95.7173 71.3259 95.76L72.1899 95.904C72.4672 95.9573 72.6059 96.1013 72.6059 96.336C72.6059 96.368 72.6059 96.4 72.6059 96.432C72.6059 96.464 72.5952 96.5013 72.5739 96.544L68.6219 107.696ZM78.8666 95.68C80.2 95.68 81.208 96.1867 81.8906 97.2C82.5733 98.2133 82.9146 99.6747 82.9146 101.584C82.9146 103.707 82.552 105.333 81.8266 106.464C81.112 107.595 80.056 108.16 78.6586 108.16C77.2826 108.16 76.2213 107.595 75.4746 106.464C74.7386 105.333 74.3706 103.749 74.3706 101.712C74.3706 99.7493 74.7493 98.256 75.5066 97.232C76.264 96.1973 77.384 95.68 78.8666 95.68ZM78.8666 96.64C78.12 96.64 77.5226 97.0827 77.0746 97.968C76.6373 98.8533 76.4186 100.101 76.4186 101.712C76.4186 102.779 76.52 103.728 76.7226 104.56C76.936 105.381 77.2133 106.027 77.5546 106.496C77.896 106.965 78.264 107.2 78.6586 107.2C79.0746 107.2 79.448 106.965 79.7786 106.496C80.1093 106.027 80.3706 105.371 80.5626 104.528C80.7653 103.685 80.8666 102.704 80.8666 101.584C80.8666 100.592 80.776 99.728 80.5946 98.992C80.424 98.2453 80.184 97.6693 79.8746 97.264C79.576 96.848 79.24 96.64 78.8666 96.64ZM89.9723 107.6C89.9083 107.931 89.7109 108.08 89.3803 108.048L88.4043 107.952C88.0416 107.92 87.8923 107.723 87.9563 107.36L88.6443 103.712C88.2283 103.883 87.7963 103.968 87.3483 103.968C86.1536 103.968 85.2363 103.616 84.5963 102.912C83.9563 102.197 83.6363 101.179 83.6363 99.856C83.6363 99.312 83.7429 98.7893 83.9563 98.288C84.1696 97.7867 84.4576 97.3387 84.8203 96.944C85.1936 96.5493 85.6149 96.24 86.0843 96.016C86.5643 95.7813 87.0709 95.664 87.6043 95.664C88.4469 95.664 89.1616 95.84 89.7483 96.192C90.3456 96.5333 90.7883 97.0133 91.0763 97.632C91.3643 98.24 91.4816 98.944 91.4283 99.744C91.4283 99.7867 91.4229 99.824 91.4123 99.856C91.4123 99.9093 91.4069 99.968 91.3963 100.032L89.9723 107.6ZM85.6843 99.856C85.6843 100.88 85.8336 101.664 86.1323 102.208C86.4309 102.741 86.8363 103.008 87.3483 103.008C87.5723 103.008 87.8123 102.864 88.0683 102.576C88.3349 102.288 88.5856 101.904 88.8203 101.424C89.0549 100.944 89.2363 100.421 89.3643 99.856L89.3803 99.792C89.3909 99.7387 89.4016 99.696 89.4123 99.664V99.6C89.4123 99.536 89.4123 99.472 89.4123 99.408C89.4229 99.344 89.4283 99.28 89.4283 99.216C89.4283 98.4693 89.2629 97.8507 88.9323 97.36C88.6123 96.8693 88.1696 96.624 87.6043 96.624C87.3803 96.624 87.1509 96.72 86.9163 96.912C86.6923 97.104 86.4843 97.3547 86.2923 97.664C86.1109 97.9733 85.9616 98.32 85.8443 98.704C85.7376 99.088 85.6843 99.472 85.6843 99.856ZM95.1219 107.696C95.0152 107.995 94.8019 108.123 94.4819 108.08L93.6179 107.936C93.3405 107.883 93.2019 107.739 93.2019 107.504C93.2019 107.472 93.2019 107.44 93.2019 107.408C93.2125 107.376 93.2232 107.339 93.2339 107.296L97.1859 96.144C97.2925 95.8453 97.5059 95.7173 97.8259 95.76L98.6899 95.904C98.9672 95.9573 99.1059 96.1013 99.1059 96.336C99.1059 96.368 99.1059 96.4 99.1059 96.432C99.1059 96.464 99.0952 96.5013 99.0739 96.544L95.1219 107.696ZM104.823 107.456C104.823 107.605 104.769 107.733 104.663 107.84C104.556 107.947 104.428 108 104.279 108H103.319C103.169 108 103.041 107.947 102.935 107.84C102.828 107.733 102.775 107.605 102.775 107.456V99.44C102.732 99.4613 102.684 99.472 102.631 99.472C102.567 99.472 102.519 99.4667 102.487 99.456L101.799 99.28C101.66 99.248 101.548 99.184 101.463 99.088C101.388 98.9813 101.351 98.8693 101.351 98.752C101.351 98.6667 101.377 98.56 101.431 98.432L102.743 96.016C102.849 95.8133 103.009 95.728 103.223 95.76L104.359 95.904C104.497 95.9147 104.609 95.968 104.695 96.064C104.78 96.16 104.823 96.2773 104.823 96.416V107.456ZM113.493 107.472C113.493 107.824 113.317 108 112.965 108H111.973C111.621 108 111.445 107.824 111.445 107.472V106.032H106.933C106.549 106.032 106.389 105.845 106.453 105.472L107.893 96.416C107.946 96.0853 108.144 95.936 108.485 95.968L109.445 96.032C109.808 96.064 109.962 96.2613 109.909 96.624L108.565 105.072H111.445V96.368C111.445 96.016 111.621 95.84 111.973 95.84H112.965C113.317 95.84 113.493 96.016 113.493 96.368V105.072H114.501C114.853 105.072 115.029 105.232 115.029 105.552C115.029 105.872 114.853 106.032 114.501 106.032H113.493V107.472Z" fill="black"/>
<path d="M151.504 59.88C151.408 60.1893 151.2 60.3227 150.88 60.28L149.968 60.136C149.68 60.104 149.536 59.96 149.536 59.704C149.536 59.6613 149.547 59.5973 149.568 59.512L150.496 56.408C150.592 56.0987 150.8 55.9653 151.12 56.008L152.032 56.152C152.32 56.184 152.464 56.328 152.464 56.584C152.464 56.6267 152.453 56.6907 152.432 56.776L151.504 59.88ZM146.416 59.56C146.437 59.6453 146.448 59.7147 146.448 59.768C146.448 60.0133 146.304 60.152 146.016 60.184L145.12 60.312C145.099 60.312 145.077 60.3173 145.056 60.328C145.035 60.328 145.013 60.328 144.992 60.328C144.736 60.328 144.571 60.1947 144.496 59.928L143.488 56.776C143.467 56.6907 143.456 56.6213 143.456 56.568C143.456 56.3227 143.6 56.184 143.888 56.152L144.784 56.024C144.805 56.024 144.827 56.024 144.848 56.024C144.88 56.0133 144.901 56.008 144.912 56.008C145.168 56.008 145.333 56.1413 145.408 56.408L146.416 59.56ZM145.664 69.256C145.664 69.608 145.488 69.784 145.136 69.784H144.144C143.792 69.784 143.616 69.608 143.616 69.256V61.288C143.616 60.936 143.792 60.76 144.144 60.76H145.136C145.264 60.76 145.371 60.7867 145.456 60.84H146.976V60.808V56.616C146.976 56.264 147.152 56.088 147.504 56.088H148.496C148.848 56.088 149.024 56.264 149.024 56.616V60.808V60.84H152C152.352 60.84 152.528 61.016 152.528 61.368V69.144C152.528 69.5067 152.347 69.6773 151.984 69.656L149.36 69.496C149.04 69.4747 148.88 69.336 148.88 69.08C148.88 68.696 149.072 68.5147 149.456 68.536L150.48 68.6V67.048H145.664V69.256ZM142.288 58.696C142.405 58.8347 142.464 58.952 142.464 59.048C142.464 59.208 142.357 59.336 142.144 59.432L141.68 59.64C141.552 59.6933 141.451 59.72 141.376 59.72C141.216 59.72 141.072 59.6507 140.944 59.512L139.408 57.928C139.291 57.8107 139.232 57.6933 139.232 57.576C139.232 57.416 139.339 57.288 139.552 57.192L140.016 56.984C140.144 56.9307 140.245 56.904 140.32 56.904C140.48 56.904 140.624 56.9733 140.752 57.112L142.288 58.696ZM142.224 62.856C142.363 62.9627 142.432 63.0853 142.432 63.224C142.432 63.3733 142.341 63.496 142.16 63.592L141.792 63.784C141.685 63.848 141.573 63.88 141.456 63.88C141.317 63.88 141.189 63.8267 141.072 63.72L139.408 62.328C139.269 62.2213 139.2 62.104 139.2 61.976C139.2 61.8267 139.296 61.6987 139.488 61.592L139.84 61.4C139.904 61.368 139.963 61.3413 140.016 61.32C140.069 61.2987 140.123 61.288 140.176 61.288C140.293 61.288 140.421 61.3467 140.56 61.464L142.224 62.856ZM150.48 61.8H145.664V63.48H150.48V61.8ZM145.664 66.088H150.48V64.44H145.664V66.088ZM141.024 66.024C141.152 65.8533 141.301 65.768 141.472 65.768C141.547 65.768 141.632 65.784 141.728 65.816L142.336 66.024C142.56 66.0987 142.672 66.2267 142.672 66.408C142.672 66.504 142.629 66.6107 142.544 66.728L140.704 69.16C140.576 69.3307 140.427 69.416 140.256 69.416C140.181 69.416 140.096 69.4 140 69.368L139.392 69.16C139.168 69.0747 139.056 68.9467 139.056 68.776C139.056 68.68 139.099 68.5733 139.184 68.456L141.024 66.024ZM155.76 62.936C155.6 62.968 155.456 62.936 155.328 62.84C155.211 62.7333 155.152 62.5947 155.152 62.424C155.152 62.168 155.312 61.9973 155.632 61.912C156.699 61.6453 157.515 61.176 158.08 60.504H155.904C155.723 60.504 155.573 60.4453 155.456 60.328C155.339 60.2107 155.28 60.072 155.28 59.912C155.28 59.816 155.296 59.7307 155.328 59.656L155.904 58.232C156.011 57.976 156.197 57.8747 156.464 57.928L157.264 58.072C157.285 58.072 157.307 58.0773 157.328 58.088H159.152C159.195 57.8747 159.227 57.656 159.248 57.432H155.792C155.643 57.432 155.515 57.3893 155.408 57.304C155.301 57.208 155.248 57.0907 155.248 56.952C155.248 56.8133 155.301 56.7013 155.408 56.616C155.515 56.52 155.643 56.472 155.792 56.472H159.312C159.365 56.152 159.547 55.992 159.856 55.992H160.816C160.976 55.992 161.109 56.0453 161.216 56.152C161.323 56.248 161.371 56.3547 161.36 56.472H162.752C162.773 56.3333 162.832 56.2213 162.928 56.136C163.035 56.04 163.157 55.992 163.296 55.992H164.256C164.405 55.992 164.533 56.0453 164.64 56.152C164.747 56.248 164.8 56.3547 164.8 56.472H168.272C168.421 56.472 168.549 56.5253 168.656 56.632C168.763 56.7387 168.816 56.8667 168.816 57.016V58.68C168.816 58.8293 168.763 58.9573 168.656 59.064C168.549 59.1707 168.421 59.224 168.272 59.224H167.312C167.152 59.224 167.019 59.1653 166.912 59.048H164.8V59.544H168.384C168.565 59.544 168.709 59.608 168.816 59.736C168.923 59.864 168.965 60.0187 168.944 60.2L168.704 61.752C168.683 61.8907 168.619 62.0027 168.512 62.088C168.405 62.1733 168.283 62.2107 168.144 62.2L166.016 62.04C165.845 62.0187 165.707 61.96 165.6 61.864C165.504 61.768 165.467 61.6507 165.488 61.512V61.496C165.509 61.3467 165.573 61.2347 165.68 61.16C165.787 61.0853 165.909 61.0533 166.048 61.064L166.736 61.112L166.832 60.504H164.8V61.512C164.8 61.6613 164.747 61.7893 164.64 61.896C164.533 62.0027 164.405 62.056 164.256 62.056H163.296C163.147 62.056 163.019 62.0027 162.912 61.896C162.805 61.7893 162.752 61.6613 162.752 61.512V60.504H160.176C159.632 61.2507 158.869 61.8427 157.888 62.28H157.952C158.059 62.28 158.155 62.3067 158.24 62.36H167.008C167.157 62.36 167.285 62.4133 167.392 62.52C167.499 62.6267 167.552 62.7547 167.552 62.904V67.608C167.552 67.7573 167.499 67.8853 167.392 67.992C167.285 68.0987 167.157 68.152 167.008 68.152H166.048C165.973 68.152 165.899 68.136 165.824 68.104H158.176C158.101 68.136 158.027 68.152 157.952 68.152H156.992C156.843 68.152 156.715 68.0987 156.608 67.992C156.501 67.8853 156.448 67.7573 156.448 67.608V62.824C156.448 62.792 156.448 62.776 156.448 62.776C156.224 62.8293 155.995 62.8827 155.76 62.936ZM161.184 58.088H162.752V57.432H161.296C161.264 57.656 161.227 57.8747 161.184 58.088ZM166.768 57.432H164.8V58.088H166.768V57.432ZM157.424 59.544H158.704C158.779 59.384 158.843 59.2187 158.896 59.048H157.616L157.424 59.544ZM160.736 59.544H162.752V59.048H160.944C160.88 59.2187 160.811 59.384 160.736 59.544ZM165.504 63.32H158.496V63.912H165.504V63.32ZM158.496 65.544H165.504V64.872H158.496V65.544ZM158.496 67.144H165.504V66.504H158.496V67.144ZM157.728 69.96C157.696 69.9707 157.648 69.976 157.584 69.976C157.392 69.976 157.253 69.9013 157.168 69.752C157.104 69.656 157.072 69.5547 157.072 69.448C157.072 69.2027 157.227 69.0267 157.536 68.92L159.84 68.248C159.872 68.2373 159.92 68.232 159.984 68.232C160.176 68.232 160.315 68.3067 160.4 68.456C160.464 68.552 160.496 68.6533 160.496 68.76C160.496 69.0053 160.341 69.1813 160.032 69.288L157.728 69.96ZM166.672 69C166.832 69.0427 166.955 69.112 167.04 69.208C167.136 69.3147 167.184 69.4213 167.184 69.528C167.184 69.5813 167.168 69.6347 167.136 69.688L167.04 69.832C166.955 69.9813 166.816 70.056 166.624 70.056C166.56 70.056 166.512 70.0507 166.48 70.04L163.904 69.288C163.744 69.2453 163.616 69.1707 163.52 69.064C163.435 68.968 163.392 68.8667 163.392 68.76C163.392 68.696 163.408 68.6427 163.44 68.6L163.536 68.456C163.621 68.3067 163.76 68.232 163.952 68.232C164.016 68.232 164.064 68.2373 164.096 68.248L166.672 69Z" fill="black"/>
<path d="M37.104 68.04C37.456 68.04 37.632 68.2 37.632 68.52C37.632 68.84 37.456 69 37.104 69H31.344C31.0453 69 30.896 68.904 30.896 68.712C30.896 68.5947 30.96 68.472 31.088 68.344C32.1227 67.2347 33.024 66.152 33.792 65.096C34.56 64.0293 35.152 63.048 35.568 62.152C35.9947 61.256 36.208 60.5147 36.208 59.928C36.208 59.5227 36.128 59.144 35.968 58.792C35.8187 58.44 35.616 58.1573 35.36 57.944C35.104 57.7307 34.832 57.624 34.544 57.624C33.9573 57.624 33.4827 57.9707 33.12 58.664C32.768 59.3467 32.5707 60.3387 32.528 61.64C32.5067 62.0027 32.3253 62.184 31.984 62.184H30.992C30.6293 62.184 30.4587 62.0027 30.48 61.64C30.608 58.3227 31.9627 56.664 34.544 56.664C35.216 56.664 35.8293 56.8133 36.384 57.112C36.9493 57.4107 37.4027 57.8107 37.744 58.312C38.0853 58.8027 38.256 59.3413 38.256 59.928C38.256 60.504 38.064 61.2133 37.68 62.056C37.296 62.888 36.7467 63.8107 36.032 64.824C35.3173 65.8373 34.4587 66.9093 33.456 68.04H37.104ZM43.7104 56.68C45.0437 56.68 46.0517 57.1867 46.7344 58.2C47.417 59.2133 47.7584 60.6747 47.7584 62.584C47.7584 64.7067 47.3957 66.3333 46.6704 67.464C45.9557 68.5947 44.8997 69.16 43.5024 69.16C42.1264 69.16 41.065 68.5947 40.3184 67.464C39.5824 66.3333 39.2144 64.7493 39.2144 62.712C39.2144 60.7493 39.593 59.256 40.3504 58.232C41.1077 57.1973 42.2277 56.68 43.7104 56.68ZM43.7104 57.64C42.9637 57.64 42.3664 58.0827 41.9184 58.968C41.481 59.8533 41.2624 61.1013 41.2624 62.712C41.2624 63.7787 41.3637 64.728 41.5664 65.56C41.7797 66.3813 42.057 67.0267 42.3984 67.496C42.7397 67.9653 43.1077 68.2 43.5024 68.2C43.9184 68.2 44.2917 67.9653 44.6224 67.496C44.953 67.0267 45.2144 66.3707 45.4064 65.528C45.609 64.6853 45.7104 63.704 45.7104 62.584C45.7104 61.592 45.6197 60.728 45.4384 59.992C45.2677 59.2453 45.0277 58.6693 44.7184 58.264C44.4197 57.848 44.0837 57.64 43.7104 57.64ZM55.3384 68.04C55.6904 68.04 55.8664 68.2 55.8664 68.52C55.8664 68.84 55.6904 69 55.3384 69H49.5784C49.2797 69 49.1304 68.904 49.1304 68.712C49.1304 68.5947 49.1944 68.472 49.3224 68.344C50.357 67.2347 51.2584 66.152 52.0264 65.096C52.7944 64.0293 53.3864 63.048 53.8024 62.152C54.229 61.256 54.4424 60.5147 54.4424 59.928C54.4424 59.5227 54.3624 59.144 54.2024 58.792C54.053 58.44 53.8504 58.1573 53.5944 57.944C53.3384 57.7307 53.0664 57.624 52.7784 57.624C52.1917 57.624 51.717 57.9707 51.3544 58.664C51.0024 59.3467 50.805 60.3387 50.7624 61.64C50.741 62.0027 50.5597 62.184 50.2184 62.184H49.2264C48.8637 62.184 48.693 62.0027 48.7144 61.64C48.8424 58.3227 50.197 56.664 52.7784 56.664C53.4504 56.664 54.0637 56.8133 54.6184 57.112C55.1837 57.4107 55.637 57.8107 55.9784 58.312C56.3197 58.8027 56.4904 59.3413 56.4904 59.928C56.4904 60.504 56.2984 61.2133 55.9144 62.056C55.5304 62.888 54.981 63.8107 54.2664 64.824C53.5517 65.8373 52.693 66.9093 51.6904 68.04H55.3384ZM57.5344 68.504C57.3424 68.4187 57.2464 68.3013 57.2464 68.152C57.2464 67.992 57.337 67.864 57.5184 67.768L57.8064 67.608C57.9344 67.544 58.0464 67.512 58.1424 67.512C58.281 67.512 58.409 67.5493 58.5264 67.624C58.8997 67.8373 59.2944 67.992 59.7104 68.088C60.137 68.1733 60.5157 68.216 60.8464 68.216C61.4544 68.216 61.945 67.9867 62.3184 67.528C62.7024 67.0587 62.8944 66.4453 62.8944 65.688C62.8944 63.7147 62.2064 62.728 60.8304 62.728C60.521 62.728 60.1744 62.776 59.7904 62.872C59.4064 62.9573 58.9797 63.0907 58.5104 63.272C58.4144 63.304 58.3237 63.32 58.2384 63.32C57.9824 63.32 57.865 63.1653 57.8864 62.856L58.0944 57.176C58.105 56.8347 58.2864 56.664 58.6384 56.664L59.6304 56.68C59.8117 56.68 59.945 56.7333 60.0304 56.84H64.1264C64.4784 56.84 64.6544 57 64.6544 57.32C64.6544 57.64 64.4784 57.8 64.1264 57.8H60.1264L59.9664 61.8C60.1264 61.7787 60.281 61.7627 60.4304 61.752C60.5904 61.7413 60.7397 61.736 60.8784 61.736C61.689 61.736 62.3984 61.8907 63.0064 62.2C63.6144 62.5093 64.089 62.9627 64.4304 63.56C64.7717 64.1467 64.9424 64.856 64.9424 65.688C64.9424 66.36 64.761 66.9627 64.3984 67.496C64.0464 68.0187 63.561 68.4293 62.9424 68.728C62.3237 69.0267 61.625 69.176 60.8464 69.176C60.505 69.176 60.1317 69.144 59.7264 69.08C59.3317 69.0267 58.9424 68.9467 58.5584 68.84C58.1744 68.7333 57.833 68.6213 57.5344 68.504ZM68.6219 68.696C68.5152 68.9947 68.3019 69.1227 67.9819 69.08L67.1179 68.936C66.8405 68.8827 66.7019 68.7387 66.7019 68.504C66.7019 68.472 66.7019 68.44 66.7019 68.408C66.7125 68.376 66.7232 68.3387 66.7339 68.296L70.6859 57.144C70.7925 56.8453 71.0059 56.7173 71.3259 56.76L72.1899 56.904C72.4672 56.9573 72.6059 57.1013 72.6059 57.336C72.6059 57.368 72.6059 57.4 72.6059 57.432C72.6059 57.464 72.5952 57.5013 72.5739 57.544L68.6219 68.696ZM78.3226 68.456C78.3226 68.6053 78.2693 68.7333 78.1626 68.84C78.056 68.9467 77.928 69 77.7786 69H76.8186C76.6693 69 76.5413 68.9467 76.4346 68.84C76.328 68.7333 76.2746 68.6053 76.2746 68.456V60.44C76.232 60.4613 76.184 60.472 76.1306 60.472C76.0666 60.472 76.0186 60.4667 75.9866 60.456L75.2986 60.28C75.16 60.248 75.048 60.184 74.9626 60.088C74.888 59.9813 74.8506 59.8693 74.8506 59.752C74.8506 59.6667 74.8773 59.56 74.9306 59.432L76.2426 57.016C76.3493 56.8133 76.5093 56.728 76.7226 56.76L77.8586 56.904C77.9973 56.9147 78.1093 56.968 78.1946 57.064C78.28 57.16 78.3226 57.2773 78.3226 57.416V68.456ZM84.5073 56.68C85.8406 56.68 86.8486 57.1867 87.5312 58.2C88.2139 59.2133 88.5553 60.6747 88.5553 62.584C88.5553 64.7067 88.1926 66.3333 87.4673 67.464C86.7526 68.5947 85.6966 69.16 84.2993 69.16C82.9233 69.16 81.8619 68.5947 81.1153 67.464C80.3793 66.3333 80.0113 64.7493 80.0113 62.712C80.0113 60.7493 80.3899 59.256 81.1473 58.232C81.9046 57.1973 83.0246 56.68 84.5073 56.68ZM84.5073 57.64C83.7606 57.64 83.1633 58.0827 82.7153 58.968C82.2779 59.8533 82.0593 61.1013 82.0593 62.712C82.0593 63.7787 82.1606 64.728 82.3633 65.56C82.5766 66.3813 82.8539 67.0267 83.1953 67.496C83.5366 67.9653 83.9046 68.2 84.2993 68.2C84.7153 68.2 85.0886 67.9653 85.4193 67.496C85.7499 67.0267 86.0113 66.3707 86.2033 65.528C86.4059 64.6853 86.5073 63.704 86.5073 62.584C86.5073 61.592 86.4166 60.728 86.2353 59.992C86.0646 59.2453 85.8246 58.6693 85.5153 58.264C85.2166 57.848 84.8806 57.64 84.5073 57.64ZM92.2313 68.696C92.1246 68.9947 91.9113 69.1227 91.5913 69.08L90.7273 68.936C90.4499 68.8827 90.3113 68.7387 90.3113 68.504C90.3113 68.472 90.3113 68.44 90.3113 68.408C90.3219 68.376 90.3326 68.3387 90.3433 68.296L94.2953 57.144C94.4019 56.8453 94.6153 56.7173 94.9353 56.76L95.7993 56.904C96.0766 56.9573 96.2153 57.1013 96.2153 57.336C96.2153 57.368 96.2153 57.4 96.2153 57.432C96.2153 57.464 96.2046 57.5013 96.1833 57.544L92.2313 68.696ZM102.476 56.68C103.809 56.68 104.817 57.1867 105.5 58.2C106.183 59.2133 106.524 60.6747 106.524 62.584C106.524 64.7067 106.161 66.3333 105.436 67.464C104.721 68.5947 103.665 69.16 102.268 69.16C100.892 69.16 99.8307 68.5947 99.084 67.464C98.348 66.3333 97.98 64.7493 97.98 62.712C97.98 60.7493 98.3587 59.256 99.116 58.232C99.8733 57.1973 100.993 56.68 102.476 56.68ZM102.476 57.64C101.729 57.64 101.132 58.0827 100.684 58.968C100.247 59.8533 100.028 61.1013 100.028 62.712C100.028 63.7787 100.129 64.728 100.332 65.56C100.545 66.3813 100.823 67.0267 101.164 67.496C101.505 67.9653 101.873 68.2 102.268 68.2C102.684 68.2 103.057 67.9653 103.388 67.496C103.719 67.0267 103.98 66.3707 104.172 65.528C104.375 64.6853 104.476 63.704 104.476 62.584C104.476 61.592 104.385 60.728 104.204 59.992C104.033 59.2453 103.793 58.6693 103.484 58.264C103.185 57.848 102.849 57.64 102.476 57.64ZM114.212 68.472C114.212 68.824 114.036 69 113.684 69H112.692C112.34 69 112.164 68.824 112.164 68.472V67.032H107.652C107.268 67.032 107.108 66.8453 107.172 66.472L108.612 57.416C108.665 57.0853 108.862 56.936 109.204 56.968L110.164 57.032C110.526 57.064 110.681 57.2613 110.628 57.624L109.284 66.072H112.164V57.368C112.164 57.016 112.34 56.84 112.692 56.84H113.684C114.036 56.84 114.212 57.016 114.212 57.368V66.072H115.22C115.572 66.072 115.748 66.232 115.748 66.552C115.748 66.872 115.572 67.032 115.22 67.032H114.212V68.472Z" fill="black"/>
<path d="M22.98 36.28C22.82 36.4533 22.64 36.54 22.44 36.54C22.3467 36.54 22.22 36.5067 22.06 36.44L21.48 36.18C21.2133 36.06 21.08 35.9 21.08 35.7C21.08 35.58 21.1533 35.4333 21.3 35.26L32.44 23.86H21.08C20.64 23.86 20.42 23.66 20.42 23.26C20.42 22.86 20.64 22.66 21.08 22.66H35.14C35.5133 22.66 35.7 22.7867 35.7 23.04C35.7 23.16 35.6267 23.3067 35.48 23.48L29.4 29.72L35.76 35.26C35.92 35.3933 36 35.54 36 35.7C36 35.8733 35.8867 36.0333 35.66 36.18L35.2 36.44C35.12 36.48 35.04 36.5133 34.96 36.54C34.8933 36.5667 34.8267 36.58 34.76 36.58C34.6133 36.58 34.4533 36.5067 34.28 36.36L28.12 31L22.98 36.28ZM43.1584 36.18C43.1584 36.62 42.9384 36.84 42.4984 36.84H41.2584C40.8184 36.84 40.5984 36.62 40.5984 36.18V22.28C40.5984 21.84 40.8184 21.62 41.2584 21.62H42.4984C42.9384 21.62 43.1584 21.84 43.1584 22.28V27.96L50.3984 30.3C50.7051 30.4067 50.8584 30.5667 50.8584 30.78C50.8584 30.8867 50.8184 31 50.7384 31.12L50.6584 31.22C50.5118 31.4467 50.3184 31.56 50.0784 31.56C50.0384 31.56 49.9918 31.56 49.9384 31.56C49.8984 31.5467 49.8518 31.5333 49.7984 31.52L43.1584 29.38V36.18ZM60.0208 29.6C60.0341 29.64 60.0408 29.6933 60.0408 29.76C60.0408 30.1067 59.8408 30.3 59.4408 30.34L58.2408 30.44C57.8274 30.48 57.5808 30.2867 57.5008 29.86L56.9608 26.78C56.9474 26.74 56.9408 26.6867 56.9408 26.62C56.9408 26.2733 57.1408 26.08 57.5408 26.04L58.7408 25.94C59.1541 25.9 59.4008 26.0933 59.4808 26.52L60.0208 29.6ZM56.7408 30.1C56.7541 30.1533 56.7608 30.2267 56.7608 30.32C56.7608 30.64 56.5808 30.82 56.2208 30.86L55.0608 31C54.6474 31.04 54.3874 30.86 54.2808 30.46L53.5208 27.38C53.5074 27.34 53.5008 27.3 53.5008 27.26C53.5008 27.22 53.5008 27.1867 53.5008 27.16C53.5008 26.84 53.6808 26.66 54.0408 26.62L55.2008 26.48C55.6008 26.44 55.8541 26.62 55.9608 27.02L56.7408 30.1ZM61.0808 36.18C60.9474 36.4733 60.7341 36.62 60.4408 36.62C60.4141 36.62 60.3808 36.62 60.3408 36.62C60.3008 36.62 60.2674 36.6133 60.2408 36.6L59.2208 36.36C58.9008 36.28 58.7408 36.1133 58.7408 35.86C58.7408 35.74 58.7674 35.6267 58.8208 35.52L62.8608 27.18C62.9941 26.8867 63.2074 26.74 63.5008 26.74C63.5274 26.74 63.5608 26.74 63.6008 26.74C63.6408 26.74 63.6741 26.7467 63.7008 26.76L64.7208 27C65.0408 27.08 65.2008 27.2467 65.2008 27.5C65.2008 27.62 65.1741 27.7333 65.1208 27.84L61.0808 36.18ZM70.0581 29.62C69.8981 29.86 69.7048 29.98 69.4781 29.98C69.3848 29.98 69.2848 29.96 69.1781 29.92L68.3581 29.66C68.0515 29.5533 67.8981 29.3867 67.8981 29.16C67.8981 29.04 67.9448 28.9133 68.0381 28.78L72.6781 21.76C72.8381 21.52 73.0315 21.4 73.2581 21.4C73.3648 21.4 73.4648 21.42 73.5581 21.46L74.3781 21.72C74.6848 21.8267 74.8381 21.9933 74.8381 22.22C74.8381 22.3267 74.7915 22.4533 74.6981 22.6L74.6181 22.72H83.8381C84.2115 22.72 84.3981 22.86 84.3981 23.14C84.3981 23.2467 84.3581 23.3733 84.2781 23.52L76.2781 36.38C76.1181 36.6333 75.9181 36.76 75.6781 36.76C75.6115 36.76 75.5248 36.7467 75.4181 36.72L74.5581 36.46C74.2515 36.3533 74.0981 36.1867 74.0981 35.96C74.0981 35.8533 74.1381 35.7333 74.2181 35.6L81.4581 23.92H73.8181L70.0581 29.62ZM89.4369 36.46C89.4235 36.8867 89.1969 37.1 88.7569 37.1L87.5369 37.08C87.3235 37.08 87.1569 37.02 87.0369 36.9C86.9169 36.78 86.8635 36.6133 86.8769 36.4L87.5569 21.28C87.5569 21.1733 87.5769 21.0867 87.6169 21.02C87.5902 20.9533 87.5769 20.88 87.5769 20.8C87.5769 20.4 87.7969 20.2 88.2369 20.2H103.337C103.777 20.2 103.997 20.42 103.997 20.86V24.52C103.997 24.96 103.777 25.18 103.337 25.18H102.097C101.844 25.18 101.664 25.1 101.557 24.94H94.0169L94.0569 24.96L94.6569 25.22C94.8969 25.34 95.0169 25.5 95.0169 25.7C95.0169 25.86 94.9502 26.0067 94.8169 26.14L91.8369 29.28C91.6769 29.4533 91.4969 29.54 91.2969 29.54C91.2035 29.54 91.0769 29.5067 90.9169 29.44L90.3169 29.18C90.0635 29.06 89.9369 28.9 89.9369 28.7C89.9369 28.5533 90.0102 28.4067 90.1569 28.26L93.1369 25.12C93.2035 25.04 93.2769 24.98 93.3569 24.94H89.9569L89.4369 36.46ZM101.437 21.4H90.1169L90.0169 23.74H101.437V21.4ZM91.3969 33.08C91.2502 33.2133 91.0902 33.28 90.9169 33.28C90.7835 33.28 90.6435 33.24 90.4969 33.16L90.0569 32.92C89.8169 32.7733 89.6969 32.6133 89.6969 32.44C89.6969 32.28 89.7835 32.1333 89.9569 32L93.8169 28.8C93.9635 28.6667 94.1235 28.6 94.2969 28.6C94.4035 28.6 94.5035 28.62 94.5969 28.66C94.5969 28.6467 94.6035 28.6267 94.6169 28.6L95.8169 25.42C95.9635 25.0333 96.2369 24.88 96.6369 24.96L97.7169 25.16C98.0635 25.2267 98.2369 25.4 98.2369 25.68C98.2369 25.7733 98.2169 25.8733 98.1769 25.98L97.9969 26.44H103.457C103.897 26.44 104.117 26.64 104.117 27.04C104.117 27.44 103.897 27.64 103.457 27.64H97.7569C97.6902 27.64 97.6235 27.6333 97.5569 27.62L97.3369 28.2C97.4435 28.12 97.5902 28.08 97.7769 28.08H102.977C103.417 28.08 103.637 28.3 103.637 28.74V31.8C103.637 32.24 103.417 32.46 102.977 32.46H101.897C101.83 32.4733 101.764 32.48 101.697 32.48H99.7169C99.6902 32.6267 99.6035 32.76 99.4569 32.88H103.077C103.464 32.88 103.657 32.9933 103.657 33.22C103.657 33.3667 103.544 33.52 103.317 33.68L101.077 35.16L102.777 35.78C103.07 35.8867 103.217 36.0467 103.217 36.26C103.217 36.38 103.17 36.4933 103.077 36.6L102.997 36.72C102.837 36.9333 102.65 37.04 102.437 37.04C102.384 37.04 102.33 37.0267 102.277 37C102.224 36.9867 102.164 36.9733 102.097 36.96L99.6769 36.08L98.6569 36.76C98.4835 36.8667 98.3369 36.92 98.2169 36.92C98.0569 36.92 97.8969 36.86 97.7369 36.74L97.4569 36.54C97.2569 36.3933 97.1569 36.24 97.1569 36.08C97.1569 35.92 97.2635 35.7667 97.4769 35.62L97.8169 35.4L97.7569 35.38C97.4635 35.2733 97.3169 35.1133 97.3169 34.9C97.3169 34.78 97.3635 34.6667 97.4569 34.56L97.5369 34.44C97.5635 34.4 97.5902 34.3733 97.6169 34.36L96.6969 35.08C96.5502 35.2133 96.3902 35.28 96.2169 35.28C96.0702 35.28 95.9235 35.2333 95.7769 35.14L95.3769 34.9C95.1502 34.7533 95.0369 34.5933 95.0369 34.42C95.0369 34.26 95.1235 34.1133 95.2969 33.98L97.1969 32.46H96.4969C96.0569 32.46 95.8369 32.24 95.8369 31.8V29.56L95.4969 29.5C95.4702 29.6467 95.3835 29.7733 95.2369 29.88L94.1569 30.78C94.2369 30.8867 94.2769 31.0333 94.2769 31.22V36.38C94.2769 36.82 94.0569 37.04 93.6169 37.04H92.3769C91.9369 37.04 91.7169 36.82 91.7169 36.38V32.82L91.3969 33.08ZM101.077 29.28H98.3969V29.68H101.077V29.28ZM98.3969 31.28H101.077V30.88H98.3969V31.28ZM98.4369 34.2L99.1969 34.48L99.7769 34.08H97.9769H97.9569L97.8169 34.18C97.8969 34.14 97.9902 34.12 98.0969 34.12C98.1502 34.12 98.2035 34.1267 98.2569 34.14C98.3235 34.1533 98.3835 34.1733 98.4369 34.2ZM109.357 36.6C109.344 36.7867 109.27 36.9333 109.137 37.04C109.017 37.16 108.864 37.2133 108.677 37.2L107.457 37.14C107.257 37.1267 107.097 37.0467 106.977 36.9C106.857 36.7667 106.804 36.5933 106.817 36.38L108.297 21.36C108.31 21.2133 108.357 21.0933 108.437 21C108.41 20.9333 108.397 20.8667 108.397 20.8C108.397 20.6267 108.464 20.4867 108.597 20.38C108.73 20.26 108.89 20.2 109.077 20.2H124.117C124.304 20.2 124.464 20.26 124.597 20.38C124.73 20.4867 124.797 20.6267 124.797 20.8C124.797 20.9733 124.73 21.12 124.597 21.24C124.464 21.3467 124.304 21.4 124.117 21.4H110.837C110.85 21.4533 110.85 21.5133 110.837 21.58L109.357 36.6ZM112.857 29.24C112.737 29.4667 112.557 29.58 112.317 29.58C112.25 29.58 112.197 29.5733 112.157 29.56L111.257 29.34C111.084 29.3 110.944 29.22 110.837 29.1C110.744 28.9667 110.697 28.82 110.697 28.66C110.697 28.5267 110.724 28.4067 110.777 28.3L112.417 25.04H111.577C111.39 25.04 111.23 24.9867 111.097 24.88C110.964 24.76 110.897 24.6133 110.897 24.44C110.897 24.2667 110.964 24.1267 111.097 24.02C111.23 23.9 111.39 23.84 111.577 23.84H112.857V22.56C112.857 22.3733 112.924 22.2133 113.057 22.08C113.19 21.9467 113.35 21.88 113.537 21.88H114.737C114.924 21.88 115.084 21.9467 115.217 22.08C115.35 22.2133 115.417 22.3733 115.417 22.56V23.84H116.397C116.584 23.84 116.744 23.9 116.877 24.02C117.01 24.1267 117.077 24.2667 117.077 24.44C117.077 24.6133 117.01 24.76 116.877 24.88C116.744 24.9867 116.584 25.04 116.397 25.04H115.657L117.697 26.48L118.697 25.04H118.097C117.91 25.04 117.75 24.9867 117.617 24.88C117.484 24.76 117.417 24.6133 117.417 24.44C117.417 24.2667 117.484 24.1267 117.617 24.02C117.75 23.9 117.91 23.84 118.097 23.84H119.437V22.46C119.437 22.2733 119.504 22.1133 119.637 21.98C119.77 21.8467 119.93 21.78 120.117 21.78H121.317C121.504 21.78 121.664 21.8467 121.797 21.98C121.93 22.1133 121.997 22.2733 121.997 22.46V23.84H123.277C123.464 23.84 123.624 23.9 123.757 24.02C123.89 24.1267 123.957 24.2667 123.957 24.44C123.957 24.6133 123.89 24.76 123.757 24.88C123.624 24.9867 123.464 25.04 123.277 25.04H122.757L124.597 28.28C124.677 28.4133 124.717 28.5467 124.717 28.68C124.717 29.0133 124.53 29.2333 124.157 29.34L123.297 29.58C123.257 29.5933 123.197 29.6 123.117 29.6C122.904 29.6 122.73 29.4933 122.597 29.28L121.997 28.22V30.24C121.997 30.4267 121.93 30.5867 121.797 30.72C121.664 30.8533 121.504 30.92 121.317 30.92H120.117C119.93 30.92 119.77 30.8533 119.637 30.72C119.504 30.5867 119.437 30.4267 119.437 30.24V27.64L118.237 29.36C118.104 29.5467 117.937 29.64 117.737 29.64C117.684 29.64 117.617 29.6267 117.537 29.6L116.857 29.38C116.497 29.2467 116.317 29.02 116.317 28.7C116.317 28.54 116.37 28.3867 116.477 28.24L116.757 27.84L115.417 26.9V30.24C115.417 30.4267 115.35 30.5867 115.217 30.72C115.084 30.8533 114.924 30.92 114.737 30.92H113.537C113.35 30.92 113.19 30.8533 113.057 30.72C112.924 30.5867 112.857 30.4267 112.857 30.24V29.24ZM113.957 35.32C113.957 35.36 113.957 35.3867 113.957 35.4H116.197V35.32V31.46C116.197 31.2733 116.264 31.1133 116.397 30.98C116.53 30.8467 116.69 30.78 116.877 30.78H118.077C118.264 30.78 118.424 30.8467 118.557 30.98C118.69 31.1133 118.757 31.2733 118.757 31.46V32.34H123.457C123.644 32.34 123.804 32.4 123.937 32.52C124.07 32.6267 124.137 32.7667 124.137 32.94C124.137 33.1133 124.07 33.26 123.937 33.38C123.804 33.4867 123.644 33.54 123.457 33.54H118.757V35.32C118.757 35.36 118.757 35.3867 118.757 35.4H123.777C123.964 35.4 124.124 35.46 124.257 35.58C124.39 35.6867 124.457 35.8267 124.457 36C124.457 36.1733 124.39 36.3133 124.257 36.42C124.124 36.54 123.964 36.6 123.777 36.6H110.677C110.49 36.6 110.33 36.54 110.197 36.42C110.064 36.3133 109.997 36.1733 109.997 36C109.997 35.8267 110.064 35.6867 110.197 35.58C110.33 35.46 110.49 35.4 110.677 35.4H111.397V35.32V32.56C111.397 32.3733 111.464 32.2133 111.597 32.08C111.73 31.9467 111.89 31.88 112.077 31.88H113.277C113.464 31.88 113.624 31.9467 113.757 32.08C113.89 32.2133 113.957 32.3733 113.957 32.56V35.32ZM143.037 35.7C143.237 35.8333 143.337 35.9933 143.337 36.18C143.337 36.3267 143.27 36.4667 143.137 36.6L143.017 36.74C142.857 36.9133 142.677 37 142.477 37C142.384 37 142.257 36.9667 142.097 36.9C139.177 35.3533 137.717 32.5533 137.717 28.5C137.717 24.4333 139.177 21.6333 142.097 20.1C142.257 20.0333 142.384 20 142.477 20C142.677 20 142.857 20.0867 143.017 20.26L143.157 20.4C143.29 20.5333 143.357 20.6733 143.357 20.82C143.357 20.9933 143.25 21.1533 143.037 21.3C142.49 21.7 142.01 22.26 141.597 22.98C141.184 23.6867 140.857 24.5133 140.617 25.46C140.39 26.4067 140.277 27.42 140.277 28.5C140.277 29.58 140.39 30.5933 140.617 31.54C140.857 32.4733 141.184 33.3 141.597 34.02C142.01 34.74 142.49 35.3 143.037 35.7ZM159.117 23.82C159.117 23.9667 159.077 24.1 158.997 24.22H163.197C163.384 24.22 163.544 24.2867 163.677 24.42C163.81 24.5533 163.877 24.7133 163.877 24.9V33.32C163.877 33.5067 163.81 33.6667 163.677 33.8C163.544 33.9333 163.384 34 163.197 34H161.997C161.704 34 161.497 33.8667 161.377 33.6H154.617C154.497 33.8667 154.29 34 153.997 34H152.797C152.61 34 152.45 33.9333 152.317 33.8C152.184 33.6667 152.117 33.5067 152.117 33.32V24.54C152.117 24.3533 152.184 24.1933 152.317 24.06C152.45 23.9267 152.61 23.86 152.797 23.86H153.997C154.277 23.86 154.477 23.98 154.597 24.22H156.677C156.597 24.1 156.557 23.9667 156.557 23.82V22.54H148.697C148.51 22.54 148.35 22.4867 148.217 22.38C148.084 22.26 148.017 22.1133 148.017 21.94C148.017 21.7667 148.084 21.6267 148.217 21.52C148.35 21.4 148.51 21.34 148.697 21.34H156.557V20.08C156.557 19.8933 156.624 19.7333 156.757 19.6C156.89 19.4667 157.05 19.4 157.237 19.4H158.437C158.624 19.4 158.784 19.4667 158.917 19.6C159.05 19.7333 159.117 19.8933 159.117 20.08V21.34H164.037C164.224 21.34 164.384 21.4 164.517 21.52C164.65 21.6267 164.717 21.7667 164.717 21.94C164.717 22.1133 164.65 22.26 164.517 22.38C164.384 22.4867 164.224 22.54 164.037 22.54H159.117V23.82ZM161.317 25.42H154.677V27H161.317V25.42ZM163.837 35.4C164.024 35.4 164.184 35.46 164.317 35.58C164.45 35.6867 164.517 35.8267 164.517 36C164.517 36.1733 164.45 36.3133 164.317 36.42C164.184 36.54 164.024 36.6 163.837 36.6H148.297C148.11 36.6 147.95 36.5333 147.817 36.4C147.684 36.2667 147.617 36.1067 147.617 35.92V27.3C147.617 27.1133 147.684 26.9533 147.817 26.82C147.95 26.6867 148.11 26.62 148.297 26.62H149.497C149.684 26.62 149.844 26.6867 149.977 26.82C150.11 26.9533 150.177 27.1133 150.177 27.3V35.4H163.837ZM154.677 29.68H161.317V28.2H154.677V29.68ZM154.677 32.4H161.317V30.88H154.677V32.4ZM175.657 34.02C175.617 34.46 175.384 34.6667 174.957 34.64L173.717 34.6C173.264 34.5733 173.057 34.34 173.097 33.9L173.957 23.5C173.984 23.1533 174.144 22.9533 174.437 22.9C174.49 22.7533 174.624 22.64 174.837 22.56L183.017 19.56C183.084 19.5333 183.144 19.5133 183.197 19.5C183.25 19.4867 183.304 19.48 183.357 19.48C183.57 19.48 183.757 19.5867 183.917 19.8L183.957 19.86C184.064 20.0067 184.117 20.14 184.117 20.26C184.117 20.4733 183.977 20.6333 183.697 20.74L176.497 23.38C176.524 23.4467 176.53 23.5267 176.517 23.62L176.397 25.04H183.917C184.357 25.04 184.577 25.24 184.577 25.64C184.577 26.04 184.357 26.24 183.917 26.24H182.117C182.184 26.3467 182.217 26.48 182.217 26.64V34.22C182.217 34.66 181.997 34.88 181.557 34.88H180.317C179.877 34.88 179.657 34.66 179.657 34.22V26.64C179.657 26.48 179.69 26.3467 179.757 26.24H176.297L175.657 34.02ZM171.917 23.54C171.944 23.5933 171.964 23.6467 171.977 23.7C171.99 23.7533 171.997 23.8067 171.997 23.86C171.997 24.1267 171.83 24.3 171.497 24.38L170.477 24.58C170.45 24.5933 170.417 24.6 170.377 24.6C170.337 24.6 170.304 24.6 170.277 24.6C169.997 24.6 169.79 24.4533 169.657 24.16L168.057 20.66C168.017 20.5533 167.997 20.4533 167.997 20.36C167.997 20.08 168.164 19.9 168.497 19.82L169.497 19.62C169.524 19.6067 169.557 19.6 169.597 19.6C169.637 19.6 169.67 19.6 169.697 19.6C169.977 19.6 170.184 19.7467 170.317 20.04L171.917 23.54ZM183.637 35.1C184.05 35.0333 184.31 35.2067 184.417 35.62C184.43 35.66 184.437 35.72 184.437 35.8C184.437 36.0933 184.25 36.26 183.877 36.3L178.477 36.98C178.384 36.9933 178.297 37 178.217 37C178.15 37.0133 178.077 37.02 177.997 37.02C177.944 37.02 177.89 37.02 177.837 37.02C177.797 37.02 177.744 37.0133 177.677 37L167.917 36.02C167.557 35.98 167.377 35.84 167.377 35.6C167.377 35.4533 167.444 35.3133 167.577 35.18L169.317 33.2L168.077 31.3C167.97 31.1267 167.917 30.9667 167.917 30.82C167.917 30.7 167.957 30.56 168.037 30.4L169.917 26.76H167.817C167.377 26.76 167.157 26.56 167.157 26.16C167.157 25.76 167.377 25.56 167.817 25.56H172.197C172.584 25.56 172.777 25.7067 172.777 26C172.777 26.0933 172.744 26.2067 172.677 26.34L170.357 30.86L171.597 32.76C171.704 32.9333 171.757 33.08 171.757 33.2C171.757 33.3467 171.684 33.5067 171.537 33.68L170.337 35.04L178.037 35.8L183.637 35.1ZM197.417 35.14C197.417 35.58 197.197 35.8 196.757 35.8H195.517C195.077 35.8 194.857 35.58 194.857 35.14V25.22L194.757 25.4C194.597 25.6533 194.404 25.78 194.177 25.78C194.137 25.78 194.097 25.78 194.057 25.78C194.017 25.7667 193.97 25.7533 193.917 25.74L192.977 25.5C192.657 25.42 192.497 25.2533 192.497 25C192.497 24.88 192.537 24.76 192.617 24.64L194.737 20.92C194.924 20.6 195.197 20.46 195.557 20.5L196.797 20.66C197.21 20.7267 197.417 20.96 197.417 21.36V35.14ZM216.137 20.6C218.524 20.6 220.357 21.2733 221.637 22.62C222.93 23.9533 223.577 25.8733 223.577 28.38C223.577 29.9533 223.25 31.3267 222.597 32.5C221.944 33.6733 221.03 34.5867 219.857 35.24C218.684 35.88 217.31 36.2 215.737 36.2C214.19 36.2 212.85 35.88 211.717 35.24C210.584 34.5867 209.71 33.66 209.097 32.46C208.497 31.2467 208.197 29.8067 208.197 28.14C208.197 26.5933 208.524 25.26 209.177 24.14C209.83 23.0067 210.75 22.1333 211.937 21.52C213.124 20.9067 214.524 20.6 216.137 20.6ZM216.137 21.8C214.444 21.8 213.124 22.36 212.177 23.48C211.23 24.6 210.757 26.1533 210.757 28.14C210.757 29.5667 210.957 30.7933 211.357 31.82C211.757 32.8467 212.33 33.6333 213.077 34.18C213.824 34.7267 214.71 35 215.737 35C216.817 35 217.75 34.7333 218.537 34.2C219.324 33.6533 219.93 32.8867 220.357 31.9C220.797 30.9 221.017 29.7267 221.017 28.38C221.017 26.2333 220.597 24.6 219.757 23.48C218.93 22.36 217.724 21.8 216.137 21.8ZM235.537 28.82C235.51 28.9933 235.43 29.1267 235.297 29.22C235.164 29.3133 235.01 29.3533 234.837 29.34L233.677 29.24C233.464 29.2133 233.297 29.12 233.177 28.96C233.057 28.8 233.017 28.6133 233.057 28.4L234.677 20.48C234.704 20.3067 234.784 20.1733 234.917 20.08C235.05 19.9733 235.204 19.9333 235.377 19.96L236.537 20.06C236.764 20.0733 236.93 20.1667 237.037 20.34C237.157 20.5 237.197 20.6867 237.157 20.9L236.617 23.58H238.177V20.04C238.177 19.8533 238.244 19.6933 238.377 19.56C238.51 19.4267 238.67 19.36 238.857 19.36H240.057C240.244 19.36 240.404 19.4267 240.537 19.56C240.67 19.6933 240.737 19.8533 240.737 20.04V23.58H243.417C243.604 23.58 243.764 23.64 243.897 23.76C244.03 23.8667 244.097 24.0067 244.097 24.18C244.097 24.3533 244.03 24.5 243.897 24.62C243.764 24.7267 243.604 24.78 243.417 24.78H240.737V29.92H243.817C244.004 29.92 244.164 29.98 244.297 30.1C244.43 30.2067 244.497 30.3467 244.497 30.52C244.497 30.6933 244.43 30.84 244.297 30.96C244.164 31.0667 244.004 31.12 243.817 31.12H240.737V36.74C240.737 36.9267 240.67 37.0867 240.537 37.22C240.404 37.3533 240.244 37.42 240.057 37.42H238.857C238.67 37.42 238.51 37.3533 238.377 37.22C238.244 37.0867 238.177 36.9267 238.177 36.74V31.12H233.897C233.71 31.12 233.55 31.0667 233.417 30.96C233.284 30.84 233.217 30.6933 233.217 30.52C233.217 30.3467 233.284 30.2067 233.417 30.1C233.55 29.98 233.71 29.92 233.897 29.92H238.177V24.78H236.357L235.537 28.82ZM231.837 36.34C231.837 36.5267 231.77 36.6867 231.637 36.82C231.504 36.9533 231.344 37.02 231.157 37.02H229.957C229.77 37.02 229.61 36.9533 229.477 36.82C229.344 36.6867 229.277 36.5267 229.277 36.34V29.18C229.13 29.4333 228.904 29.5267 228.597 29.46L227.697 29.24C227.524 29.2 227.384 29.1133 227.277 28.98C227.184 28.8467 227.137 28.7 227.137 28.54C227.137 28.42 227.164 28.3067 227.217 28.2L231.457 20.04C231.524 19.8933 231.624 19.8 231.757 19.76C231.89 19.7067 232.024 19.6933 232.157 19.72L233.057 19.94C233.244 19.98 233.384 20.0667 233.477 20.2C233.57 20.3333 233.617 20.48 233.617 20.64C233.617 20.76 233.59 20.8733 233.537 20.98L231.697 24.54C231.79 24.66 231.837 24.8 231.837 24.96V36.34ZM248.557 35.7C249.104 35.3 249.584 34.74 249.997 34.02C250.41 33.3 250.73 32.4733 250.957 31.54C251.197 30.5933 251.317 29.58 251.317 28.5C251.317 27.42 251.197 26.4067 250.957 25.46C250.73 24.5133 250.41 23.6867 249.997 22.98C249.584 22.26 249.104 21.7 248.557 21.3C248.344 21.1533 248.237 20.9933 248.237 20.82C248.237 20.6733 248.304 20.5333 248.437 20.4L248.577 20.26C248.737 20.0867 248.917 20 249.117 20C249.21 20 249.337 20.0333 249.497 20.1C252.417 21.6333 253.877 24.4333 253.877 28.5C253.877 32.5533 252.417 35.3533 249.497 36.9C249.337 36.9667 249.21 37 249.117 37C248.917 37 248.737 36.9133 248.577 36.74L248.457 36.6C248.324 36.4667 248.257 36.3267 248.257 36.18C248.257 35.9933 248.357 35.8333 248.557 35.7Z" fill="black"/>
</g>
<defs>
<filter id="filter0_d_225_460" x="0" y="0" width="367" height="206" filterUnits="userSpaceOnUse" color-interpolation-filters="sRGB">
<feFlood flood-opacity="0" result="BackgroundImageFix"/>
<feColorMatrix in="SourceAlpha" type="matrix" values="0 0 0 0 0 0 0 0 0 0 0 0 0 0 0 0 0 0 127 0" result="hardAlpha"/>
<feOffset dy="2"/>
<feGaussianBlur stdDeviation="2"/>
<feComposite in2="hardAlpha" operator="out"/>
<feColorMatrix type="matrix" values="0 0 0 0 0 0 0 0 0 0 0 0 0 0 0 0 0 0 0.25 0"/>
<feBlend mode="normal" in2="BackgroundImageFix" result="effect1_dropShadow_225_460"/>
<feBlend mode="normal" in="SourceGraphic" in2="effect1_dropShadow_225_460" result="shape"/>
</filter>
</defs>
</svg>
