<svg width="420" height="203" viewBox="0 0 420 203" fill="none" xmlns="http://www.w3.org/2000/svg">
<g filter="url(#filter0_d_225_374)">
<rect x="4" y="2" width="412" height="195" rx="4" fill="white"/>
</g>
<rect x="20.5" y="104.5" width="379" height="75" rx="3.5" fill="#F8F5F2" stroke="black"/>
<path d="M48.04 160.42C48.04 160.728 47.886 160.882 47.578 160.882H46.71C46.4767 160.882 46.332 160.784 46.276 160.588H39.682C39.6167 160.747 39.4767 160.826 39.262 160.826H38.394C38.086 160.826 37.932 160.672 37.932 160.364V156.248C37.932 155.94 38.086 155.786 38.394 155.786H39.262C39.43 155.786 39.5513 155.837 39.626 155.94H47.578C47.886 155.94 48.04 156.094 48.04 156.402V160.42ZM46.248 156.78H39.724V157.858H46.248V156.78ZM39.724 159.748H46.248V158.698H39.724V159.748ZM43.252 167.112C43.252 167.42 43.098 167.574 42.79 167.574H41.922C41.614 167.574 41.46 167.42 41.46 167.112V166.72L37.512 167.294C37.232 167.331 37.05 167.219 36.966 166.958C36.9567 166.93 36.9473 166.907 36.938 166.888C36.938 166.86 36.938 166.837 36.938 166.818C36.938 166.603 37.0687 166.482 37.33 166.454L37.89 166.37C37.8807 166.333 37.876 166.286 37.876 166.23V162.17V162.128H37.47C37.162 162.128 37.008 161.988 37.008 161.708C37.008 161.428 37.162 161.288 37.47 161.288H48.586C48.894 161.288 49.048 161.428 49.048 161.708C49.048 161.988 48.894 162.128 48.586 162.128H43.252V162.17V167.112ZM39.668 162.17V162.8H41.46V162.17V162.128H39.668V162.17ZM45.016 167.504C44.904 167.663 44.7733 167.742 44.624 167.742C44.5587 167.742 44.484 167.728 44.4 167.7L43.84 167.504C43.6347 167.429 43.532 167.317 43.532 167.168C43.532 167.084 43.5693 166.991 43.644 166.888L44.708 165.418L44.204 164.984C44.0827 164.881 44.022 164.774 44.022 164.662C44.022 164.531 44.1013 164.424 44.26 164.34L44.582 164.172C44.6847 164.116 44.7827 164.088 44.876 164.088C44.9973 164.088 45.1093 164.135 45.212 164.228L45.436 164.424L46.094 163.514H44.078C43.77 163.514 43.616 163.374 43.616 163.094C43.616 162.814 43.77 162.674 44.078 162.674H47.802C48.0727 162.674 48.208 162.767 48.208 162.954C48.208 163.019 48.1707 163.113 48.096 163.234L46.556 165.362L48.32 166.86C48.4413 166.963 48.502 167.07 48.502 167.182C48.502 167.313 48.4227 167.42 48.264 167.504L47.942 167.672C47.8487 167.728 47.7507 167.756 47.648 167.756C47.5267 167.756 47.4147 167.709 47.312 167.616L45.842 166.37L45.016 167.504ZM39.668 164.48H41.46V163.64H39.668V164.48ZM39.668 165.32V166.104L41.46 165.852V165.32H39.668ZM54.606 167.308C54.606 167.616 54.4707 167.77 54.2 167.77H53.416C53.1453 167.77 53.01 167.616 53.01 167.308V163.318C53.01 163.299 53.01 163.285 53.01 163.276L51.316 163.402C51.036 163.421 50.896 163.332 50.896 163.136C50.896 163.052 50.9287 162.959 50.994 162.856L52.38 160.854L52.366 160.84L51.078 159.244C50.994 159.132 50.952 159.025 50.952 158.922C50.952 158.819 50.994 158.712 51.078 158.6L53.528 155.632C53.64 155.492 53.7753 155.422 53.934 155.422C53.9993 155.422 54.074 155.436 54.158 155.464L54.634 155.66C54.83 155.744 54.928 155.856 54.928 155.996C54.928 156.08 54.886 156.173 54.802 156.276L52.632 158.922L53.234 159.65L53.85 158.754C53.9527 158.595 54.088 158.516 54.256 158.516C54.284 158.516 54.312 158.516 54.34 158.516C54.3773 158.516 54.4147 158.525 54.452 158.544L55.04 158.726C55.2453 158.801 55.348 158.917 55.348 159.076C55.348 159.16 55.3153 159.249 55.25 159.342L53.108 162.422L54.704 162.296L54.382 161.218C54.3727 161.19 54.368 161.148 54.368 161.092C54.368 160.905 54.494 160.798 54.746 160.77L55.558 160.686C55.8473 160.658 56.0293 160.765 56.104 161.008L56.65 162.87C56.6687 162.926 56.678 162.973 56.678 163.01C56.678 163.187 56.5473 163.29 56.286 163.318L55.474 163.402C55.334 163.411 55.2173 163.393 55.124 163.346C55.0307 163.29 54.9747 163.22 54.956 163.136L54.592 163.164C54.6013 163.211 54.606 163.262 54.606 163.318V167.308ZM57.812 164.424C57.7 164.583 57.5647 164.662 57.406 164.662C57.3407 164.662 57.2707 164.648 57.196 164.62L56.636 164.438C56.4307 164.363 56.328 164.251 56.328 164.102C56.328 164.018 56.3653 163.925 56.44 163.822L58.624 160.77L58.064 160.112L57.854 160.602C57.77 160.807 57.63 160.91 57.434 160.91C57.3687 160.91 57.3173 160.905 57.28 160.896L56.566 160.756C56.3327 160.7 56.216 160.579 56.216 160.392C56.216 160.355 56.2207 160.317 56.23 160.28C56.2487 160.243 56.2627 160.205 56.272 160.168L58.134 155.996C58.218 155.791 58.358 155.688 58.554 155.688C58.6193 155.688 58.6707 155.693 58.708 155.702L59.422 155.842C59.6553 155.898 59.772 156.019 59.772 156.206C59.772 156.243 59.7673 156.281 59.758 156.318C59.7487 156.346 59.7347 156.383 59.716 156.43L59.38 157.186H62.32C62.5813 157.186 62.712 157.275 62.712 157.452C62.712 157.527 62.6747 157.625 62.6 157.746L60.43 160.77L63.034 163.822C63.118 163.915 63.16 164.009 63.16 164.102C63.16 164.251 63.0667 164.363 62.88 164.438L62.39 164.634C62.306 164.662 62.2313 164.676 62.166 164.676C62.0167 164.676 61.886 164.606 61.774 164.466L59.604 161.918L57.812 164.424ZM58.848 158.908L59.45 159.622L60.598 158.026H59.002L58.68 158.754C58.736 158.791 58.792 158.843 58.848 158.908ZM61.158 164.606C61.3167 164.69 61.396 164.797 61.396 164.928C61.396 165.04 61.3307 165.147 61.2 165.25L61.032 165.39C60.9293 165.483 60.8127 165.53 60.682 165.53C60.5793 165.53 60.4813 165.497 60.388 165.432L58.68 164.41C58.5213 164.326 58.442 164.219 58.442 164.088C58.442 163.976 58.5073 163.869 58.638 163.766L58.806 163.626C58.9087 163.533 59.0253 163.486 59.156 163.486C59.2587 163.486 59.3567 163.519 59.45 163.584L61.158 164.606ZM52.674 166.706C52.646 166.995 52.52 167.135 52.296 167.126L51.624 167.084C51.372 167.065 51.26 166.902 51.288 166.594L51.442 164.48C51.47 164.181 51.596 164.041 51.82 164.06L52.492 164.102C52.744 164.121 52.856 164.284 52.828 164.592L52.674 166.706ZM56.496 166.37C56.524 166.687 56.4027 166.855 56.132 166.874L55.39 166.916C55.1473 166.935 55.012 166.79 54.984 166.482L54.83 164.732C54.802 164.415 54.9187 164.247 55.18 164.228L55.922 164.186C56.174 164.177 56.314 164.321 56.342 164.62L56.496 166.37ZM61.018 166.86C61.1767 166.944 61.256 167.051 61.256 167.182C61.256 167.294 61.1907 167.401 61.06 167.504L60.892 167.644C60.7893 167.737 60.6727 167.784 60.542 167.784C60.4393 167.784 60.3413 167.751 60.248 167.686L58.414 166.58C58.2553 166.496 58.176 166.389 58.176 166.258C58.176 166.146 58.2413 166.039 58.372 165.936L58.54 165.796C58.6427 165.703 58.7593 165.656 58.89 165.656C58.9927 165.656 59.0907 165.689 59.184 165.754L61.018 166.86ZM65.834 167.7C65.6753 167.719 65.5447 167.686 65.442 167.602C65.3487 167.518 65.302 167.392 65.302 167.224C65.302 167.019 65.4327 166.893 65.694 166.846C66.6833 166.65 67.5327 166.132 68.242 165.292L66.982 164.9C66.7673 164.825 66.66 164.713 66.66 164.564C66.66 164.508 66.6833 164.433 66.73 164.34L66.772 164.27C66.884 164.102 67.0193 164.018 67.178 164.018C67.2527 164.018 67.3227 164.032 67.388 164.06L68.816 164.508C69.0307 164.144 69.2267 163.747 69.404 163.318H67.71C67.6353 163.383 67.5327 163.416 67.402 163.416H66.534C66.226 163.416 66.072 163.262 66.072 162.954V158.18C66.072 157.872 66.226 157.718 66.534 157.718H67.402C67.5607 157.718 67.682 157.765 67.766 157.858H70.482C70.4913 157.522 70.5007 157.181 70.51 156.836C70.51 156.808 70.51 156.789 70.51 156.78H65.386C65.078 156.78 64.924 156.64 64.924 156.36C64.924 156.08 65.078 155.94 65.386 155.94H76.488C76.796 155.94 76.95 156.08 76.95 156.36C76.95 156.64 76.796 156.78 76.488 156.78H72.274C72.2833 156.864 72.288 156.962 72.288 157.074C72.2787 157.345 72.2693 157.606 72.26 157.858H75.55C75.858 157.858 76.012 158.012 76.012 158.32V162.954C76.012 163.262 75.858 163.416 75.55 163.416H74.682C74.5513 163.416 74.4487 163.383 74.374 163.318H71.196C70.944 163.925 70.65 164.475 70.314 164.97L76.628 166.916C76.8427 166.991 76.95 167.103 76.95 167.252C76.95 167.308 76.9267 167.383 76.88 167.476L76.838 167.546C76.726 167.714 76.5907 167.798 76.432 167.798C76.3667 167.798 76.2967 167.784 76.222 167.756L69.684 165.74C68.6947 166.804 67.4113 167.457 65.834 167.7ZM67.864 160.294H70.23C70.3047 159.79 70.3653 159.258 70.412 158.698H67.864V160.294ZM74.22 158.698H72.204C72.1573 159.258 72.092 159.79 72.008 160.294H74.22V158.698ZM67.864 162.478H69.712C69.852 162.058 69.9687 161.61 70.062 161.134H67.864V162.478ZM71.504 162.478H74.22V161.134H71.854C71.7513 161.61 71.6347 162.058 71.504 162.478ZM80.24 167.294C80.128 167.434 79.9927 167.504 79.834 167.504C79.7687 167.504 79.694 167.49 79.61 167.462L79.106 167.266C78.91 167.182 78.812 167.065 78.812 166.916C78.812 166.813 78.8493 166.72 78.924 166.636L80.954 164.088H79.134C78.826 164.088 78.672 163.948 78.672 163.668C78.672 163.388 78.826 163.248 79.134 163.248H81.318V162.184V162.142H79.134C78.826 162.142 78.672 162.002 78.672 161.722C78.672 161.442 78.826 161.302 79.134 161.302H79.792V161.288L79.638 158.18V158.11H79.456C79.148 158.11 78.994 157.97 78.994 157.69C78.994 157.41 79.148 157.27 79.456 157.27H81.206V157.228V155.87C81.206 155.562 81.36 155.408 81.668 155.408H82.536C82.844 155.408 82.998 155.562 82.998 155.87V157.228V157.27H84.608C84.916 157.27 85.07 157.41 85.07 157.69C85.07 157.821 85.0327 157.923 84.958 157.998C84.8833 158.073 84.7853 158.11 84.664 158.11C84.6733 158.138 84.6733 158.18 84.664 158.236L84.174 161.302H84.566C84.874 161.302 85.028 161.442 85.028 161.722C85.028 162.002 84.874 162.142 84.566 162.142H83.11V162.184V163.248H84.328C84.636 163.248 84.79 163.388 84.79 163.668C84.79 163.948 84.636 164.088 84.328 164.088H83.11L84.608 165.25C84.7387 165.353 84.804 165.455 84.804 165.558C84.804 165.679 84.72 165.791 84.552 165.894L84.272 166.062C84.1787 166.127 84.0807 166.16 83.978 166.16C83.8473 166.16 83.7307 166.113 83.628 166.02L83.11 165.614V167.532C83.11 167.84 82.956 167.994 82.648 167.994H81.78C81.472 167.994 81.318 167.84 81.318 167.532V165.95L80.24 167.294ZM86.68 167.294C86.6613 167.611 86.498 167.761 86.19 167.742L85.322 167.714C85.014 167.695 84.8693 167.537 84.888 167.238L85.35 158.698C85.3593 158.577 85.392 158.479 85.448 158.404C85.4387 158.376 85.434 158.348 85.434 158.32C85.434 158.189 85.5133 158.082 85.672 157.998L90.082 155.562C90.1847 155.506 90.2733 155.478 90.348 155.478C90.4693 155.478 90.5907 155.529 90.712 155.632L90.838 155.744C90.9593 155.856 91.02 155.963 91.02 156.066C91.02 156.197 90.9407 156.304 90.782 156.388L87.058 158.446C87.1233 158.521 87.1513 158.623 87.142 158.754L87.072 160.042H90.684C90.992 160.042 91.146 160.182 91.146 160.462C91.146 160.742 90.992 160.882 90.684 160.882H90.138V160.924V167.49C90.138 167.798 89.984 167.952 89.676 167.952H88.808C88.5 167.952 88.346 167.798 88.346 167.49V160.924V160.882H87.03L86.68 167.294ZM81.584 161.232V161.302H82.41C82.4007 161.274 82.4007 161.232 82.41 161.176L82.9 158.11H81.43V158.124L81.584 161.232ZM104.04 167.518C104.04 167.826 103.886 167.98 103.578 167.98H102.71C102.402 167.98 102.248 167.826 102.248 167.518V167.42H95.724C95.7053 167.709 95.5513 167.854 95.262 167.854H94.394C94.086 167.854 93.932 167.7 93.932 167.392V156.528C93.932 156.22 94.086 156.066 94.394 156.066H95.262C95.43 156.066 95.5513 156.117 95.626 156.22H103.578C103.886 156.22 104.04 156.374 104.04 156.682V167.518ZM102.248 157.06H95.724V161.484H102.248V157.06ZM95.724 166.58H102.248V162.324H95.724V166.58ZM111.88 160.336C111.88 160.205 111.927 160.093 112.02 160C112.113 159.907 112.225 159.86 112.356 159.86H113.28C113.411 159.86 113.523 159.907 113.616 160C113.709 160.093 113.756 160.205 113.756 160.336V160.98C113.756 161.111 113.709 161.223 113.616 161.316C113.523 161.409 113.411 161.456 113.28 161.456H112.356C112.225 161.456 112.113 161.409 112.02 161.316C111.927 161.223 111.88 161.111 111.88 160.98V160.336ZM111.88 164.9C111.88 164.769 111.927 164.657 112.02 164.564C112.113 164.471 112.225 164.424 112.356 164.424H113.28C113.411 164.424 113.523 164.471 113.616 164.564C113.709 164.657 113.756 164.769 113.756 164.9V165.544C113.756 165.675 113.709 165.787 113.616 165.88C113.523 165.973 113.411 166.02 113.28 166.02H112.356C112.225 166.02 112.113 165.973 112.02 165.88C111.927 165.787 111.88 165.675 111.88 165.544V164.9ZM122.324 161.414C122.212 161.526 122.095 161.582 121.974 161.582C121.89 161.582 121.797 161.554 121.694 161.498L121.316 161.316C121.148 161.232 121.064 161.12 121.064 160.98C121.064 160.877 121.115 160.775 121.218 160.672L126.622 155.506C126.734 155.394 126.851 155.338 126.972 155.338C127.065 155.338 127.159 155.366 127.252 155.422L127.63 155.604C127.798 155.688 127.882 155.8 127.882 155.94V155.954L127.896 155.968L132.754 160.546C132.857 160.649 132.908 160.751 132.908 160.854C132.908 160.994 132.824 161.106 132.656 161.19L132.278 161.372C132.166 161.419 132.073 161.442 131.998 161.442C131.867 161.442 131.751 161.391 131.648 161.288L127.014 156.92L122.324 161.414ZM130.122 160.672C130.43 160.672 130.584 160.812 130.584 161.092C130.584 161.372 130.43 161.512 130.122 161.512H123.808C123.5 161.512 123.346 161.372 123.346 161.092C123.346 160.812 123.5 160.672 123.808 160.672H130.122ZM127.322 167.574C127.201 167.695 127.075 167.756 126.944 167.756C126.888 167.756 126.804 167.733 126.692 167.686L126.3 167.504C126.123 167.42 126.034 167.308 126.034 167.168C126.034 167.065 126.085 166.963 126.188 166.86L129.73 163.318H122.436C122.128 163.318 121.974 163.178 121.974 162.898C121.974 162.618 122.128 162.478 122.436 162.478H131.634C131.895 162.478 132.026 162.567 132.026 162.744C132.026 162.847 131.975 162.949 131.872 163.052L127.322 167.574ZM146.04 167.518C146.04 167.826 145.886 167.98 145.578 167.98H144.71C144.402 167.98 144.248 167.826 144.248 167.518V167.42H137.724C137.705 167.709 137.551 167.854 137.262 167.854H136.394C136.086 167.854 135.932 167.7 135.932 167.392V156.528C135.932 156.22 136.086 156.066 136.394 156.066H137.262C137.43 156.066 137.551 156.117 137.626 156.22H145.578C145.886 156.22 146.04 156.374 146.04 156.682V167.518ZM144.248 157.06H137.724V161.484H144.248V157.06ZM137.724 166.58H144.248V162.324H137.724V166.58Z" fill="#4A5565"/>
<path d="M41.5 133.66C41.3267 133.767 41.18 133.82 41.06 133.82C40.9133 133.82 40.7533 133.767 40.58 133.66L40.22 133.42C40.02 133.273 39.92 133.127 39.92 132.98C39.92 132.82 40.0133 132.667 40.2 132.52C40.6533 132.16 41.04 131.78 41.36 131.38C41.68 130.967 41.9467 130.487 42.16 129.94L38.72 131.46C38.6133 131.513 38.4933 131.54 38.36 131.54C38.16 131.54 37.98 131.453 37.82 131.28L37.72 131.18C37.5733 131.033 37.5 130.893 37.5 130.76C37.5 130.56 37.6333 130.4 37.9 130.28L37.96 130.26C37.8933 130.153 37.86 130.027 37.86 129.88V120.86C37.86 120.527 38.0133 120.267 38.32 120.08L44.1 116.68C44.2467 116.6 44.38 116.56 44.5 116.56C44.6733 116.56 44.8467 116.627 45.02 116.76L45.22 116.92C45.4067 117.08 45.5 117.24 45.5 117.4C45.5 117.56 45.3867 117.713 45.16 117.86L40.42 120.62V129.16L42.5 128.24C42.5533 128.213 42.6067 128.193 42.66 128.18C42.7133 127.833 42.7667 127.453 42.82 127.04C42.7667 127.053 42.7067 127.067 42.64 127.08L42.04 127.16C41.6133 127.227 41.36 127.047 41.28 126.62L40.54 122.88C40.5267 122.84 40.52 122.78 40.52 122.7C40.52 122.38 40.7067 122.187 41.08 122.12L41.66 122.04C42.0867 121.973 42.34 122.153 42.42 122.58L42.96 125.34C43 124.767 43.0267 124.14 43.04 123.46C43.0667 122.767 43.08 122.013 43.08 121.2C43.08 120.733 43.3 120.5 43.74 120.5H44.98C45.42 120.5 45.64 120.913 45.64 121.74C45.6267 123.273 45.5867 124.587 45.52 125.68C45.4533 126.773 45.3333 127.713 45.16 128.5C45 129.287 44.7667 129.973 44.46 130.56C44.1533 131.133 43.76 131.667 43.28 132.16C42.8 132.653 42.2067 133.153 41.5 133.66ZM48.88 133.52C48.88 133.96 48.66 134.18 48.22 134.18H46.98C46.54 134.18 46.32 133.96 46.32 133.52V119.02C46.32 118.58 46.54 118.36 46.98 118.36H48.22C48.3267 118.36 48.4133 118.373 48.48 118.4H48.52H53.54C53.98 118.4 54.2 118.62 54.2 119.06V130.62C54.2 130.833 54.1333 131 54 131.12C53.88 131.227 53.7067 131.26 53.48 131.22L49.88 130.64C49.5067 130.573 49.32 130.4 49.32 130.12C49.32 130.093 49.32 130.067 49.32 130.04C49.3333 130 49.3467 129.96 49.36 129.92V129.9C49.48 129.513 49.7467 129.353 50.16 129.42L51.64 129.66V119.6H48.88V133.52ZM51.54 127.08C51.6067 127.52 51.4133 127.76 50.96 127.8L50.26 127.88C49.8333 127.92 49.5867 127.727 49.52 127.3L48.9 123.02C48.8333 122.58 49.0267 122.34 49.48 122.3L50.18 122.22C50.6067 122.18 50.8533 122.373 50.92 122.8L51.54 127.08Z" fill="black"/>
<path d="M357 156.333H358.667M358.667 156.333H372M358.667 156.333V168C358.667 168.442 358.842 168.866 359.155 169.179C359.467 169.491 359.891 169.667 360.333 169.667H368.667C369.109 169.667 369.533 169.491 369.845 169.179C370.158 168.866 370.333 168.442 370.333 168V156.333M361.167 156.333V154.667C361.167 154.225 361.342 153.801 361.655 153.488C361.967 153.176 362.391 153 362.833 153H366.167C366.609 153 367.033 153.176 367.345 153.488C367.658 153.801 367.833 154.225 367.833 154.667V156.333M362.833 160.5V165.5M366.167 160.5V165.5" stroke="#1E1E1E" stroke-width="2" stroke-linecap="round" stroke-linejoin="round"/>
<path d="M362.624 115.376C362.992 115.6 363.176 115.88 363.176 116.216C363.176 116.408 363.104 116.568 362.96 116.696L362.576 117.008C362.432 117.12 362.28 117.176 362.12 117.176C361.992 117.176 361.864 117.136 361.736 117.056L360.2 116.12C359.832 115.896 359.648 115.616 359.648 115.28C359.648 115.072 359.72 114.912 359.864 114.8L360.248 114.488C360.392 114.376 360.544 114.32 360.704 114.32C360.832 114.32 360.96 114.36 361.088 114.44L362.624 115.376ZM355.304 135.056C355.192 135.12 355.064 135.152 354.92 135.152C354.76 135.152 354.616 135.104 354.488 135.008L354.368 134.912C354.112 134.72 353.984 134.472 353.984 134.168C353.984 133.832 354.144 133.568 354.464 133.376L358.52 131L357.92 127.688H354.152C353.928 127.688 353.736 127.624 353.576 127.496C353.416 127.352 353.336 127.176 353.336 126.968C353.336 126.76 353.416 126.592 353.576 126.464C353.736 126.32 353.928 126.248 354.152 126.248H357.656L357.128 123.368H354.104C353.88 123.368 353.688 123.304 353.528 123.176C353.368 123.032 353.288 122.856 353.288 122.648C353.288 122.44 353.368 122.272 353.528 122.144C353.688 122 353.88 121.928 354.104 121.928H356.888L356.384 119.264H353.816C353.592 119.264 353.4 119.2 353.24 119.072C353.08 118.928 353 118.752 353 118.544C353 118.336 353.08 118.168 353.24 118.04C353.4 117.896 353.592 117.824 353.816 117.824H356.144L355.736 115.616C355.688 115.344 355.736 115.12 355.88 114.944C356.024 114.752 356.224 114.648 356.48 114.632L357.896 114.512C358.104 114.496 358.28 114.544 358.424 114.656C358.584 114.768 358.68 114.936 358.712 115.16L359.192 117.824H362.288C362.512 117.824 362.704 117.896 362.864 118.04C363.024 118.168 363.104 118.336 363.104 118.544C363.104 118.752 363.024 118.928 362.864 119.072C362.704 119.2 362.512 119.264 362.288 119.264H359.456L359.936 121.928H362.24C362.464 121.928 362.656 122 362.816 122.144C362.976 122.272 363.056 122.44 363.056 122.648C363.056 122.856 362.976 123.032 362.816 123.176C362.656 123.304 362.464 123.368 362.24 123.368H360.2L360.704 126.248H362.696C362.92 126.248 363.112 126.32 363.272 126.464C363.432 126.592 363.512 126.76 363.512 126.968C363.512 127.176 363.432 127.352 363.272 127.496C363.112 127.624 362.92 127.688 362.696 127.688H360.968L361.28 129.368L361.88 129.008C361.992 128.944 362.12 128.912 362.264 128.912C362.44 128.912 362.584 128.96 362.696 129.056L362.816 129.152C363.072 129.344 363.2 129.592 363.2 129.896C363.2 130.232 363.04 130.496 362.72 130.688L361.64 131.336L361.976 133.256L362.6 133.136C362.824 133.088 363.032 133.136 363.224 133.28C363.416 133.408 363.512 133.6 363.512 133.856C363.512 134.032 363.44 134.2 363.296 134.36C363.168 134.52 362.992 134.616 362.768 134.648L360.08 135.128C359.84 135.176 359.632 135.136 359.456 135.008C359.28 134.88 359.176 134.704 359.144 134.48L358.88 132.968L355.304 135.056ZM345.584 128.936C345.456 129.336 345.176 129.512 344.744 129.464L343.472 129.272C343.248 129.24 343.064 129.152 342.92 129.008C342.792 128.848 342.728 128.664 342.728 128.456C342.728 128.408 342.728 128.36 342.728 128.312C342.744 128.264 342.76 128.216 342.776 128.168L346.544 116.6C346.56 116.552 346.576 116.512 346.592 116.48H343.952C343.728 116.48 343.536 116.416 343.376 116.288C343.216 116.144 343.136 115.968 343.136 115.76C343.136 115.552 343.216 115.384 343.376 115.256C343.536 115.112 343.728 115.04 343.952 115.04H352.928C353.152 115.04 353.344 115.112 353.504 115.256C353.664 115.384 353.744 115.552 353.744 115.76C353.744 115.968 353.664 116.144 353.504 116.288C353.344 116.416 353.152 116.48 352.928 116.48H349.16C349.32 116.624 349.4 116.824 349.4 117.08C349.4 117.128 349.392 117.176 349.376 117.224C349.376 117.272 349.368 117.32 349.352 117.368L348.32 120.56H351.896C352.168 120.56 352.384 120.64 352.544 120.8C352.72 120.96 352.808 121.16 352.808 121.4C352.808 121.448 352.8 121.496 352.784 121.544C352.784 121.592 352.776 121.64 352.76 121.688L349.088 134.744C349.04 134.936 348.928 135.08 348.752 135.176C348.592 135.272 348.416 135.312 348.224 135.296L346.904 135.128C346.408 135.048 346.16 134.776 346.16 134.312C346.16 134.2 346.168 134.112 346.184 134.048L347.72 128.696L346.136 127.208L345.584 128.936ZM349.616 122H347.84L346.904 124.904L348.392 126.296L349.616 122ZM371.648 133.184C371.648 133.408 371.568 133.6 371.408 133.76C371.248 133.92 371.056 134 370.832 134H369.392C369.168 134 368.976 133.92 368.816 133.76C368.656 133.6 368.576 133.408 368.576 133.184V121.16C368.512 121.192 368.44 121.208 368.36 121.208C368.264 121.208 368.192 121.2 368.144 121.184L367.112 120.92C366.904 120.872 366.736 120.776 366.608 120.632C366.496 120.472 366.44 120.304 366.44 120.128C366.44 120 366.48 119.84 366.56 119.648L368.528 116.024C368.688 115.72 368.928 115.592 369.248 115.64L370.952 115.856C371.16 115.872 371.328 115.952 371.456 116.096C371.584 116.24 371.648 116.416 371.648 116.624V133.184ZM380.925 115.52C382.925 115.52 384.437 116.28 385.461 117.8C386.485 119.32 386.997 121.512 386.997 124.376C386.997 127.56 386.453 130 385.365 131.696C384.293 133.392 382.709 134.24 380.613 134.24C378.549 134.24 376.957 133.392 375.837 131.696C374.733 130 374.181 127.624 374.181 124.568C374.181 121.624 374.749 119.384 375.885 117.848C377.021 116.296 378.701 115.52 380.925 115.52ZM380.925 116.96C379.805 116.96 378.909 117.624 378.237 118.952C377.581 120.28 377.253 122.152 377.253 124.568C377.253 126.168 377.405 127.592 377.709 128.84C378.029 130.072 378.445 131.04 378.957 131.744C379.469 132.448 380.021 132.8 380.613 132.8C381.237 132.8 381.797 132.448 382.293 131.744C382.789 131.04 383.181 130.056 383.469 128.792C383.773 127.528 383.925 126.056 383.925 124.376C383.925 122.888 383.789 121.592 383.517 120.488C383.261 119.368 382.901 118.504 382.437 117.896C381.989 117.272 381.485 116.96 380.925 116.96Z" fill="black"/>
<rect x="20.5" y="20.5" width="379" height="75" rx="3.5" fill="#F8F5F2" stroke="black"/>
<path d="M48.04 76.42C48.04 76.728 47.886 76.882 47.578 76.882H46.71C46.4767 76.882 46.332 76.784 46.276 76.588H39.682C39.6167 76.7467 39.4767 76.826 39.262 76.826H38.394C38.086 76.826 37.932 76.672 37.932 76.364V72.248C37.932 71.94 38.086 71.786 38.394 71.786H39.262C39.43 71.786 39.5513 71.8373 39.626 71.94H47.578C47.886 71.94 48.04 72.094 48.04 72.402V76.42ZM46.248 72.78H39.724V73.858H46.248V72.78ZM39.724 75.748H46.248V74.698H39.724V75.748ZM43.252 83.112C43.252 83.42 43.098 83.574 42.79 83.574H41.922C41.614 83.574 41.46 83.42 41.46 83.112V82.72L37.512 83.294C37.232 83.3313 37.05 83.2193 36.966 82.958C36.9567 82.93 36.9473 82.9067 36.938 82.888C36.938 82.86 36.938 82.8367 36.938 82.818C36.938 82.6033 37.0687 82.482 37.33 82.454L37.89 82.37C37.8807 82.3327 37.876 82.286 37.876 82.23V78.17V78.128H37.47C37.162 78.128 37.008 77.988 37.008 77.708C37.008 77.428 37.162 77.288 37.47 77.288H48.586C48.894 77.288 49.048 77.428 49.048 77.708C49.048 77.988 48.894 78.128 48.586 78.128H43.252V78.17V83.112ZM39.668 78.17V78.8H41.46V78.17V78.128H39.668V78.17ZM45.016 83.504C44.904 83.6627 44.7733 83.742 44.624 83.742C44.5587 83.742 44.484 83.728 44.4 83.7L43.84 83.504C43.6347 83.4293 43.532 83.3173 43.532 83.168C43.532 83.084 43.5693 82.9907 43.644 82.888L44.708 81.418L44.204 80.984C44.0827 80.8813 44.022 80.774 44.022 80.662C44.022 80.5313 44.1013 80.424 44.26 80.34L44.582 80.172C44.6847 80.116 44.7827 80.088 44.876 80.088C44.9973 80.088 45.1093 80.1347 45.212 80.228L45.436 80.424L46.094 79.514H44.078C43.77 79.514 43.616 79.374 43.616 79.094C43.616 78.814 43.77 78.674 44.078 78.674H47.802C48.0727 78.674 48.208 78.7673 48.208 78.954C48.208 79.0193 48.1707 79.1127 48.096 79.234L46.556 81.362L48.32 82.86C48.4413 82.9627 48.502 83.07 48.502 83.182C48.502 83.3127 48.4227 83.42 48.264 83.504L47.942 83.672C47.8487 83.728 47.7507 83.756 47.648 83.756C47.5267 83.756 47.4147 83.7093 47.312 83.616L45.842 82.37L45.016 83.504ZM39.668 80.48H41.46V79.64H39.668V80.48ZM39.668 81.32V82.104L41.46 81.852V81.32H39.668ZM54.606 83.308C54.606 83.616 54.4707 83.77 54.2 83.77H53.416C53.1453 83.77 53.01 83.616 53.01 83.308V79.318C53.01 79.2993 53.01 79.2853 53.01 79.276L51.316 79.402C51.036 79.4207 50.896 79.332 50.896 79.136C50.896 79.052 50.9287 78.9587 50.994 78.856L52.38 76.854L52.366 76.84L51.078 75.244C50.994 75.132 50.952 75.0247 50.952 74.922C50.952 74.8193 50.994 74.712 51.078 74.6L53.528 71.632C53.64 71.492 53.7753 71.422 53.934 71.422C53.9993 71.422 54.074 71.436 54.158 71.464L54.634 71.66C54.83 71.744 54.928 71.856 54.928 71.996C54.928 72.08 54.886 72.1733 54.802 72.276L52.632 74.922L53.234 75.65L53.85 74.754C53.9527 74.5953 54.088 74.516 54.256 74.516C54.284 74.516 54.312 74.516 54.34 74.516C54.3773 74.516 54.4147 74.5253 54.452 74.544L55.04 74.726C55.2453 74.8007 55.348 74.9173 55.348 75.076C55.348 75.16 55.3153 75.2487 55.25 75.342L53.108 78.422L54.704 78.296L54.382 77.218C54.3727 77.19 54.368 77.148 54.368 77.092C54.368 76.9053 54.494 76.798 54.746 76.77L55.558 76.686C55.8473 76.658 56.0293 76.7653 56.104 77.008L56.65 78.87C56.6687 78.926 56.678 78.9727 56.678 79.01C56.678 79.1873 56.5473 79.29 56.286 79.318L55.474 79.402C55.334 79.4113 55.2173 79.3927 55.124 79.346C55.0307 79.29 54.9747 79.22 54.956 79.136L54.592 79.164C54.6013 79.2107 54.606 79.262 54.606 79.318V83.308ZM57.812 80.424C57.7 80.5827 57.5647 80.662 57.406 80.662C57.3407 80.662 57.2707 80.648 57.196 80.62L56.636 80.438C56.4307 80.3633 56.328 80.2513 56.328 80.102C56.328 80.018 56.3653 79.9247 56.44 79.822L58.624 76.77L58.064 76.112L57.854 76.602C57.77 76.8073 57.63 76.91 57.434 76.91C57.3687 76.91 57.3173 76.9053 57.28 76.896L56.566 76.756C56.3327 76.7 56.216 76.5787 56.216 76.392C56.216 76.3547 56.2207 76.3173 56.23 76.28C56.2487 76.2427 56.2627 76.2053 56.272 76.168L58.134 71.996C58.218 71.7907 58.358 71.688 58.554 71.688C58.6193 71.688 58.6707 71.6927 58.708 71.702L59.422 71.842C59.6553 71.898 59.772 72.0193 59.772 72.206C59.772 72.2433 59.7673 72.2807 59.758 72.318C59.7487 72.346 59.7347 72.3833 59.716 72.43L59.38 73.186H62.32C62.5813 73.186 62.712 73.2747 62.712 73.452C62.712 73.5267 62.6747 73.6247 62.6 73.746L60.43 76.77L63.034 79.822C63.118 79.9153 63.16 80.0087 63.16 80.102C63.16 80.2513 63.0667 80.3633 62.88 80.438L62.39 80.634C62.306 80.662 62.2313 80.676 62.166 80.676C62.0167 80.676 61.886 80.606 61.774 80.466L59.604 77.918L57.812 80.424ZM58.848 74.908L59.45 75.622L60.598 74.026H59.002L58.68 74.754C58.736 74.7913 58.792 74.8427 58.848 74.908ZM61.158 80.606C61.3167 80.69 61.396 80.7973 61.396 80.928C61.396 81.04 61.3307 81.1473 61.2 81.25L61.032 81.39C60.9293 81.4833 60.8127 81.53 60.682 81.53C60.5793 81.53 60.4813 81.4973 60.388 81.432L58.68 80.41C58.5213 80.326 58.442 80.2187 58.442 80.088C58.442 79.976 58.5073 79.8687 58.638 79.766L58.806 79.626C58.9087 79.5327 59.0253 79.486 59.156 79.486C59.2587 79.486 59.3567 79.5187 59.45 79.584L61.158 80.606ZM52.674 82.706C52.646 82.9953 52.52 83.1353 52.296 83.126L51.624 83.084C51.372 83.0653 51.26 82.902 51.288 82.594L51.442 80.48C51.47 80.1813 51.596 80.0413 51.82 80.06L52.492 80.102C52.744 80.1207 52.856 80.284 52.828 80.592L52.674 82.706ZM56.496 82.37C56.524 82.6873 56.4027 82.8553 56.132 82.874L55.39 82.916C55.1473 82.9347 55.012 82.79 54.984 82.482L54.83 80.732C54.802 80.4147 54.9187 80.2467 55.18 80.228L55.922 80.186C56.174 80.1767 56.314 80.3213 56.342 80.62L56.496 82.37ZM61.018 82.86C61.1767 82.944 61.256 83.0513 61.256 83.182C61.256 83.294 61.1907 83.4013 61.06 83.504L60.892 83.644C60.7893 83.7373 60.6727 83.784 60.542 83.784C60.4393 83.784 60.3413 83.7513 60.248 83.686L58.414 82.58C58.2553 82.496 58.176 82.3887 58.176 82.258C58.176 82.146 58.2413 82.0387 58.372 81.936L58.54 81.796C58.6427 81.7027 58.7593 81.656 58.89 81.656C58.9927 81.656 59.0907 81.6887 59.184 81.754L61.018 82.86ZM65.834 83.7C65.6753 83.7187 65.5447 83.686 65.442 83.602C65.3487 83.518 65.302 83.392 65.302 83.224C65.302 83.0187 65.4327 82.8927 65.694 82.846C66.6833 82.65 67.5327 82.132 68.242 81.292L66.982 80.9C66.7673 80.8253 66.66 80.7133 66.66 80.564C66.66 80.508 66.6833 80.4333 66.73 80.34L66.772 80.27C66.884 80.102 67.0193 80.018 67.178 80.018C67.2527 80.018 67.3227 80.032 67.388 80.06L68.816 80.508C69.0307 80.144 69.2267 79.7473 69.404 79.318H67.71C67.6353 79.3833 67.5327 79.416 67.402 79.416H66.534C66.226 79.416 66.072 79.262 66.072 78.954V74.18C66.072 73.872 66.226 73.718 66.534 73.718H67.402C67.5607 73.718 67.682 73.7647 67.766 73.858H70.482C70.4913 73.522 70.5007 73.1813 70.51 72.836C70.51 72.808 70.51 72.7893 70.51 72.78H65.386C65.078 72.78 64.924 72.64 64.924 72.36C64.924 72.08 65.078 71.94 65.386 71.94H76.488C76.796 71.94 76.95 72.08 76.95 72.36C76.95 72.64 76.796 72.78 76.488 72.78H72.274C72.2833 72.864 72.288 72.962 72.288 73.074C72.2787 73.3447 72.2693 73.606 72.26 73.858H75.55C75.858 73.858 76.012 74.012 76.012 74.32V78.954C76.012 79.262 75.858 79.416 75.55 79.416H74.682C74.5513 79.416 74.4487 79.3833 74.374 79.318H71.196C70.944 79.9247 70.65 80.4753 70.314 80.97L76.628 82.916C76.8427 82.9907 76.95 83.1027 76.95 83.252C76.95 83.308 76.9267 83.3827 76.88 83.476L76.838 83.546C76.726 83.714 76.5907 83.798 76.432 83.798C76.3667 83.798 76.2967 83.784 76.222 83.756L69.684 81.74C68.6947 82.804 67.4113 83.4573 65.834 83.7ZM67.864 76.294H70.23C70.3047 75.79 70.3653 75.258 70.412 74.698H67.864V76.294ZM74.22 74.698H72.204C72.1573 75.258 72.092 75.79 72.008 76.294H74.22V74.698ZM67.864 78.478H69.712C69.852 78.058 69.9687 77.61 70.062 77.134H67.864V78.478ZM71.504 78.478H74.22V77.134H71.854C71.7513 77.61 71.6347 78.058 71.504 78.478ZM80.24 83.294C80.128 83.434 79.9927 83.504 79.834 83.504C79.7687 83.504 79.694 83.49 79.61 83.462L79.106 83.266C78.91 83.182 78.812 83.0653 78.812 82.916C78.812 82.8133 78.8493 82.72 78.924 82.636L80.954 80.088H79.134C78.826 80.088 78.672 79.948 78.672 79.668C78.672 79.388 78.826 79.248 79.134 79.248H81.318V78.184V78.142H79.134C78.826 78.142 78.672 78.002 78.672 77.722C78.672 77.442 78.826 77.302 79.134 77.302H79.792V77.288L79.638 74.18V74.11H79.456C79.148 74.11 78.994 73.97 78.994 73.69C78.994 73.41 79.148 73.27 79.456 73.27H81.206V73.228V71.87C81.206 71.562 81.36 71.408 81.668 71.408H82.536C82.844 71.408 82.998 71.562 82.998 71.87V73.228V73.27H84.608C84.916 73.27 85.07 73.41 85.07 73.69C85.07 73.8207 85.0327 73.9233 84.958 73.998C84.8833 74.0727 84.7853 74.11 84.664 74.11C84.6733 74.138 84.6733 74.18 84.664 74.236L84.174 77.302H84.566C84.874 77.302 85.028 77.442 85.028 77.722C85.028 78.002 84.874 78.142 84.566 78.142H83.11V78.184V79.248H84.328C84.636 79.248 84.79 79.388 84.79 79.668C84.79 79.948 84.636 80.088 84.328 80.088H83.11L84.608 81.25C84.7387 81.3527 84.804 81.4553 84.804 81.558C84.804 81.6793 84.72 81.7913 84.552 81.894L84.272 82.062C84.1787 82.1273 84.0807 82.16 83.978 82.16C83.8473 82.16 83.7307 82.1133 83.628 82.02L83.11 81.614V83.532C83.11 83.84 82.956 83.994 82.648 83.994H81.78C81.472 83.994 81.318 83.84 81.318 83.532V81.95L80.24 83.294ZM86.68 83.294C86.6613 83.6113 86.498 83.7607 86.19 83.742L85.322 83.714C85.014 83.6953 84.8693 83.5367 84.888 83.238L85.35 74.698C85.3593 74.5767 85.392 74.4787 85.448 74.404C85.4387 74.376 85.434 74.348 85.434 74.32C85.434 74.1893 85.5133 74.082 85.672 73.998L90.082 71.562C90.1847 71.506 90.2733 71.478 90.348 71.478C90.4693 71.478 90.5907 71.5293 90.712 71.632L90.838 71.744C90.9593 71.856 91.02 71.9633 91.02 72.066C91.02 72.1967 90.9407 72.304 90.782 72.388L87.058 74.446C87.1233 74.5207 87.1513 74.6233 87.142 74.754L87.072 76.042H90.684C90.992 76.042 91.146 76.182 91.146 76.462C91.146 76.742 90.992 76.882 90.684 76.882H90.138V76.924V83.49C90.138 83.798 89.984 83.952 89.676 83.952H88.808C88.5 83.952 88.346 83.798 88.346 83.49V76.924V76.882H87.03L86.68 83.294ZM81.584 77.232V77.302H82.41C82.4007 77.274 82.4007 77.232 82.41 77.176L82.9 74.11H81.43V74.124L81.584 77.232ZM104.04 83.518C104.04 83.826 103.886 83.98 103.578 83.98H102.71C102.402 83.98 102.248 83.826 102.248 83.518V83.42H95.724C95.7053 83.7093 95.5513 83.854 95.262 83.854H94.394C94.086 83.854 93.932 83.7 93.932 83.392V72.528C93.932 72.22 94.086 72.066 94.394 72.066H95.262C95.43 72.066 95.5513 72.1173 95.626 72.22H103.578C103.886 72.22 104.04 72.374 104.04 72.682V83.518ZM102.248 73.06H95.724V77.484H102.248V73.06ZM95.724 82.58H102.248V78.324H95.724V82.58ZM111.88 76.336C111.88 76.2053 111.927 76.0933 112.02 76C112.113 75.9067 112.225 75.86 112.356 75.86H113.28C113.411 75.86 113.523 75.9067 113.616 76C113.709 76.0933 113.756 76.2053 113.756 76.336V76.98C113.756 77.1107 113.709 77.2227 113.616 77.316C113.523 77.4093 113.411 77.456 113.28 77.456H112.356C112.225 77.456 112.113 77.4093 112.02 77.316C111.927 77.2227 111.88 77.1107 111.88 76.98V76.336ZM111.88 80.9C111.88 80.7693 111.927 80.6573 112.02 80.564C112.113 80.4707 112.225 80.424 112.356 80.424H113.28C113.411 80.424 113.523 80.4707 113.616 80.564C113.709 80.6573 113.756 80.7693 113.756 80.9V81.544C113.756 81.6747 113.709 81.7867 113.616 81.88C113.523 81.9733 113.411 82.02 113.28 82.02H112.356C112.225 82.02 112.113 81.9733 112.02 81.88C111.927 81.7867 111.88 81.6747 111.88 81.544V80.9ZM122.324 77.414C122.212 77.526 122.095 77.582 121.974 77.582C121.89 77.582 121.797 77.554 121.694 77.498L121.316 77.316C121.148 77.232 121.064 77.12 121.064 76.98C121.064 76.8773 121.115 76.7747 121.218 76.672L126.622 71.506C126.734 71.394 126.851 71.338 126.972 71.338C127.065 71.338 127.159 71.366 127.252 71.422L127.63 71.604C127.798 71.688 127.882 71.8 127.882 71.94V71.954L127.896 71.968L132.754 76.546C132.857 76.6487 132.908 76.7513 132.908 76.854C132.908 76.994 132.824 77.106 132.656 77.19L132.278 77.372C132.166 77.4187 132.073 77.442 131.998 77.442C131.867 77.442 131.751 77.3907 131.648 77.288L127.014 72.92L122.324 77.414ZM130.122 76.672C130.43 76.672 130.584 76.812 130.584 77.092C130.584 77.372 130.43 77.512 130.122 77.512H123.808C123.5 77.512 123.346 77.372 123.346 77.092C123.346 76.812 123.5 76.672 123.808 76.672H130.122ZM127.322 83.574C127.201 83.6953 127.075 83.756 126.944 83.756C126.888 83.756 126.804 83.7327 126.692 83.686L126.3 83.504C126.123 83.42 126.034 83.308 126.034 83.168C126.034 83.0653 126.085 82.9627 126.188 82.86L129.73 79.318H122.436C122.128 79.318 121.974 79.178 121.974 78.898C121.974 78.618 122.128 78.478 122.436 78.478H131.634C131.895 78.478 132.026 78.5667 132.026 78.744C132.026 78.8467 131.975 78.9493 131.872 79.052L127.322 83.574ZM146.04 83.518C146.04 83.826 145.886 83.98 145.578 83.98H144.71C144.402 83.98 144.248 83.826 144.248 83.518V83.42H137.724C137.705 83.7093 137.551 83.854 137.262 83.854H136.394C136.086 83.854 135.932 83.7 135.932 83.392V72.528C135.932 72.22 136.086 72.066 136.394 72.066H137.262C137.43 72.066 137.551 72.1173 137.626 72.22H145.578C145.886 72.22 146.04 72.374 146.04 72.682V83.518ZM144.248 73.06H137.724V77.484H144.248V73.06ZM137.724 82.58H144.248V78.324H137.724V82.58Z" fill="#4A5565"/>
<path d="M50.06 37.18C50.0733 37.2333 50.08 37.3067 50.08 37.4C50.08 37.7067 49.9067 37.8933 49.56 37.96L48.98 38.06C48.5533 38.1267 48.2933 37.9533 48.2 37.54L47.18 33.62C47.1667 33.58 47.1533 33.54 47.14 33.5C47.14 33.46 47.14 33.42 47.14 33.38C47.14 33.0867 47.32 32.9067 47.68 32.84L48.26 32.74C48.6867 32.6733 48.9467 32.8467 49.04 33.26L50.06 37.18ZM47.86 38.4C47.8733 38.4533 47.88 38.5267 47.88 38.62C47.88 38.9533 47.7 39.14 47.34 39.18L46.76 39.26C46.3467 39.3267 46.0933 39.1533 46 38.74L44.96 34.54C44.9467 34.4867 44.94 34.4133 44.94 34.32C44.94 33.9867 45.12 33.8 45.48 33.76L46.06 33.68C46.4867 33.6133 46.7467 33.7867 46.84 34.2L47.86 38.4ZM41.76 49.18C41.76 49.62 41.54 49.84 41.1 49.84H39.86C39.42 49.84 39.2 49.62 39.2 49.18V35.28C39.2 34.84 39.42 34.62 39.86 34.62H41.1C41.54 34.62 41.76 34.84 41.76 35.28V40.96L49 43.3C49.3067 43.4067 49.46 43.5667 49.46 43.78C49.46 43.8867 49.42 44 49.34 44.12L49.26 44.22C49.1133 44.4467 48.92 44.56 48.68 44.56C48.64 44.56 48.5933 44.56 48.54 44.56C48.5 44.5467 48.4533 44.5333 48.4 44.52L41.76 42.38V49.18ZM66.9822 42.54C67.0889 42.4867 67.2089 42.46 67.3422 42.46C67.5422 42.46 67.7222 42.54 67.8822 42.7L67.9822 42.8C68.1289 42.9467 68.2022 43.0933 68.2022 43.24C68.2022 43.44 68.0755 43.6 67.8222 43.72L55.0822 49.56C54.9755 49.6133 54.8689 49.64 54.7622 49.64C54.4555 49.64 54.3022 49.4467 54.3022 49.06V35.42C54.3022 34.98 54.5222 34.76 54.9622 34.76H56.2022C56.6422 34.76 56.8622 34.98 56.8622 35.42V47.16L66.9822 42.54ZM76.7278 42.6C76.7411 42.64 76.7478 42.6933 76.7478 42.76C76.7478 43.1067 76.5478 43.3 76.1478 43.34L74.9478 43.44C74.5345 43.48 74.2878 43.2867 74.2078 42.86L73.6678 39.78C73.6545 39.74 73.6478 39.6867 73.6478 39.62C73.6478 39.2733 73.8478 39.08 74.2478 39.04L75.4478 38.94C75.8611 38.9 76.1078 39.0933 76.1878 39.52L76.7278 42.6ZM73.4478 43.1C73.4611 43.1533 73.4678 43.2267 73.4678 43.32C73.4678 43.64 73.2878 43.82 72.9278 43.86L71.7678 44C71.3545 44.04 71.0945 43.86 70.9878 43.46L70.2278 40.38C70.2145 40.34 70.2078 40.3 70.2078 40.26C70.2078 40.22 70.2078 40.1867 70.2078 40.16C70.2078 39.84 70.3878 39.66 70.7478 39.62L71.9078 39.48C72.3078 39.44 72.5611 39.62 72.6678 40.02L73.4478 43.1ZM77.7878 49.18C77.6545 49.4733 77.4411 49.62 77.1478 49.62C77.1211 49.62 77.0878 49.62 77.0478 49.62C77.0078 49.62 76.9745 49.6133 76.9478 49.6L75.9278 49.36C75.6078 49.28 75.4478 49.1133 75.4478 48.86C75.4478 48.74 75.4745 48.6267 75.5278 48.52L79.5678 40.18C79.7011 39.8867 79.9145 39.74 80.2078 39.74C80.2345 39.74 80.2678 39.74 80.3078 39.74C80.3478 39.74 80.3811 39.7467 80.4078 39.76L81.4278 40C81.7478 40.08 81.9078 40.2467 81.9078 40.5C81.9078 40.62 81.8811 40.7333 81.8278 40.84L77.7878 49.18ZM91.1452 36.9C91.4118 37.02 91.5452 37.18 91.5452 37.38C91.5452 37.5 91.4852 37.6333 91.3652 37.78L91.2452 37.92C91.0852 38.0933 90.9052 38.18 90.7052 38.18C90.6118 38.18 90.4852 38.1467 90.3252 38.08L85.6052 35.94C85.3385 35.82 85.2052 35.66 85.2052 35.46C85.2052 35.3267 85.2652 35.1933 85.3852 35.06L85.5052 34.92C85.6652 34.7467 85.8452 34.66 86.0452 34.66C86.1385 34.66 86.2652 34.6933 86.4252 34.76L91.1452 36.9ZM90.6652 42.08C90.9452 42.2 91.0852 42.36 91.0852 42.56C91.0852 42.68 91.0318 42.8067 90.9252 42.94L90.8052 43.06C90.6452 43.26 90.4518 43.36 90.2252 43.36C90.1318 43.36 90.0318 43.34 89.9252 43.3L85.0052 41.34C84.7252 41.22 84.5852 41.06 84.5852 40.86C84.5852 40.74 84.6385 40.6133 84.7452 40.48L84.8652 40.36C85.0252 40.16 85.2185 40.06 85.4452 40.06C85.5518 40.06 85.6518 40.08 85.7452 40.12L90.6652 42.08ZM98.9852 42.92C99.1452 42.8533 99.2785 42.82 99.3852 42.82C99.5852 42.82 99.7585 42.8933 99.9052 43.04L100.065 43.18C100.212 43.3267 100.285 43.4733 100.285 43.62C100.285 43.82 100.165 43.98 99.9252 44.1L88.1452 50.08C87.9852 50.1467 87.8518 50.18 87.7452 50.18C87.5452 50.18 87.3718 50.1067 87.2252 49.96L87.0652 49.82C86.9185 49.6733 86.8452 49.5267 86.8452 49.38C86.8452 49.18 86.9652 49.02 87.2052 48.9L98.9852 42.92ZM110.074 38.4C110.3 38.5467 110.414 38.7 110.414 38.86C110.414 39.02 110.32 39.1733 110.134 39.32L109.894 39.52C109.734 39.64 109.574 39.7 109.414 39.7C109.267 39.7 109.12 39.6533 108.974 39.56L103.674 36.34C103.447 36.1933 103.334 36.04 103.334 35.88C103.334 35.72 103.427 35.5667 103.614 35.42L103.854 35.22C104.014 35.1 104.174 35.04 104.334 35.04C104.48 35.04 104.627 35.0867 104.774 35.18L110.074 38.4ZM116.534 40.56C116.68 40.4667 116.834 40.42 116.994 40.42C117.154 40.42 117.307 40.4733 117.454 40.58L117.714 40.78C117.9 40.9267 117.994 41.08 117.994 41.24C117.994 41.4133 117.887 41.5667 117.674 41.7L105.914 49.1C105.767 49.1933 105.614 49.24 105.454 49.24C105.294 49.24 105.14 49.1867 104.994 49.08L104.734 48.88C104.547 48.7333 104.454 48.58 104.454 48.42C104.454 48.2467 104.56 48.0933 104.774 47.96L116.534 40.56ZM139.437 34.7C139.45 34.7533 139.457 34.8267 139.457 34.92C139.457 35.2267 139.284 35.4133 138.937 35.48L138.357 35.58C137.93 35.6467 137.67 35.4733 137.577 35.06L136.557 31.14C136.544 31.1 136.53 31.06 136.517 31.02C136.517 30.98 136.517 30.94 136.517 30.9C136.517 30.6067 136.697 30.4267 137.057 30.36L137.637 30.26C138.064 30.1933 138.324 30.3667 138.417 30.78L139.437 34.7ZM137.237 35.92C137.25 35.9733 137.257 36.0467 137.257 36.14C137.257 36.4733 137.077 36.66 136.717 36.7L136.137 36.78C135.724 36.8467 135.47 36.6733 135.377 36.26L134.337 32.06C134.324 32.0067 134.317 31.9333 134.317 31.84C134.317 31.5067 134.497 31.32 134.857 31.28L135.437 31.2C135.864 31.1333 136.124 31.3067 136.217 31.72L137.237 35.92ZM122.937 42.62C122.777 42.86 122.584 42.98 122.357 42.98C122.264 42.98 122.164 42.96 122.057 42.92L121.237 42.66C120.93 42.5533 120.777 42.3867 120.777 42.16C120.777 42.04 120.824 41.9133 120.917 41.78L125.557 34.76C125.717 34.52 125.91 34.4 126.137 34.4C126.244 34.4 126.344 34.42 126.437 34.46L127.257 34.72C127.564 34.8267 127.717 34.9933 127.717 35.22C127.717 35.3267 127.67 35.4533 127.577 35.6L127.497 35.72H136.717C137.09 35.72 137.277 35.86 137.277 36.14C137.277 36.2467 137.237 36.3733 137.157 36.52L129.157 49.38C128.997 49.6333 128.797 49.76 128.557 49.76C128.49 49.76 128.404 49.7467 128.297 49.72L127.437 49.46C127.13 49.3533 126.977 49.1867 126.977 48.96C126.977 48.8533 127.017 48.7333 127.097 48.6L134.337 36.92H126.697L122.937 42.62Z" fill="black"/>
<path d="M360.579 38.6667L364.368 42.6667L377 29.3333M375.737 40V49.3333C375.737 50.0406 375.471 50.7189 374.997 51.219C374.523 51.719 373.881 52 373.211 52H355.526C354.856 52 354.214 51.719 353.74 51.219C353.266 50.7189 353 50.0406 353 49.3333V30.6667C353 29.9594 353.266 29.2811 353.74 28.781C354.214 28.281 354.856 28 355.526 28H369.421" stroke="#078080" stroke-width="3" stroke-linecap="round" stroke-linejoin="round"/>
<path d="M357 72.3333H358.667M358.667 72.3333H372M358.667 72.3333V84C358.667 84.442 358.842 84.866 359.155 85.1785C359.467 85.4911 359.891 85.6667 360.333 85.6667H368.667C369.109 85.6667 369.533 85.4911 369.845 85.1785C370.158 84.866 370.333 84.442 370.333 84V72.3333M361.167 72.3333V70.6667C361.167 70.2246 361.342 69.8007 361.655 69.4882C361.967 69.1756 362.391 69 362.833 69H366.167C366.609 69 367.033 69.1756 367.345 69.4882C367.658 69.8007 367.833 70.2246 367.833 70.6667V72.3333M362.833 76.5V81.5M366.167 76.5V81.5" stroke="#1E1E1E" stroke-width="2" stroke-linecap="round" stroke-linejoin="round"/>
<defs>
<filter id="filter0_d_225_374" x="0" y="0" width="420" height="203" filterUnits="userSpaceOnUse" color-interpolation-filters="sRGB">
<feFlood flood-opacity="0" result="BackgroundImageFix"/>
<feColorMatrix in="SourceAlpha" type="matrix" values="0 0 0 0 0 0 0 0 0 0 0 0 0 0 0 0 0 0 127 0" result="hardAlpha"/>
<feOffset dy="2"/>
<feGaussianBlur stdDeviation="2"/>
<feComposite in2="hardAlpha" operator="out"/>
<feColorMatrix type="matrix" values="0 0 0 0 0 0 0 0 0 0 0 0 0 0 0 0 0 0 0.25 0"/>
<feBlend mode="normal" in2="BackgroundImageFix" result="effect1_dropShadow_225_374"/>
<feBlend mode="normal" in="SourceGraphic" in2="effect1_dropShadow_225_374" result="shape"/>
</filter>
</defs>
</svg>
