<svg width="122" height="36" viewBox="0 0 122 36" fill="none" xmlns="http://www.w3.org/2000/svg">
<rect width="122" height="36" rx="4" fill="#078080"/>
<path d="M104 15.2998L110 20.6998L116 15.2998" stroke="white" stroke-linecap="round" stroke-linejoin="round"/>
<path d="M50.8351 21.464C50.7497 21.7947 50.5417 21.9333 50.2111 21.88L49.2831 21.768C48.9844 21.736 48.8351 21.5867 48.8351 21.32C48.8351 21.288 48.8457 21.2293 48.8671 21.144L50.0671 16.744H49.0751C48.7231 16.744 48.5471 16.584 48.5471 16.264C48.5471 15.944 48.7231 15.784 49.0751 15.784H50.3231L50.9471 13.512C51.0324 13.1813 51.2404 13.0427 51.5711 13.096L52.4991 13.208C52.7977 13.24 52.9471 13.3893 52.9471 13.656C52.9471 13.688 52.9364 13.7467 52.9151 13.832L52.3871 15.784H53.7631C54.1151 15.784 54.2911 15.944 54.2911 16.264C54.2911 16.584 54.1151 16.744 53.7631 16.744H52.1151L50.8351 21.464ZM60.4671 17.736C60.5524 17.8533 60.5951 17.96 60.5951 18.056C60.5951 18.2373 60.4777 18.3707 60.2431 18.456L59.6031 18.68C59.5284 18.712 59.4484 18.728 59.3631 18.728C59.1817 18.728 59.0271 18.6373 58.8991 18.456L56.6271 15.304C56.5417 15.1867 56.4991 15.08 56.4991 14.984C56.4991 14.8027 56.6164 14.6693 56.8511 14.584L57.4911 14.36C57.5764 14.328 57.6564 14.312 57.7311 14.312C57.9124 14.312 58.0671 14.4027 58.1951 14.584L60.4671 17.736ZM59.7631 23C59.8804 23.1173 59.9391 23.2293 59.9391 23.336C59.9391 23.5067 59.8271 23.6347 59.6031 23.72L59.0751 23.928C59.0004 23.96 58.9151 23.976 58.8191 23.976C58.6591 23.976 58.5044 23.9013 58.3551 23.752C58.0351 23.4213 57.6884 23.1173 57.3151 22.84V23.032C57.3151 23.8533 57.0377 24.488 56.4831 24.936C55.9284 25.384 55.1657 25.608 54.1951 25.608C53.5444 25.608 52.9524 25.4907 52.4191 25.256C51.8857 25.032 51.4591 24.7173 51.1391 24.312C50.8191 23.9067 50.6591 23.4373 50.6591 22.904C50.6591 22.4453 50.8137 22.0453 51.1231 21.704C51.4324 21.352 51.8591 21.08 52.4031 20.888C52.9577 20.696 53.5871 20.6 54.2911 20.6C54.6004 20.6 54.9257 20.632 55.2671 20.696V17.816C55.2671 17.464 55.4431 17.288 55.7951 17.288H56.7871C57.1391 17.288 57.3151 17.464 57.3151 17.816V21.384C57.8164 21.6293 58.2751 21.896 58.6911 22.184C59.1177 22.472 59.4751 22.744 59.7631 23ZM52.7071 22.904C52.7071 23.16 52.7497 23.4267 52.8351 23.704C52.9204 23.9707 53.0697 24.1947 53.2831 24.376C53.5071 24.5573 53.8111 24.648 54.1951 24.648C54.5684 24.648 54.8404 24.5307 55.0111 24.296C55.1817 24.0613 55.2671 23.64 55.2671 23.032V21.736C54.9044 21.6187 54.5791 21.56 54.2911 21.56C53.7044 21.56 53.2937 21.6613 53.0591 21.864C52.8244 22.0667 52.7071 22.4133 52.7071 22.904ZM71.1268 20.232C71.1481 19.88 71.3295 19.704 71.6708 19.704H72.6628C73.0255 19.704 73.1961 19.8853 73.1748 20.248C73.1108 21.3893 72.8495 22.376 72.3908 23.208C71.9321 24.0293 71.3028 24.6587 70.5028 25.096C69.7028 25.5333 68.7588 25.752 67.6708 25.752C66.1881 25.752 65.0255 25.3573 64.1828 24.568C63.3508 23.7787 62.9348 22.68 62.9348 21.272C62.9348 20.984 62.9455 20.6107 62.9668 20.152C62.9881 19.6933 63.0148 19.192 63.0468 18.648C63.0788 18.0933 63.1161 17.5333 63.1588 16.968C63.2015 16.392 63.2441 15.848 63.2868 15.336C63.3401 14.8133 63.3881 14.36 63.4308 13.976C63.4628 13.6453 63.6548 13.4907 64.0068 13.512L64.9668 13.576C65.3188 13.5973 65.4788 13.784 65.4468 14.136C65.4041 14.5093 65.3615 14.952 65.3188 15.464C65.2761 15.9653 65.2335 16.4987 65.1908 17.064C65.1481 17.6187 65.1108 18.168 65.0788 18.712C65.0468 19.2453 65.0201 19.736 64.9988 20.184C64.9881 20.632 64.9828 20.9947 64.9828 21.272C64.9828 22.424 65.2121 23.2987 65.6708 23.896C66.1295 24.4933 66.7961 24.792 67.6708 24.792C68.6841 24.792 69.4948 24.3867 70.1028 23.576C70.7108 22.7653 71.0521 21.6507 71.1268 20.232Z" fill="white"/>
</svg>
