<svg width="205" height="56" viewBox="0 0 205 56" fill="none" xmlns="http://www.w3.org/2000/svg">
<rect x="0.5" y="0.5" width="204" height="55" rx="3.5" stroke="#078080"/>
<path d="M104.992 21H107.992M107.992 21H110.992M107.992 21V18M107.992 21V24" stroke="#078080" stroke-width="2" stroke-linecap="round" stroke-linejoin="round"/>
<path d="M95 13.4V8.6C95 8.44087 95.0632 8.28826 95.1757 8.17574C95.2883 8.06321 95.4409 8 95.6 8H100.4C100.559 8 100.712 8.06321 100.824 8.17574C100.937 8.28826 101 8.44087 101 8.6V13.4C101 13.5591 100.937 13.7117 100.824 13.8243C100.712 13.9368 100.559 14 100.4 14H95.6C95.4409 14 95.2883 13.9368 95.1757 13.8243C95.0632 13.7117 95 13.5591 95 13.4ZM95 23.4V18.6C95 18.4409 95.0632 18.2883 95.1757 18.1757C95.2883 18.0632 95.4409 18 95.6 18H100.4C100.559 18 100.712 18.0632 100.824 18.1757C100.937 18.2883 101 18.4409 101 18.6V23.4C101 23.5591 100.937 23.7117 100.824 23.8243C100.712 23.9368 100.559 24 100.4 24H95.6C95.4409 24 95.2883 23.9368 95.1757 23.8243C95.0632 23.7117 95 23.5591 95 23.4ZM105 13.4V8.6C105 8.44087 105.063 8.28826 105.176 8.17574C105.288 8.06321 105.441 8 105.6 8H110.4C110.559 8 110.712 8.06321 110.824 8.17574C110.937 8.28826 111 8.44087 111 8.6V13.4C111 13.5591 110.937 13.7117 110.824 13.8243C110.712 13.9368 110.559 14 110.4 14H105.6C105.441 14 105.288 13.9368 105.176 13.8243C105.063 13.7117 105 13.5591 105 13.4Z" stroke="#078080" stroke-width="2"/>
<path d="M41.6016 44.252C41.5056 44.372 41.3896 44.432 41.2536 44.432C41.1976 44.432 41.1336 44.42 41.0616 44.396L40.6296 44.228C40.4616 44.156 40.3776 44.056 40.3776 43.928C40.3776 43.84 40.4096 43.76 40.4736 43.688L42.2136 41.504H40.6536C40.3896 41.504 40.2576 41.384 40.2576 41.144C40.2576 40.904 40.3896 40.784 40.6536 40.784H42.5256V39.872V39.836H40.6536C40.3896 39.836 40.2576 39.716 40.2576 39.476C40.2576 39.236 40.3896 39.116 40.6536 39.116H41.2176V39.104L41.0856 36.44V36.38H40.9296C40.6656 36.38 40.5336 36.26 40.5336 36.02C40.5336 35.78 40.6656 35.66 40.9296 35.66H42.4296V35.624V34.46C42.4296 34.196 42.5616 34.064 42.8256 34.064H43.5696C43.8336 34.064 43.9656 34.196 43.9656 34.46V35.624V35.66H45.3456C45.6096 35.66 45.7416 35.78 45.7416 36.02C45.7416 36.132 45.7096 36.22 45.6456 36.284C45.5816 36.348 45.4976 36.38 45.3936 36.38C45.4016 36.404 45.4016 36.44 45.3936 36.488L44.9736 39.116H45.3096C45.5736 39.116 45.7056 39.236 45.7056 39.476C45.7056 39.716 45.5736 39.836 45.3096 39.836H44.0616V39.872V40.784H45.1056C45.3696 40.784 45.5016 40.904 45.5016 41.144C45.5016 41.384 45.3696 41.504 45.1056 41.504H44.0616L45.3456 42.5C45.4576 42.588 45.5136 42.676 45.5136 42.764C45.5136 42.868 45.4416 42.964 45.2976 43.052L45.0576 43.196C44.9776 43.252 44.8936 43.28 44.8056 43.28C44.6936 43.28 44.5936 43.24 44.5056 43.16L44.0616 42.812V44.456C44.0616 44.72 43.9296 44.852 43.6656 44.852H42.9216C42.6576 44.852 42.5256 44.72 42.5256 44.456V43.1L41.6016 44.252ZM47.1216 44.252C47.1056 44.524 46.9656 44.652 46.7016 44.636L45.9576 44.612C45.6936 44.596 45.5696 44.46 45.5856 44.204L45.9816 36.884C45.9896 36.78 46.0176 36.696 46.0656 36.632C46.0576 36.608 46.0536 36.584 46.0536 36.56C46.0536 36.448 46.1216 36.356 46.2576 36.284L50.0376 34.196C50.1256 34.148 50.2016 34.124 50.2656 34.124C50.3696 34.124 50.4736 34.168 50.5776 34.256L50.6856 34.352C50.7896 34.448 50.8416 34.54 50.8416 34.628C50.8416 34.74 50.7736 34.832 50.6376 34.904L47.4456 36.668C47.5016 36.732 47.5256 36.82 47.5176 36.932L47.4576 38.036H50.5536C50.8176 38.036 50.9496 38.156 50.9496 38.396C50.9496 38.636 50.8176 38.756 50.5536 38.756H50.0856V38.792V44.42C50.0856 44.684 49.9536 44.816 49.6896 44.816H48.9456C48.6816 44.816 48.5496 44.684 48.5496 44.42V38.792V38.756H47.4216L47.1216 44.252ZM42.7536 39.056V39.116H43.4616C43.4536 39.092 43.4536 39.056 43.4616 39.008L43.8816 36.38H42.6216V36.392L42.7536 39.056ZM53.4216 44.396C53.3256 44.492 53.2256 44.54 53.1216 44.54C53.0336 44.54 52.9536 44.52 52.8816 44.48L52.5336 44.312C52.3896 44.248 52.3176 44.156 52.3176 44.036C52.3176 43.956 52.3536 43.868 52.4256 43.772C52.7296 43.388 52.9856 42.888 53.1936 42.272C53.4096 41.656 53.5776 40.896 53.6976 39.992H52.9176C52.6536 39.992 52.5216 39.872 52.5216 39.632C52.5216 39.392 52.6536 39.272 52.9176 39.272H53.7936C53.8576 38.64 53.9056 37.94 53.9376 37.172H53.0016C52.7376 37.172 52.6056 37.052 52.6056 36.812C52.6056 36.572 52.7376 36.452 53.0016 36.452H53.9736C53.9896 35.908 53.9976 35.324 53.9976 34.7C53.9976 34.428 54.1296 34.292 54.3936 34.292H55.1376C55.4016 34.292 55.5336 34.604 55.5336 35.228C55.5336 35.66 55.5256 36.068 55.5096 36.452H56.5176C56.7816 36.452 56.9136 36.572 56.9136 36.812C56.9136 37.052 56.7816 37.172 56.5176 37.172H55.4856C55.4536 37.956 55.4056 38.656 55.3416 39.272H56.6016C56.8656 39.272 56.9976 39.392 56.9976 39.632C56.9976 39.872 56.8656 39.992 56.6016 39.992H55.8576L56.9136 42.848C56.9376 42.904 56.9496 42.964 56.9496 43.028C56.9496 43.196 56.8456 43.3 56.6376 43.34L55.9896 43.46C55.9736 43.46 55.9576 43.464 55.9416 43.472C55.9256 43.472 55.9096 43.472 55.8936 43.472C55.7016 43.472 55.5696 43.376 55.4976 43.184L54.9336 41.648C54.7656 42.232 54.5576 42.748 54.3096 43.196C54.0616 43.636 53.7656 44.036 53.4216 44.396ZM58.1496 44.444C58.0536 44.588 57.9296 44.66 57.7776 44.66C57.7376 44.66 57.6856 44.652 57.6216 44.636L57.1056 44.48C56.9216 44.416 56.8296 44.32 56.8296 44.192C56.8296 44.152 56.8376 44.112 56.8536 44.072C56.8696 44.04 56.8896 44.004 56.9136 43.964L58.2936 41.792H57.6816C57.4176 41.792 57.2856 41.66 57.2856 41.396V34.712C57.2856 34.448 57.4176 34.316 57.6816 34.316H58.4256C58.6096 34.316 58.7296 34.384 58.7856 34.52H62.2176C62.4816 34.52 62.6136 34.652 62.6136 34.916V41.588C62.6136 41.852 62.4816 41.984 62.2176 41.984H61.4736C61.4416 41.984 61.4096 41.98 61.3776 41.972V43.64H61.7856V43.412C61.7856 43.268 61.9176 43.196 62.1816 43.196H62.6856C62.9496 43.196 63.0816 43.328 63.0816 43.592V43.964C63.0816 44.228 62.9496 44.36 62.6856 44.36H60.2376C59.9736 44.36 59.8416 44.228 59.8416 43.964V41.78L59.8176 41.828L58.1496 44.444ZM61.0776 35.24H58.8216V36.812H61.0776V35.24ZM58.8216 38.816H61.0776V37.532H58.8216V38.816ZM58.8216 40.856H61.0776V39.536H58.8216V40.856ZM67.7376 44.252C67.7376 44.516 67.6056 44.648 67.3416 44.648H66.5976C66.3336 44.648 66.2016 44.516 66.2016 44.252V39.428L65.9256 39.872C65.8296 40.024 65.7096 40.1 65.5656 40.1C65.5256 40.1 65.4736 40.092 65.4096 40.076L64.8936 39.92C64.7096 39.856 64.6176 39.756 64.6176 39.62C64.6176 39.556 64.6416 39.484 64.6896 39.404L67.7736 34.436C67.8696 34.284 67.9896 34.208 68.1336 34.208C68.1736 34.208 68.2256 34.216 68.2896 34.232L68.8056 34.388C68.9896 34.452 69.0816 34.552 69.0816 34.688C69.0816 34.744 69.0576 34.816 69.0096 34.904L67.6536 37.088C67.7096 37.16 67.7376 37.252 67.7376 37.364V44.252ZM69.6216 40.352C69.5496 40.584 69.3896 40.68 69.1416 40.64L68.4696 40.532C68.2536 40.492 68.1456 40.384 68.1456 40.208C68.1456 40.168 68.1536 40.116 68.1696 40.052L70.0176 34.544C70.0896 34.312 70.2496 34.216 70.4976 34.256L71.1696 34.364C71.3856 34.404 71.4936 34.512 71.4936 34.688C71.4936 34.728 71.4856 34.78 71.4696 34.844L70.9056 36.512H74.3616C74.6256 36.512 74.7576 36.632 74.7576 36.872C74.7576 37.112 74.6256 37.232 74.3616 37.232H72.5256V37.268V39.248H74.3616C74.6256 39.248 74.7576 39.368 74.7576 39.608C74.7576 39.848 74.6256 39.968 74.3616 39.968H72.5256V42.068H74.3616C74.6256 42.068 74.7576 42.188 74.7576 42.428C74.7576 42.668 74.6256 42.788 74.3616 42.788H72.5256V44.252C72.5256 44.516 72.3936 44.648 72.1296 44.648H71.3856C71.1216 44.648 70.9896 44.516 70.9896 44.252V37.268V37.232H70.6656L69.6216 40.352ZM85.9896 35.012C86.1256 35.1 86.1936 35.196 86.1936 35.3C86.1936 35.388 86.1456 35.476 86.0496 35.564L85.9296 35.66C85.8256 35.748 85.7216 35.792 85.6176 35.792C85.5536 35.792 85.4776 35.768 85.3896 35.72L83.9256 34.916C83.7896 34.828 83.7216 34.732 83.7216 34.628C83.7216 34.532 83.7696 34.444 83.8656 34.364L83.9856 34.268C84.0896 34.18 84.1936 34.136 84.2976 34.136C84.3696 34.136 84.4456 34.16 84.5256 34.208L85.9896 35.012ZM78.1176 44.204C78.1096 44.452 77.9736 44.576 77.7096 44.576L76.9776 44.564C76.7056 44.564 76.5776 44.428 76.5936 44.156L76.9296 36.8C76.9376 36.704 76.9616 36.624 77.0016 36.56C76.9616 36.512 76.9416 36.444 76.9416 36.356C76.9416 36.116 77.0736 35.996 77.3376 35.996H81.6336L81.2376 34.772C81.2216 34.708 81.2136 34.656 81.2136 34.616C81.2136 34.432 81.3216 34.328 81.5376 34.304L82.2096 34.208C82.2256 34.208 82.2416 34.208 82.2576 34.208C82.2816 34.2 82.2976 34.196 82.3056 34.196C82.4976 34.196 82.6216 34.296 82.6776 34.496L83.1576 35.996H86.4696C86.7336 35.996 86.8656 36.116 86.8656 36.356C86.8656 36.596 86.7336 36.716 86.4696 36.716H83.3856L84.4176 39.92L85.5096 38.168C85.6056 38.016 85.7256 37.94 85.8696 37.94C85.9096 37.94 85.9616 37.948 86.0256 37.964L86.5416 38.12C86.7256 38.184 86.8176 38.284 86.8176 38.42C86.8176 38.476 86.7936 38.548 86.7456 38.636L84.9336 41.528L85.5336 43.388L86.2176 43.208C86.2816 43.192 86.3256 43.184 86.3496 43.184C86.5096 43.184 86.6336 43.268 86.7216 43.436C86.7616 43.516 86.7816 43.58 86.7816 43.628C86.7816 43.788 86.6856 43.892 86.4936 43.94L84.7296 44.396C84.7056 44.404 84.6816 44.408 84.6576 44.408C84.6336 44.408 84.6136 44.408 84.5976 44.408C84.4216 44.408 84.3016 44.312 84.2376 44.12L83.9256 43.148L83.2776 44.192C83.1816 44.344 83.0616 44.42 82.9176 44.42C82.8776 44.42 82.8256 44.412 82.7616 44.396L82.2456 44.24C82.0616 44.176 81.9696 44.076 81.9696 43.94C81.9696 43.876 81.9936 43.804 82.0416 43.724L83.4096 41.54L81.8616 36.716H78.4416C78.4496 36.756 78.4536 36.8 78.4536 36.848L78.3576 38.912H81.2616C81.5336 38.912 81.6576 39.048 81.6336 39.32L81.2616 44.024C81.2376 44.256 81.1296 44.372 80.9376 44.372C80.9136 44.372 80.8696 44.364 80.8056 44.348L78.9096 43.88C78.7096 43.832 78.6096 43.736 78.6096 43.592C78.6096 43.56 78.6136 43.532 78.6216 43.508C78.6376 43.484 78.6496 43.456 78.6576 43.424L78.6696 43.388C78.7576 43.22 78.8816 43.136 79.0416 43.136C79.0656 43.136 79.0896 43.14 79.1136 43.148C79.1376 43.148 79.1616 43.152 79.1856 43.16L79.7856 43.304L80.0856 39.632H78.3216L78.1176 44.204ZM93.6816 40.436C93.4256 40.436 93.2056 40.344 93.0216 40.16C92.8376 39.976 92.7456 39.756 92.7456 39.5C92.7456 39.244 92.8376 39.024 93.0216 38.84C93.2056 38.656 93.4256 38.564 93.6816 38.564C93.9376 38.564 94.1576 38.656 94.3416 38.84C94.5256 39.024 94.6176 39.244 94.6176 39.5C94.6176 39.756 94.5256 39.976 94.3416 40.16C94.1576 40.344 93.9376 40.436 93.6816 40.436ZM109.414 41.384C109.59 41.448 109.678 41.54 109.678 41.66C109.678 41.732 109.638 41.808 109.558 41.888L109.474 41.972C109.37 42.076 109.258 42.128 109.138 42.128C109.106 42.128 109.074 42.124 109.042 42.116C109.01 42.1 108.974 42.088 108.934 42.08C108.694 41.984 108.418 41.896 108.106 41.816C107.794 41.728 107.466 41.652 107.122 41.588V42.44C107.122 43.08 106.858 43.576 106.33 43.928C105.81 44.28 105.094 44.456 104.182 44.456C103.55 44.456 102.978 44.364 102.466 44.18C101.962 43.996 101.562 43.744 101.266 43.424C100.97 43.104 100.822 42.744 100.822 42.344C100.822 41.976 100.966 41.66 101.254 41.396C101.542 41.124 101.942 40.916 102.454 40.772C102.974 40.62 103.578 40.544 104.266 40.544C104.474 40.544 104.686 40.552 104.902 40.568C105.126 40.576 105.354 40.592 105.586 40.616V39.464H101.386C101.122 39.464 100.99 39.344 100.99 39.104C100.99 38.864 101.122 38.744 101.386 38.744H105.586V37.424H101.386C101.122 37.424 100.99 37.304 100.99 37.064C100.99 36.824 101.122 36.704 101.386 36.704H105.586V35.72C105.586 35.456 105.718 35.324 105.982 35.324H106.726C106.99 35.324 107.122 35.456 107.122 35.72V36.704H109.042C109.306 36.704 109.438 36.824 109.438 37.064C109.438 37.304 109.306 37.424 109.042 37.424H107.122V38.744H109.042C109.306 38.744 109.438 38.864 109.438 39.104C109.438 39.344 109.306 39.464 109.042 39.464H107.122V40.832C107.57 40.912 107.994 41 108.394 41.096C108.794 41.192 109.134 41.288 109.414 41.384ZM102.358 42.344C102.358 43.272 102.966 43.736 104.182 43.736C104.71 43.736 105.074 43.644 105.274 43.46C105.482 43.268 105.586 42.928 105.586 42.44V41.348C105.098 41.292 104.658 41.264 104.266 41.264C103.722 41.264 103.314 41.308 103.042 41.396C102.77 41.484 102.586 41.608 102.49 41.768C102.402 41.928 102.358 42.12 102.358 42.344ZM119.065 43.148C119.153 43.124 119.229 43.112 119.293 43.112C119.349 43.112 119.401 43.12 119.449 43.136C119.505 43.152 119.557 43.18 119.605 43.22L119.701 43.292C119.821 43.372 119.881 43.468 119.881 43.58C119.881 43.716 119.793 43.8 119.617 43.832C119.329 43.896 118.973 43.956 118.549 44.012C118.125 44.076 117.685 44.124 117.229 44.156C116.773 44.196 116.345 44.216 115.945 44.216C115.025 44.216 114.221 44.12 113.533 43.928C112.845 43.728 112.313 43.448 111.937 43.088C111.561 42.72 111.373 42.284 111.373 41.78C111.373 41.324 111.541 40.9 111.877 40.508C112.221 40.116 112.789 39.72 113.581 39.32L112.069 36.128C112.037 36.064 112.021 35.996 112.021 35.924C112.021 35.772 112.117 35.672 112.309 35.624L112.921 35.492C112.953 35.484 112.997 35.48 113.053 35.48C113.229 35.48 113.353 35.564 113.425 35.732L114.853 38.756C115.397 38.532 116.017 38.3 116.713 38.06C117.417 37.82 118.205 37.568 119.077 37.304C119.109 37.288 119.137 37.28 119.161 37.28C119.193 37.28 119.225 37.28 119.257 37.28C119.417 37.28 119.537 37.352 119.617 37.496V37.508C119.665 37.588 119.689 37.664 119.689 37.736C119.689 37.872 119.593 37.972 119.401 38.036C118.121 38.428 117.061 38.78 116.221 39.092C115.381 39.404 114.717 39.7 114.229 39.98C113.749 40.26 113.409 40.544 113.209 40.832C113.009 41.12 112.909 41.436 112.909 41.78C112.909 42.372 113.145 42.808 113.617 43.088C114.097 43.36 114.873 43.496 115.945 43.496C116.329 43.496 116.721 43.48 117.121 43.448C117.521 43.416 117.893 43.376 118.237 43.328C118.581 43.272 118.857 43.212 119.065 43.148ZM127.585 44.732C127.561 44.74 127.537 44.744 127.513 44.744C127.489 44.744 127.469 44.744 127.453 44.744C127.277 44.744 127.153 44.656 127.081 44.48C127.057 44.416 127.045 44.364 127.045 44.324C127.045 44.18 127.145 44.076 127.345 44.012C127.913 43.812 128.369 43.456 128.713 42.944C129.057 42.424 129.229 41.82 129.229 41.132C129.229 40.476 129.137 39.932 128.953 39.5C128.769 39.068 128.477 38.732 128.077 38.492C127.869 40.396 127.425 41.848 126.745 42.848C126.065 43.84 125.153 44.336 124.009 44.336C123.113 44.336 122.421 44.084 121.933 43.58C121.445 43.076 121.201 42.348 121.201 41.396C121.201 39.604 121.909 38.396 123.325 37.772L123.157 36.176C123.133 35.904 123.253 35.76 123.517 35.744L124.261 35.708C124.517 35.692 124.657 35.816 124.681 36.08L124.813 37.376C125.149 37.336 125.501 37.316 125.869 37.316C126.133 37.316 126.385 37.324 126.625 37.34C126.649 36.956 126.665 36.56 126.673 36.152C126.673 35.88 126.805 35.744 127.069 35.744H127.813C128.077 35.744 128.209 35.88 128.209 36.152C128.201 36.664 128.181 37.148 128.149 37.604C129.005 37.86 129.653 38.284 130.093 38.876C130.541 39.468 130.765 40.22 130.765 41.132C130.765 41.708 130.633 42.24 130.369 42.728C130.113 43.208 129.745 43.62 129.265 43.964C128.793 44.308 128.233 44.564 127.585 44.732ZM125.281 41.768C125.305 42.04 125.185 42.184 124.921 42.2L124.177 42.236C123.921 42.252 123.781 42.128 123.757 41.864L123.445 38.9C122.973 39.444 122.737 40.276 122.737 41.396C122.737 42.124 122.845 42.676 123.061 43.052C123.285 43.428 123.601 43.616 124.009 43.616C124.417 43.616 124.793 43.392 125.137 42.944C125.489 42.488 125.789 41.844 126.037 41.012C126.285 40.18 126.461 39.2 126.565 38.072C126.349 38.048 126.117 38.036 125.869 38.036C125.509 38.036 125.185 38.064 124.897 38.12L125.281 41.768ZM139.189 43.628C139.445 43.644 139.573 43.768 139.573 44C139.573 44.248 139.437 44.364 139.165 44.348C138.485 44.316 137.853 44.216 137.269 44.048C136.693 43.88 136.189 43.652 135.757 43.364C135.325 43.076 134.985 42.744 134.737 42.368C134.497 41.984 134.377 41.572 134.377 41.132C134.377 40.276 134.641 39.492 135.169 38.78C135.705 38.06 136.445 37.456 137.389 36.968L132.349 37.328C132.061 37.344 131.917 37.208 131.917 36.92C131.917 36.736 132.037 36.632 132.277 36.608L139.825 36.068C140.065 36.052 140.221 36.156 140.293 36.38C140.309 36.444 140.317 36.488 140.317 36.512C140.317 36.672 140.209 36.784 139.993 36.848C139.145 37.064 138.417 37.38 137.809 37.796C137.201 38.212 136.733 38.704 136.405 39.272C136.077 39.84 135.913 40.46 135.913 41.132C135.913 41.588 136.009 41.972 136.201 42.284C136.401 42.588 136.661 42.836 136.981 43.028C137.309 43.22 137.665 43.364 138.049 43.46C138.433 43.548 138.813 43.604 139.189 43.628ZM144.99 36.524C145.006 36.556 145.018 36.588 145.026 36.62C145.034 36.652 145.038 36.684 145.038 36.716C145.038 36.876 144.938 36.98 144.738 37.028L144.126 37.148C144.11 37.156 144.09 37.16 144.066 37.16C144.042 37.16 144.022 37.16 144.006 37.16C143.838 37.16 143.714 37.072 143.634 36.896L142.674 34.796C142.65 34.732 142.638 34.672 142.638 34.616C142.638 34.448 142.738 34.34 142.938 34.292L143.538 34.172C143.554 34.164 143.574 34.16 143.598 34.16C143.622 34.16 143.642 34.16 143.658 34.16C143.826 34.16 143.95 34.248 144.03 34.424L144.99 36.524ZM152.238 42.62C152.238 42.884 152.106 43.016 151.842 43.016H151.098C150.89 43.016 150.762 42.928 150.714 42.752H147.39C147.342 42.928 147.214 43.016 147.006 43.016H146.262C145.998 43.016 145.866 42.884 145.866 42.62V35.564C145.866 35.3 145.998 35.168 146.262 35.168H147.006C147.19 35.168 147.31 35.236 147.366 35.372H148.146C148.17 35.316 148.218 35.252 148.29 35.18L149.262 34.304C149.358 34.208 149.462 34.16 149.574 34.16C149.654 34.16 149.734 34.184 149.814 34.232L150.114 34.376C150.266 34.448 150.342 34.54 150.342 34.652C150.342 34.732 150.29 34.824 150.186 34.928L149.694 35.372H151.842C152.106 35.372 152.238 35.504 152.238 35.768V38.408C152.238 38.672 152.106 38.804 151.842 38.804H151.098C150.906 38.804 150.782 38.728 150.726 38.576H147.402V39.488H151.842C152.106 39.488 152.238 39.62 152.238 39.884V42.62ZM150.702 36.092H147.402V37.856H150.702V36.092ZM152.022 43.46C152.27 43.42 152.426 43.524 152.49 43.772C152.498 43.796 152.502 43.832 152.502 43.88C152.502 44.056 152.39 44.156 152.166 44.18L148.926 44.588C148.87 44.596 148.818 44.6 148.77 44.6C148.73 44.608 148.686 44.612 148.638 44.612C148.606 44.612 148.574 44.612 148.542 44.612C148.518 44.612 148.486 44.608 148.446 44.6L142.59 44.012C142.374 43.988 142.266 43.904 142.266 43.76C142.266 43.672 142.306 43.588 142.386 43.508L143.43 42.32L142.686 41.18C142.622 41.076 142.59 40.98 142.59 40.892C142.59 40.82 142.614 40.736 142.662 40.64L143.79 38.456H142.53C142.266 38.456 142.134 38.336 142.134 38.096C142.134 37.856 142.266 37.736 142.53 37.736H145.158C145.39 37.736 145.506 37.824 145.506 38C145.506 38.056 145.486 38.124 145.446 38.204L144.054 40.916L144.798 42.056C144.862 42.16 144.894 42.248 144.894 42.32C144.894 42.408 144.85 42.504 144.762 42.608L144.042 43.424L148.662 43.88L152.022 43.46ZM150.702 40.208H147.402V42.032H150.702V40.208ZM156.042 44.336C156.002 44.584 155.854 44.696 155.598 44.672L154.878 44.624C154.606 44.6 154.49 44.452 154.53 44.18L155.67 37.04H154.782C154.518 37.04 154.386 36.92 154.386 36.68C154.386 36.44 154.518 36.32 154.782 36.32H155.79L156.066 34.592C156.106 34.344 156.254 34.232 156.51 34.256L157.23 34.304C157.502 34.328 157.618 34.476 157.578 34.748L157.326 36.32H159.354C159.626 36.32 159.75 36.456 159.726 36.728L159.174 43.988C159.166 44.116 159.122 44.212 159.042 44.276C158.962 44.34 158.858 44.364 158.73 44.348L156.978 44.108C156.746 44.084 156.63 43.984 156.63 43.808C156.63 43.776 156.638 43.736 156.654 43.688V43.676C156.726 43.444 156.882 43.344 157.122 43.376L157.674 43.46L158.178 37.04H157.206L156.042 44.336ZM159.954 35.936C159.954 35.672 160.086 35.54 160.35 35.54H161.094C161.262 35.54 161.378 35.6 161.442 35.72H163.842C164.106 35.72 164.238 35.852 164.238 36.116V44.12C164.238 44.384 164.106 44.516 163.842 44.516H163.098C162.834 44.516 162.702 44.384 162.702 44.12H161.49C161.49 44.384 161.358 44.516 161.094 44.516H160.35C160.086 44.516 159.954 44.384 159.954 44.12V35.936ZM162.702 36.44H161.49V43.4H162.702V36.44Z" fill="#078080"/>
</svg>
