<svg width="122" height="36" viewBox="0 0 122 36" fill="none" xmlns="http://www.w3.org/2000/svg">
<rect width="122" height="36" rx="4" fill="#078080"/>
<path d="M104 15.2998L110 20.6998L116 15.2998" stroke="white" stroke-linecap="round" stroke-linejoin="round"/>
<path d="M54.928 24.952C54.928 25.304 54.752 25.48 54.4 25.48H53.408C53.152 25.48 52.9867 25.3733 52.912 25.16C52.688 25.192 52.4587 25.208 52.224 25.208C49.888 25.208 48.72 24.0667 48.72 21.784C48.72 20.568 49.072 19.592 49.776 18.856C50.48 18.1093 51.5147 17.6133 52.88 17.368V15.912H50.176C49.824 15.912 49.648 15.752 49.648 15.432C49.648 15.112 49.824 14.952 50.176 14.952H52.88V13.688C52.88 13.336 53.056 13.16 53.408 13.16H54.4C54.752 13.16 54.928 13.336 54.928 13.688V14.952H59.824C60.176 14.952 60.352 15.112 60.352 15.432C60.352 15.752 60.176 15.912 59.824 15.912H54.928V17.176C55.0133 17.176 55.0987 17.176 55.184 17.176C55.7493 17.176 56.2773 17.2027 56.768 17.256C56.768 17.2133 56.768 17.1707 56.768 17.128C56.7893 16.776 56.9707 16.6 57.312 16.6H58.304C58.6667 16.6 58.8373 16.7813 58.816 17.144C58.8053 17.3467 58.7893 17.5493 58.768 17.752C60.2933 18.3707 61.056 19.4533 61.056 21C61.056 21.512 60.9387 22.1147 60.704 22.808C60.4693 23.5013 60.1067 24.3227 59.616 25.272C59.4987 25.5067 59.328 25.624 59.104 25.624C59.072 25.624 59.0133 25.6133 58.928 25.592L58.176 25.4C57.9307 25.336 57.808 25.2027 57.808 25C57.808 24.904 57.8293 24.808 57.872 24.712C58.2453 23.9653 58.528 23.2773 58.72 22.648C58.912 22.008 59.008 21.4587 59.008 21C59.008 20.2 58.8533 19.5867 58.544 19.16C58.2667 20.3653 57.8133 21.432 57.184 22.36C56.5547 23.288 55.8027 23.9973 54.928 24.488V24.952ZM55.184 18.136C55.0987 18.136 55.0133 18.136 54.928 18.136V22.616C55.344 22.0613 55.7067 21.4107 56.016 20.664C56.3253 19.9067 56.5387 19.096 56.656 18.232C56.2507 18.168 55.76 18.136 55.184 18.136ZM50.768 21.784C50.768 22.68 50.8853 23.3147 51.12 23.688C51.3547 24.0613 51.7227 24.248 52.224 24.248C52.4373 24.248 52.656 24.216 52.88 24.152V18.408C52.1333 18.632 51.5947 19.016 51.264 19.56C50.9333 20.104 50.768 20.8453 50.768 21.784ZM66.6594 20.424C66.9687 20.3707 67.182 20.4933 67.2994 20.792C67.3314 20.856 67.3474 20.92 67.3474 20.984C67.3474 21.1973 67.2034 21.3307 66.9154 21.384L64.8354 21.768C64.814 21.7787 64.7874 21.784 64.7554 21.784C64.734 21.784 64.7127 21.784 64.6914 21.784C64.4354 21.784 64.27 21.6507 64.1954 21.384C64.0887 20.9787 64.0087 20.5573 63.9554 20.12C63.902 19.6827 63.8754 19.224 63.8754 18.744C63.8754 18.104 63.9234 17.4213 64.0194 16.696C64.1154 15.96 64.2594 15.1547 64.4514 14.28C64.5154 13.96 64.718 13.816 65.0594 13.848L65.9874 13.944C66.286 13.976 66.4354 14.1253 66.4354 14.392C66.4354 14.4133 66.4354 14.44 66.4354 14.472C66.4354 14.504 66.43 14.536 66.4194 14.568C66.2487 15.368 66.1207 16.1253 66.0354 16.84C65.9607 17.544 65.9234 18.2053 65.9234 18.824C65.9234 19.1333 65.934 19.432 65.9554 19.72C65.9767 20.008 66.0087 20.28 66.0514 20.536L66.6594 20.424ZM67.5874 25.56C67.4594 25.6133 67.358 25.64 67.2834 25.64C67.134 25.64 66.99 25.5707 66.8514 25.432L66.7714 25.352C66.654 25.2347 66.5954 25.1227 66.5954 25.016C66.5954 24.8453 66.702 24.712 66.9154 24.616C69.1234 23.4853 70.2274 21.9653 70.2274 20.056C70.2274 19.4373 70.2114 18.8187 70.1794 18.2C70.1474 17.5707 70.1047 16.9733 70.0514 16.408C69.998 15.832 69.934 15.3253 69.8594 14.888C69.806 14.5253 69.9554 14.328 70.3074 14.296L71.2834 14.2C71.614 14.168 71.8114 14.3173 71.8754 14.648C71.9714 15.16 72.046 15.7307 72.0994 16.36C72.1634 16.9787 72.206 17.608 72.2274 18.248C72.2594 18.8773 72.2754 19.48 72.2754 20.056C72.2754 21.1867 71.886 22.2 71.1074 23.096C70.3394 23.992 69.166 24.8133 67.5874 25.56Z" fill="white"/>
</svg>
