<svg width="300" height="76" viewBox="0 0 300 76" fill="none" xmlns="http://www.w3.org/2000/svg">
<mask id="path-1-inside-1_242_447" fill="white">
<path d="M200 0H296C298.209 0 300 1.79086 300 4V72C300 74.2091 298.209 76 296 76H200V0Z"/>
</mask>
<path d="M200 0H296C298.209 0 300 1.79086 300 4V72C300 74.2091 298.209 76 296 76H200V0Z" fill="#F8F5F2"/>
<path d="M200 -1H296C298.761 -1 301 1.23858 301 4H299C299 2.34315 297.657 1 296 1H200V-1ZM301 72C301 74.7614 298.761 77 296 77H200V75H296C297.657 75 299 73.6569 299 72H301ZM200 76V0V76ZM296 -1C298.761 -1 301 1.23858 301 4V72C301 74.7614 298.761 77 296 77V75C297.657 75 299 73.6569 299 72V4C299 2.34315 297.657 1 296 1V-1Z" fill="black" mask="url(#path-1-inside-1_242_447)"/>
<path d="M266.579 18.6667L270.368 22.6667L283 9.33333M281.737 20V29.3333C281.737 30.0406 281.471 30.7189 280.997 31.219C280.523 31.719 279.881 32 279.211 32H261.526C260.856 32 260.214 31.719 259.74 31.219C259.266 30.7189 259 30.0406 259 29.3333V10.6667C259 9.95942 259.266 9.28115 259.74 8.78105C260.214 8.28095 260.856 8 261.526 8H275.421" stroke="#078080" stroke-width="3" stroke-linecap="round" stroke-linejoin="round"/>
<path d="M263 52.3333H264.667M264.667 52.3333H278M264.667 52.3333V64C264.667 64.442 264.842 64.866 265.155 65.1785C265.467 65.4911 265.891 65.6667 266.333 65.6667H274.667C275.109 65.6667 275.533 65.4911 275.845 65.1785C276.158 64.866 276.333 64.442 276.333 64V52.3333M267.167 52.3333V50.6667C267.167 50.2246 267.342 49.8007 267.655 49.4882C267.967 49.1756 268.391 49 268.833 49H272.167C272.609 49 273.033 49.1756 273.345 49.4882C273.658 49.8007 273.833 50.2246 273.833 50.6667V52.3333M268.833 56.5V61.5M272.167 56.5V61.5" stroke="#1E1E1E" stroke-width="2" stroke-linecap="round" stroke-linejoin="round"/>
<mask id="path-5-inside-2_242_447" fill="white">
<path d="M0 0H96C98.2091 0 100 1.79086 100 4V72C100 74.2091 98.2091 76 96 76H0V0Z"/>
</mask>
<path d="M0 0H96C98.2091 0 100 1.79086 100 4V72C100 74.2091 98.2091 76 96 76H0V0Z" fill="#F8F5F2"/>
<path d="M0 -1H96C98.7614 -1 101 1.23858 101 4H99C99 2.34315 97.6569 1 96 1H0V-1ZM101 72C101 74.7614 98.7614 77 96 77H0V75H96C97.6569 75 99 73.6569 99 72H101ZM0 76V0V76ZM96 -1C98.7614 -1 101 1.23858 101 4V72C101 74.7614 98.7614 77 96 77V75C97.6569 75 99 73.6569 99 72V4C99 2.34315 97.6569 1 96 1V-1Z" fill="black" mask="url(#path-5-inside-2_242_447)"/>
<path d="M63 52.3333H64.6667M64.6667 52.3333H78M64.6667 52.3333V64C64.6667 64.442 64.8423 64.866 65.1548 65.1785C65.4674 65.4911 65.8913 65.6667 66.3333 65.6667H74.6667C75.1087 65.6667 75.5326 65.4911 75.8452 65.1785C76.1577 64.866 76.3333 64.442 76.3333 64V52.3333M67.1667 52.3333V50.6667C67.1667 50.2246 67.3423 49.8007 67.6548 49.4882C67.9674 49.1756 68.3913 49 68.8333 49H72.1667C72.6087 49 73.0326 49.1756 73.3452 49.4882C73.6577 49.8007 73.8333 50.2246 73.8333 50.6667V52.3333M68.8333 56.5V61.5M72.1667 56.5V61.5" stroke="#1E1E1E" stroke-width="2" stroke-linecap="round" stroke-linejoin="round"/>
<path d="M80.9167 7.25H61.0833C59.5185 7.25 58.25 8.51853 58.25 10.0833V29.9167C58.25 31.4815 59.5185 32.75 61.0833 32.75H80.9167C82.4815 32.75 83.75 31.4815 83.75 29.9167V10.0833C83.75 8.51853 82.4815 7.25 80.9167 7.25Z" stroke="#1E1E1E" stroke-width="3" stroke-linecap="round" stroke-linejoin="round"/>
<path d="M135.333 31.75H152V24.2792C152 23.8672 152.122 23.4645 152.351 23.122C152.58 22.7795 152.906 22.5125 153.286 22.3548C153.667 22.1972 154.086 22.1559 154.49 22.2363C154.894 22.3166 155.265 22.515 155.556 22.8063L169.277 36.5271C169.668 36.9178 169.887 37.4476 169.887 38C169.887 38.5524 169.668 39.0822 169.277 39.4729L155.556 53.1938C155.265 53.485 154.894 53.6834 154.49 53.7637C154.086 53.8441 153.667 53.8028 153.286 53.6452C152.906 53.4875 152.58 53.2206 152.351 52.878C152.122 52.5355 152 52.1328 152 51.7208V44.25H135.333C134.781 44.25 134.251 44.0305 133.86 43.6398C133.469 43.2491 133.25 42.7192 133.25 42.1667V33.8333C133.25 33.2808 133.469 32.7509 133.86 32.3602C134.251 31.9695 134.781 31.75 135.333 31.75Z" stroke="black" stroke-width="2" stroke-linecap="round" stroke-linejoin="round"/>
</svg>
