<svg width="122" height="36" viewBox="0 0 122 36" fill="none" xmlns="http://www.w3.org/2000/svg">
<rect width="122" height="36" rx="4" fill="#078080"/>
<path d="M104 15.2998L110 20.6998L116 15.2998" stroke="white" stroke-linecap="round" stroke-linejoin="round"/>
<path d="M50.4226 25.416C50.2946 25.6187 50.1346 25.72 49.9426 25.72C49.9106 25.72 49.8786 25.7147 49.8466 25.704C49.8146 25.704 49.7772 25.6987 49.7346 25.688L48.9826 25.48C48.7372 25.416 48.6146 25.288 48.6146 25.096C48.6146 25 48.6359 24.9093 48.6786 24.824C48.9026 24.2693 49.0412 23.5813 49.0946 22.76C48.4332 23.048 47.6972 23.192 46.8866 23.192C46.1612 23.192 45.5212 23.0587 44.9666 22.792C44.4119 22.5147 43.9799 22.1307 43.6706 21.64C43.3719 21.1493 43.2226 20.5787 43.2226 19.928C43.2226 19.3413 43.3932 18.8347 43.7346 18.408C44.0866 17.9707 44.5612 17.6347 45.1586 17.4C45.7559 17.1547 46.4386 17.032 47.2066 17.032C47.6012 17.032 47.9532 17.0587 48.2626 17.112C48.5826 17.1653 48.8706 17.24 49.1266 17.336V15.56H42.1826C41.8306 15.56 41.6546 15.4 41.6546 15.08C41.6546 14.76 41.8306 14.6 42.1826 14.6H49.1266V13.24C49.1266 12.888 49.3026 12.712 49.6546 12.712H50.6466C50.9986 12.712 51.1746 12.888 51.1746 13.24V14.6H53.3666C53.7186 14.6 53.8946 14.76 53.8946 15.08C53.8946 15.4 53.7186 15.56 53.3666 15.56H51.1746V19.864C51.1746 20.024 51.1639 20.184 51.1426 20.344C51.1532 20.5147 51.1586 20.68 51.1586 20.84C51.1692 21 51.1746 21.1547 51.1746 21.304V21.832C51.1746 22.376 51.1532 22.8507 51.1106 23.256C51.0679 23.6613 50.9932 24.0347 50.8866 24.376C50.7799 24.7067 50.6252 25.0533 50.4226 25.416ZM45.2706 19.928C45.2706 20.6427 45.4146 21.208 45.7026 21.624C45.9906 22.0293 46.3852 22.232 46.8866 22.232C47.4946 22.232 47.9852 22.0773 48.3586 21.768C48.7426 21.448 48.9826 21 49.0786 20.424C49.0146 19.5067 48.8439 18.872 48.5666 18.52C48.2892 18.168 47.8359 17.992 47.2066 17.992C45.9159 17.992 45.2706 18.6373 45.2706 19.928ZM67.4392 16.808C67.4499 16.8507 67.4552 16.9093 67.4552 16.984C67.4552 17.2293 67.3165 17.3787 67.0392 17.432L66.5752 17.512C66.2339 17.5653 66.0259 17.4267 65.9512 17.096L65.1352 13.96C65.1245 13.928 65.1139 13.896 65.1032 13.864C65.1032 13.832 65.1032 13.8 65.1032 13.768C65.1032 13.5333 65.2472 13.3893 65.5352 13.336L65.9992 13.256C66.3405 13.2027 66.5485 13.3413 66.6232 13.672L67.4392 16.808ZM65.6792 17.784C65.6899 17.8267 65.6952 17.8853 65.6952 17.96C65.6952 18.2267 65.5512 18.376 65.2632 18.408L64.7992 18.472C64.4685 18.5253 64.2659 18.3867 64.1912 18.056L63.3592 14.696C63.3485 14.6533 63.3432 14.5947 63.3432 14.52C63.3432 14.2533 63.4872 14.104 63.7752 14.072L64.2392 14.008C64.5805 13.9547 64.7885 14.0933 64.8632 14.424L65.6792 17.784ZM66.7512 23.496C66.8472 23.6027 66.8952 23.7093 66.8952 23.816C66.8952 23.9867 66.7885 24.1147 66.5752 24.2L66.0152 24.424C65.9192 24.456 65.8339 24.472 65.7592 24.472C65.5885 24.472 65.4392 24.392 65.3112 24.232C64.3725 23.1227 63.4712 22.0347 62.6072 20.968C61.7432 19.8907 60.9165 18.8187 60.1272 17.752C59.5939 18.744 59.0285 19.7307 58.4312 20.712C57.8445 21.6827 57.2205 22.6533 56.5592 23.624C56.4312 23.816 56.2819 23.912 56.1112 23.912C56.0365 23.912 55.9565 23.896 55.8712 23.864L55.1992 23.656C54.9645 23.5707 54.8472 23.4427 54.8472 23.272C54.8472 23.1653 54.8845 23.0587 54.9592 22.952C55.6312 21.96 56.2925 20.904 56.9432 19.784C57.5939 18.664 58.2285 17.4907 58.8472 16.264C58.9645 16.008 59.1672 15.8747 59.4552 15.864L60.3672 15.832C60.6445 15.8107 60.8792 15.9387 61.0712 16.216C62.0525 17.5707 63.0179 18.8507 63.9672 20.056C64.9165 21.2613 65.8445 22.408 66.7512 23.496ZM78.4338 24.504C78.7751 24.5253 78.9458 24.6907 78.9458 25C78.9458 25.3307 78.7645 25.4853 78.4018 25.464C77.4951 25.4213 76.6525 25.288 75.8738 25.064C75.1058 24.84 74.4338 24.536 73.8578 24.152C73.2818 23.768 72.8285 23.3253 72.4978 22.824C72.1778 22.312 72.0178 21.7627 72.0178 21.176C72.0178 20.0347 72.3698 18.9893 73.0738 18.04C73.7885 17.08 74.7751 16.2747 76.0338 15.624L69.3138 16.104C68.9298 16.1253 68.7378 15.944 68.7378 15.56C68.7378 15.3147 68.8978 15.176 69.2178 15.144L79.2818 14.424C79.6018 14.4027 79.8098 14.5413 79.9058 14.84C79.9271 14.9253 79.9378 14.984 79.9378 15.016C79.9378 15.2293 79.7938 15.3787 79.5058 15.464C78.3751 15.752 77.4045 16.1733 76.5938 16.728C75.7831 17.2827 75.1591 17.9387 74.7218 18.696C74.2845 19.4533 74.0658 20.28 74.0658 21.176C74.0658 21.784 74.1938 22.296 74.4498 22.712C74.7165 23.1173 75.0631 23.448 75.4898 23.704C75.9271 23.96 76.4018 24.152 76.9138 24.28C77.4258 24.3973 77.9325 24.472 78.4338 24.504Z" fill="white"/>
</svg>
