<svg width="207" height="56" viewBox="0 0 207 56" fill="none" xmlns="http://www.w3.org/2000/svg">
<rect x="0.5" y="0.5" width="206" height="55" rx="3.5" stroke="#078080"/>
<path d="M101 10H112M101 16H112M101 22H112M97 10V10.01M97 16V16.01M97 22V22.01" stroke="#078080" stroke-width="2" stroke-linecap="round" stroke-linejoin="round"/>
<path d="M71.812 44.216C71.812 44.48 71.68 44.612 71.416 44.612H70.672C70.408 44.612 70.276 44.48 70.276 44.216V40.064H70.252C70.204 40.064 70.168 40.06 70.144 40.052L69.508 39.92C69.308 39.88 69.208 39.78 69.208 39.62C69.208 39.564 69.22 39.5 69.244 39.428L71.284 34.52C71.372 34.336 71.5 34.244 71.668 34.244C71.716 34.244 71.752 34.248 71.776 34.256L72.412 34.388C72.612 34.428 72.712 34.528 72.712 34.688C72.712 34.744 72.7 34.808 72.676 34.88L71.752 37.112C71.792 37.184 71.812 37.268 71.812 37.364V44.216ZM74.032 44.204C73.936 44.324 73.824 44.384 73.696 44.384C73.64 44.384 73.576 44.372 73.504 44.348L73.084 44.18C72.924 44.116 72.844 44.024 72.844 43.904C72.844 43.816 72.88 43.732 72.952 43.652L74.896 41.324H73.18C72.916 41.324 72.784 41.204 72.784 40.964C72.784 40.724 72.916 40.604 73.18 40.604H75.472V39.752V39.716H74.44C74.384 39.868 74.26 39.944 74.068 39.944H73.324C73.06 39.944 72.928 39.812 72.928 39.548V34.736C72.928 34.472 73.06 34.34 73.324 34.34H74.068C74.236 34.34 74.352 34.4 74.416 34.52H79.012C79.276 34.52 79.408 34.652 79.408 34.916V39.548C79.408 39.812 79.276 39.944 79.012 39.944H78.268C78.076 39.944 77.952 39.868 77.896 39.716H77.008V39.752V40.604H79.156C79.42 40.604 79.552 40.724 79.552 40.964C79.552 41.204 79.42 41.324 79.156 41.324H77.644L79.36 43.64C79.424 43.728 79.456 43.808 79.456 43.88C79.456 44.016 79.368 44.116 79.192 44.18L78.712 44.348C78.68 44.356 78.648 44.36 78.616 44.36C78.592 44.368 78.568 44.372 78.544 44.372C78.4 44.372 78.28 44.308 78.184 44.18L77.008 42.584V44.672C77.008 44.936 76.876 45.068 76.612 45.068H75.868C75.604 45.068 75.472 44.936 75.472 44.672V42.488L74.032 44.204ZM77.872 35.24H74.464V38.996H77.872V35.24ZM87.616 37.172C87.528 37.404 87.368 37.496 87.136 37.448L86.5 37.328C86.3 37.288 86.2 37.188 86.2 37.028C86.2 36.972 86.212 36.908 86.236 36.836L87.196 34.496C87.284 34.264 87.444 34.172 87.676 34.22L88.312 34.34C88.512 34.38 88.612 34.48 88.612 34.64C88.612 34.696 88.6 34.76 88.576 34.832L88.252 35.612H91.252C91.516 35.612 91.648 35.732 91.648 35.972C91.648 36.212 91.516 36.332 91.252 36.332H90.664C90.664 36.38 90.652 36.436 90.628 36.5L90.172 37.76C90.092 37.984 89.932 38.08 89.692 38.048L89.044 37.94C88.828 37.9 88.72 37.796 88.72 37.628C88.72 37.572 88.732 37.516 88.756 37.46L89.164 36.332H87.964L87.616 37.172ZM82.684 37.748C82.62 37.996 82.464 38.1 82.216 38.06L81.52 37.976C81.296 37.952 81.184 37.84 81.184 37.64C81.184 37.616 81.192 37.572 81.208 37.508L82.024 34.532C82.088 34.284 82.244 34.18 82.492 34.22L83.188 34.304C83.412 34.328 83.524 34.44 83.524 34.64C83.524 34.664 83.516 34.708 83.5 34.772L83.272 35.612H85.876C86.14 35.612 86.272 35.732 86.272 35.972C86.272 36.212 86.14 36.332 85.876 36.332H85.036L85.228 37.34C85.236 37.364 85.24 37.4 85.24 37.448C85.24 37.648 85.124 37.76 84.892 37.784L84.172 37.856C83.924 37.88 83.776 37.768 83.728 37.52L83.512 36.392C83.504 36.376 83.5 36.356 83.5 36.332H83.068L82.684 37.748ZM82.936 39.668C82.936 39.932 82.804 40.064 82.54 40.064H81.796C81.532 40.064 81.4 39.932 81.4 39.668V38.516C81.4 38.252 81.532 38.12 81.796 38.12H82.54C82.652 38.12 82.74 38.148 82.804 38.204H85.636V38.18V38.024C85.636 37.76 85.768 37.628 86.032 37.628H86.776C87.04 37.628 87.172 37.76 87.172 38.024V38.18V38.204H91.396C91.636 38.204 91.756 38.308 91.756 38.516C91.756 38.54 91.748 38.584 91.732 38.648L91.432 39.8C91.368 40.048 91.212 40.152 90.964 40.112L90.268 40.028C90.044 40.004 89.932 39.892 89.932 39.692C89.932 39.668 89.94 39.624 89.956 39.56L90.124 38.924H82.936V39.668ZM89.452 41.372C89.452 41.636 89.32 41.768 89.056 41.768H88.528C88.464 41.808 88.384 41.828 88.288 41.828H84.7V42.152H89.452C89.716 42.152 89.848 42.284 89.848 42.548V44.156C89.848 44.42 89.716 44.552 89.452 44.552H88.708C88.636 44.552 88.572 44.54 88.516 44.516H84.496C84.44 44.54 84.376 44.552 84.304 44.552H83.56C83.296 44.552 83.164 44.42 83.164 44.156V39.74C83.164 39.476 83.296 39.344 83.56 39.344H84.052C84.116 39.288 84.208 39.26 84.328 39.26H89.056C89.32 39.26 89.452 39.392 89.452 39.656V41.372ZM87.916 39.98H84.7V41.108H87.916V39.98ZM88.312 42.872H84.7V43.796H88.312V42.872ZM103.42 38.24C103.42 38.504 103.288 38.636 103.024 38.636H102.28C102.128 38.636 102.02 38.588 101.956 38.492H98.968C98.904 38.588 98.796 38.636 98.644 38.636H97.9C97.636 38.636 97.504 38.504 97.504 38.24V34.592C97.504 34.328 97.636 34.196 97.9 34.196H98.644C98.852 34.196 98.98 34.284 99.028 34.46H103.024C103.288 34.46 103.42 34.592 103.42 34.856V38.24ZM96.112 39.908C96.16 39.884 96.204 39.864 96.244 39.848C96.284 39.832 96.324 39.824 96.364 39.824C96.452 39.824 96.548 39.868 96.652 39.956L96.772 40.052C96.876 40.132 96.928 40.22 96.928 40.316C96.928 40.42 96.856 40.516 96.712 40.604L94.072 42.092C94.024 42.116 93.98 42.136 93.94 42.152C93.9 42.168 93.86 42.176 93.82 42.176C93.732 42.176 93.636 42.132 93.532 42.044L93.412 41.948C93.308 41.868 93.256 41.78 93.256 41.684C93.256 41.572 93.328 41.476 93.472 41.396L94.588 40.772C94.556 40.716 94.54 40.644 94.54 40.556V37.94H93.532C93.268 37.94 93.136 37.82 93.136 37.58C93.136 37.34 93.268 37.22 93.532 37.22H94.54V34.892C94.54 34.628 94.672 34.496 94.936 34.496H95.68C95.944 34.496 96.076 34.628 96.076 34.892V37.22H96.736C97 37.22 97.132 37.34 97.132 37.58C97.132 37.82 97 37.94 96.736 37.94H96.076V39.932L96.112 39.908ZM101.884 35.18H99.04V36.092H101.884V35.18ZM99.04 37.772H101.884V36.812H99.04V37.772ZM97.852 43.184C97.796 43.376 97.668 43.472 97.468 43.472C97.42 43.472 97.384 43.468 97.36 43.46L96.832 43.34C96.632 43.292 96.532 43.184 96.532 43.016C96.532 42.992 96.532 42.968 96.532 42.944C96.54 42.912 96.548 42.88 96.556 42.848L97.648 39.548H97.036C96.772 39.548 96.64 39.428 96.64 39.188C96.64 38.948 96.772 38.828 97.036 38.828H103.492C103.756 38.828 103.888 38.948 103.888 39.188C103.888 39.428 103.756 39.548 103.492 39.548H99.016V39.584C99.016 39.608 99.016 39.636 99.016 39.668C99.016 39.692 99.008 39.72 98.992 39.752L98.944 39.896H103.264C103.504 39.896 103.624 40 103.624 40.208C103.624 40.256 103.62 40.296 103.612 40.328L102.736 44.24C102.688 44.448 102.576 44.552 102.4 44.552C102.344 44.552 102.3 44.548 102.268 44.54L101.368 44.312C101.16 44.248 101.056 44.148 101.056 44.012C101.056 43.964 101.068 43.916 101.092 43.868L101.104 43.844C101.2 43.628 101.288 43.528 101.368 43.544L101.476 43.568L102.124 40.616H101.848V40.628C101.848 40.66 101.84 40.708 101.824 40.772L100.888 43.808C100.824 44.016 100.708 44.12 100.54 44.12C100.524 44.12 100.504 44.12 100.48 44.12C100.456 44.12 100.436 44.116 100.42 44.108L99.976 44C99.76 43.952 99.652 43.844 99.652 43.676C99.652 43.644 99.66 43.596 99.676 43.532L100.576 40.616H100.288V40.628C100.288 40.652 100.288 40.676 100.288 40.7C100.288 40.724 100.28 40.752 100.264 40.784L99.256 43.772C99.192 43.972 99.072 44.072 98.896 44.072C98.88 44.072 98.86 44.072 98.836 44.072C98.812 44.072 98.792 44.068 98.776 44.06L98.344 43.952C98.136 43.904 98.032 43.796 98.032 43.628C98.032 43.604 98.032 43.58 98.032 43.556C98.04 43.532 98.048 43.504 98.056 43.472L99.016 40.616H98.704L97.852 43.184ZM111.94 44.252C111.924 44.524 111.784 44.652 111.52 44.636L110.776 44.612C110.512 44.596 110.388 44.46 110.404 44.204L110.8 36.884C110.808 36.78 110.836 36.696 110.884 36.632C110.876 36.608 110.872 36.584 110.872 36.56C110.872 36.448 110.94 36.356 111.076 36.284L114.856 34.196C114.944 34.148 115.02 34.124 115.084 34.124C115.188 34.124 115.292 34.168 115.396 34.256L115.504 34.352C115.608 34.432 115.66 34.524 115.66 34.628C115.66 34.74 115.592 34.832 115.456 34.904L112.264 36.668C112.32 36.732 112.344 36.82 112.336 36.932L112.276 38.036H115.372C115.636 38.036 115.768 38.156 115.768 38.396C115.768 38.636 115.636 38.756 115.372 38.756H114.904V38.792V44.42C114.904 44.684 114.772 44.816 114.508 44.816H113.764C113.5 44.816 113.368 44.684 113.368 44.42V38.792V38.756H112.24L111.94 44.252ZM110.164 34.52C110.428 34.52 110.56 34.64 110.56 34.88C110.56 35.12 110.428 35.24 110.164 35.24H106.168C105.904 35.24 105.772 35.12 105.772 34.88C105.772 34.64 105.904 34.52 106.168 34.52H110.164ZM106.816 44.324C106.808 44.572 106.672 44.696 106.408 44.696L105.664 44.684C105.392 44.684 105.264 44.548 105.28 44.276L105.616 37.052C105.624 36.804 105.756 36.68 106.012 36.68L106.756 36.692C106.964 36.692 107.088 36.78 107.128 36.956H109.9C110.164 36.956 110.296 37.088 110.296 37.352V41.144C110.296 41.408 110.164 41.54 109.9 41.54H109.156C109.028 41.54 108.928 41.508 108.856 41.444C108.792 41.38 108.76 41.296 108.76 41.192H106.96L106.816 44.324ZM108.76 37.676H107.116L106.984 40.472H108.76V37.676ZM127.228 39.392C127.492 39.392 127.624 39.512 127.624 39.752C127.624 39.992 127.492 40.112 127.228 40.112H117.7C117.436 40.112 117.304 39.992 117.304 39.752C117.304 39.512 117.436 39.392 117.7 39.392H127.228ZM133.66 37.94V37.976H134.284C134.548 37.976 134.68 38.096 134.68 38.336C134.68 38.576 134.548 38.696 134.284 38.696H130.984C130.92 38.744 130.836 38.768 130.732 38.768H129.988C129.724 38.768 129.592 38.636 129.592 38.372V34.556C129.592 34.292 129.724 34.16 129.988 34.16H130.732C130.836 34.16 130.92 34.184 130.984 34.232H134.248C134.512 34.232 134.644 34.352 134.644 34.592C134.644 34.832 134.512 34.952 134.248 34.952H133.684V34.988V35.456V35.492H134.344C134.608 35.492 134.74 35.624 134.74 35.888V37.16C134.74 37.424 134.608 37.556 134.344 37.556H133.66V37.94ZM136.396 36.944C136.372 37.2 136.232 37.32 135.976 37.304L135.232 37.268C134.96 37.252 134.836 37.112 134.86 36.848L135.1 34.592C135.124 34.336 135.264 34.216 135.52 34.232L136.264 34.268C136.528 34.284 136.648 34.424 136.624 34.688L136.576 35.192H139.18C139.444 35.192 139.576 35.312 139.576 35.552C139.576 35.792 139.444 35.912 139.18 35.912H136.504L136.396 36.944ZM132.148 34.988V34.952H131.128V35.492H132.148V35.456V34.988ZM133.204 36.212H131.128V36.764H133.204V36.212ZM132.124 37.52V37.484H131.128V37.976H132.124V37.94V37.52ZM138.94 37.7C139.204 37.7 139.336 37.82 139.336 38.06C139.336 38.3 139.204 38.42 138.94 38.42H136.168C135.904 38.42 135.772 38.3 135.772 38.06C135.772 37.82 135.904 37.7 136.168 37.7H138.94ZM130.264 44.444C130.2 44.476 130.128 44.492 130.048 44.492C129.92 44.492 129.808 44.44 129.712 44.336L129.652 44.276C129.572 44.196 129.532 44.112 129.532 44.024C129.532 43.904 129.612 43.808 129.772 43.736L131.236 43.076H130.792C130.528 43.076 130.396 42.944 130.396 42.68V39.296C130.396 39.032 130.528 38.9 130.792 38.9H131.536C131.672 38.9 131.776 38.94 131.848 39.02H138.184C138.448 39.02 138.58 39.152 138.58 39.416V42.716C138.58 42.98 138.448 43.112 138.184 43.112H137.44C137.344 43.112 137.264 43.092 137.2 43.052H136.264V43.088V43.652H138.244V43.472C138.244 43.352 138.376 43.292 138.64 43.292H139.384C139.648 43.292 139.78 43.424 139.78 43.688V43.976C139.78 44.24 139.648 44.372 139.384 44.372H135.124C134.86 44.372 134.728 44.24 134.728 43.976V43.088V43.052H133.216C133.184 43.116 133.12 43.168 133.024 43.208L130.264 44.444ZM137.044 39.74H131.932V40.148H137.044V39.74ZM131.932 41.228H137.044V40.868H131.932V41.228ZM131.932 42.332H137.044V41.948H131.932V42.332Z" fill="#078080"/>
</svg>
