<svg width="367" height="233" viewBox="0 0 367 233" fill="none" xmlns="http://www.w3.org/2000/svg">
<g filter="url(#filter0_d_225_460)">
<rect x="4" y="2" width="359" height="225" rx="4" fill="white"/>
<path d="M171.656 201.992C171.656 202.344 171.48 202.52 171.128 202.52H170.136C169.891 202.52 169.731 202.429 169.656 202.248H168.184C168.109 202.429 167.949 202.52 167.704 202.52H166.712C166.36 202.52 166.184 202.344 166.184 201.992V192.472C166.184 192.12 166.36 191.944 166.712 191.944H167.704C167.949 191.944 168.109 192.04 168.184 192.232H171.128C171.48 192.232 171.656 192.408 171.656 192.76V201.992ZM174.12 205.096C174.12 205.448 173.944 205.624 173.592 205.624H172.6C172.248 205.624 172.072 205.448 172.072 205.096V203.912C171.923 203.827 171.848 203.688 171.848 203.496C171.848 203.293 171.923 203.155 172.072 203.08V200.104C172.072 199.752 172.248 199.576 172.6 199.576H173.592C173.731 199.576 173.843 199.608 173.928 199.672H174.936V199.368C174.936 199.272 174.952 199.192 174.984 199.128H172.376C172.024 199.128 171.848 198.968 171.848 198.648C171.848 198.328 172.024 198.168 172.376 198.168H173.064V198.12V196.888H172.888C172.536 196.888 172.36 196.728 172.36 196.408C172.36 196.088 172.536 195.928 172.888 195.928H173.064V194.808H172.632C172.28 194.808 172.104 194.648 172.104 194.328C172.104 194.008 172.28 193.848 172.632 193.848H173.064V192.504C173.064 192.152 173.24 191.976 173.592 191.976H174.584C174.936 191.976 175.112 192.152 175.112 192.504V193.848H176.376V192.504C176.376 192.152 176.552 191.976 176.904 191.976H177.896C178.248 191.976 178.424 192.152 178.424 192.504V193.848H178.968C179.32 193.848 179.496 194.008 179.496 194.328C179.496 194.648 179.32 194.808 178.968 194.808H178.424V195.928H178.712C179.064 195.928 179.24 196.088 179.24 196.408C179.24 196.728 179.064 196.888 178.712 196.888H178.424V198.12V198.168H179.208C179.56 198.168 179.736 198.328 179.736 198.648C179.736 198.968 179.56 199.128 179.208 199.128H176.616C176.648 199.192 176.664 199.272 176.664 199.368V199.672H179.048C179.4 199.672 179.576 199.848 179.576 200.2V203.128C179.683 203.213 179.736 203.336 179.736 203.496C179.736 203.656 179.683 203.779 179.576 203.864V205.32C179.576 205.683 179.395 205.853 179.032 205.832L177.208 205.752C176.877 205.731 176.712 205.587 176.712 205.32C176.712 205.149 176.749 205.016 176.824 204.92C176.909 204.824 177.016 204.781 177.144 204.792L177.528 204.808V203.976H174.12V205.096ZM169.608 193.192H168.232V195.176H169.608V193.192ZM175.112 195.928H176.376V194.808H175.112V195.928ZM168.232 198.264H169.608V196.136H168.232V198.264ZM175.112 198.12V198.168H176.376V198.12V196.888H175.112V198.12ZM168.232 201.288H169.608V199.224H168.232V201.288ZM174.12 201.352H174.952V200.632H174.12V201.352ZM177.528 200.632H176.68V201.352H177.528V200.632ZM174.968 202.968V202.312H174.12V203.016H174.968V202.968ZM176.696 202.968V203.016H177.528V202.312H176.696V202.968ZM168.024 205.4C167.939 205.72 167.731 205.864 167.4 205.832L166.472 205.72C166.184 205.688 166.04 205.544 166.04 205.288C166.04 205.267 166.04 205.24 166.04 205.208C166.04 205.176 166.045 205.144 166.056 205.112L166.536 203.192C166.621 202.872 166.824 202.728 167.144 202.76L168.072 202.872C168.371 202.904 168.52 203.053 168.52 203.32C168.52 203.384 168.515 203.437 168.504 203.48L168.024 205.4ZM171.624 204.536C171.635 204.579 171.64 204.632 171.64 204.696C171.64 204.963 171.491 205.112 171.192 205.144L170.264 205.256C169.944 205.288 169.741 205.144 169.656 204.824L169.32 203.48C169.309 203.437 169.304 203.384 169.304 203.32C169.304 203.053 169.453 202.904 169.752 202.872L170.68 202.76C171 202.728 171.203 202.872 171.288 203.192L171.624 204.536ZM183.4 205.512C183.304 205.608 183.192 205.656 183.064 205.656C183.011 205.656 182.941 205.64 182.856 205.608L182.52 205.448C182.264 205.331 182.136 205.149 182.136 204.904C182.136 204.744 182.205 204.595 182.344 204.456L188.44 198.392L184.008 193.32C183.901 193.203 183.848 193.064 183.848 192.904C183.848 192.659 183.976 192.477 184.232 192.36L184.68 192.168C184.712 192.147 184.744 192.136 184.776 192.136C184.808 192.136 184.84 192.136 184.872 192.136C185.032 192.136 185.155 192.195 185.24 192.312L195.864 204.472C195.971 204.589 196.024 204.728 196.024 204.888C196.024 205.133 195.896 205.315 195.64 205.432L195.192 205.624C195.16 205.635 195.128 205.64 195.096 205.64C195.064 205.651 195.032 205.656 195 205.656C194.84 205.656 194.717 205.597 194.632 205.48L189.432 199.512L183.4 205.512Z" fill="#4F4737"/>
<path d="M64.104 204.04C64.456 204.04 64.632 204.2 64.632 204.52C64.632 204.84 64.456 205 64.104 205H58.344C58.0453 205 57.896 204.904 57.896 204.712C57.896 204.595 57.96 204.472 58.088 204.344C59.1227 203.235 60.024 202.152 60.792 201.096C61.56 200.029 62.152 199.048 62.568 198.152C62.9947 197.256 63.208 196.515 63.208 195.928C63.208 195.523 63.128 195.144 62.968 194.792C62.8187 194.44 62.616 194.157 62.36 193.944C62.104 193.731 61.832 193.624 61.544 193.624C60.9573 193.624 60.4827 193.971 60.12 194.664C59.768 195.347 59.5707 196.339 59.528 197.64C59.5067 198.003 59.3253 198.184 58.984 198.184H57.992C57.6293 198.184 57.4587 198.003 57.48 197.64C57.608 194.323 58.9627 192.664 61.544 192.664C62.216 192.664 62.8293 192.813 63.384 193.112C63.9493 193.411 64.4027 193.811 64.744 194.312C65.0853 194.803 65.256 195.341 65.256 195.928C65.256 196.504 65.064 197.213 64.68 198.056C64.296 198.888 63.7467 199.811 63.032 200.824C62.3173 201.837 61.4587 202.909 60.456 204.04H64.104ZM70.7104 192.68C72.0437 192.68 73.0517 193.187 73.7344 194.2C74.417 195.213 74.7584 196.675 74.7584 198.584C74.7584 200.707 74.3957 202.333 73.6704 203.464C72.9557 204.595 71.8997 205.16 70.5024 205.16C69.1264 205.16 68.065 204.595 67.3184 203.464C66.5824 202.333 66.2144 200.749 66.2144 198.712C66.2144 196.749 66.593 195.256 67.3504 194.232C68.1077 193.197 69.2277 192.68 70.7104 192.68ZM70.7104 193.64C69.9637 193.64 69.3664 194.083 68.9184 194.968C68.481 195.853 68.2624 197.101 68.2624 198.712C68.2624 199.779 68.3637 200.728 68.5664 201.56C68.7797 202.381 69.057 203.027 69.3984 203.496C69.7397 203.965 70.1077 204.2 70.5024 204.2C70.9184 204.2 71.2917 203.965 71.6224 203.496C71.953 203.027 72.2144 202.371 72.4064 201.528C72.609 200.685 72.7104 199.704 72.7104 198.584C72.7104 197.592 72.6197 196.728 72.4384 195.992C72.2677 195.245 72.0277 194.669 71.7184 194.264C71.4197 193.848 71.0837 193.64 70.7104 193.64ZM82.3384 204.04C82.6904 204.04 82.8664 204.2 82.8664 204.52C82.8664 204.84 82.6904 205 82.3384 205H76.5784C76.2797 205 76.1304 204.904 76.1304 204.712C76.1304 204.595 76.1944 204.472 76.3224 204.344C77.357 203.235 78.2584 202.152 79.0264 201.096C79.7944 200.029 80.3864 199.048 80.8024 198.152C81.229 197.256 81.4424 196.515 81.4424 195.928C81.4424 195.523 81.3624 195.144 81.2024 194.792C81.053 194.44 80.8504 194.157 80.5944 193.944C80.3384 193.731 80.0664 193.624 79.7784 193.624C79.1917 193.624 78.717 193.971 78.3544 194.664C78.0024 195.347 77.805 196.339 77.7624 197.64C77.741 198.003 77.5597 198.184 77.2184 198.184H76.2264C75.8637 198.184 75.693 198.003 75.7144 197.64C75.8424 194.323 77.197 192.664 79.7784 192.664C80.4504 192.664 81.0637 192.813 81.6184 193.112C82.1837 193.411 82.637 193.811 82.9784 194.312C83.3197 194.803 83.4904 195.341 83.4904 195.928C83.4904 196.504 83.2984 197.213 82.9144 198.056C82.5304 198.888 81.981 199.811 81.2664 200.824C80.5517 201.837 79.693 202.909 78.6904 204.04H82.3384ZM84.5344 204.504C84.3424 204.419 84.2464 204.301 84.2464 204.152C84.2464 203.992 84.337 203.864 84.5184 203.768L84.8064 203.608C84.9344 203.544 85.0464 203.512 85.1424 203.512C85.281 203.512 85.409 203.549 85.5264 203.624C85.8997 203.837 86.2944 203.992 86.7104 204.088C87.137 204.173 87.5157 204.216 87.8464 204.216C88.4544 204.216 88.945 203.987 89.3184 203.528C89.7024 203.059 89.8944 202.445 89.8944 201.688C89.8944 199.715 89.2064 198.728 87.8304 198.728C87.521 198.728 87.1744 198.776 86.7904 198.872C86.4064 198.957 85.9797 199.091 85.5104 199.272C85.4144 199.304 85.3237 199.32 85.2384 199.32C84.9824 199.32 84.865 199.165 84.8864 198.856L85.0944 193.176C85.105 192.835 85.2864 192.664 85.6384 192.664L86.6304 192.68C86.8117 192.68 86.945 192.733 87.0304 192.84H91.1264C91.4784 192.84 91.6544 193 91.6544 193.32C91.6544 193.64 91.4784 193.8 91.1264 193.8H87.1264L86.9664 197.8C87.1264 197.779 87.281 197.763 87.4304 197.752C87.5904 197.741 87.7397 197.736 87.8784 197.736C88.689 197.736 89.3984 197.891 90.0064 198.2C90.6144 198.509 91.089 198.963 91.4304 199.56C91.7717 200.147 91.9424 200.856 91.9424 201.688C91.9424 202.36 91.761 202.963 91.3984 203.496C91.0464 204.019 90.561 204.429 89.9424 204.728C89.3237 205.027 88.625 205.176 87.8464 205.176C87.505 205.176 87.1317 205.144 86.7264 205.08C86.3317 205.027 85.9424 204.947 85.5584 204.84C85.1744 204.733 84.833 204.621 84.5344 204.504ZM95.6219 204.696C95.5152 204.995 95.3019 205.123 94.9819 205.08L94.1179 204.936C93.8405 204.883 93.7019 204.739 93.7019 204.504C93.7019 204.472 93.7019 204.44 93.7019 204.408C93.7125 204.376 93.7232 204.339 93.7339 204.296L97.6859 193.144C97.7925 192.845 98.0059 192.717 98.3259 192.76L99.1899 192.904C99.4672 192.957 99.6059 193.101 99.6059 193.336C99.6059 193.368 99.6059 193.4 99.6059 193.432C99.6059 193.464 99.5952 193.501 99.5739 193.544L95.6219 204.696ZM105.867 192.68C107.2 192.68 108.208 193.187 108.891 194.2C109.573 195.213 109.915 196.675 109.915 198.584C109.915 200.707 109.552 202.333 108.827 203.464C108.112 204.595 107.056 205.16 105.659 205.16C104.283 205.16 103.221 204.595 102.475 203.464C101.739 202.333 101.371 200.749 101.371 198.712C101.371 196.749 101.749 195.256 102.507 194.232C103.264 193.197 104.384 192.68 105.867 192.68ZM105.867 193.64C105.12 193.64 104.523 194.083 104.075 194.968C103.637 195.853 103.419 197.101 103.419 198.712C103.419 199.779 103.52 200.728 103.723 201.56C103.936 202.381 104.213 203.027 104.555 203.496C104.896 203.965 105.264 204.2 105.659 204.2C106.075 204.2 106.448 203.965 106.779 203.496C107.109 203.027 107.371 202.371 107.563 201.528C107.765 200.685 107.867 199.704 107.867 198.584C107.867 197.592 107.776 196.728 107.595 195.992C107.424 195.245 107.184 194.669 106.875 194.264C106.576 193.848 106.24 193.64 105.867 193.64ZM116.972 198.84C117.644 199.149 118.199 199.587 118.636 200.152C119.074 200.717 119.292 201.325 119.292 201.976C119.292 202.605 119.106 203.165 118.732 203.656C118.359 204.136 117.852 204.509 117.212 204.776C116.572 205.043 115.858 205.176 115.068 205.176C114.215 205.176 113.452 205.053 112.78 204.808C112.119 204.563 111.596 204.216 111.212 203.768C110.828 203.32 110.636 202.787 110.636 202.168C110.636 201.453 110.855 200.803 111.292 200.216C111.74 199.619 112.311 199.16 113.004 198.84C112.418 198.52 111.938 198.083 111.564 197.528C111.191 196.973 111.004 196.381 111.004 195.752C111.004 195.208 111.175 194.701 111.516 194.232C111.868 193.763 112.338 193.384 112.924 193.096C113.511 192.808 114.167 192.664 114.892 192.664C115.415 192.664 115.911 192.76 116.38 192.952C116.86 193.133 117.282 193.384 117.644 193.704C118.007 194.024 118.295 194.387 118.508 194.792C118.722 195.187 118.828 195.592 118.828 196.008C118.828 196.584 118.652 197.123 118.3 197.624C117.959 198.125 117.516 198.531 116.972 198.84ZM114.892 193.624C114.327 193.624 113.879 193.832 113.548 194.248C113.218 194.653 113.052 195.155 113.052 195.752C113.052 196.2 113.148 196.627 113.34 197.032C113.532 197.437 113.778 197.768 114.076 198.024C114.375 198.28 114.684 198.408 115.004 198.408C115.292 198.408 115.57 198.296 115.836 198.072C116.114 197.837 116.338 197.539 116.508 197.176C116.69 196.803 116.78 196.413 116.78 196.008C116.78 195.613 116.695 195.235 116.524 194.872C116.354 194.509 116.124 194.211 115.836 193.976C115.548 193.741 115.234 193.624 114.892 193.624ZM115.068 204.216C115.719 204.216 116.242 204.024 116.636 203.64C117.042 203.245 117.244 202.691 117.244 201.976C117.244 201.517 117.138 201.091 116.924 200.696C116.711 200.301 116.434 199.981 116.092 199.736C115.751 199.491 115.388 199.368 115.004 199.368C114.588 199.368 114.204 199.496 113.852 199.752C113.5 199.997 113.218 200.333 113.004 200.76C112.791 201.187 112.684 201.656 112.684 202.168C112.684 202.883 112.887 203.405 113.292 203.736C113.698 204.056 114.29 204.216 115.068 204.216ZM122.966 204.696C122.859 204.995 122.646 205.123 122.326 205.08L121.462 204.936C121.184 204.883 121.046 204.739 121.046 204.504C121.046 204.472 121.046 204.44 121.046 204.408C121.056 204.376 121.067 204.339 121.078 204.296L125.03 193.144C125.136 192.845 125.35 192.717 125.67 192.76L126.534 192.904C126.811 192.957 126.95 193.101 126.95 193.336C126.95 193.368 126.95 193.4 126.95 193.432C126.95 193.464 126.939 193.501 126.918 193.544L122.966 204.696ZM135.338 204.04C135.69 204.04 135.866 204.2 135.866 204.52C135.866 204.84 135.69 205 135.338 205H129.578C129.28 205 129.13 204.904 129.13 204.712C129.13 204.595 129.194 204.472 129.322 204.344C130.357 203.235 131.258 202.152 132.026 201.096C132.794 200.029 133.386 199.048 133.802 198.152C134.229 197.256 134.442 196.515 134.442 195.928C134.442 195.523 134.362 195.144 134.202 194.792C134.053 194.44 133.85 194.157 133.594 193.944C133.338 193.731 133.066 193.624 132.778 193.624C132.192 193.624 131.717 193.971 131.354 194.664C131.002 195.347 130.805 196.339 130.762 197.64C130.741 198.003 130.56 198.184 130.218 198.184H129.226C128.864 198.184 128.693 198.003 128.714 197.64C128.842 194.323 130.197 192.664 132.778 192.664C133.45 192.664 134.064 192.813 134.618 193.112C135.184 193.411 135.637 193.811 135.978 194.312C136.32 194.803 136.49 195.341 136.49 195.928C136.49 196.504 136.298 197.213 135.914 198.056C135.53 198.888 134.981 199.811 134.266 200.824C133.552 201.837 132.693 202.909 131.69 204.04H135.338ZM137.214 202.216C137.193 202.035 137.23 201.901 137.326 201.816C137.422 201.72 137.556 201.672 137.726 201.672H138.718C139.038 201.672 139.22 201.848 139.262 202.2C139.39 203.544 140.068 204.216 141.294 204.216C141.956 204.216 142.425 204.051 142.702 203.72C142.98 203.379 143.118 202.787 143.118 201.944C143.118 201.325 143.044 200.856 142.894 200.536C142.745 200.205 142.489 199.971 142.126 199.832C141.764 199.693 141.262 199.613 140.622 199.592C140.345 199.581 140.174 199.475 140.11 199.272C140.1 199.251 140.094 199.229 140.094 199.208C140.084 199.187 140.078 199.171 140.078 199.16C140.078 199.149 140.078 199.16 140.078 199.192C140.078 199.16 140.078 199.128 140.078 199.096C140.078 199.075 140.078 199.053 140.078 199.032C140.078 199.011 140.084 198.995 140.094 198.984C140.094 198.973 140.094 198.963 140.094 198.952C140.105 198.931 140.11 198.915 140.11 198.904C140.11 198.893 140.116 198.883 140.126 198.872C140.201 198.701 140.366 198.616 140.622 198.616C141.166 198.595 141.604 198.547 141.934 198.472C142.265 198.397 142.516 198.264 142.686 198.072C142.857 197.88 142.969 197.613 143.022 197.272C143.086 196.92 143.118 196.472 143.118 195.928C143.118 195.523 143.038 195.149 142.878 194.808C142.729 194.456 142.526 194.179 142.27 193.976C142.014 193.763 141.742 193.656 141.454 193.656C140.932 193.656 140.484 193.928 140.11 194.472C139.737 195.005 139.513 195.699 139.438 196.552C139.428 196.904 139.252 197.08 138.91 197.08H137.918C137.748 197.08 137.614 197.032 137.518 196.936C137.433 196.84 137.396 196.707 137.406 196.536C137.481 195.757 137.694 195.085 138.046 194.52C138.398 193.944 138.868 193.496 139.454 193.176C140.041 192.856 140.708 192.696 141.454 192.696C142.126 192.696 142.74 192.845 143.294 193.144C143.86 193.432 144.313 193.821 144.654 194.312C144.996 194.803 145.166 195.341 145.166 195.928C145.166 196.781 145.033 197.464 144.766 197.976C144.5 198.488 144.046 198.872 143.406 199.128C144.004 199.384 144.446 199.741 144.734 200.2C145.022 200.648 145.166 201.229 145.166 201.944C145.166 203.011 144.83 203.816 144.158 204.36C143.497 204.904 142.542 205.176 141.294 205.176C140.153 205.176 139.22 204.915 138.494 204.392C137.769 203.869 137.342 203.144 137.214 202.216Z" fill="#4F4737"/>
<path d="M178.504 156.88C178.408 157.189 178.2 157.323 177.88 157.28L176.968 157.136C176.68 157.104 176.536 156.96 176.536 156.704C176.536 156.661 176.547 156.597 176.568 156.512L177.496 153.408C177.592 153.099 177.8 152.965 178.12 153.008L179.032 153.152C179.32 153.184 179.464 153.328 179.464 153.584C179.464 153.627 179.453 153.691 179.432 153.776L178.504 156.88ZM173.416 156.56C173.437 156.645 173.448 156.715 173.448 156.768C173.448 157.013 173.304 157.152 173.016 157.184L172.12 157.312C172.099 157.312 172.077 157.317 172.056 157.328C172.035 157.328 172.013 157.328 171.992 157.328C171.736 157.328 171.571 157.195 171.496 156.928L170.488 153.776C170.467 153.691 170.456 153.621 170.456 153.568C170.456 153.323 170.6 153.184 170.888 153.152L171.784 153.024C171.805 153.024 171.827 153.024 171.848 153.024C171.88 153.013 171.901 153.008 171.912 153.008C172.168 153.008 172.333 153.141 172.408 153.408L173.416 156.56ZM172.664 166.256C172.664 166.608 172.488 166.784 172.136 166.784H171.144C170.792 166.784 170.616 166.608 170.616 166.256V158.288C170.616 157.936 170.792 157.76 171.144 157.76H172.136C172.264 157.76 172.371 157.787 172.456 157.84H173.976V157.808V153.616C173.976 153.264 174.152 153.088 174.504 153.088H175.496C175.848 153.088 176.024 153.264 176.024 153.616V157.808V157.84H179C179.352 157.84 179.528 158.016 179.528 158.368V166.144C179.528 166.507 179.347 166.677 178.984 166.656L176.36 166.496C176.04 166.475 175.88 166.336 175.88 166.08C175.88 165.696 176.072 165.515 176.456 165.536L177.48 165.6V164.048H172.664V166.256ZM169.288 155.696C169.405 155.835 169.464 155.952 169.464 156.048C169.464 156.208 169.357 156.336 169.144 156.432L168.68 156.64C168.552 156.693 168.451 156.72 168.376 156.72C168.216 156.72 168.072 156.651 167.944 156.512L166.408 154.928C166.291 154.811 166.232 154.693 166.232 154.576C166.232 154.416 166.339 154.288 166.552 154.192L167.016 153.984C167.144 153.931 167.245 153.904 167.32 153.904C167.48 153.904 167.624 153.973 167.752 154.112L169.288 155.696ZM169.224 159.856C169.363 159.963 169.432 160.085 169.432 160.224C169.432 160.373 169.341 160.496 169.16 160.592L168.792 160.784C168.685 160.848 168.573 160.88 168.456 160.88C168.317 160.88 168.189 160.827 168.072 160.72L166.408 159.328C166.269 159.221 166.2 159.104 166.2 158.976C166.2 158.827 166.296 158.699 166.488 158.592L166.84 158.4C166.904 158.368 166.963 158.341 167.016 158.32C167.069 158.299 167.123 158.288 167.176 158.288C167.293 158.288 167.421 158.347 167.56 158.464L169.224 159.856ZM177.48 158.8H172.664V160.48H177.48V158.8ZM172.664 163.088H177.48V161.44H172.664V163.088ZM168.024 163.024C168.152 162.853 168.301 162.768 168.472 162.768C168.547 162.768 168.632 162.784 168.728 162.816L169.336 163.024C169.56 163.099 169.672 163.227 169.672 163.408C169.672 163.504 169.629 163.611 169.544 163.728L167.704 166.16C167.576 166.331 167.427 166.416 167.256 166.416C167.181 166.416 167.096 166.4 167 166.368L166.392 166.16C166.168 166.075 166.056 165.947 166.056 165.776C166.056 165.68 166.099 165.573 166.184 165.456L168.024 163.024ZM182.76 159.936C182.6 159.968 182.456 159.936 182.328 159.84C182.211 159.733 182.152 159.595 182.152 159.424C182.152 159.168 182.312 158.997 182.632 158.912C183.699 158.645 184.515 158.176 185.08 157.504H182.904C182.723 157.504 182.573 157.445 182.456 157.328C182.339 157.211 182.28 157.072 182.28 156.912C182.28 156.816 182.296 156.731 182.328 156.656L182.904 155.232C183.011 154.976 183.197 154.875 183.464 154.928L184.264 155.072C184.285 155.072 184.307 155.077 184.328 155.088H186.152C186.195 154.875 186.227 154.656 186.248 154.432H182.792C182.643 154.432 182.515 154.389 182.408 154.304C182.301 154.208 182.248 154.091 182.248 153.952C182.248 153.813 182.301 153.701 182.408 153.616C182.515 153.52 182.643 153.472 182.792 153.472H186.312C186.365 153.152 186.547 152.992 186.856 152.992H187.816C187.976 152.992 188.109 153.045 188.216 153.152C188.323 153.248 188.371 153.355 188.36 153.472H189.752C189.773 153.333 189.832 153.221 189.928 153.136C190.035 153.04 190.157 152.992 190.296 152.992H191.256C191.405 152.992 191.533 153.045 191.64 153.152C191.747 153.248 191.8 153.355 191.8 153.472H195.272C195.421 153.472 195.549 153.525 195.656 153.632C195.763 153.739 195.816 153.867 195.816 154.016V155.68C195.816 155.829 195.763 155.957 195.656 156.064C195.549 156.171 195.421 156.224 195.272 156.224H194.312C194.152 156.224 194.019 156.165 193.912 156.048H191.8V156.544H195.384C195.565 156.544 195.709 156.608 195.816 156.736C195.923 156.864 195.965 157.019 195.944 157.2L195.704 158.752C195.683 158.891 195.619 159.003 195.512 159.088C195.405 159.173 195.283 159.211 195.144 159.2L193.016 159.04C192.845 159.019 192.707 158.96 192.6 158.864C192.504 158.768 192.467 158.651 192.488 158.512V158.496C192.509 158.347 192.573 158.235 192.68 158.16C192.787 158.085 192.909 158.053 193.048 158.064L193.736 158.112L193.832 157.504H191.8V158.512C191.8 158.661 191.747 158.789 191.64 158.896C191.533 159.003 191.405 159.056 191.256 159.056H190.296C190.147 159.056 190.019 159.003 189.912 158.896C189.805 158.789 189.752 158.661 189.752 158.512V157.504H187.176C186.632 158.251 185.869 158.843 184.888 159.28H184.952C185.059 159.28 185.155 159.307 185.24 159.36H194.008C194.157 159.36 194.285 159.413 194.392 159.52C194.499 159.627 194.552 159.755 194.552 159.904V164.608C194.552 164.757 194.499 164.885 194.392 164.992C194.285 165.099 194.157 165.152 194.008 165.152H193.048C192.973 165.152 192.899 165.136 192.824 165.104H185.176C185.101 165.136 185.027 165.152 184.952 165.152H183.992C183.843 165.152 183.715 165.099 183.608 164.992C183.501 164.885 183.448 164.757 183.448 164.608V159.824C183.448 159.792 183.448 159.776 183.448 159.776C183.224 159.829 182.995 159.883 182.76 159.936ZM188.184 155.088H189.752V154.432H188.296C188.264 154.656 188.227 154.875 188.184 155.088ZM193.768 154.432H191.8V155.088H193.768V154.432ZM184.424 156.544H185.704C185.779 156.384 185.843 156.219 185.896 156.048H184.616L184.424 156.544ZM187.736 156.544H189.752V156.048H187.944C187.88 156.219 187.811 156.384 187.736 156.544ZM192.504 160.32H185.496V160.912H192.504V160.32ZM185.496 162.544H192.504V161.872H185.496V162.544ZM185.496 164.144H192.504V163.504H185.496V164.144ZM184.728 166.96C184.696 166.971 184.648 166.976 184.584 166.976C184.392 166.976 184.253 166.901 184.168 166.752C184.104 166.656 184.072 166.555 184.072 166.448C184.072 166.203 184.227 166.027 184.536 165.92L186.84 165.248C186.872 165.237 186.92 165.232 186.984 165.232C187.176 165.232 187.315 165.307 187.4 165.456C187.464 165.552 187.496 165.653 187.496 165.76C187.496 166.005 187.341 166.181 187.032 166.288L184.728 166.96ZM193.672 166C193.832 166.043 193.955 166.112 194.04 166.208C194.136 166.315 194.184 166.421 194.184 166.528C194.184 166.581 194.168 166.635 194.136 166.688L194.04 166.832C193.955 166.981 193.816 167.056 193.624 167.056C193.56 167.056 193.512 167.051 193.48 167.04L190.904 166.288C190.744 166.245 190.616 166.171 190.52 166.064C190.435 165.968 190.392 165.867 190.392 165.76C190.392 165.696 190.408 165.643 190.44 165.6L190.536 165.456C190.621 165.307 190.76 165.232 190.952 165.232C191.016 165.232 191.064 165.237 191.096 165.248L193.672 166Z" fill="#4F4737"/>
<path d="M64.104 165.04C64.456 165.04 64.632 165.2 64.632 165.52C64.632 165.84 64.456 166 64.104 166H58.344C58.0453 166 57.896 165.904 57.896 165.712C57.896 165.595 57.96 165.472 58.088 165.344C59.1227 164.235 60.024 163.152 60.792 162.096C61.56 161.029 62.152 160.048 62.568 159.152C62.9947 158.256 63.208 157.515 63.208 156.928C63.208 156.523 63.128 156.144 62.968 155.792C62.8187 155.44 62.616 155.157 62.36 154.944C62.104 154.731 61.832 154.624 61.544 154.624C60.9573 154.624 60.4827 154.971 60.12 155.664C59.768 156.347 59.5707 157.339 59.528 158.64C59.5067 159.003 59.3253 159.184 58.984 159.184H57.992C57.6293 159.184 57.4587 159.003 57.48 158.64C57.608 155.323 58.9627 153.664 61.544 153.664C62.216 153.664 62.8293 153.813 63.384 154.112C63.9493 154.411 64.4027 154.811 64.744 155.312C65.0853 155.803 65.256 156.341 65.256 156.928C65.256 157.504 65.064 158.213 64.68 159.056C64.296 159.888 63.7467 160.811 63.032 161.824C62.3173 162.837 61.4587 163.909 60.456 165.04H64.104ZM70.7104 153.68C72.0437 153.68 73.0517 154.187 73.7344 155.2C74.417 156.213 74.7584 157.675 74.7584 159.584C74.7584 161.707 74.3957 163.333 73.6704 164.464C72.9557 165.595 71.8997 166.16 70.5024 166.16C69.1264 166.16 68.065 165.595 67.3184 164.464C66.5824 163.333 66.2144 161.749 66.2144 159.712C66.2144 157.749 66.593 156.256 67.3504 155.232C68.1077 154.197 69.2277 153.68 70.7104 153.68ZM70.7104 154.64C69.9637 154.64 69.3664 155.083 68.9184 155.968C68.481 156.853 68.2624 158.101 68.2624 159.712C68.2624 160.779 68.3637 161.728 68.5664 162.56C68.7797 163.381 69.057 164.027 69.3984 164.496C69.7397 164.965 70.1077 165.2 70.5024 165.2C70.9184 165.2 71.2917 164.965 71.6224 164.496C71.953 164.027 72.2144 163.371 72.4064 162.528C72.609 161.685 72.7104 160.704 72.7104 159.584C72.7104 158.592 72.6197 157.728 72.4384 156.992C72.2677 156.245 72.0277 155.669 71.7184 155.264C71.4197 154.848 71.0837 154.64 70.7104 154.64ZM82.3384 165.04C82.6904 165.04 82.8664 165.2 82.8664 165.52C82.8664 165.84 82.6904 166 82.3384 166H76.5784C76.2797 166 76.1304 165.904 76.1304 165.712C76.1304 165.595 76.1944 165.472 76.3224 165.344C77.357 164.235 78.2584 163.152 79.0264 162.096C79.7944 161.029 80.3864 160.048 80.8024 159.152C81.229 158.256 81.4424 157.515 81.4424 156.928C81.4424 156.523 81.3624 156.144 81.2024 155.792C81.053 155.44 80.8504 155.157 80.5944 154.944C80.3384 154.731 80.0664 154.624 79.7784 154.624C79.1917 154.624 78.717 154.971 78.3544 155.664C78.0024 156.347 77.805 157.339 77.7624 158.64C77.741 159.003 77.5597 159.184 77.2184 159.184H76.2264C75.8637 159.184 75.693 159.003 75.7144 158.64C75.8424 155.323 77.197 153.664 79.7784 153.664C80.4504 153.664 81.0637 153.813 81.6184 154.112C82.1837 154.411 82.637 154.811 82.9784 155.312C83.3197 155.803 83.4904 156.341 83.4904 156.928C83.4904 157.504 83.2984 158.213 82.9144 159.056C82.5304 159.888 81.981 160.811 81.2664 161.824C80.5517 162.837 79.693 163.909 78.6904 165.04H82.3384ZM84.5344 165.504C84.3424 165.419 84.2464 165.301 84.2464 165.152C84.2464 164.992 84.337 164.864 84.5184 164.768L84.8064 164.608C84.9344 164.544 85.0464 164.512 85.1424 164.512C85.281 164.512 85.409 164.549 85.5264 164.624C85.8997 164.837 86.2944 164.992 86.7104 165.088C87.137 165.173 87.5157 165.216 87.8464 165.216C88.4544 165.216 88.945 164.987 89.3184 164.528C89.7024 164.059 89.8944 163.445 89.8944 162.688C89.8944 160.715 89.2064 159.728 87.8304 159.728C87.521 159.728 87.1744 159.776 86.7904 159.872C86.4064 159.957 85.9797 160.091 85.5104 160.272C85.4144 160.304 85.3237 160.32 85.2384 160.32C84.9824 160.32 84.865 160.165 84.8864 159.856L85.0944 154.176C85.105 153.835 85.2864 153.664 85.6384 153.664L86.6304 153.68C86.8117 153.68 86.945 153.733 87.0304 153.84H91.1264C91.4784 153.84 91.6544 154 91.6544 154.32C91.6544 154.64 91.4784 154.8 91.1264 154.8H87.1264L86.9664 158.8C87.1264 158.779 87.281 158.763 87.4304 158.752C87.5904 158.741 87.7397 158.736 87.8784 158.736C88.689 158.736 89.3984 158.891 90.0064 159.2C90.6144 159.509 91.089 159.963 91.4304 160.56C91.7717 161.147 91.9424 161.856 91.9424 162.688C91.9424 163.36 91.761 163.963 91.3984 164.496C91.0464 165.019 90.561 165.429 89.9424 165.728C89.3237 166.027 88.625 166.176 87.8464 166.176C87.505 166.176 87.1317 166.144 86.7264 166.08C86.3317 166.027 85.9424 165.947 85.5584 165.84C85.1744 165.733 84.833 165.621 84.5344 165.504ZM95.6219 165.696C95.5152 165.995 95.3019 166.123 94.9819 166.08L94.1179 165.936C93.8405 165.883 93.7019 165.739 93.7019 165.504C93.7019 165.472 93.7019 165.44 93.7019 165.408C93.7125 165.376 93.7232 165.339 93.7339 165.296L97.6859 154.144C97.7925 153.845 98.0059 153.717 98.3259 153.76L99.1899 153.904C99.4672 153.957 99.6059 154.101 99.6059 154.336C99.6059 154.368 99.6059 154.4 99.6059 154.432C99.6059 154.464 99.5952 154.501 99.5739 154.544L95.6219 165.696ZM105.867 153.68C107.2 153.68 108.208 154.187 108.891 155.2C109.573 156.213 109.915 157.675 109.915 159.584C109.915 161.707 109.552 163.333 108.827 164.464C108.112 165.595 107.056 166.16 105.659 166.16C104.283 166.16 103.221 165.595 102.475 164.464C101.739 163.333 101.371 161.749 101.371 159.712C101.371 157.749 101.749 156.256 102.507 155.232C103.264 154.197 104.384 153.68 105.867 153.68ZM105.867 154.64C105.12 154.64 104.523 155.083 104.075 155.968C103.637 156.853 103.419 158.101 103.419 159.712C103.419 160.779 103.52 161.728 103.723 162.56C103.936 163.381 104.213 164.027 104.555 164.496C104.896 164.965 105.264 165.2 105.659 165.2C106.075 165.2 106.448 164.965 106.779 164.496C107.109 164.027 107.371 163.371 107.563 162.528C107.765 161.685 107.867 160.704 107.867 159.584C107.867 158.592 107.776 157.728 107.595 156.992C107.424 156.245 107.184 155.669 106.875 155.264C106.576 154.848 106.24 154.64 105.867 154.64ZM116.972 165.6C116.908 165.931 116.711 166.08 116.38 166.048L115.404 165.952C115.042 165.92 114.892 165.723 114.956 165.36L115.644 161.712C115.228 161.883 114.796 161.968 114.348 161.968C113.154 161.968 112.236 161.616 111.596 160.912C110.956 160.197 110.636 159.179 110.636 157.856C110.636 157.312 110.743 156.789 110.956 156.288C111.17 155.787 111.458 155.339 111.82 154.944C112.194 154.549 112.615 154.24 113.084 154.016C113.564 153.781 114.071 153.664 114.604 153.664C115.447 153.664 116.162 153.84 116.748 154.192C117.346 154.533 117.788 155.013 118.076 155.632C118.364 156.24 118.482 156.944 118.428 157.744C118.428 157.787 118.423 157.824 118.412 157.856C118.412 157.909 118.407 157.968 118.396 158.032L116.972 165.6ZM112.684 157.856C112.684 158.88 112.834 159.664 113.132 160.208C113.431 160.741 113.836 161.008 114.348 161.008C114.572 161.008 114.812 160.864 115.068 160.576C115.335 160.288 115.586 159.904 115.82 159.424C116.055 158.944 116.236 158.421 116.364 157.856L116.38 157.792C116.391 157.739 116.402 157.696 116.412 157.664V157.6C116.412 157.536 116.412 157.472 116.412 157.408C116.423 157.344 116.428 157.28 116.428 157.216C116.428 156.469 116.263 155.851 115.932 155.36C115.612 154.869 115.17 154.624 114.604 154.624C114.38 154.624 114.151 154.72 113.916 154.912C113.692 155.104 113.484 155.355 113.292 155.664C113.111 155.973 112.962 156.32 112.844 156.704C112.738 157.088 112.684 157.472 112.684 157.856ZM122.122 165.696C122.015 165.995 121.802 166.123 121.482 166.08L120.618 165.936C120.341 165.883 120.202 165.739 120.202 165.504C120.202 165.472 120.202 165.44 120.202 165.408C120.213 165.376 120.223 165.339 120.234 165.296L124.186 154.144C124.293 153.845 124.506 153.717 124.826 153.76L125.69 153.904C125.967 153.957 126.106 154.101 126.106 154.336C126.106 154.368 126.106 154.4 126.106 154.432C126.106 154.464 126.095 154.501 126.074 154.544L122.122 165.696ZM131.823 165.456C131.823 165.605 131.769 165.733 131.663 165.84C131.556 165.947 131.428 166 131.279 166H130.319C130.169 166 130.041 165.947 129.935 165.84C129.828 165.733 129.775 165.605 129.775 165.456V157.44C129.732 157.461 129.684 157.472 129.631 157.472C129.567 157.472 129.519 157.467 129.487 157.456L128.799 157.28C128.66 157.248 128.548 157.184 128.463 157.088C128.388 156.981 128.351 156.869 128.351 156.752C128.351 156.667 128.377 156.56 128.431 156.432L129.743 154.016C129.849 153.813 130.009 153.728 130.223 153.76L131.359 153.904C131.497 153.915 131.609 153.968 131.695 154.064C131.78 154.16 131.823 154.277 131.823 154.416V165.456ZM139.901 165.04C140.253 165.04 140.429 165.2 140.429 165.52C140.429 165.84 140.253 166 139.901 166H134.141C133.842 166 133.693 165.904 133.693 165.712C133.693 165.595 133.757 165.472 133.885 165.344C134.92 164.235 135.821 163.152 136.589 162.096C137.357 161.029 137.949 160.048 138.365 159.152C138.792 158.256 139.005 157.515 139.005 156.928C139.005 156.523 138.925 156.144 138.765 155.792C138.616 155.44 138.413 155.157 138.157 154.944C137.901 154.731 137.629 154.624 137.341 154.624C136.754 154.624 136.28 154.971 135.917 155.664C135.565 156.347 135.368 157.339 135.325 158.64C135.304 159.003 135.122 159.184 134.781 159.184H133.789C133.426 159.184 133.256 159.003 133.277 158.64C133.405 155.323 134.76 153.664 137.341 153.664C138.013 153.664 138.626 153.813 139.181 154.112C139.746 154.411 140.2 154.811 140.541 155.312C140.882 155.803 141.053 156.341 141.053 156.928C141.053 157.504 140.861 158.213 140.477 159.056C140.093 159.888 139.544 160.811 138.829 161.824C138.114 162.837 137.256 163.909 136.253 165.04H139.901Z" fill="#4F4737"/>
<path d="M171.656 122.992C171.656 123.344 171.48 123.52 171.128 123.52H170.136C169.891 123.52 169.731 123.429 169.656 123.248H168.184C168.109 123.429 167.949 123.52 167.704 123.52H166.712C166.36 123.52 166.184 123.344 166.184 122.992V113.472C166.184 113.12 166.36 112.944 166.712 112.944H167.704C167.949 112.944 168.109 113.04 168.184 113.232H171.128C171.48 113.232 171.656 113.408 171.656 113.76V122.992ZM174.12 126.096C174.12 126.448 173.944 126.624 173.592 126.624H172.6C172.248 126.624 172.072 126.448 172.072 126.096V124.912C171.923 124.827 171.848 124.688 171.848 124.496C171.848 124.293 171.923 124.155 172.072 124.08V121.104C172.072 120.752 172.248 120.576 172.6 120.576H173.592C173.731 120.576 173.843 120.608 173.928 120.672H174.936V120.368C174.936 120.272 174.952 120.192 174.984 120.128H172.376C172.024 120.128 171.848 119.968 171.848 119.648C171.848 119.328 172.024 119.168 172.376 119.168H173.064V119.12V117.888H172.888C172.536 117.888 172.36 117.728 172.36 117.408C172.36 117.088 172.536 116.928 172.888 116.928H173.064V115.808H172.632C172.28 115.808 172.104 115.648 172.104 115.328C172.104 115.008 172.28 114.848 172.632 114.848H173.064V113.504C173.064 113.152 173.24 112.976 173.592 112.976H174.584C174.936 112.976 175.112 113.152 175.112 113.504V114.848H176.376V113.504C176.376 113.152 176.552 112.976 176.904 112.976H177.896C178.248 112.976 178.424 113.152 178.424 113.504V114.848H178.968C179.32 114.848 179.496 115.008 179.496 115.328C179.496 115.648 179.32 115.808 178.968 115.808H178.424V116.928H178.712C179.064 116.928 179.24 117.088 179.24 117.408C179.24 117.728 179.064 117.888 178.712 117.888H178.424V119.12V119.168H179.208C179.56 119.168 179.736 119.328 179.736 119.648C179.736 119.968 179.56 120.128 179.208 120.128H176.616C176.648 120.192 176.664 120.272 176.664 120.368V120.672H179.048C179.4 120.672 179.576 120.848 179.576 121.2V124.128C179.683 124.213 179.736 124.336 179.736 124.496C179.736 124.656 179.683 124.779 179.576 124.864V126.32C179.576 126.683 179.395 126.853 179.032 126.832L177.208 126.752C176.877 126.731 176.712 126.587 176.712 126.32C176.712 126.149 176.749 126.016 176.824 125.92C176.909 125.824 177.016 125.781 177.144 125.792L177.528 125.808V124.976H174.12V126.096ZM169.608 114.192H168.232V116.176H169.608V114.192ZM175.112 116.928H176.376V115.808H175.112V116.928ZM168.232 119.264H169.608V117.136H168.232V119.264ZM175.112 119.12V119.168H176.376V119.12V117.888H175.112V119.12ZM168.232 122.288H169.608V120.224H168.232V122.288ZM174.12 122.352H174.952V121.632H174.12V122.352ZM177.528 121.632H176.68V122.352H177.528V121.632ZM174.968 123.968V123.312H174.12V124.016H174.968V123.968ZM176.696 123.968V124.016H177.528V123.312H176.696V123.968ZM168.024 126.4C167.939 126.72 167.731 126.864 167.4 126.832L166.472 126.72C166.184 126.688 166.04 126.544 166.04 126.288C166.04 126.267 166.04 126.24 166.04 126.208C166.04 126.176 166.045 126.144 166.056 126.112L166.536 124.192C166.621 123.872 166.824 123.728 167.144 123.76L168.072 123.872C168.371 123.904 168.52 124.053 168.52 124.32C168.52 124.384 168.515 124.437 168.504 124.48L168.024 126.4ZM171.624 125.536C171.635 125.579 171.64 125.632 171.64 125.696C171.64 125.963 171.491 126.112 171.192 126.144L170.264 126.256C169.944 126.288 169.741 126.144 169.656 125.824L169.32 124.48C169.309 124.437 169.304 124.384 169.304 124.32C169.304 124.053 169.453 123.904 169.752 123.872L170.68 123.76C171 123.728 171.203 123.872 171.288 124.192L171.624 125.536ZM183.4 126.512C183.304 126.608 183.192 126.656 183.064 126.656C183.011 126.656 182.941 126.64 182.856 126.608L182.52 126.448C182.264 126.331 182.136 126.149 182.136 125.904C182.136 125.744 182.205 125.595 182.344 125.456L188.44 119.392L184.008 114.32C183.901 114.203 183.848 114.064 183.848 113.904C183.848 113.659 183.976 113.477 184.232 113.36L184.68 113.168C184.712 113.147 184.744 113.136 184.776 113.136C184.808 113.136 184.84 113.136 184.872 113.136C185.032 113.136 185.155 113.195 185.24 113.312L195.864 125.472C195.971 125.589 196.024 125.728 196.024 125.888C196.024 126.133 195.896 126.315 195.64 126.432L195.192 126.624C195.16 126.635 195.128 126.64 195.096 126.64C195.064 126.651 195.032 126.656 195 126.656C194.84 126.656 194.717 126.597 194.632 126.48L189.432 120.512L183.4 126.512Z" fill="#4F4737"/>
<path d="M64.104 125.04C64.456 125.04 64.632 125.2 64.632 125.52C64.632 125.84 64.456 126 64.104 126H58.344C58.0453 126 57.896 125.904 57.896 125.712C57.896 125.595 57.96 125.472 58.088 125.344C59.1227 124.235 60.024 123.152 60.792 122.096C61.56 121.029 62.152 120.048 62.568 119.152C62.9947 118.256 63.208 117.515 63.208 116.928C63.208 116.523 63.128 116.144 62.968 115.792C62.8187 115.44 62.616 115.157 62.36 114.944C62.104 114.731 61.832 114.624 61.544 114.624C60.9573 114.624 60.4827 114.971 60.12 115.664C59.768 116.347 59.5707 117.339 59.528 118.64C59.5067 119.003 59.3253 119.184 58.984 119.184H57.992C57.6293 119.184 57.4587 119.003 57.48 118.64C57.608 115.323 58.9627 113.664 61.544 113.664C62.216 113.664 62.8293 113.813 63.384 114.112C63.9493 114.411 64.4027 114.811 64.744 115.312C65.0853 115.803 65.256 116.341 65.256 116.928C65.256 117.504 65.064 118.213 64.68 119.056C64.296 119.888 63.7467 120.811 63.032 121.824C62.3173 122.837 61.4587 123.909 60.456 125.04H64.104ZM70.7104 113.68C72.0437 113.68 73.0517 114.187 73.7344 115.2C74.417 116.213 74.7584 117.675 74.7584 119.584C74.7584 121.707 74.3957 123.333 73.6704 124.464C72.9557 125.595 71.8997 126.16 70.5024 126.16C69.1264 126.16 68.065 125.595 67.3184 124.464C66.5824 123.333 66.2144 121.749 66.2144 119.712C66.2144 117.749 66.593 116.256 67.3504 115.232C68.1077 114.197 69.2277 113.68 70.7104 113.68ZM70.7104 114.64C69.9637 114.64 69.3664 115.083 68.9184 115.968C68.481 116.853 68.2624 118.101 68.2624 119.712C68.2624 120.779 68.3637 121.728 68.5664 122.56C68.7797 123.381 69.057 124.027 69.3984 124.496C69.7397 124.965 70.1077 125.2 70.5024 125.2C70.9184 125.2 71.2917 124.965 71.6224 124.496C71.953 124.027 72.2144 123.371 72.4064 122.528C72.609 121.685 72.7104 120.704 72.7104 119.584C72.7104 118.592 72.6197 117.728 72.4384 116.992C72.2677 116.245 72.0277 115.669 71.7184 115.264C71.4197 114.848 71.0837 114.64 70.7104 114.64ZM82.3384 125.04C82.6904 125.04 82.8664 125.2 82.8664 125.52C82.8664 125.84 82.6904 126 82.3384 126H76.5784C76.2797 126 76.1304 125.904 76.1304 125.712C76.1304 125.595 76.1944 125.472 76.3224 125.344C77.357 124.235 78.2584 123.152 79.0264 122.096C79.7944 121.029 80.3864 120.048 80.8024 119.152C81.229 118.256 81.4424 117.515 81.4424 116.928C81.4424 116.523 81.3624 116.144 81.2024 115.792C81.053 115.44 80.8504 115.157 80.5944 114.944C80.3384 114.731 80.0664 114.624 79.7784 114.624C79.1917 114.624 78.717 114.971 78.3544 115.664C78.0024 116.347 77.805 117.339 77.7624 118.64C77.741 119.003 77.5597 119.184 77.2184 119.184H76.2264C75.8637 119.184 75.693 119.003 75.7144 118.64C75.8424 115.323 77.197 113.664 79.7784 113.664C80.4504 113.664 81.0637 113.813 81.6184 114.112C82.1837 114.411 82.637 114.811 82.9784 115.312C83.3197 115.803 83.4904 116.341 83.4904 116.928C83.4904 117.504 83.2984 118.213 82.9144 119.056C82.5304 119.888 81.981 120.811 81.2664 121.824C80.5517 122.837 79.693 123.909 78.6904 125.04H82.3384ZM84.5344 125.504C84.3424 125.419 84.2464 125.301 84.2464 125.152C84.2464 124.992 84.337 124.864 84.5184 124.768L84.8064 124.608C84.9344 124.544 85.0464 124.512 85.1424 124.512C85.281 124.512 85.409 124.549 85.5264 124.624C85.8997 124.837 86.2944 124.992 86.7104 125.088C87.137 125.173 87.5157 125.216 87.8464 125.216C88.4544 125.216 88.945 124.987 89.3184 124.528C89.7024 124.059 89.8944 123.445 89.8944 122.688C89.8944 120.715 89.2064 119.728 87.8304 119.728C87.521 119.728 87.1744 119.776 86.7904 119.872C86.4064 119.957 85.9797 120.091 85.5104 120.272C85.4144 120.304 85.3237 120.32 85.2384 120.32C84.9824 120.32 84.865 120.165 84.8864 119.856L85.0944 114.176C85.105 113.835 85.2864 113.664 85.6384 113.664L86.6304 113.68C86.8117 113.68 86.945 113.733 87.0304 113.84H91.1264C91.4784 113.84 91.6544 114 91.6544 114.32C91.6544 114.64 91.4784 114.8 91.1264 114.8H87.1264L86.9664 118.8C87.1264 118.779 87.281 118.763 87.4304 118.752C87.5904 118.741 87.7397 118.736 87.8784 118.736C88.689 118.736 89.3984 118.891 90.0064 119.2C90.6144 119.509 91.089 119.963 91.4304 120.56C91.7717 121.147 91.9424 121.856 91.9424 122.688C91.9424 123.36 91.761 123.963 91.3984 124.496C91.0464 125.019 90.561 125.429 89.9424 125.728C89.3237 126.027 88.625 126.176 87.8464 126.176C87.505 126.176 87.1317 126.144 86.7264 126.08C86.3317 126.027 85.9424 125.947 85.5584 125.84C85.1744 125.733 84.833 125.621 84.5344 125.504ZM95.6219 125.696C95.5152 125.995 95.3019 126.123 94.9819 126.08L94.1179 125.936C93.8405 125.883 93.7019 125.739 93.7019 125.504C93.7019 125.472 93.7019 125.44 93.7019 125.408C93.7125 125.376 93.7232 125.339 93.7339 125.296L97.6859 114.144C97.7925 113.845 98.0059 113.717 98.3259 113.76L99.1899 113.904C99.4672 113.957 99.6059 114.101 99.6059 114.336C99.6059 114.368 99.6059 114.4 99.6059 114.432C99.6059 114.464 99.5952 114.501 99.5739 114.544L95.6219 125.696ZM105.867 113.68C107.2 113.68 108.208 114.187 108.891 115.2C109.573 116.213 109.915 117.675 109.915 119.584C109.915 121.707 109.552 123.333 108.827 124.464C108.112 125.595 107.056 126.16 105.659 126.16C104.283 126.16 103.221 125.595 102.475 124.464C101.739 123.333 101.371 121.749 101.371 119.712C101.371 117.749 101.749 116.256 102.507 115.232C103.264 114.197 104.384 113.68 105.867 113.68ZM105.867 114.64C105.12 114.64 104.523 115.083 104.075 115.968C103.637 116.853 103.419 118.101 103.419 119.712C103.419 120.779 103.52 121.728 103.723 122.56C103.936 123.381 104.213 124.027 104.555 124.496C104.896 124.965 105.264 125.2 105.659 125.2C106.075 125.2 106.448 124.965 106.779 124.496C107.109 124.027 107.371 123.371 107.563 122.528C107.765 121.685 107.867 120.704 107.867 119.584C107.867 118.592 107.776 117.728 107.595 116.992C107.424 116.245 107.184 115.669 106.875 115.264C106.576 114.848 106.24 114.64 105.867 114.64ZM116.972 125.6C116.908 125.931 116.711 126.08 116.38 126.048L115.404 125.952C115.042 125.92 114.892 125.723 114.956 125.36L115.644 121.712C115.228 121.883 114.796 121.968 114.348 121.968C113.154 121.968 112.236 121.616 111.596 120.912C110.956 120.197 110.636 119.179 110.636 117.856C110.636 117.312 110.743 116.789 110.956 116.288C111.17 115.787 111.458 115.339 111.82 114.944C112.194 114.549 112.615 114.24 113.084 114.016C113.564 113.781 114.071 113.664 114.604 113.664C115.447 113.664 116.162 113.84 116.748 114.192C117.346 114.533 117.788 115.013 118.076 115.632C118.364 116.24 118.482 116.944 118.428 117.744C118.428 117.787 118.423 117.824 118.412 117.856C118.412 117.909 118.407 117.968 118.396 118.032L116.972 125.6ZM112.684 117.856C112.684 118.88 112.834 119.664 113.132 120.208C113.431 120.741 113.836 121.008 114.348 121.008C114.572 121.008 114.812 120.864 115.068 120.576C115.335 120.288 115.586 119.904 115.82 119.424C116.055 118.944 116.236 118.421 116.364 117.856L116.38 117.792C116.391 117.739 116.402 117.696 116.412 117.664V117.6C116.412 117.536 116.412 117.472 116.412 117.408C116.423 117.344 116.428 117.28 116.428 117.216C116.428 116.469 116.263 115.851 115.932 115.36C115.612 114.869 115.17 114.624 114.604 114.624C114.38 114.624 114.151 114.72 113.916 114.912C113.692 115.104 113.484 115.355 113.292 115.664C113.111 115.973 112.962 116.32 112.844 116.704C112.738 117.088 112.684 117.472 112.684 117.856ZM122.122 125.696C122.015 125.995 121.802 126.123 121.482 126.08L120.618 125.936C120.341 125.883 120.202 125.739 120.202 125.504C120.202 125.472 120.202 125.44 120.202 125.408C120.213 125.376 120.223 125.339 120.234 125.296L124.186 114.144C124.293 113.845 124.506 113.717 124.826 113.76L125.69 113.904C125.967 113.957 126.106 114.101 126.106 114.336C126.106 114.368 126.106 114.4 126.106 114.432C126.106 114.464 126.095 114.501 126.074 114.544L122.122 125.696ZM131.823 125.456C131.823 125.605 131.769 125.733 131.663 125.84C131.556 125.947 131.428 126 131.279 126H130.319C130.169 126 130.041 125.947 129.935 125.84C129.828 125.733 129.775 125.605 129.775 125.456V117.44C129.732 117.461 129.684 117.472 129.631 117.472C129.567 117.472 129.519 117.467 129.487 117.456L128.799 117.28C128.66 117.248 128.548 117.184 128.463 117.088C128.388 116.981 128.351 116.869 128.351 116.752C128.351 116.667 128.377 116.56 128.431 116.432L129.743 114.016C129.849 113.813 130.009 113.728 130.223 113.76L131.359 113.904C131.497 113.915 131.609 113.968 131.695 114.064C131.78 114.16 131.823 114.277 131.823 114.416V125.456ZM140.493 125.472C140.493 125.824 140.317 126 139.965 126H138.973C138.621 126 138.445 125.824 138.445 125.472V124.032H133.933C133.549 124.032 133.389 123.845 133.453 123.472L134.893 114.416C134.946 114.085 135.144 113.936 135.485 113.968L136.445 114.032C136.808 114.064 136.962 114.261 136.909 114.624L135.565 123.072H138.445V114.368C138.445 114.016 138.621 113.84 138.973 113.84H139.965C140.317 113.84 140.493 114.016 140.493 114.368V123.072H141.501C141.853 123.072 142.029 123.232 142.029 123.552C142.029 123.872 141.853 124.032 141.501 124.032H140.493V125.472Z" fill="#4F4737"/>
<path d="M178.504 77.88C178.408 78.1893 178.2 78.3227 177.88 78.28L176.968 78.136C176.68 78.104 176.536 77.96 176.536 77.704C176.536 77.6613 176.547 77.5973 176.568 77.512L177.496 74.408C177.592 74.0987 177.8 73.9653 178.12 74.008L179.032 74.152C179.32 74.184 179.464 74.328 179.464 74.584C179.464 74.6267 179.453 74.6907 179.432 74.776L178.504 77.88ZM173.416 77.56C173.437 77.6453 173.448 77.7147 173.448 77.768C173.448 78.0133 173.304 78.152 173.016 78.184L172.12 78.312C172.099 78.312 172.077 78.3173 172.056 78.328C172.035 78.328 172.013 78.328 171.992 78.328C171.736 78.328 171.571 78.1947 171.496 77.928L170.488 74.776C170.467 74.6907 170.456 74.6213 170.456 74.568C170.456 74.3227 170.6 74.184 170.888 74.152L171.784 74.024C171.805 74.024 171.827 74.024 171.848 74.024C171.88 74.0133 171.901 74.008 171.912 74.008C172.168 74.008 172.333 74.1413 172.408 74.408L173.416 77.56ZM172.664 87.256C172.664 87.608 172.488 87.784 172.136 87.784H171.144C170.792 87.784 170.616 87.608 170.616 87.256V79.288C170.616 78.936 170.792 78.76 171.144 78.76H172.136C172.264 78.76 172.371 78.7867 172.456 78.84H173.976V78.808V74.616C173.976 74.264 174.152 74.088 174.504 74.088H175.496C175.848 74.088 176.024 74.264 176.024 74.616V78.808V78.84H179C179.352 78.84 179.528 79.016 179.528 79.368V87.144C179.528 87.5067 179.347 87.6773 178.984 87.656L176.36 87.496C176.04 87.4747 175.88 87.336 175.88 87.08C175.88 86.696 176.072 86.5147 176.456 86.536L177.48 86.6V85.048H172.664V87.256ZM169.288 76.696C169.405 76.8347 169.464 76.952 169.464 77.048C169.464 77.208 169.357 77.336 169.144 77.432L168.68 77.64C168.552 77.6933 168.451 77.72 168.376 77.72C168.216 77.72 168.072 77.6507 167.944 77.512L166.408 75.928C166.291 75.8107 166.232 75.6933 166.232 75.576C166.232 75.416 166.339 75.288 166.552 75.192L167.016 74.984C167.144 74.9307 167.245 74.904 167.32 74.904C167.48 74.904 167.624 74.9733 167.752 75.112L169.288 76.696ZM169.224 80.856C169.363 80.9627 169.432 81.0853 169.432 81.224C169.432 81.3733 169.341 81.496 169.16 81.592L168.792 81.784C168.685 81.848 168.573 81.88 168.456 81.88C168.317 81.88 168.189 81.8267 168.072 81.72L166.408 80.328C166.269 80.2213 166.2 80.104 166.2 79.976C166.2 79.8267 166.296 79.6987 166.488 79.592L166.84 79.4C166.904 79.368 166.963 79.3413 167.016 79.32C167.069 79.2987 167.123 79.288 167.176 79.288C167.293 79.288 167.421 79.3467 167.56 79.464L169.224 80.856ZM177.48 79.8H172.664V81.48H177.48V79.8ZM172.664 84.088H177.48V82.44H172.664V84.088ZM168.024 84.024C168.152 83.8533 168.301 83.768 168.472 83.768C168.547 83.768 168.632 83.784 168.728 83.816L169.336 84.024C169.56 84.0987 169.672 84.2267 169.672 84.408C169.672 84.504 169.629 84.6107 169.544 84.728L167.704 87.16C167.576 87.3307 167.427 87.416 167.256 87.416C167.181 87.416 167.096 87.4 167 87.368L166.392 87.16C166.168 87.0747 166.056 86.9467 166.056 86.776C166.056 86.68 166.099 86.5733 166.184 86.456L168.024 84.024ZM182.76 80.936C182.6 80.968 182.456 80.936 182.328 80.84C182.211 80.7333 182.152 80.5947 182.152 80.424C182.152 80.168 182.312 79.9973 182.632 79.912C183.699 79.6453 184.515 79.176 185.08 78.504H182.904C182.723 78.504 182.573 78.4453 182.456 78.328C182.339 78.2107 182.28 78.072 182.28 77.912C182.28 77.816 182.296 77.7307 182.328 77.656L182.904 76.232C183.011 75.976 183.197 75.8747 183.464 75.928L184.264 76.072C184.285 76.072 184.307 76.0773 184.328 76.088H186.152C186.195 75.8747 186.227 75.656 186.248 75.432H182.792C182.643 75.432 182.515 75.3893 182.408 75.304C182.301 75.208 182.248 75.0907 182.248 74.952C182.248 74.8133 182.301 74.7013 182.408 74.616C182.515 74.52 182.643 74.472 182.792 74.472H186.312C186.365 74.152 186.547 73.992 186.856 73.992H187.816C187.976 73.992 188.109 74.0453 188.216 74.152C188.323 74.248 188.371 74.3547 188.36 74.472H189.752C189.773 74.3333 189.832 74.2213 189.928 74.136C190.035 74.04 190.157 73.992 190.296 73.992H191.256C191.405 73.992 191.533 74.0453 191.64 74.152C191.747 74.248 191.8 74.3547 191.8 74.472H195.272C195.421 74.472 195.549 74.5253 195.656 74.632C195.763 74.7387 195.816 74.8667 195.816 75.016V76.68C195.816 76.8293 195.763 76.9573 195.656 77.064C195.549 77.1707 195.421 77.224 195.272 77.224H194.312C194.152 77.224 194.019 77.1653 193.912 77.048H191.8V77.544H195.384C195.565 77.544 195.709 77.608 195.816 77.736C195.923 77.864 195.965 78.0187 195.944 78.2L195.704 79.752C195.683 79.8907 195.619 80.0027 195.512 80.088C195.405 80.1733 195.283 80.2107 195.144 80.2L193.016 80.04C192.845 80.0187 192.707 79.96 192.6 79.864C192.504 79.768 192.467 79.6507 192.488 79.512V79.496C192.509 79.3467 192.573 79.2347 192.68 79.16C192.787 79.0853 192.909 79.0533 193.048 79.064L193.736 79.112L193.832 78.504H191.8V79.512C191.8 79.6613 191.747 79.7893 191.64 79.896C191.533 80.0027 191.405 80.056 191.256 80.056H190.296C190.147 80.056 190.019 80.0027 189.912 79.896C189.805 79.7893 189.752 79.6613 189.752 79.512V78.504H187.176C186.632 79.2507 185.869 79.8427 184.888 80.28H184.952C185.059 80.28 185.155 80.3067 185.24 80.36H194.008C194.157 80.36 194.285 80.4133 194.392 80.52C194.499 80.6267 194.552 80.7547 194.552 80.904V85.608C194.552 85.7573 194.499 85.8853 194.392 85.992C194.285 86.0987 194.157 86.152 194.008 86.152H193.048C192.973 86.152 192.899 86.136 192.824 86.104H185.176C185.101 86.136 185.027 86.152 184.952 86.152H183.992C183.843 86.152 183.715 86.0987 183.608 85.992C183.501 85.8853 183.448 85.7573 183.448 85.608V80.824C183.448 80.792 183.448 80.776 183.448 80.776C183.224 80.8293 182.995 80.8827 182.76 80.936ZM188.184 76.088H189.752V75.432H188.296C188.264 75.656 188.227 75.8747 188.184 76.088ZM193.768 75.432H191.8V76.088H193.768V75.432ZM184.424 77.544H185.704C185.779 77.384 185.843 77.2187 185.896 77.048H184.616L184.424 77.544ZM187.736 77.544H189.752V77.048H187.944C187.88 77.2187 187.811 77.384 187.736 77.544ZM192.504 81.32H185.496V81.912H192.504V81.32ZM185.496 83.544H192.504V82.872H185.496V83.544ZM185.496 85.144H192.504V84.504H185.496V85.144ZM184.728 87.96C184.696 87.9707 184.648 87.976 184.584 87.976C184.392 87.976 184.253 87.9013 184.168 87.752C184.104 87.656 184.072 87.5547 184.072 87.448C184.072 87.2027 184.227 87.0267 184.536 86.92L186.84 86.248C186.872 86.2373 186.92 86.232 186.984 86.232C187.176 86.232 187.315 86.3067 187.4 86.456C187.464 86.552 187.496 86.6533 187.496 86.76C187.496 87.0053 187.341 87.1813 187.032 87.288L184.728 87.96ZM193.672 87C193.832 87.0427 193.955 87.112 194.04 87.208C194.136 87.3147 194.184 87.4213 194.184 87.528C194.184 87.5813 194.168 87.6347 194.136 87.688L194.04 87.832C193.955 87.9813 193.816 88.056 193.624 88.056C193.56 88.056 193.512 88.0507 193.48 88.04L190.904 87.288C190.744 87.2453 190.616 87.1707 190.52 87.064C190.435 86.968 190.392 86.8667 190.392 86.76C190.392 86.696 190.408 86.6427 190.44 86.6L190.536 86.456C190.621 86.3067 190.76 86.232 190.952 86.232C191.016 86.232 191.064 86.2373 191.096 86.248L193.672 87Z" fill="#4F4737"/>
<path d="M64.104 86.04C64.456 86.04 64.632 86.2 64.632 86.52C64.632 86.84 64.456 87 64.104 87H58.344C58.0453 87 57.896 86.904 57.896 86.712C57.896 86.5947 57.96 86.472 58.088 86.344C59.1227 85.2347 60.024 84.152 60.792 83.096C61.56 82.0293 62.152 81.048 62.568 80.152C62.9947 79.256 63.208 78.5147 63.208 77.928C63.208 77.5227 63.128 77.144 62.968 76.792C62.8187 76.44 62.616 76.1573 62.36 75.944C62.104 75.7307 61.832 75.624 61.544 75.624C60.9573 75.624 60.4827 75.9707 60.12 76.664C59.768 77.3467 59.5707 78.3387 59.528 79.64C59.5067 80.0027 59.3253 80.184 58.984 80.184H57.992C57.6293 80.184 57.4587 80.0027 57.48 79.64C57.608 76.3227 58.9627 74.664 61.544 74.664C62.216 74.664 62.8293 74.8133 63.384 75.112C63.9493 75.4107 64.4027 75.8107 64.744 76.312C65.0853 76.8027 65.256 77.3413 65.256 77.928C65.256 78.504 65.064 79.2133 64.68 80.056C64.296 80.888 63.7467 81.8107 63.032 82.824C62.3173 83.8373 61.4587 84.9093 60.456 86.04H64.104ZM70.7104 74.68C72.0437 74.68 73.0517 75.1867 73.7344 76.2C74.417 77.2133 74.7584 78.6747 74.7584 80.584C74.7584 82.7067 74.3957 84.3333 73.6704 85.464C72.9557 86.5947 71.8997 87.16 70.5024 87.16C69.1264 87.16 68.065 86.5947 67.3184 85.464C66.5824 84.3333 66.2144 82.7493 66.2144 80.712C66.2144 78.7493 66.593 77.256 67.3504 76.232C68.1077 75.1973 69.2277 74.68 70.7104 74.68ZM70.7104 75.64C69.9637 75.64 69.3664 76.0827 68.9184 76.968C68.481 77.8533 68.2624 79.1013 68.2624 80.712C68.2624 81.7787 68.3637 82.728 68.5664 83.56C68.7797 84.3813 69.057 85.0267 69.3984 85.496C69.7397 85.9653 70.1077 86.2 70.5024 86.2C70.9184 86.2 71.2917 85.9653 71.6224 85.496C71.953 85.0267 72.2144 84.3707 72.4064 83.528C72.609 82.6853 72.7104 81.704 72.7104 80.584C72.7104 79.592 72.6197 78.728 72.4384 77.992C72.2677 77.2453 72.0277 76.6693 71.7184 76.264C71.4197 75.848 71.0837 75.64 70.7104 75.64ZM82.3384 86.04C82.6904 86.04 82.8664 86.2 82.8664 86.52C82.8664 86.84 82.6904 87 82.3384 87H76.5784C76.2797 87 76.1304 86.904 76.1304 86.712C76.1304 86.5947 76.1944 86.472 76.3224 86.344C77.357 85.2347 78.2584 84.152 79.0264 83.096C79.7944 82.0293 80.3864 81.048 80.8024 80.152C81.229 79.256 81.4424 78.5147 81.4424 77.928C81.4424 77.5227 81.3624 77.144 81.2024 76.792C81.053 76.44 80.8504 76.1573 80.5944 75.944C80.3384 75.7307 80.0664 75.624 79.7784 75.624C79.1917 75.624 78.717 75.9707 78.3544 76.664C78.0024 77.3467 77.805 78.3387 77.7624 79.64C77.741 80.0027 77.5597 80.184 77.2184 80.184H76.2264C75.8637 80.184 75.693 80.0027 75.7144 79.64C75.8424 76.3227 77.197 74.664 79.7784 74.664C80.4504 74.664 81.0637 74.8133 81.6184 75.112C82.1837 75.4107 82.637 75.8107 82.9784 76.312C83.3197 76.8027 83.4904 77.3413 83.4904 77.928C83.4904 78.504 83.2984 79.2133 82.9144 80.056C82.5304 80.888 81.981 81.8107 81.2664 82.824C80.5517 83.8373 79.693 84.9093 78.6904 86.04H82.3384ZM84.5344 86.504C84.3424 86.4187 84.2464 86.3013 84.2464 86.152C84.2464 85.992 84.337 85.864 84.5184 85.768L84.8064 85.608C84.9344 85.544 85.0464 85.512 85.1424 85.512C85.281 85.512 85.409 85.5493 85.5264 85.624C85.8997 85.8373 86.2944 85.992 86.7104 86.088C87.137 86.1733 87.5157 86.216 87.8464 86.216C88.4544 86.216 88.945 85.9867 89.3184 85.528C89.7024 85.0587 89.8944 84.4453 89.8944 83.688C89.8944 81.7147 89.2064 80.728 87.8304 80.728C87.521 80.728 87.1744 80.776 86.7904 80.872C86.4064 80.9573 85.9797 81.0907 85.5104 81.272C85.4144 81.304 85.3237 81.32 85.2384 81.32C84.9824 81.32 84.865 81.1653 84.8864 80.856L85.0944 75.176C85.105 74.8347 85.2864 74.664 85.6384 74.664L86.6304 74.68C86.8117 74.68 86.945 74.7333 87.0304 74.84H91.1264C91.4784 74.84 91.6544 75 91.6544 75.32C91.6544 75.64 91.4784 75.8 91.1264 75.8H87.1264L86.9664 79.8C87.1264 79.7787 87.281 79.7627 87.4304 79.752C87.5904 79.7413 87.7397 79.736 87.8784 79.736C88.689 79.736 89.3984 79.8907 90.0064 80.2C90.6144 80.5093 91.089 80.9627 91.4304 81.56C91.7717 82.1467 91.9424 82.856 91.9424 83.688C91.9424 84.36 91.761 84.9627 91.3984 85.496C91.0464 86.0187 90.561 86.4293 89.9424 86.728C89.3237 87.0267 88.625 87.176 87.8464 87.176C87.505 87.176 87.1317 87.144 86.7264 87.08C86.3317 87.0267 85.9424 86.9467 85.5584 86.84C85.1744 86.7333 84.833 86.6213 84.5344 86.504ZM95.6219 86.696C95.5152 86.9947 95.3019 87.1227 94.9819 87.08L94.1179 86.936C93.8405 86.8827 93.7019 86.7387 93.7019 86.504C93.7019 86.472 93.7019 86.44 93.7019 86.408C93.7125 86.376 93.7232 86.3387 93.7339 86.296L97.6859 75.144C97.7925 74.8453 98.0059 74.7173 98.3259 74.76L99.1899 74.904C99.4672 74.9573 99.6059 75.1013 99.6059 75.336C99.6059 75.368 99.6059 75.4 99.6059 75.432C99.6059 75.464 99.5952 75.5013 99.5739 75.544L95.6219 86.696ZM105.323 86.456C105.323 86.6053 105.269 86.7333 105.163 86.84C105.056 86.9467 104.928 87 104.779 87H103.819C103.669 87 103.541 86.9467 103.435 86.84C103.328 86.7333 103.275 86.6053 103.275 86.456V78.44C103.232 78.4613 103.184 78.472 103.131 78.472C103.067 78.472 103.019 78.4667 102.987 78.456L102.299 78.28C102.16 78.248 102.048 78.184 101.963 78.088C101.888 77.9813 101.851 77.8693 101.851 77.752C101.851 77.6667 101.877 77.56 101.931 77.432L103.243 75.016C103.349 74.8133 103.509 74.728 103.723 74.76L104.859 74.904C104.997 74.9147 105.109 74.968 105.195 75.064C105.28 75.16 105.323 75.2773 105.323 75.416V86.456ZM111.507 74.68C112.841 74.68 113.849 75.1867 114.531 76.2C115.214 77.2133 115.555 78.6747 115.555 80.584C115.555 82.7067 115.193 84.3333 114.467 85.464C113.753 86.5947 112.697 87.16 111.299 87.16C109.923 87.16 108.862 86.5947 108.115 85.464C107.379 84.3333 107.011 82.7493 107.011 80.712C107.011 78.7493 107.39 77.256 108.147 76.232C108.905 75.1973 110.025 74.68 111.507 74.68ZM111.507 75.64C110.761 75.64 110.163 76.0827 109.715 76.968C109.278 77.8533 109.059 79.1013 109.059 80.712C109.059 81.7787 109.161 82.728 109.363 83.56C109.577 84.3813 109.854 85.0267 110.195 85.496C110.537 85.9653 110.905 86.2 111.299 86.2C111.715 86.2 112.089 85.9653 112.419 85.496C112.75 85.0267 113.011 84.3707 113.203 83.528C113.406 82.6853 113.507 81.704 113.507 80.584C113.507 79.592 113.417 78.728 113.235 77.992C113.065 77.2453 112.825 76.6693 112.515 76.264C112.217 75.848 111.881 75.64 111.507 75.64ZM119.231 86.696C119.125 86.9947 118.911 87.1227 118.591 87.08L117.727 86.936C117.45 86.8827 117.311 86.7387 117.311 86.504C117.311 86.472 117.311 86.44 117.311 86.408C117.322 86.376 117.333 86.3387 117.343 86.296L121.295 75.144C121.402 74.8453 121.615 74.7173 121.935 74.76L122.799 74.904C123.077 74.9573 123.215 75.1013 123.215 75.336C123.215 75.368 123.215 75.4 123.215 75.432C123.215 75.464 123.205 75.5013 123.183 75.544L119.231 86.696ZM129.476 74.68C130.809 74.68 131.817 75.1867 132.5 76.2C133.183 77.2133 133.524 78.6747 133.524 80.584C133.524 82.7067 133.161 84.3333 132.436 85.464C131.721 86.5947 130.665 87.16 129.268 87.16C127.892 87.16 126.831 86.5947 126.084 85.464C125.348 84.3333 124.98 82.7493 124.98 80.712C124.98 78.7493 125.359 77.256 126.116 76.232C126.873 75.1973 127.993 74.68 129.476 74.68ZM129.476 75.64C128.729 75.64 128.132 76.0827 127.684 76.968C127.247 77.8533 127.028 79.1013 127.028 80.712C127.028 81.7787 127.129 82.728 127.332 83.56C127.545 84.3813 127.823 85.0267 128.164 85.496C128.505 85.9653 128.873 86.2 129.268 86.2C129.684 86.2 130.057 85.9653 130.388 85.496C130.719 85.0267 130.98 84.3707 131.172 83.528C131.375 82.6853 131.476 81.704 131.476 80.584C131.476 79.592 131.385 78.728 131.204 77.992C131.033 77.2453 130.793 76.6693 130.484 76.264C130.185 75.848 129.849 75.64 129.476 75.64ZM141.212 86.472C141.212 86.824 141.036 87 140.684 87H139.692C139.34 87 139.164 86.824 139.164 86.472V85.032H134.652C134.268 85.032 134.108 84.8453 134.172 84.472L135.612 75.416C135.665 75.0853 135.862 74.936 136.204 74.968L137.164 75.032C137.526 75.064 137.681 75.2613 137.628 75.624L136.284 84.072H139.164V75.368C139.164 75.016 139.34 74.84 139.692 74.84H140.684C141.036 74.84 141.212 75.016 141.212 75.368V84.072H142.22C142.572 84.072 142.748 84.232 142.748 84.552C142.748 84.872 142.572 85.032 142.22 85.032H141.212V86.472Z" fill="#4F4737"/>
<path d="M38.336 42.7335C38.24 42.9149 38.1173 43.0055 37.968 43.0055C37.84 43.0055 37.7173 42.9149 37.6 42.7335L31.792 33.1815C31.728 33.0642 31.696 32.9629 31.696 32.8775C31.696 32.6535 31.8453 32.5415 32.144 32.5415H43.616C43.9253 32.5415 44.08 32.6535 44.08 32.8775C44.08 32.9629 44.048 33.0642 43.984 33.1815L38.336 42.7335ZM56.0581 43.2375C55.8981 43.4109 55.7181 43.4975 55.5181 43.4975C55.4248 43.4975 55.2981 43.4642 55.1381 43.3975L54.5581 43.1375C54.2915 43.0175 54.1581 42.8575 54.1581 42.6575C54.1581 42.5375 54.2315 42.3909 54.3781 42.2175L65.5181 30.8175H54.1581C53.7181 30.8175 53.4981 30.6175 53.4981 30.2175C53.4981 29.8175 53.7181 29.6175 54.1581 29.6175H68.2181C68.5915 29.6175 68.7781 29.7442 68.7781 29.9975C68.7781 30.1175 68.7048 30.2642 68.5581 30.4375L62.4781 36.6775L68.8381 42.2175C68.9981 42.3509 69.0781 42.4975 69.0781 42.6575C69.0781 42.8309 68.9648 42.9909 68.7381 43.1375L68.2781 43.3975C68.1981 43.4375 68.1181 43.4709 68.0381 43.4975C67.9715 43.5242 67.9048 43.5375 67.8381 43.5375C67.6915 43.5375 67.5315 43.4642 67.3581 43.3175L61.1981 37.9575L56.0581 43.2375ZM76.2366 43.1375C76.2366 43.5775 76.0166 43.7975 75.5766 43.7975H74.3366C73.8966 43.7975 73.6766 43.5775 73.6766 43.1375V29.2375C73.6766 28.7975 73.8966 28.5775 74.3366 28.5775H75.5766C76.0166 28.5775 76.2366 28.7975 76.2366 29.2375V34.9175L83.4766 37.2575C83.7832 37.3642 83.9366 37.5242 83.9366 37.7375C83.9366 37.8442 83.8966 37.9575 83.8166 38.0775L83.7366 38.1775C83.5899 38.4042 83.3966 38.5175 83.1566 38.5175C83.1166 38.5175 83.0699 38.5175 83.0166 38.5175C82.9766 38.5042 82.9299 38.4909 82.8766 38.4775L76.2366 36.3375V43.1375ZM93.0989 36.5575C93.1122 36.5975 93.1189 36.6509 93.1189 36.7175C93.1189 37.0642 92.9189 37.2575 92.5189 37.2975L91.3189 37.3975C90.9056 37.4375 90.6589 37.2442 90.5789 36.8175L90.0389 33.7375C90.0256 33.6975 90.0189 33.6442 90.0189 33.5775C90.0189 33.2309 90.2189 33.0375 90.6189 32.9975L91.8189 32.8975C92.2322 32.8575 92.4789 33.0509 92.5589 33.4775L93.0989 36.5575ZM89.8189 37.0575C89.8322 37.1109 89.8389 37.1842 89.8389 37.2775C89.8389 37.5975 89.6589 37.7775 89.2989 37.8175L88.1389 37.9575C87.7256 37.9975 87.4656 37.8175 87.3589 37.4175L86.5989 34.3375C86.5856 34.2975 86.5789 34.2575 86.5789 34.2175C86.5789 34.1775 86.5789 34.1442 86.5789 34.1175C86.5789 33.7975 86.7589 33.6175 87.1189 33.5775L88.2789 33.4375C88.6789 33.3975 88.9322 33.5775 89.0389 33.9775L89.8189 37.0575ZM94.1589 43.1375C94.0256 43.4309 93.8122 43.5775 93.5189 43.5775C93.4922 43.5775 93.4589 43.5775 93.4189 43.5775C93.3789 43.5775 93.3456 43.5709 93.3189 43.5575L92.2989 43.3175C91.9789 43.2375 91.8189 43.0709 91.8189 42.8175C91.8189 42.6975 91.8456 42.5842 91.8989 42.4775L95.9389 34.1375C96.0722 33.8442 96.2856 33.6975 96.5789 33.6975C96.6056 33.6975 96.6389 33.6975 96.6789 33.6975C96.7189 33.6975 96.7522 33.7042 96.7789 33.7175L97.7989 33.9575C98.1189 34.0375 98.2789 34.2042 98.2789 34.4575C98.2789 34.5775 98.2522 34.6909 98.1989 34.7975L94.1589 43.1375ZM103.136 36.5775C102.976 36.8175 102.783 36.9375 102.556 36.9375C102.463 36.9375 102.363 36.9175 102.256 36.8775L101.436 36.6175C101.13 36.5109 100.976 36.3442 100.976 36.1175C100.976 35.9975 101.023 35.8709 101.116 35.7375L105.756 28.7175C105.916 28.4775 106.11 28.3575 106.336 28.3575C106.443 28.3575 106.543 28.3775 106.636 28.4175L107.456 28.6775C107.763 28.7842 107.916 28.9509 107.916 29.1775C107.916 29.2842 107.87 29.4109 107.776 29.5575L107.696 29.6775H116.916C117.29 29.6775 117.476 29.8175 117.476 30.0975C117.476 30.2042 117.436 30.3309 117.356 30.4775L109.356 43.3375C109.196 43.5909 108.996 43.7175 108.756 43.7175C108.69 43.7175 108.603 43.7042 108.496 43.6775L107.636 43.4175C107.33 43.3109 107.176 43.1442 107.176 42.9175C107.176 42.8109 107.216 42.6909 107.296 42.5575L114.536 30.8775H106.896L103.136 36.5775ZM122.515 43.4175C122.502 43.8442 122.275 44.0575 121.835 44.0575L120.615 44.0375C120.402 44.0375 120.235 43.9775 120.115 43.8575C119.995 43.7375 119.942 43.5709 119.955 43.3575L120.635 28.2375C120.635 28.1309 120.655 28.0442 120.695 27.9775C120.668 27.9109 120.655 27.8375 120.655 27.7575C120.655 27.3575 120.875 27.1575 121.315 27.1575H136.415C136.855 27.1575 137.075 27.3775 137.075 27.8175V31.4775C137.075 31.9175 136.855 32.1375 136.415 32.1375H135.175C134.922 32.1375 134.742 32.0575 134.635 31.8975H127.095L127.135 31.9175L127.735 32.1775C127.975 32.2975 128.095 32.4575 128.095 32.6575C128.095 32.8175 128.028 32.9642 127.895 33.0975L124.915 36.2375C124.755 36.4109 124.575 36.4975 124.375 36.4975C124.282 36.4975 124.155 36.4642 123.995 36.3975L123.395 36.1375C123.142 36.0175 123.015 35.8575 123.015 35.6575C123.015 35.5109 123.088 35.3642 123.235 35.2175L126.215 32.0775C126.282 31.9975 126.355 31.9375 126.435 31.8975H123.035L122.515 43.4175ZM134.515 28.3575H123.195L123.095 30.6975H134.515V28.3575ZM124.475 40.0375C124.328 40.1709 124.168 40.2375 123.995 40.2375C123.862 40.2375 123.722 40.1975 123.575 40.1175L123.135 39.8775C122.895 39.7309 122.775 39.5709 122.775 39.3975C122.775 39.2375 122.862 39.0909 123.035 38.9575L126.895 35.7575C127.042 35.6242 127.202 35.5575 127.375 35.5575C127.482 35.5575 127.582 35.5775 127.675 35.6175C127.675 35.6042 127.682 35.5842 127.695 35.5575L128.895 32.3775C129.042 31.9909 129.315 31.8375 129.715 31.9175L130.795 32.1175C131.142 32.1842 131.315 32.3575 131.315 32.6375C131.315 32.7309 131.295 32.8309 131.255 32.9375L131.075 33.3975H136.535C136.975 33.3975 137.195 33.5975 137.195 33.9975C137.195 34.3975 136.975 34.5975 136.535 34.5975H130.835C130.768 34.5975 130.702 34.5909 130.635 34.5775L130.415 35.1575C130.522 35.0775 130.668 35.0375 130.855 35.0375H136.055C136.495 35.0375 136.715 35.2575 136.715 35.6975V38.7575C136.715 39.1975 136.495 39.4175 136.055 39.4175H134.975C134.908 39.4309 134.842 39.4375 134.775 39.4375H132.795C132.768 39.5842 132.682 39.7175 132.535 39.8375H136.155C136.542 39.8375 136.735 39.9509 136.735 40.1775C136.735 40.3242 136.622 40.4775 136.395 40.6375L134.155 42.1175L135.855 42.7375C136.148 42.8442 136.295 43.0042 136.295 43.2175C136.295 43.3375 136.248 43.4509 136.155 43.5575L136.075 43.6775C135.915 43.8909 135.728 43.9975 135.515 43.9975C135.462 43.9975 135.408 43.9842 135.355 43.9575C135.302 43.9442 135.242 43.9309 135.175 43.9175L132.755 43.0375L131.735 43.7175C131.562 43.8242 131.415 43.8775 131.295 43.8775C131.135 43.8775 130.975 43.8175 130.815 43.6975L130.535 43.4975C130.335 43.3509 130.235 43.1975 130.235 43.0375C130.235 42.8775 130.342 42.7242 130.555 42.5775L130.895 42.3575L130.835 42.3375C130.542 42.2309 130.395 42.0709 130.395 41.8575C130.395 41.7375 130.442 41.6242 130.535 41.5175L130.615 41.3975C130.642 41.3575 130.668 41.3309 130.695 41.3175L129.775 42.0375C129.628 42.1709 129.468 42.2375 129.295 42.2375C129.148 42.2375 129.002 42.1909 128.855 42.0975L128.455 41.8575C128.228 41.7109 128.115 41.5509 128.115 41.3775C128.115 41.2175 128.202 41.0709 128.375 40.9375L130.275 39.4175H129.575C129.135 39.4175 128.915 39.1975 128.915 38.7575V36.5175L128.575 36.4575C128.548 36.6042 128.462 36.7309 128.315 36.8375L127.235 37.7375C127.315 37.8442 127.355 37.9909 127.355 38.1775V43.3375C127.355 43.7775 127.135 43.9975 126.695 43.9975H125.455C125.015 43.9975 124.795 43.7775 124.795 43.3375V39.7775L124.475 40.0375ZM134.155 36.2375H131.475V36.6375H134.155V36.2375ZM131.475 38.2375H134.155V37.8375H131.475V38.2375ZM131.515 41.1575L132.275 41.4375L132.855 41.0375H131.055H131.035L130.895 41.1375C130.975 41.0975 131.068 41.0775 131.175 41.0775C131.228 41.0775 131.282 41.0842 131.335 41.0975C131.402 41.1109 131.462 41.1309 131.515 41.1575ZM142.435 43.5575C142.422 43.7442 142.348 43.8909 142.215 43.9975C142.095 44.1175 141.942 44.1709 141.755 44.1575L140.535 44.0975C140.335 44.0842 140.175 44.0042 140.055 43.8575C139.935 43.7242 139.882 43.5509 139.895 43.3375L141.375 28.3175C141.388 28.1709 141.435 28.0509 141.515 27.9575C141.488 27.8909 141.475 27.8242 141.475 27.7575C141.475 27.5842 141.542 27.4442 141.675 27.3375C141.808 27.2175 141.968 27.1575 142.155 27.1575H157.195C157.382 27.1575 157.542 27.2175 157.675 27.3375C157.808 27.4442 157.875 27.5842 157.875 27.7575C157.875 27.9309 157.808 28.0775 157.675 28.1975C157.542 28.3042 157.382 28.3575 157.195 28.3575H143.915C143.928 28.4109 143.928 28.4709 143.915 28.5375L142.435 43.5575ZM145.935 36.1975C145.815 36.4242 145.635 36.5375 145.395 36.5375C145.328 36.5375 145.275 36.5309 145.235 36.5175L144.335 36.2975C144.162 36.2575 144.022 36.1775 143.915 36.0575C143.822 35.9242 143.775 35.7775 143.775 35.6175C143.775 35.4842 143.802 35.3642 143.855 35.2575L145.495 31.9975H144.655C144.468 31.9975 144.308 31.9442 144.175 31.8375C144.042 31.7175 143.975 31.5709 143.975 31.3975C143.975 31.2242 144.042 31.0842 144.175 30.9775C144.308 30.8575 144.468 30.7975 144.655 30.7975H145.935V29.5175C145.935 29.3309 146.002 29.1709 146.135 29.0375C146.268 28.9042 146.428 28.8375 146.615 28.8375H147.815C148.002 28.8375 148.162 28.9042 148.295 29.0375C148.428 29.1709 148.495 29.3309 148.495 29.5175V30.7975H149.475C149.662 30.7975 149.822 30.8575 149.955 30.9775C150.088 31.0842 150.155 31.2242 150.155 31.3975C150.155 31.5709 150.088 31.7175 149.955 31.8375C149.822 31.9442 149.662 31.9975 149.475 31.9975H148.735L150.775 33.4375L151.775 31.9975H151.175C150.988 31.9975 150.828 31.9442 150.695 31.8375C150.562 31.7175 150.495 31.5709 150.495 31.3975C150.495 31.2242 150.562 31.0842 150.695 30.9775C150.828 30.8575 150.988 30.7975 151.175 30.7975H152.515V29.4175C152.515 29.2309 152.582 29.0709 152.715 28.9375C152.848 28.8042 153.008 28.7375 153.195 28.7375H154.395C154.582 28.7375 154.742 28.8042 154.875 28.9375C155.008 29.0709 155.075 29.2309 155.075 29.4175V30.7975H156.355C156.542 30.7975 156.702 30.8575 156.835 30.9775C156.968 31.0842 157.035 31.2242 157.035 31.3975C157.035 31.5709 156.968 31.7175 156.835 31.8375C156.702 31.9442 156.542 31.9975 156.355 31.9975H155.835L157.675 35.2375C157.755 35.3709 157.795 35.5042 157.795 35.6375C157.795 35.9709 157.608 36.1909 157.235 36.2975L156.375 36.5375C156.335 36.5509 156.275 36.5575 156.195 36.5575C155.982 36.5575 155.808 36.4509 155.675 36.2375L155.075 35.1775V37.1975C155.075 37.3842 155.008 37.5442 154.875 37.6775C154.742 37.8109 154.582 37.8775 154.395 37.8775H153.195C153.008 37.8775 152.848 37.8109 152.715 37.6775C152.582 37.5442 152.515 37.3842 152.515 37.1975V34.5975L151.315 36.3175C151.182 36.5042 151.015 36.5975 150.815 36.5975C150.762 36.5975 150.695 36.5842 150.615 36.5575L149.935 36.3375C149.575 36.2042 149.395 35.9775 149.395 35.6575C149.395 35.4975 149.448 35.3442 149.555 35.1975L149.835 34.7975L148.495 33.8575V37.1975C148.495 37.3842 148.428 37.5442 148.295 37.6775C148.162 37.8109 148.002 37.8775 147.815 37.8775H146.615C146.428 37.8775 146.268 37.8109 146.135 37.6775C146.002 37.5442 145.935 37.3842 145.935 37.1975V36.1975ZM147.035 42.2775C147.035 42.3175 147.035 42.3442 147.035 42.3575H149.275V42.2775V38.4175C149.275 38.2309 149.342 38.0709 149.475 37.9375C149.608 37.8042 149.768 37.7375 149.955 37.7375H151.155C151.342 37.7375 151.502 37.8042 151.635 37.9375C151.768 38.0709 151.835 38.2309 151.835 38.4175V39.2975H156.535C156.722 39.2975 156.882 39.3575 157.015 39.4775C157.148 39.5842 157.215 39.7242 157.215 39.8975C157.215 40.0709 157.148 40.2175 157.015 40.3375C156.882 40.4442 156.722 40.4975 156.535 40.4975H151.835V42.2775C151.835 42.3175 151.835 42.3442 151.835 42.3575H156.855C157.042 42.3575 157.202 42.4175 157.335 42.5375C157.468 42.6442 157.535 42.7842 157.535 42.9575C157.535 43.1309 157.468 43.2709 157.335 43.3775C157.202 43.4975 157.042 43.5575 156.855 43.5575H143.755C143.568 43.5575 143.408 43.4975 143.275 43.3775C143.142 43.2709 143.075 43.1309 143.075 42.9575C143.075 42.7842 143.142 42.6442 143.275 42.5375C143.408 42.4175 143.568 42.3575 143.755 42.3575H144.475V42.2775V39.5175C144.475 39.3309 144.542 39.1709 144.675 39.0375C144.808 38.9042 144.968 38.8375 145.155 38.8375H146.355C146.542 38.8375 146.702 38.9042 146.835 39.0375C146.968 39.1709 147.035 39.3309 147.035 39.5175V42.2775ZM176.115 42.6575C176.315 42.7909 176.415 42.9509 176.415 43.1375C176.415 43.2842 176.348 43.4242 176.215 43.5575L176.095 43.6975C175.935 43.8709 175.755 43.9575 175.555 43.9575C175.462 43.9575 175.335 43.9242 175.175 43.8575C172.255 42.3109 170.795 39.5109 170.795 35.4575C170.795 31.3909 172.255 28.5909 175.175 27.0575C175.335 26.9909 175.462 26.9575 175.555 26.9575C175.755 26.9575 175.935 27.0442 176.095 27.2175L176.235 27.3575C176.368 27.4909 176.435 27.6309 176.435 27.7775C176.435 27.9509 176.328 28.1109 176.115 28.2575C175.568 28.6575 175.088 29.2175 174.675 29.9375C174.262 30.6442 173.935 31.4709 173.695 32.4175C173.468 33.3642 173.355 34.3775 173.355 35.4575C173.355 36.5375 173.468 37.5509 173.695 38.4975C173.935 39.4309 174.262 40.2575 174.675 40.9775C175.088 41.6975 175.568 42.2575 176.115 42.6575ZM192.195 30.7775C192.195 30.9242 192.155 31.0575 192.075 31.1775H196.275C196.462 31.1775 196.622 31.2442 196.755 31.3775C196.888 31.5109 196.955 31.6709 196.955 31.8575V40.2775C196.955 40.4642 196.888 40.6242 196.755 40.7575C196.622 40.8909 196.462 40.9575 196.275 40.9575H195.075C194.782 40.9575 194.575 40.8242 194.455 40.5575H187.695C187.575 40.8242 187.368 40.9575 187.075 40.9575H185.875C185.688 40.9575 185.528 40.8909 185.395 40.7575C185.262 40.6242 185.195 40.4642 185.195 40.2775V31.4975C185.195 31.3109 185.262 31.1509 185.395 31.0175C185.528 30.8842 185.688 30.8175 185.875 30.8175H187.075C187.355 30.8175 187.555 30.9375 187.675 31.1775H189.755C189.675 31.0575 189.635 30.9242 189.635 30.7775V29.4975H181.775C181.588 29.4975 181.428 29.4442 181.295 29.3375C181.162 29.2175 181.095 29.0709 181.095 28.8975C181.095 28.7242 181.162 28.5842 181.295 28.4775C181.428 28.3575 181.588 28.2975 181.775 28.2975H189.635V27.0375C189.635 26.8509 189.702 26.6909 189.835 26.5575C189.968 26.4242 190.128 26.3575 190.315 26.3575H191.515C191.702 26.3575 191.862 26.4242 191.995 26.5575C192.128 26.6909 192.195 26.8509 192.195 27.0375V28.2975H197.115C197.302 28.2975 197.462 28.3575 197.595 28.4775C197.728 28.5842 197.795 28.7242 197.795 28.8975C197.795 29.0709 197.728 29.2175 197.595 29.3375C197.462 29.4442 197.302 29.4975 197.115 29.4975H192.195V30.7775ZM194.395 32.3775H187.755V33.9575H194.395V32.3775ZM196.915 42.3575C197.102 42.3575 197.262 42.4175 197.395 42.5375C197.528 42.6442 197.595 42.7842 197.595 42.9575C197.595 43.1309 197.528 43.2709 197.395 43.3775C197.262 43.4975 197.102 43.5575 196.915 43.5575H181.375C181.188 43.5575 181.028 43.4909 180.895 43.3575C180.762 43.2242 180.695 43.0642 180.695 42.8775V34.2575C180.695 34.0709 180.762 33.9109 180.895 33.7775C181.028 33.6442 181.188 33.5775 181.375 33.5775H182.575C182.762 33.5775 182.922 33.6442 183.055 33.7775C183.188 33.9109 183.255 34.0709 183.255 34.2575V42.3575H196.915ZM187.755 36.6375H194.395V35.1575H187.755V36.6375ZM187.755 39.3575H194.395V37.8375H187.755V39.3575ZM208.735 40.9775C208.695 41.4175 208.462 41.6242 208.035 41.5975L206.795 41.5575C206.342 41.5309 206.135 41.2975 206.175 40.8575L207.035 30.4575C207.062 30.1109 207.222 29.9109 207.515 29.8575C207.568 29.7109 207.702 29.5975 207.915 29.5175L216.095 26.5175C216.162 26.4909 216.222 26.4709 216.275 26.4575C216.328 26.4442 216.382 26.4375 216.435 26.4375C216.648 26.4375 216.835 26.5442 216.995 26.7575L217.035 26.8175C217.142 26.9642 217.195 27.0975 217.195 27.2175C217.195 27.4309 217.055 27.5909 216.775 27.6975L209.575 30.3375C209.602 30.4042 209.608 30.4842 209.595 30.5775L209.475 31.9975H216.995C217.435 31.9975 217.655 32.1975 217.655 32.5975C217.655 32.9975 217.435 33.1975 216.995 33.1975H215.195C215.262 33.3042 215.295 33.4375 215.295 33.5975V41.1775C215.295 41.6175 215.075 41.8375 214.635 41.8375H213.395C212.955 41.8375 212.735 41.6175 212.735 41.1775V33.5975C212.735 33.4375 212.768 33.3042 212.835 33.1975H209.375L208.735 40.9775ZM204.995 30.4975C205.022 30.5509 205.042 30.6042 205.055 30.6575C205.068 30.7109 205.075 30.7642 205.075 30.8175C205.075 31.0842 204.908 31.2575 204.575 31.3375L203.555 31.5375C203.528 31.5509 203.495 31.5575 203.455 31.5575C203.415 31.5575 203.382 31.5575 203.355 31.5575C203.075 31.5575 202.868 31.4109 202.735 31.1175L201.135 27.6175C201.095 27.5109 201.075 27.4109 201.075 27.3175C201.075 27.0375 201.242 26.8575 201.575 26.7775L202.575 26.5775C202.602 26.5642 202.635 26.5575 202.675 26.5575C202.715 26.5575 202.748 26.5575 202.775 26.5575C203.055 26.5575 203.262 26.7042 203.395 26.9975L204.995 30.4975ZM216.715 42.0575C217.128 41.9909 217.388 42.1642 217.495 42.5775C217.508 42.6175 217.515 42.6775 217.515 42.7575C217.515 43.0509 217.328 43.2175 216.955 43.2575L211.555 43.9375C211.462 43.9509 211.375 43.9575 211.295 43.9575C211.228 43.9709 211.155 43.9775 211.075 43.9775C211.022 43.9775 210.968 43.9775 210.915 43.9775C210.875 43.9775 210.822 43.9709 210.755 43.9575L200.995 42.9775C200.635 42.9375 200.455 42.7975 200.455 42.5575C200.455 42.4109 200.522 42.2709 200.655 42.1375L202.395 40.1575L201.155 38.2575C201.048 38.0842 200.995 37.9242 200.995 37.7775C200.995 37.6575 201.035 37.5175 201.115 37.3575L202.995 33.7175H200.895C200.455 33.7175 200.235 33.5175 200.235 33.1175C200.235 32.7175 200.455 32.5175 200.895 32.5175H205.275C205.662 32.5175 205.855 32.6642 205.855 32.9575C205.855 33.0509 205.822 33.1642 205.755 33.2975L203.435 37.8175L204.675 39.7175C204.782 39.8909 204.835 40.0375 204.835 40.1575C204.835 40.3042 204.762 40.4642 204.615 40.6375L203.415 41.9975L211.115 42.7575L216.715 42.0575ZM230.495 42.0975C230.495 42.5375 230.275 42.7575 229.835 42.7575H228.595C228.155 42.7575 227.935 42.5375 227.935 42.0975V32.1775L227.835 32.3575C227.675 32.6109 227.482 32.7375 227.255 32.7375C227.215 32.7375 227.175 32.7375 227.135 32.7375C227.095 32.7242 227.048 32.7109 226.995 32.6975L226.055 32.4575C225.735 32.3775 225.575 32.2109 225.575 31.9575C225.575 31.8375 225.615 31.7175 225.695 31.5975L227.815 27.8775C228.002 27.5575 228.275 27.4175 228.635 27.4575L229.875 27.6175C230.288 27.6842 230.495 27.9175 230.495 28.3175V42.0975ZM249.215 27.5575C251.602 27.5575 253.435 28.2309 254.715 29.5775C256.008 30.9109 256.655 32.8309 256.655 35.3375C256.655 36.9109 256.328 38.2842 255.675 39.4575C255.022 40.6309 254.108 41.5442 252.935 42.1975C251.762 42.8375 250.388 43.1575 248.815 43.1575C247.268 43.1575 245.928 42.8375 244.795 42.1975C243.662 41.5442 242.788 40.6175 242.175 39.4175C241.575 38.2042 241.275 36.7642 241.275 35.0975C241.275 33.5509 241.602 32.2175 242.255 31.0975C242.908 29.9642 243.828 29.0909 245.015 28.4775C246.202 27.8642 247.602 27.5575 249.215 27.5575ZM249.215 28.7575C247.522 28.7575 246.202 29.3175 245.255 30.4375C244.308 31.5575 243.835 33.1109 243.835 35.0975C243.835 36.5242 244.035 37.7509 244.435 38.7775C244.835 39.8042 245.408 40.5909 246.155 41.1375C246.902 41.6842 247.788 41.9575 248.815 41.9575C249.895 41.9575 250.828 41.6909 251.615 41.1575C252.402 40.6109 253.008 39.8442 253.435 38.8575C253.875 37.8575 254.095 36.6842 254.095 35.3375C254.095 33.1909 253.675 31.5575 252.835 30.4375C252.008 29.3175 250.802 28.7575 249.215 28.7575ZM268.615 35.7775C268.588 35.9509 268.508 36.0842 268.375 36.1775C268.242 36.2709 268.088 36.3109 267.915 36.2975L266.755 36.1975C266.542 36.1709 266.375 36.0775 266.255 35.9175C266.135 35.7575 266.095 35.5709 266.135 35.3575L267.755 27.4375C267.782 27.2642 267.862 27.1309 267.995 27.0375C268.128 26.9309 268.282 26.8909 268.455 26.9175L269.615 27.0175C269.842 27.0309 270.008 27.1242 270.115 27.2975C270.235 27.4575 270.275 27.6442 270.235 27.8575L269.695 30.5375H271.255V26.9975C271.255 26.8109 271.322 26.6509 271.455 26.5175C271.588 26.3842 271.748 26.3175 271.935 26.3175H273.135C273.322 26.3175 273.482 26.3842 273.615 26.5175C273.748 26.6509 273.815 26.8109 273.815 26.9975V30.5375H276.495C276.682 30.5375 276.842 30.5975 276.975 30.7175C277.108 30.8242 277.175 30.9642 277.175 31.1375C277.175 31.3109 277.108 31.4575 276.975 31.5775C276.842 31.6842 276.682 31.7375 276.495 31.7375H273.815V36.8775H276.895C277.082 36.8775 277.242 36.9375 277.375 37.0575C277.508 37.1642 277.575 37.3042 277.575 37.4775C277.575 37.6509 277.508 37.7975 277.375 37.9175C277.242 38.0242 277.082 38.0775 276.895 38.0775H273.815V43.6975C273.815 43.8842 273.748 44.0442 273.615 44.1775C273.482 44.3109 273.322 44.3775 273.135 44.3775H271.935C271.748 44.3775 271.588 44.3109 271.455 44.1775C271.322 44.0442 271.255 43.8842 271.255 43.6975V38.0775H266.975C266.788 38.0775 266.628 38.0242 266.495 37.9175C266.362 37.7975 266.295 37.6509 266.295 37.4775C266.295 37.3042 266.362 37.1642 266.495 37.0575C266.628 36.9375 266.788 36.8775 266.975 36.8775H271.255V31.7375H269.435L268.615 35.7775ZM264.915 43.2975C264.915 43.4842 264.848 43.6442 264.715 43.7775C264.582 43.9109 264.422 43.9775 264.235 43.9775H263.035C262.848 43.9775 262.688 43.9109 262.555 43.7775C262.422 43.6442 262.355 43.4842 262.355 43.2975V36.1375C262.208 36.3909 261.982 36.4842 261.675 36.4175L260.775 36.1975C260.602 36.1575 260.462 36.0709 260.355 35.9375C260.262 35.8042 260.215 35.6575 260.215 35.4975C260.215 35.3775 260.242 35.2642 260.295 35.1575L264.535 26.9975C264.602 26.8509 264.702 26.7575 264.835 26.7175C264.968 26.6642 265.102 26.6509 265.235 26.6775L266.135 26.8975C266.322 26.9375 266.462 27.0242 266.555 27.1575C266.648 27.2909 266.695 27.4375 266.695 27.5975C266.695 27.7175 266.668 27.8309 266.615 27.9375L264.775 31.4975C264.868 31.6175 264.915 31.7575 264.915 31.9175V43.2975ZM281.635 42.6575C282.182 42.2575 282.662 41.6975 283.075 40.9775C283.488 40.2575 283.808 39.4309 284.035 38.4975C284.275 37.5509 284.395 36.5375 284.395 35.4575C284.395 34.3775 284.275 33.3642 284.035 32.4175C283.808 31.4709 283.488 30.6442 283.075 29.9375C282.662 29.2175 282.182 28.6575 281.635 28.2575C281.422 28.1109 281.315 27.9509 281.315 27.7775C281.315 27.6309 281.382 27.4909 281.515 27.3575L281.655 27.2175C281.815 27.0442 281.995 26.9575 282.195 26.9575C282.288 26.9575 282.415 26.9909 282.575 27.0575C285.495 28.5909 286.955 31.3909 286.955 35.4575C286.955 39.5109 285.495 42.3109 282.575 43.8575C282.415 43.9242 282.288 43.9575 282.195 43.9575C281.995 43.9575 281.815 43.8709 281.655 43.6975L281.535 43.5575C281.402 43.4242 281.335 43.2842 281.335 43.1375C281.335 42.9509 281.435 42.7909 281.635 42.6575Z" fill="#2F2A1F"/>
<rect x="19.5" y="14.5" width="326" height="203" rx="3.5" stroke="#4F4737"/>
<line x1="30" y1="54.5" x2="336" y2="54.5" stroke="#4F4737"/>
</g>
<defs>
<filter id="filter0_d_225_460" x="0" y="0" width="367" height="233" filterUnits="userSpaceOnUse" color-interpolation-filters="sRGB">
<feFlood flood-opacity="0" result="BackgroundImageFix"/>
<feColorMatrix in="SourceAlpha" type="matrix" values="0 0 0 0 0 0 0 0 0 0 0 0 0 0 0 0 0 0 127 0" result="hardAlpha"/>
<feOffset dy="2"/>
<feGaussianBlur stdDeviation="2"/>
<feComposite in2="hardAlpha" operator="out"/>
<feColorMatrix type="matrix" values="0 0 0 0 0 0 0 0 0 0 0 0 0 0 0 0 0 0 0.25 0"/>
<feBlend mode="normal" in2="BackgroundImageFix" result="effect1_dropShadow_225_460"/>
<feBlend mode="normal" in="SourceGraphic" in2="effect1_dropShadow_225_460" result="shape"/>
</filter>
</defs>
</svg>
