<svg width="420" height="148" viewBox="0 0 420 148" fill="none" xmlns="http://www.w3.org/2000/svg">
<g filter="url(#filter0_d_225_351)">
<rect x="4" y="2" width="412" height="140" rx="4" fill="white"/>
<path d="M38.38 26.9C38.22 27.1 38.0267 27.2 37.8 27.2C37.7067 27.2 37.6 27.18 37.48 27.14L36.76 26.86C36.48 26.74 36.34 26.58 36.34 26.38C36.34 26.2333 36.4 26.0933 36.52 25.96L42.46 18.7C42.62 18.5 42.8133 18.4 43.04 18.4C43.1333 18.4 43.24 18.42 43.36 18.46L44.08 18.74C44.36 18.86 44.5 19.02 44.5 19.22C44.5 19.2467 44.5 19.26 44.5 19.26C44.5267 19.2867 44.5533 19.32 44.58 19.36L49.9 25.78C50.02 25.9133 50.08 26.0533 50.08 26.2C50.08 26.4 49.94 26.56 49.66 26.68L48.98 26.96C48.86 27 48.7533 27.02 48.66 27.02C48.4333 27.02 48.24 26.92 48.08 26.72L43.28 20.92L38.38 26.9ZM38.14 22.16C38.3267 22.2933 38.42 22.44 38.42 22.6C38.42 22.7867 38.3133 22.9467 38.1 23.08L37.74 23.3C37.5933 23.3933 37.4467 23.44 37.3 23.44C37.14 23.44 36.9867 23.3867 36.84 23.28L33.5 20.84C33.3133 20.7067 33.22 20.56 33.22 20.4C33.22 20.2133 33.3267 20.0533 33.54 19.92L33.9 19.7C34.0467 19.6067 34.1933 19.56 34.34 19.56C34.5 19.56 34.6533 19.6133 34.8 19.72L38.14 22.16ZM46.58 25.96C47.02 25.96 47.24 26.16 47.24 26.56C47.24 26.96 47.02 27.16 46.58 27.16H39.82C39.38 27.16 39.16 26.96 39.16 26.56C39.16 26.16 39.38 25.96 39.82 25.96H46.58ZM44.06 35.28C44.06 35.72 43.84 35.94 43.4 35.94H42.16C41.72 35.94 41.5 35.72 41.5 35.28V29.72V29.66H39.04C38.6 29.66 38.38 29.46 38.38 29.06C38.38 28.66 38.6 28.46 39.04 28.46H47.88C48.3333 28.46 48.5467 28.68 48.52 29.12L48.42 33.66C48.3933 34.1267 48.1533 34.3267 47.7 34.26L45.4 33.9C45.0267 33.86 44.84 33.6933 44.84 33.4C44.84 33.3733 44.84 33.3467 44.84 33.32C44.8533 33.28 44.8667 33.24 44.88 33.2V33.18C45 32.7933 45.2 32.62 45.48 32.66L45.88 32.72L45.94 29.66H44.06V29.72V35.28ZM37 31.2C37.16 31.04 37.3333 30.96 37.52 30.96C37.6533 30.96 37.7867 31 37.92 31.08L38.42 31.34C38.66 31.46 38.78 31.6133 38.78 31.8C38.78 31.9467 38.7 32.0933 38.54 32.24L35.16 35.38C35 35.54 34.8267 35.62 34.64 35.62C34.52 35.62 34.3867 35.58 34.24 35.5L33.74 35.24C33.5 35.12 33.38 34.9667 33.38 34.78C33.38 34.62 33.46 34.4733 33.62 34.34L37 31.2ZM58.94 22.76C58.94 23.2 58.72 23.42 58.28 23.42H57.04C56.6 23.42 56.38 23.2 56.38 22.76V21.98H53.36C52.92 21.98 52.7 21.78 52.7 21.38C52.7 20.98 52.92 20.78 53.36 20.78H56.38V19.48C56.38 19.04 56.6 18.82 57.04 18.82H58.28C58.72 18.82 58.94 19.04 58.94 19.48V20.78H64.32V19.42C64.32 18.98 64.54 18.76 64.98 18.76H66.22C66.66 18.76 66.88 18.98 66.88 19.42V20.78H69.64C70.08 20.78 70.3 20.98 70.3 21.38C70.3 21.78 70.08 21.98 69.64 21.98H66.88V22.76C66.88 23.2 66.66 23.42 66.22 23.42H64.98C64.54 23.42 64.32 23.2 64.32 22.76V21.98H58.94V22.76ZM55.36 35.36C55.32 35.7867 55.0933 35.9933 54.68 35.98L53.44 35.94C53.2267 35.9267 53.06 35.86 52.94 35.74C52.8333 35.62 52.7867 35.4533 52.8 35.24L53.5 26C53.5133 25.8133 53.5667 25.6733 53.66 25.58C53.62 25.5 53.6 25.4067 53.6 25.3C53.6 24.9 53.82 24.7 54.26 24.7H62.14L61.66 23.48C61.62 23.3733 61.6 23.2733 61.6 23.18C61.6 22.9 61.7667 22.7267 62.1 22.66L63.14 22.46C63.18 22.4467 63.24 22.44 63.32 22.44C63.6267 22.44 63.84 22.6 63.96 22.92L64.66 24.7H69.48C69.92 24.7 70.14 24.9 70.14 25.3C70.14 25.7 69.92 25.9 69.48 25.9H65.14L66.6 29.58L67.64 27.72C67.7867 27.4533 67.9867 27.32 68.24 27.32C68.28 27.32 68.32 27.3267 68.36 27.34C68.4 27.34 68.44 27.3467 68.48 27.36L69.42 27.6C69.74 27.68 69.9 27.8467 69.9 28.1C69.9 28.1933 69.86 28.3133 69.78 28.46L67.66 32.24L68.46 34.24L69.06 34.08C69.1667 34.0533 69.24 34.04 69.28 34.04C69.5467 34.04 69.7533 34.18 69.9 34.46C69.9667 34.5933 70 34.7 70 34.78C70 35.0467 69.84 35.22 69.52 35.3L67.22 35.88C67.18 35.8933 67.14 35.9 67.1 35.9C67.06 35.9133 67.02 35.92 66.98 35.92C66.7133 35.92 66.52 35.7667 66.4 35.46L66.18 34.9L65.92 35.38C65.7733 35.6467 65.5733 35.78 65.32 35.78C65.28 35.78 65.24 35.7733 65.2 35.76C65.16 35.76 65.12 35.7533 65.08 35.74L64.14 35.5C63.82 35.42 63.66 35.2533 63.66 35C63.66 34.8933 63.7 34.7733 63.78 34.64L65.12 32.24L62.62 25.9H56.04C56.0533 25.9667 56.0533 26.04 56.04 26.12L55.36 35.36ZM69.84 23.26C69.96 23.3933 70.02 23.5333 70.02 23.68C70.02 23.8933 69.8867 24.0533 69.62 24.16L68.92 24.44C68.8 24.48 68.6933 24.5 68.6 24.5C68.3733 24.5 68.18 24.4067 68.02 24.22L67.6 23.72C67.48 23.5733 67.42 23.4333 67.42 23.3C67.42 23.0867 67.5533 22.9267 67.82 22.82L68.52 22.54C68.64 22.5 68.7467 22.48 68.84 22.48C69.0533 22.48 69.24 22.5733 69.4 22.76L69.84 23.26ZM61.68 34.14V34.2H62.3C62.74 34.2 62.96 34.4 62.96 34.8C62.96 35.2 62.74 35.4 62.3 35.4H58.32C58.2267 35.44 58.12 35.46 58 35.46H56.76C56.32 35.46 56.1 35.24 56.1 34.8V27.82C56.1 27.38 56.32 27.16 56.76 27.16H57.84C57.9067 27.1467 57.9733 27.14 58.04 27.14H62.26C62.7 27.14 62.92 27.34 62.92 27.74C62.92 28.14 62.7 28.34 62.26 28.34H61.74V28.4V29.44V29.5H62.42C62.86 29.5 63.08 29.72 63.08 30.16V32.66C63.08 33.1 62.86 33.32 62.42 33.32H61.68V34.14ZM59.58 28.4V28.34H58.66V29.5H59.58V29.44V28.4ZM60.52 30.7H58.66V31.94H60.52V30.7ZM59.52 33.2V33.14H58.66V34.2H59.52V34.14V33.2ZM75.14 35.72C75.1 36.16 74.8667 36.3667 74.44 36.34L73.2 36.3C72.7467 36.2733 72.54 36.04 72.58 35.6L73.7 21.76C73.74 21.32 73.9733 21.1133 74.4 21.14L75.64 21.18C75.8933 21.1933 76.0733 21.2867 76.18 21.46H81.36C81.32 21.3667 81.3 21.26 81.3 21.14V19.48C81.3 19.04 81.52 18.82 81.96 18.82H83.2C83.64 18.82 83.86 19.04 83.86 19.48V21.14C83.86 21.26 83.84 21.3667 83.8 21.46H89.82C90.26 21.46 90.48 21.66 90.48 22.06C90.48 22.46 90.26 22.66 89.82 22.66H76.2L75.14 35.72ZM76.1 26.82C76.1 26.38 76.32 26.16 76.76 26.16H78C78.1467 26.16 78.2667 26.1867 78.36 26.24H81.7V25.54H76.92C76.48 25.54 76.26 25.34 76.26 24.94C76.26 24.54 76.48 24.34 76.92 24.34H81.7V23.56C81.7 23.12 81.92 22.9 82.36 22.9H83.6C84.04 22.9 84.26 23.12 84.26 23.56V24.34H89C89.44 24.34 89.66 24.54 89.66 24.94C89.66 25.34 89.44 25.54 89 25.54H84.26V26.24H89.16C89.6 26.24 89.82 26.46 89.82 26.9V32.04C89.82 32.48 89.6 32.7 89.16 32.7H87.92H87.9H87.88H84.26V33.36H89.48C89.92 33.36 90.14 33.56 90.14 33.96C90.14 34.36 89.92 34.56 89.48 34.56H84.26V35.64C84.26 36.08 84.04 36.3 83.6 36.3H82.36C81.92 36.3 81.7 36.08 81.7 35.64V34.56H76.46C76.02 34.56 75.8 34.36 75.8 33.96C75.8 33.56 76.02 33.36 76.46 33.36H81.7V32.7H78.52C78.4 32.8333 78.2267 32.9 78 32.9H76.76C76.32 32.9 76.1 32.68 76.1 32.24V26.82ZM78.66 28.82H81.7V27.44H78.66V28.82ZM87.26 27.44H84.26V28.82H87.26V27.44ZM78.66 31.5H81.7V30.02H78.66V31.5ZM84.26 31.5H87.26V30.02H84.26V31.5Z" fill="#2F2A1F"/>
<path d="M365.656 33.667H369.656M369.656 33.667H373.656M369.656 33.667V29.667M369.656 33.667V37.667" stroke="#C8553D" stroke-width="2" stroke-linecap="round" stroke-linejoin="round"/>
<path d="M352.333 23.5335V17.1335C352.333 16.9213 352.418 16.7178 352.568 16.5678C352.718 16.4178 352.921 16.3335 353.133 16.3335H359.533C359.746 16.3335 359.949 16.4178 360.099 16.5678C360.249 16.7178 360.333 16.9213 360.333 17.1335V23.5335C360.333 23.7457 360.249 23.9492 360.099 24.0992C359.949 24.2492 359.746 24.3335 359.533 24.3335H353.133C352.921 24.3335 352.718 24.2492 352.568 24.0992C352.418 23.9492 352.333 23.7457 352.333 23.5335ZM352.333 36.8668V30.4668C352.333 30.2547 352.418 30.0512 352.568 29.9011C352.718 29.7511 352.921 29.6668 353.133 29.6668H359.533C359.746 29.6668 359.949 29.7511 360.099 29.9011C360.249 30.0512 360.333 30.2547 360.333 30.4668V36.8668C360.333 37.079 360.249 37.2825 360.099 37.4325C359.949 37.5825 359.746 37.6668 359.533 37.6668H353.133C352.921 37.6668 352.718 37.5825 352.568 37.4325C352.418 37.2825 352.333 37.079 352.333 36.8668ZM365.667 23.5335V17.1335C365.667 16.9213 365.751 16.7178 365.901 16.5678C366.051 16.4178 366.254 16.3335 366.467 16.3335H372.867C373.079 16.3335 373.282 16.4178 373.432 16.5678C373.582 16.7178 373.667 16.9213 373.667 17.1335V23.5335C373.667 23.7457 373.582 23.9492 373.432 24.0992C373.282 24.2492 373.079 24.3335 372.867 24.3335H366.467C366.254 24.3335 366.051 24.2492 365.901 24.0992C365.751 23.9492 365.667 23.7457 365.667 23.5335Z" stroke="#C8553D" stroke-width="2"/>
</g>
<rect x="20.5" y="56.5" width="379" height="73.0775" rx="3.5" fill="#F8F5F2" stroke="#FEFCE8"/>
<path d="M48.04 111.459C48.04 111.767 47.886 111.921 47.578 111.921H46.71C46.4767 111.921 46.332 111.823 46.276 111.627H39.682C39.6167 111.785 39.4767 111.865 39.262 111.865H38.394C38.086 111.865 37.932 111.711 37.932 111.403V107.287C37.932 106.979 38.086 106.825 38.394 106.825H39.262C39.43 106.825 39.5513 106.876 39.626 106.979H47.578C47.886 106.979 48.04 107.133 48.04 107.441V111.459ZM46.248 107.819H39.724V108.897H46.248V107.819ZM39.724 110.787H46.248V109.737H39.724V110.787ZM43.252 118.151C43.252 118.459 43.098 118.613 42.79 118.613H41.922C41.614 118.613 41.46 118.459 41.46 118.151V117.759L37.512 118.333C37.232 118.37 37.05 118.258 36.966 117.997C36.9567 117.969 36.9473 117.945 36.938 117.927C36.938 117.899 36.938 117.875 36.938 117.857C36.938 117.642 37.0687 117.521 37.33 117.493L37.89 117.409C37.8807 117.371 37.876 117.325 37.876 117.269V113.209V113.167H37.47C37.162 113.167 37.008 113.027 37.008 112.747C37.008 112.467 37.162 112.327 37.47 112.327H48.586C48.894 112.327 49.048 112.467 49.048 112.747C49.048 113.027 48.894 113.167 48.586 113.167H43.252V113.209V118.151ZM39.668 113.209V113.839H41.46V113.209V113.167H39.668V113.209ZM45.016 118.543C44.904 118.701 44.7733 118.781 44.624 118.781C44.5587 118.781 44.484 118.767 44.4 118.739L43.84 118.543C43.6347 118.468 43.532 118.356 43.532 118.207C43.532 118.123 43.5693 118.029 43.644 117.927L44.708 116.457L44.204 116.023C44.0827 115.92 44.022 115.813 44.022 115.701C44.022 115.57 44.1013 115.463 44.26 115.379L44.582 115.211C44.6847 115.155 44.7827 115.127 44.876 115.127C44.9973 115.127 45.1093 115.173 45.212 115.267L45.436 115.463L46.094 114.553H44.078C43.77 114.553 43.616 114.413 43.616 114.133C43.616 113.853 43.77 113.713 44.078 113.713H47.802C48.0727 113.713 48.208 113.806 48.208 113.993C48.208 114.058 48.1707 114.151 48.096 114.273L46.556 116.401L48.32 117.899C48.4413 118.001 48.502 118.109 48.502 118.221C48.502 118.351 48.4227 118.459 48.264 118.543L47.942 118.711C47.8487 118.767 47.7507 118.795 47.648 118.795C47.5267 118.795 47.4147 118.748 47.312 118.655L45.842 117.409L45.016 118.543ZM39.668 115.519H41.46V114.679H39.668V115.519ZM39.668 116.359V117.143L41.46 116.891V116.359H39.668ZM54.606 118.347C54.606 118.655 54.4707 118.809 54.2 118.809H53.416C53.1453 118.809 53.01 118.655 53.01 118.347V114.357C53.01 114.338 53.01 114.324 53.01 114.315L51.316 114.441C51.036 114.459 50.896 114.371 50.896 114.175C50.896 114.091 50.9287 113.997 50.994 113.895L52.38 111.893L52.366 111.879L51.078 110.283C50.994 110.171 50.952 110.063 50.952 109.961C50.952 109.858 50.994 109.751 51.078 109.639L53.528 106.671C53.64 106.531 53.7753 106.461 53.934 106.461C53.9993 106.461 54.074 106.475 54.158 106.503L54.634 106.699C54.83 106.783 54.928 106.895 54.928 107.035C54.928 107.119 54.886 107.212 54.802 107.315L52.632 109.961L53.234 110.689L53.85 109.793C53.9527 109.634 54.088 109.555 54.256 109.555C54.284 109.555 54.312 109.555 54.34 109.555C54.3773 109.555 54.4147 109.564 54.452 109.583L55.04 109.765C55.2453 109.839 55.348 109.956 55.348 110.115C55.348 110.199 55.3153 110.287 55.25 110.381L53.108 113.461L54.704 113.335L54.382 112.257C54.3727 112.229 54.368 112.187 54.368 112.131C54.368 111.944 54.494 111.837 54.746 111.809L55.558 111.725C55.8473 111.697 56.0293 111.804 56.104 112.047L56.65 113.909C56.6687 113.965 56.678 114.011 56.678 114.049C56.678 114.226 56.5473 114.329 56.286 114.357L55.474 114.441C55.334 114.45 55.2173 114.431 55.124 114.385C55.0307 114.329 54.9747 114.259 54.956 114.175L54.592 114.203C54.6013 114.249 54.606 114.301 54.606 114.357V118.347ZM57.812 115.463C57.7 115.621 57.5647 115.701 57.406 115.701C57.3407 115.701 57.2707 115.687 57.196 115.659L56.636 115.477C56.4307 115.402 56.328 115.29 56.328 115.141C56.328 115.057 56.3653 114.963 56.44 114.861L58.624 111.809L58.064 111.151L57.854 111.641C57.77 111.846 57.63 111.949 57.434 111.949C57.3687 111.949 57.3173 111.944 57.28 111.935L56.566 111.795C56.3327 111.739 56.216 111.617 56.216 111.431C56.216 111.393 56.2207 111.356 56.23 111.319C56.2487 111.281 56.2627 111.244 56.272 111.207L58.134 107.035C58.218 106.829 58.358 106.727 58.554 106.727C58.6193 106.727 58.6707 106.731 58.708 106.741L59.422 106.881C59.6553 106.937 59.772 107.058 59.772 107.245C59.772 107.282 59.7673 107.319 59.758 107.357C59.7487 107.385 59.7347 107.422 59.716 107.469L59.38 108.225H62.32C62.5813 108.225 62.712 108.313 62.712 108.491C62.712 108.565 62.6747 108.663 62.6 108.785L60.43 111.809L63.034 114.861C63.118 114.954 63.16 115.047 63.16 115.141C63.16 115.29 63.0667 115.402 62.88 115.477L62.39 115.673C62.306 115.701 62.2313 115.715 62.166 115.715C62.0167 115.715 61.886 115.645 61.774 115.505L59.604 112.957L57.812 115.463ZM58.848 109.947L59.45 110.661L60.598 109.065H59.002L58.68 109.793C58.736 109.83 58.792 109.881 58.848 109.947ZM61.158 115.645C61.3167 115.729 61.396 115.836 61.396 115.967C61.396 116.079 61.3307 116.186 61.2 116.289L61.032 116.429C60.9293 116.522 60.8127 116.569 60.682 116.569C60.5793 116.569 60.4813 116.536 60.388 116.471L58.68 115.449C58.5213 115.365 58.442 115.257 58.442 115.127C58.442 115.015 58.5073 114.907 58.638 114.805L58.806 114.665C58.9087 114.571 59.0253 114.525 59.156 114.525C59.2587 114.525 59.3567 114.557 59.45 114.623L61.158 115.645ZM52.674 117.745C52.646 118.034 52.52 118.174 52.296 118.165L51.624 118.123C51.372 118.104 51.26 117.941 51.288 117.633L51.442 115.519C51.47 115.22 51.596 115.08 51.82 115.099L52.492 115.141C52.744 115.159 52.856 115.323 52.828 115.631L52.674 117.745ZM56.496 117.409C56.524 117.726 56.4027 117.894 56.132 117.913L55.39 117.955C55.1473 117.973 55.012 117.829 54.984 117.521L54.83 115.771C54.802 115.453 54.9187 115.285 55.18 115.267L55.922 115.225C56.174 115.215 56.314 115.36 56.342 115.659L56.496 117.409ZM61.018 117.899C61.1767 117.983 61.256 118.09 61.256 118.221C61.256 118.333 61.1907 118.44 61.06 118.543L60.892 118.683C60.7893 118.776 60.6727 118.823 60.542 118.823C60.4393 118.823 60.3413 118.79 60.248 118.725L58.414 117.619C58.2553 117.535 58.176 117.427 58.176 117.297C58.176 117.185 58.2413 117.077 58.372 116.975L58.54 116.835C58.6427 116.741 58.7593 116.695 58.89 116.695C58.9927 116.695 59.0907 116.727 59.184 116.793L61.018 117.899ZM65.834 118.739C65.6753 118.757 65.5447 118.725 65.442 118.641C65.3487 118.557 65.302 118.431 65.302 118.263C65.302 118.057 65.4327 117.931 65.694 117.885C66.6833 117.689 67.5327 117.171 68.242 116.331L66.982 115.939C66.7673 115.864 66.66 115.752 66.66 115.603C66.66 115.547 66.6833 115.472 66.73 115.379L66.772 115.309C66.884 115.141 67.0193 115.057 67.178 115.057C67.2527 115.057 67.3227 115.071 67.388 115.099L68.816 115.547C69.0307 115.183 69.2267 114.786 69.404 114.357H67.71C67.6353 114.422 67.5327 114.455 67.402 114.455H66.534C66.226 114.455 66.072 114.301 66.072 113.993V109.219C66.072 108.911 66.226 108.757 66.534 108.757H67.402C67.5607 108.757 67.682 108.803 67.766 108.897H70.482C70.4913 108.561 70.5007 108.22 70.51 107.875C70.51 107.847 70.51 107.828 70.51 107.819H65.386C65.078 107.819 64.924 107.679 64.924 107.399C64.924 107.119 65.078 106.979 65.386 106.979H76.488C76.796 106.979 76.95 107.119 76.95 107.399C76.95 107.679 76.796 107.819 76.488 107.819H72.274C72.2833 107.903 72.288 108.001 72.288 108.113C72.2787 108.383 72.2693 108.645 72.26 108.897H75.55C75.858 108.897 76.012 109.051 76.012 109.359V113.993C76.012 114.301 75.858 114.455 75.55 114.455H74.682C74.5513 114.455 74.4487 114.422 74.374 114.357H71.196C70.944 114.963 70.65 115.514 70.314 116.009L76.628 117.955C76.8427 118.029 76.95 118.141 76.95 118.291C76.95 118.347 76.9267 118.421 76.88 118.515L76.838 118.585C76.726 118.753 76.5907 118.837 76.432 118.837C76.3667 118.837 76.2967 118.823 76.222 118.795L69.684 116.779C68.6947 117.843 67.4113 118.496 65.834 118.739ZM67.864 111.333H70.23C70.3047 110.829 70.3653 110.297 70.412 109.737H67.864V111.333ZM74.22 109.737H72.204C72.1573 110.297 72.092 110.829 72.008 111.333H74.22V109.737ZM67.864 113.517H69.712C69.852 113.097 69.9687 112.649 70.062 112.173H67.864V113.517ZM71.504 113.517H74.22V112.173H71.854C71.7513 112.649 71.6347 113.097 71.504 113.517ZM80.24 118.333C80.128 118.473 79.9927 118.543 79.834 118.543C79.7687 118.543 79.694 118.529 79.61 118.501L79.106 118.305C78.91 118.221 78.812 118.104 78.812 117.955C78.812 117.852 78.8493 117.759 78.924 117.675L80.954 115.127H79.134C78.826 115.127 78.672 114.987 78.672 114.707C78.672 114.427 78.826 114.287 79.134 114.287H81.318V113.223V113.181H79.134C78.826 113.181 78.672 113.041 78.672 112.761C78.672 112.481 78.826 112.341 79.134 112.341H79.792V112.327L79.638 109.219V109.149H79.456C79.148 109.149 78.994 109.009 78.994 108.729C78.994 108.449 79.148 108.309 79.456 108.309H81.206V108.267V106.909C81.206 106.601 81.36 106.447 81.668 106.447H82.536C82.844 106.447 82.998 106.601 82.998 106.909V108.267V108.309H84.608C84.916 108.309 85.07 108.449 85.07 108.729C85.07 108.859 85.0327 108.962 84.958 109.037C84.8833 109.111 84.7853 109.149 84.664 109.149C84.6733 109.177 84.6733 109.219 84.664 109.275L84.174 112.341H84.566C84.874 112.341 85.028 112.481 85.028 112.761C85.028 113.041 84.874 113.181 84.566 113.181H83.11V113.223V114.287H84.328C84.636 114.287 84.79 114.427 84.79 114.707C84.79 114.987 84.636 115.127 84.328 115.127H83.11L84.608 116.289C84.7387 116.391 84.804 116.494 84.804 116.597C84.804 116.718 84.72 116.83 84.552 116.933L84.272 117.101C84.1787 117.166 84.0807 117.199 83.978 117.199C83.8473 117.199 83.7307 117.152 83.628 117.059L83.11 116.653V118.571C83.11 118.879 82.956 119.033 82.648 119.033H81.78C81.472 119.033 81.318 118.879 81.318 118.571V116.989L80.24 118.333ZM86.68 118.333C86.6613 118.65 86.498 118.799 86.19 118.781L85.322 118.753C85.014 118.734 84.8693 118.575 84.888 118.277L85.35 109.737C85.3593 109.615 85.392 109.517 85.448 109.443C85.4387 109.415 85.434 109.387 85.434 109.359C85.434 109.228 85.5133 109.121 85.672 109.037L90.082 106.601C90.1847 106.545 90.2733 106.517 90.348 106.517C90.4693 106.517 90.5907 106.568 90.712 106.671L90.838 106.783C90.9593 106.895 91.02 107.002 91.02 107.105C91.02 107.235 90.9407 107.343 90.782 107.427L87.058 109.485C87.1233 109.559 87.1513 109.662 87.142 109.793L87.072 111.081H90.684C90.992 111.081 91.146 111.221 91.146 111.501C91.146 111.781 90.992 111.921 90.684 111.921H90.138V111.963V118.529C90.138 118.837 89.984 118.991 89.676 118.991H88.808C88.5 118.991 88.346 118.837 88.346 118.529V111.963V111.921H87.03L86.68 118.333ZM81.584 112.271V112.341H82.41C82.4007 112.313 82.4007 112.271 82.41 112.215L82.9 109.149H81.43V109.163L81.584 112.271ZM104.04 118.557C104.04 118.865 103.886 119.019 103.578 119.019H102.71C102.402 119.019 102.248 118.865 102.248 118.557V118.459H95.724C95.7053 118.748 95.5513 118.893 95.262 118.893H94.394C94.086 118.893 93.932 118.739 93.932 118.431V107.567C93.932 107.259 94.086 107.105 94.394 107.105H95.262C95.43 107.105 95.5513 107.156 95.626 107.259H103.578C103.886 107.259 104.04 107.413 104.04 107.721V118.557ZM102.248 108.099H95.724V112.523H102.248V108.099ZM95.724 117.619H102.248V113.363H95.724V117.619ZM111.88 111.375C111.88 111.244 111.927 111.132 112.02 111.039C112.113 110.945 112.225 110.899 112.356 110.899H113.28C113.411 110.899 113.523 110.945 113.616 111.039C113.709 111.132 113.756 111.244 113.756 111.375V112.019C113.756 112.149 113.709 112.261 113.616 112.355C113.523 112.448 113.411 112.495 113.28 112.495H112.356C112.225 112.495 112.113 112.448 112.02 112.355C111.927 112.261 111.88 112.149 111.88 112.019V111.375ZM111.88 115.939C111.88 115.808 111.927 115.696 112.02 115.603C112.113 115.509 112.225 115.463 112.356 115.463H113.28C113.411 115.463 113.523 115.509 113.616 115.603C113.709 115.696 113.756 115.808 113.756 115.939V116.583C113.756 116.713 113.709 116.825 113.616 116.919C113.523 117.012 113.411 117.059 113.28 117.059H112.356C112.225 117.059 112.113 117.012 112.02 116.919C111.927 116.825 111.88 116.713 111.88 116.583V115.939ZM122.324 112.453C122.212 112.565 122.095 112.621 121.974 112.621C121.89 112.621 121.797 112.593 121.694 112.537L121.316 112.355C121.148 112.271 121.064 112.159 121.064 112.019C121.064 111.916 121.115 111.813 121.218 111.711L126.622 106.545C126.734 106.433 126.851 106.377 126.972 106.377C127.065 106.377 127.159 106.405 127.252 106.461L127.63 106.643C127.798 106.727 127.882 106.839 127.882 106.979V106.993L127.896 107.007L132.754 111.585C132.857 111.687 132.908 111.79 132.908 111.893C132.908 112.033 132.824 112.145 132.656 112.229L132.278 112.411C132.166 112.457 132.073 112.481 131.998 112.481C131.867 112.481 131.751 112.429 131.648 112.327L127.014 107.959L122.324 112.453ZM130.122 111.711C130.43 111.711 130.584 111.851 130.584 112.131C130.584 112.411 130.43 112.551 130.122 112.551H123.808C123.5 112.551 123.346 112.411 123.346 112.131C123.346 111.851 123.5 111.711 123.808 111.711H130.122ZM127.322 118.613C127.201 118.734 127.075 118.795 126.944 118.795C126.888 118.795 126.804 118.771 126.692 118.725L126.3 118.543C126.123 118.459 126.034 118.347 126.034 118.207C126.034 118.104 126.085 118.001 126.188 117.899L129.73 114.357H122.436C122.128 114.357 121.974 114.217 121.974 113.937C121.974 113.657 122.128 113.517 122.436 113.517H131.634C131.895 113.517 132.026 113.605 132.026 113.783C132.026 113.885 131.975 113.988 131.872 114.091L127.322 118.613ZM146.04 118.557C146.04 118.865 145.886 119.019 145.578 119.019H144.71C144.402 119.019 144.248 118.865 144.248 118.557V118.459H137.724C137.705 118.748 137.551 118.893 137.262 118.893H136.394C136.086 118.893 135.932 118.739 135.932 118.431V107.567C135.932 107.259 136.086 107.105 136.394 107.105H137.262C137.43 107.105 137.551 107.156 137.626 107.259H145.578C145.886 107.259 146.04 107.413 146.04 107.721V118.557ZM144.248 108.099H137.724V112.523H144.248V108.099ZM137.724 117.619H144.248V113.363H137.724V117.619Z" fill="#4A5565"/>
<path d="M50.06 72.1546C50.0733 72.2079 50.08 72.2813 50.08 72.3746C50.08 72.6813 49.9067 72.8679 49.56 72.9346L48.98 73.0346C48.5533 73.1013 48.2933 72.9279 48.2 72.5146L47.18 68.5946C47.1667 68.5546 47.1533 68.5146 47.14 68.4746C47.14 68.4346 47.14 68.3946 47.14 68.3546C47.14 68.0613 47.32 67.8813 47.68 67.8146L48.26 67.7146C48.6867 67.6479 48.9467 67.8213 49.04 68.2346L50.06 72.1546ZM47.86 73.3746C47.8733 73.4279 47.88 73.5013 47.88 73.5946C47.88 73.9279 47.7 74.1146 47.34 74.1546L46.76 74.2346C46.3467 74.3013 46.0933 74.1279 46 73.7146L44.96 69.5146C44.9467 69.4613 44.94 69.3879 44.94 69.2946C44.94 68.9613 45.12 68.7746 45.48 68.7346L46.06 68.6546C46.4867 68.5879 46.7467 68.7613 46.84 69.1746L47.86 73.3746ZM41.76 84.1546C41.76 84.5946 41.54 84.8146 41.1 84.8146H39.86C39.42 84.8146 39.2 84.5946 39.2 84.1546V70.2546C39.2 69.8146 39.42 69.5946 39.86 69.5946H41.1C41.54 69.5946 41.76 69.8146 41.76 70.2546V75.9346L49 78.2746C49.3067 78.3813 49.46 78.5413 49.46 78.7546C49.46 78.8613 49.42 78.9746 49.34 79.0946L49.26 79.1946C49.1133 79.4213 48.92 79.5346 48.68 79.5346C48.64 79.5346 48.5933 79.5346 48.54 79.5346C48.5 79.5213 48.4533 79.5079 48.4 79.4946L41.76 77.3546V84.1546ZM66.9822 77.5146C67.0889 77.4613 67.2089 77.4346 67.3422 77.4346C67.5422 77.4346 67.7222 77.5146 67.8822 77.6746L67.9822 77.7746C68.1289 77.9213 68.2022 78.0679 68.2022 78.2146C68.2022 78.4146 68.0755 78.5746 67.8222 78.6946L55.0822 84.5346C54.9755 84.5879 54.8689 84.6146 54.7622 84.6146C54.4555 84.6146 54.3022 84.4213 54.3022 84.0346V70.3946C54.3022 69.9546 54.5222 69.7346 54.9622 69.7346H56.2022C56.6422 69.7346 56.8622 69.9546 56.8622 70.3946V82.1346L66.9822 77.5146ZM76.7278 77.5746C76.7411 77.6146 76.7478 77.6679 76.7478 77.7346C76.7478 78.0813 76.5478 78.2746 76.1478 78.3146L74.9478 78.4146C74.5345 78.4546 74.2878 78.2613 74.2078 77.8346L73.6678 74.7546C73.6545 74.7146 73.6478 74.6613 73.6478 74.5946C73.6478 74.2479 73.8478 74.0546 74.2478 74.0146L75.4478 73.9146C75.8611 73.8746 76.1078 74.0679 76.1878 74.4946L76.7278 77.5746ZM73.4478 78.0746C73.4611 78.1279 73.4678 78.2013 73.4678 78.2946C73.4678 78.6146 73.2878 78.7946 72.9278 78.8346L71.7678 78.9746C71.3545 79.0146 71.0945 78.8346 70.9878 78.4346L70.2278 75.3546C70.2145 75.3146 70.2078 75.2746 70.2078 75.2346C70.2078 75.1946 70.2078 75.1613 70.2078 75.1346C70.2078 74.8146 70.3878 74.6346 70.7478 74.5946L71.9078 74.4546C72.3078 74.4146 72.5611 74.5946 72.6678 74.9946L73.4478 78.0746ZM77.7878 84.1546C77.6545 84.4479 77.4411 84.5946 77.1478 84.5946C77.1211 84.5946 77.0878 84.5946 77.0478 84.5946C77.0078 84.5946 76.9745 84.5879 76.9478 84.5746L75.9278 84.3346C75.6078 84.2546 75.4478 84.0879 75.4478 83.8346C75.4478 83.7146 75.4745 83.6013 75.5278 83.4946L79.5678 75.1546C79.7011 74.8613 79.9145 74.7146 80.2078 74.7146C80.2345 74.7146 80.2678 74.7146 80.3078 74.7146C80.3478 74.7146 80.3811 74.7213 80.4078 74.7346L81.4278 74.9746C81.7478 75.0546 81.9078 75.2213 81.9078 75.4746C81.9078 75.5946 81.8811 75.7079 81.8278 75.8146L77.7878 84.1546ZM91.1452 71.8746C91.4118 71.9946 91.5452 72.1546 91.5452 72.3546C91.5452 72.4746 91.4852 72.6079 91.3652 72.7546L91.2452 72.8946C91.0852 73.0679 90.9052 73.1546 90.7052 73.1546C90.6118 73.1546 90.4852 73.1213 90.3252 73.0546L85.6052 70.9146C85.3385 70.7946 85.2052 70.6346 85.2052 70.4346C85.2052 70.3013 85.2652 70.1679 85.3852 70.0346L85.5052 69.8946C85.6652 69.7213 85.8452 69.6346 86.0452 69.6346C86.1385 69.6346 86.2652 69.6679 86.4252 69.7346L91.1452 71.8746ZM90.6652 77.0546C90.9452 77.1746 91.0852 77.3346 91.0852 77.5346C91.0852 77.6546 91.0318 77.7813 90.9252 77.9146L90.8052 78.0346C90.6452 78.2346 90.4518 78.3346 90.2252 78.3346C90.1318 78.3346 90.0318 78.3146 89.9252 78.2746L85.0052 76.3146C84.7252 76.1946 84.5852 76.0346 84.5852 75.8346C84.5852 75.7146 84.6385 75.5879 84.7452 75.4546L84.8652 75.3346C85.0252 75.1346 85.2185 75.0346 85.4452 75.0346C85.5518 75.0346 85.6518 75.0546 85.7452 75.0946L90.6652 77.0546ZM98.9852 77.8946C99.1452 77.8279 99.2785 77.7946 99.3852 77.7946C99.5852 77.7946 99.7585 77.8679 99.9052 78.0146L100.065 78.1546C100.212 78.3013 100.285 78.4479 100.285 78.5946C100.285 78.7946 100.165 78.9546 99.9252 79.0746L88.1452 85.0546C87.9852 85.1213 87.8518 85.1546 87.7452 85.1546C87.5452 85.1546 87.3718 85.0813 87.2252 84.9346L87.0652 84.7946C86.9185 84.6479 86.8452 84.5013 86.8452 84.3546C86.8452 84.1546 86.9652 83.9946 87.2052 83.8746L98.9852 77.8946ZM110.074 73.3746C110.3 73.5213 110.414 73.6746 110.414 73.8346C110.414 73.9946 110.32 74.1479 110.134 74.2946L109.894 74.4946C109.734 74.6146 109.574 74.6746 109.414 74.6746C109.267 74.6746 109.12 74.6279 108.974 74.5346L103.674 71.3146C103.447 71.1679 103.334 71.0146 103.334 70.8546C103.334 70.6946 103.427 70.5413 103.614 70.3946L103.854 70.1946C104.014 70.0746 104.174 70.0146 104.334 70.0146C104.48 70.0146 104.627 70.0613 104.774 70.1546L110.074 73.3746ZM116.534 75.5346C116.68 75.4413 116.834 75.3946 116.994 75.3946C117.154 75.3946 117.307 75.4479 117.454 75.5546L117.714 75.7546C117.9 75.9013 117.994 76.0546 117.994 76.2146C117.994 76.3879 117.887 76.5413 117.674 76.6746L105.914 84.0746C105.767 84.1679 105.614 84.2146 105.454 84.2146C105.294 84.2146 105.14 84.1613 104.994 84.0546L104.734 83.8546C104.547 83.7079 104.454 83.5546 104.454 83.3946C104.454 83.2213 104.56 83.0679 104.774 82.9346L116.534 75.5346ZM139.437 69.6746C139.45 69.7279 139.457 69.8013 139.457 69.8946C139.457 70.2013 139.284 70.3879 138.937 70.4546L138.357 70.5546C137.93 70.6213 137.67 70.4479 137.577 70.0346L136.557 66.1146C136.544 66.0746 136.53 66.0346 136.517 65.9946C136.517 65.9546 136.517 65.9146 136.517 65.8746C136.517 65.5813 136.697 65.4013 137.057 65.3346L137.637 65.2346C138.064 65.1679 138.324 65.3413 138.417 65.7546L139.437 69.6746ZM137.237 70.8946C137.25 70.9479 137.257 71.0213 137.257 71.1146C137.257 71.4479 137.077 71.6346 136.717 71.6746L136.137 71.7546C135.724 71.8213 135.47 71.6479 135.377 71.2346L134.337 67.0346C134.324 66.9813 134.317 66.9079 134.317 66.8146C134.317 66.4813 134.497 66.2946 134.857 66.2546L135.437 66.1746C135.864 66.1079 136.124 66.2813 136.217 66.6946L137.237 70.8946ZM122.937 77.5946C122.777 77.8346 122.584 77.9546 122.357 77.9546C122.264 77.9546 122.164 77.9346 122.057 77.8946L121.237 77.6346C120.93 77.5279 120.777 77.3613 120.777 77.1346C120.777 77.0146 120.824 76.8879 120.917 76.7546L125.557 69.7346C125.717 69.4946 125.91 69.3746 126.137 69.3746C126.244 69.3746 126.344 69.3946 126.437 69.4346L127.257 69.6946C127.564 69.8013 127.717 69.9679 127.717 70.1946C127.717 70.3013 127.67 70.4279 127.577 70.5746L127.497 70.6946H136.717C137.09 70.6946 137.277 70.8346 137.277 71.1146C137.277 71.2213 137.237 71.3479 137.157 71.4946L129.157 84.3546C128.997 84.6079 128.797 84.7346 128.557 84.7346C128.49 84.7346 128.404 84.7213 128.297 84.6946L127.437 84.4346C127.13 84.3279 126.977 84.1613 126.977 83.9346C126.977 83.8279 127.017 83.7079 127.097 83.5746L134.337 71.8946H126.697L122.937 77.5946Z" fill="#2F2A1F"/>
<path d="M357 107.01H358.667M358.667 107.01H372M358.667 107.01V118.381C358.667 118.812 358.842 119.225 359.155 119.53C359.467 119.835 359.891 120.006 360.333 120.006H368.667C369.109 120.006 369.533 119.835 369.845 119.53C370.158 119.225 370.333 118.812 370.333 118.381V107.01M361.167 107.01V105.385C361.167 104.954 361.342 104.541 361.655 104.237C361.967 103.932 362.391 103.761 362.833 103.761H366.167C366.609 103.761 367.033 103.932 367.345 104.237C367.658 104.541 367.833 104.954 367.833 105.385V107.01M362.833 111.071V115.945M366.167 111.071V115.945" stroke="#4F4737" stroke-width="2" stroke-linecap="round" stroke-linejoin="round"/>
<path d="M378.333 76.9998C378.333 80.536 376.929 83.9274 374.428 86.4279C371.928 88.9283 368.536 90.3331 365 90.3331C361.464 90.3331 358.072 88.9283 355.572 86.4279C353.071 83.9274 351.667 80.536 351.667 76.9998C351.667 73.4636 353.071 70.0722 355.572 67.5717C358.072 65.0712 361.464 63.6664 365 63.6664C366.267 63.6664 367.5 63.8498 368.667 64.1831L371.283 61.5664C369.291 60.7448 367.155 60.3256 365 60.3331C362.811 60.3331 360.644 60.7642 358.622 61.6018C356.6 62.4394 354.763 63.667 353.215 65.2147C350.089 68.3403 348.333 72.5795 348.333 76.9998C348.333 81.42 350.089 85.6593 353.215 88.7849C354.763 90.3325 356.6 91.5602 358.622 92.3978C360.644 93.2353 362.811 93.6664 365 93.6664C369.42 93.6664 373.66 91.9105 376.785 88.7849C379.911 85.6593 381.667 81.42 381.667 76.9998M358.183 73.7998L355.833 76.1664L363.333 83.6664L380 66.9998L377.65 64.6331L363.333 78.9498L358.183 73.7998Z" fill="#6B8F71"/>
<defs>
<filter id="filter0_d_225_351" x="0" y="0" width="420" height="148" filterUnits="userSpaceOnUse" color-interpolation-filters="sRGB">
<feFlood flood-opacity="0" result="BackgroundImageFix"/>
<feColorMatrix in="SourceAlpha" type="matrix" values="0 0 0 0 0 0 0 0 0 0 0 0 0 0 0 0 0 0 127 0" result="hardAlpha"/>
<feOffset dy="2"/>
<feGaussianBlur stdDeviation="2"/>
<feComposite in2="hardAlpha" operator="out"/>
<feColorMatrix type="matrix" values="0 0 0 0 0 0 0 0 0 0 0 0 0 0 0 0 0 0 0.25 0"/>
<feBlend mode="normal" in2="BackgroundImageFix" result="effect1_dropShadow_225_351"/>
<feBlend mode="normal" in="SourceGraphic" in2="effect1_dropShadow_225_351" result="shape"/>
</filter>
</defs>
</svg>
