<svg width="180" height="44" viewBox="0 0 180 44" fill="none" xmlns="http://www.w3.org/2000/svg">
<rect width="180" height="44" rx="22" fill="#6B8F71"/>
<circle cx="42" cy="22" r="20" fill="#D7C9AA" fill-opacity="0.3"/>
<path d="M68.916 28.288C68.916 28.64 68.74 28.816 68.388 28.816H67.396C67.044 28.816 66.868 28.64 66.868 28.288V22.752H66.836C66.772 22.752 66.724 22.7467 66.692 22.736L65.844 22.56C65.5773 22.5067 65.444 22.3733 65.444 22.16C65.444 22.0853 65.46 22 65.492 21.904L68.212 15.36C68.3293 15.1147 68.5 14.992 68.724 14.992C68.788 14.992 68.836 14.9973 68.868 15.008L69.716 15.184C69.9827 15.2373 70.116 15.3707 70.116 15.584C70.116 15.6587 70.1 15.744 70.068 15.84L68.836 18.816C68.8893 18.912 68.916 19.024 68.916 19.152V28.288ZM71.876 28.272C71.748 28.432 71.5987 28.512 71.428 28.512C71.3533 28.512 71.268 28.496 71.172 28.464L70.612 28.24C70.3987 28.1547 70.292 28.032 70.292 27.872C70.292 27.7547 70.34 27.6427 70.436 27.536L73.028 24.432H70.74C70.388 24.432 70.212 24.272 70.212 23.952C70.212 23.632 70.388 23.472 70.74 23.472H73.796V22.336V22.288H72.42C72.3453 22.4907 72.18 22.592 71.924 22.592H70.932C70.58 22.592 70.404 22.416 70.404 22.064V15.648C70.404 15.296 70.58 15.12 70.932 15.12H71.924C72.148 15.12 72.3027 15.2 72.388 15.36H78.516C78.868 15.36 79.044 15.536 79.044 15.888V22.064C79.044 22.416 78.868 22.592 78.516 22.592H77.524C77.268 22.592 77.1027 22.4907 77.028 22.288H75.844V22.336V23.472H78.708C79.06 23.472 79.236 23.632 79.236 23.952C79.236 24.272 79.06 24.432 78.708 24.432H76.692L78.98 27.52C79.0653 27.6373 79.108 27.744 79.108 27.84C79.108 28.0213 78.9907 28.1547 78.756 28.24L78.116 28.464C78.0733 28.4747 78.0307 28.48 77.988 28.48C77.956 28.4907 77.924 28.496 77.892 28.496C77.7 28.496 77.54 28.4107 77.412 28.24L75.844 26.112V28.896C75.844 29.248 75.668 29.424 75.316 29.424H74.324C73.972 29.424 73.796 29.248 73.796 28.896V25.984L71.876 28.272ZM76.996 16.32H72.452V21.328H76.996V16.32ZM89.988 18.896C89.8707 19.2053 89.6573 19.328 89.348 19.264L88.5 19.104C88.2333 19.0507 88.1 18.9173 88.1 18.704C88.1 18.6293 88.116 18.544 88.148 18.448L89.428 15.328C89.5453 15.0187 89.7587 14.896 90.068 14.96L90.916 15.12C91.1827 15.1733 91.316 15.3067 91.316 15.52C91.316 15.5947 91.3 15.68 91.268 15.776L90.836 16.816H94.836C95.188 16.816 95.364 16.976 95.364 17.296C95.364 17.616 95.188 17.776 94.836 17.776H94.052C94.052 17.84 94.036 17.9147 94.004 18L93.396 19.68C93.2893 19.9787 93.076 20.1067 92.756 20.064L91.892 19.92C91.604 19.8667 91.46 19.728 91.46 19.504C91.46 19.4293 91.476 19.3547 91.508 19.28L92.052 17.776H90.452L89.988 18.896ZM83.412 19.664C83.3267 19.9947 83.1187 20.1333 82.788 20.08L81.86 19.968C81.5613 19.936 81.412 19.7867 81.412 19.52C81.412 19.488 81.4227 19.4293 81.444 19.344L82.532 15.376C82.6173 15.0453 82.8253 14.9067 83.156 14.96L84.084 15.072C84.3827 15.104 84.532 15.2533 84.532 15.52C84.532 15.552 84.5213 15.6107 84.5 15.696L84.196 16.816H87.668C88.02 16.816 88.196 16.976 88.196 17.296C88.196 17.616 88.02 17.776 87.668 17.776H86.548L86.804 19.12C86.8147 19.152 86.82 19.2 86.82 19.264C86.82 19.5307 86.6653 19.68 86.356 19.712L85.396 19.808C85.0653 19.84 84.868 19.6907 84.804 19.36L84.516 17.856C84.5053 17.8347 84.5 17.808 84.5 17.776H83.924L83.412 19.664ZM83.748 22.224C83.748 22.576 83.572 22.752 83.22 22.752H82.228C81.876 22.752 81.7 22.576 81.7 22.224V20.688C81.7 20.336 81.876 20.16 82.228 20.16H83.22C83.3693 20.16 83.4867 20.1973 83.572 20.272H87.348V20.24V20.032C87.348 19.68 87.524 19.504 87.876 19.504H88.868C89.22 19.504 89.396 19.68 89.396 20.032V20.24V20.272H95.028C95.348 20.272 95.508 20.4107 95.508 20.688C95.508 20.72 95.4973 20.7787 95.476 20.864L95.076 22.4C94.9907 22.7307 94.7827 22.8693 94.452 22.816L93.524 22.704C93.2253 22.672 93.076 22.5227 93.076 22.256C93.076 22.224 93.0867 22.1653 93.108 22.08L93.332 21.232H83.748V22.224ZM92.436 24.496C92.436 24.848 92.26 25.024 91.908 25.024H91.204C91.1187 25.0773 91.012 25.104 90.884 25.104H86.1V25.536H92.436C92.788 25.536 92.964 25.712 92.964 26.064V28.208C92.964 28.56 92.788 28.736 92.436 28.736H91.444C91.348 28.736 91.2627 28.72 91.188 28.688H85.828C85.7533 28.72 85.668 28.736 85.572 28.736H84.58C84.228 28.736 84.052 28.56 84.052 28.208V22.32C84.052 21.968 84.228 21.792 84.58 21.792H85.236C85.3213 21.7173 85.444 21.68 85.604 21.68H91.908C92.26 21.68 92.436 21.856 92.436 22.208V24.496ZM90.388 22.64H86.1V24.144H90.388V22.64ZM90.916 26.496H86.1V27.728H90.916V26.496ZM111.06 20.32C111.06 20.672 110.884 20.848 110.532 20.848H109.54C109.337 20.848 109.193 20.784 109.108 20.656H105.124C105.039 20.784 104.895 20.848 104.692 20.848H103.7C103.348 20.848 103.172 20.672 103.172 20.32V15.456C103.172 15.104 103.348 14.928 103.7 14.928H104.692C104.969 14.928 105.14 15.0453 105.204 15.28H110.532C110.884 15.28 111.06 15.456 111.06 15.808V20.32ZM101.316 22.544C101.38 22.512 101.439 22.4853 101.492 22.464C101.545 22.4427 101.599 22.432 101.652 22.432C101.769 22.432 101.897 22.4907 102.036 22.608L102.196 22.736C102.335 22.8427 102.404 22.96 102.404 23.088C102.404 23.2267 102.308 23.3547 102.116 23.472L98.596 25.456C98.532 25.488 98.4733 25.5147 98.42 25.536C98.3667 25.5573 98.3133 25.568 98.26 25.568C98.1427 25.568 98.0147 25.5093 97.876 25.392L97.716 25.264C97.5773 25.1573 97.508 25.04 97.508 24.912C97.508 24.7627 97.604 24.6347 97.796 24.528L99.284 23.696C99.2413 23.6213 99.22 23.5253 99.22 23.408V19.92H97.876C97.524 19.92 97.348 19.76 97.348 19.44C97.348 19.12 97.524 18.96 97.876 18.96H99.22V15.856C99.22 15.504 99.396 15.328 99.748 15.328H100.74C101.092 15.328 101.268 15.504 101.268 15.856V18.96H102.148C102.5 18.96 102.676 19.12 102.676 19.44C102.676 19.76 102.5 19.92 102.148 19.92H101.268V22.576L101.316 22.544ZM109.012 16.24H105.22V17.456H109.012V16.24ZM105.22 19.696H109.012V18.416H105.22V19.696ZM103.636 26.912C103.561 27.168 103.391 27.296 103.124 27.296C103.06 27.296 103.012 27.2907 102.98 27.28L102.276 27.12C102.009 27.056 101.876 26.912 101.876 26.688C101.876 26.656 101.876 26.624 101.876 26.592C101.887 26.5493 101.897 26.5067 101.908 26.464L103.364 22.064H102.548C102.196 22.064 102.02 21.904 102.02 21.584C102.02 21.264 102.196 21.104 102.548 21.104H111.156C111.508 21.104 111.684 21.264 111.684 21.584C111.684 21.904 111.508 22.064 111.156 22.064H105.188V22.112C105.188 22.144 105.188 22.1813 105.188 22.224C105.188 22.256 105.177 22.2933 105.156 22.336L105.092 22.528H110.852C111.172 22.528 111.332 22.6667 111.332 22.944C111.332 23.008 111.327 23.0613 111.316 23.104L110.148 28.32C110.084 28.5973 109.935 28.736 109.7 28.736C109.625 28.736 109.567 28.7307 109.524 28.72L108.324 28.416C108.047 28.3307 107.908 28.1973 107.908 28.016C107.908 27.952 107.924 27.888 107.956 27.824L107.972 27.792C108.1 27.504 108.217 27.3707 108.324 27.392L108.468 27.424L109.332 23.488H108.964V23.504C108.964 23.5467 108.953 23.6107 108.932 23.696L107.684 27.744C107.599 28.0213 107.444 28.16 107.22 28.16C107.199 28.16 107.172 28.16 107.14 28.16C107.108 28.16 107.081 28.1547 107.06 28.144L106.468 28C106.18 27.936 106.036 27.792 106.036 27.568C106.036 27.5253 106.047 27.4613 106.068 27.376L107.268 23.488H106.884V23.504C106.884 23.536 106.884 23.568 106.884 23.6C106.884 23.632 106.873 23.6693 106.852 23.712L105.508 27.696C105.423 27.9627 105.263 28.096 105.028 28.096C105.007 28.096 104.98 28.096 104.948 28.096C104.916 28.096 104.889 28.0907 104.868 28.08L104.292 27.936C104.015 27.872 103.876 27.728 103.876 27.504C103.876 27.472 103.876 27.44 103.876 27.408C103.887 27.376 103.897 27.3387 103.908 27.296L105.188 23.488H104.772L103.636 26.912ZM122.42 28.336C122.399 28.6987 122.212 28.8693 121.86 28.848L120.868 28.816C120.516 28.7947 120.351 28.6133 120.372 28.272L120.9 18.512C120.911 18.3733 120.948 18.2613 121.012 18.176C121.001 18.144 120.996 18.112 120.996 18.08C120.996 17.9307 121.087 17.808 121.268 17.712L126.308 14.928C126.425 14.864 126.527 14.832 126.612 14.832C126.751 14.832 126.889 14.8907 127.028 15.008L127.172 15.136C127.311 15.2427 127.38 15.3653 127.38 15.504C127.38 15.6533 127.289 15.776 127.108 15.872L122.852 18.224C122.927 18.3093 122.959 18.4267 122.948 18.576L122.868 20.048H126.996C127.348 20.048 127.524 20.208 127.524 20.528C127.524 20.848 127.348 21.008 126.996 21.008H126.372V21.056V28.56C126.372 28.912 126.196 29.088 125.844 29.088H124.852C124.5 29.088 124.324 28.912 124.324 28.56V21.056V21.008H122.82L122.42 28.336ZM120.052 15.36C120.404 15.36 120.58 15.52 120.58 15.84C120.58 16.16 120.404 16.32 120.052 16.32H114.724C114.372 16.32 114.196 16.16 114.196 15.84C114.196 15.52 114.372 15.36 114.724 15.36H120.052ZM115.588 28.432C115.577 28.7627 115.396 28.928 115.044 28.928L114.052 28.912C113.689 28.912 113.519 28.7307 113.54 28.368L113.988 18.736C113.999 18.4053 114.175 18.24 114.516 18.24L115.508 18.256C115.785 18.256 115.951 18.3733 116.004 18.608H119.7C120.052 18.608 120.228 18.784 120.228 19.136V24.192C120.228 24.544 120.052 24.72 119.7 24.72H118.708C118.537 24.72 118.404 24.6773 118.308 24.592C118.223 24.5067 118.18 24.3947 118.18 24.256H115.78L115.588 28.432ZM118.18 19.568H115.988L115.812 23.296H118.18V19.568ZM142.804 21.856C143.156 21.856 143.332 22.016 143.332 22.336C143.332 22.656 143.156 22.816 142.804 22.816H130.1C129.748 22.816 129.572 22.656 129.572 22.336C129.572 22.016 129.748 21.856 130.1 21.856H142.804ZM151.38 19.92V19.968H152.212C152.564 19.968 152.74 20.128 152.74 20.448C152.74 20.768 152.564 20.928 152.212 20.928H147.812C147.727 20.992 147.615 21.024 147.476 21.024H146.484C146.132 21.024 145.956 20.848 145.956 20.496V15.408C145.956 15.056 146.132 14.88 146.484 14.88H147.476C147.615 14.88 147.727 14.912 147.812 14.976H152.164C152.516 14.976 152.692 15.136 152.692 15.456C152.692 15.776 152.516 15.936 152.164 15.936H151.412V15.984V16.608V16.656H152.292C152.644 16.656 152.82 16.832 152.82 17.184V18.88C152.82 19.232 152.644 19.408 152.292 19.408H151.38V19.92ZM155.028 18.592C154.996 18.9333 154.809 19.0933 154.468 19.072L153.476 19.024C153.113 19.0027 152.948 18.816 152.98 18.464L153.3 15.456C153.332 15.1147 153.519 14.9547 153.86 14.976L154.852 15.024C155.204 15.0453 155.364 15.232 155.332 15.584L155.268 16.256H158.74C159.092 16.256 159.268 16.416 159.268 16.736C159.268 17.056 159.092 17.216 158.74 17.216H155.172L155.028 18.592ZM149.364 15.984V15.936H148.004V16.656H149.364V16.608V15.984ZM150.772 17.616H148.004V18.352H150.772V17.616ZM149.332 19.36V19.312H148.004V19.968H149.332V19.92V19.36ZM158.42 19.6C158.772 19.6 158.948 19.76 158.948 20.08C158.948 20.4 158.772 20.56 158.42 20.56H154.724C154.372 20.56 154.196 20.4 154.196 20.08C154.196 19.76 154.372 19.6 154.724 19.6H158.42ZM146.852 28.592C146.767 28.6347 146.671 28.656 146.564 28.656C146.393 28.656 146.244 28.5867 146.116 28.448L146.036 28.368C145.929 28.2613 145.876 28.1493 145.876 28.032C145.876 27.872 145.983 27.744 146.196 27.648L148.148 26.768H147.556C147.204 26.768 147.028 26.592 147.028 26.24V21.728C147.028 21.376 147.204 21.2 147.556 21.2H148.548C148.729 21.2 148.868 21.2533 148.964 21.36H157.412C157.764 21.36 157.94 21.536 157.94 21.888V26.288C157.94 26.64 157.764 26.816 157.412 26.816H156.42C156.292 26.816 156.185 26.7893 156.1 26.736H154.852V26.784V27.536H157.492V27.296C157.492 27.136 157.668 27.056 158.02 27.056H159.012C159.364 27.056 159.54 27.232 159.54 27.584V27.968C159.54 28.32 159.364 28.496 159.012 28.496H153.332C152.98 28.496 152.804 28.32 152.804 27.968V26.784V26.736H150.788C150.745 26.8213 150.66 26.8907 150.532 26.944L146.852 28.592ZM155.892 22.32H149.076V22.864H155.892V22.32ZM149.076 24.304H155.892V23.824H149.076V24.304ZM149.076 25.776H155.892V25.264H149.076V25.776Z" fill="#F8F5F2"/>
<path d="M39 16H50M39 22H50M39 28H50M35 16V16.01M35 22V22.01M35 28V28.01" stroke="#F8F5F2" stroke-width="2" stroke-linecap="round" stroke-linejoin="round"/>
</svg>
