<svg width="122" height="36" viewBox="0 0 122 36" fill="none" xmlns="http://www.w3.org/2000/svg">
<path d="M0 4C0 1.79086 1.79086 0 4 0H118C120.209 0 122 1.79086 122 4V36H0V4Z" fill="#6B8F71"/>
<path d="M31.9272 15.72C31.9272 16.072 31.7512 16.248 31.3992 16.248H30.4072C30.1619 16.248 30.0019 16.1573 29.9272 15.976H20.7912C20.7165 16.1573 20.5565 16.248 20.3112 16.248H19.3192C18.9672 16.248 18.7912 16.072 18.7912 15.72V12.648C18.7912 12.296 18.9672 12.12 19.3192 12.12H20.3112C20.5352 12.12 20.6899 12.2 20.7752 12.36H31.3992C31.7512 12.36 31.9272 12.536 31.9272 12.888V15.72ZM22.5992 13.368V13.32H20.8392V15.016H22.5992V14.968V13.368ZM24.6472 14.968V15.016H26.3112V14.968V13.368V13.32H24.6472V13.368V14.968ZM28.3592 14.968V15.016H29.8792V13.32H28.3592V13.368V14.968ZM19.8152 17.08C19.8152 16.728 19.9912 16.552 20.3432 16.552H21.3352C21.5379 16.552 21.6819 16.616 21.7672 16.744H30.3912C30.7432 16.744 30.9192 16.92 30.9192 17.272V23.272C30.9192 23.624 30.7432 23.8 30.3912 23.8H29.3992C29.1965 23.8 29.0525 23.736 28.9672 23.608H21.7672C21.6819 23.736 21.5379 23.8 21.3352 23.8H20.3432C19.9912 23.8 19.8152 23.624 19.8152 23.272V17.08ZM28.8712 17.704H21.8632V18.664H28.8712V17.704ZM21.8632 20.68H28.8712V19.624H21.8632V20.68ZM21.8632 22.648H28.8712V21.64H21.8632V22.648ZM20.1512 25.928C20.1085 25.9387 20.0712 25.944 20.0392 25.944C20.0072 25.9547 19.9752 25.96 19.9432 25.96C19.7512 25.96 19.5912 25.8587 19.4632 25.656C19.3992 25.5387 19.3672 25.4373 19.3672 25.352C19.3672 25.16 19.4899 25.032 19.7352 24.968L23.1432 24.008C23.1859 23.9973 23.2232 23.992 23.2552 23.992C23.2872 23.9813 23.3192 23.976 23.3512 23.976C23.5432 23.976 23.7032 24.0773 23.8312 24.28C23.8952 24.3867 23.9272 24.488 23.9272 24.584C23.9272 24.776 23.8045 24.904 23.5592 24.968L20.1512 25.928ZM31.2072 25.048C31.4632 25.112 31.5912 25.24 31.5912 25.432C31.5912 25.5173 31.5645 25.6027 31.5112 25.688L31.4632 25.752C31.3352 25.9547 31.1752 26.056 30.9832 26.056C30.9299 26.056 30.8605 26.0453 30.7752 26.024L27.1112 24.984C26.8552 24.92 26.7272 24.792 26.7272 24.6C26.7272 24.5147 26.7539 24.4293 26.8072 24.344L26.8552 24.28C26.9832 24.0773 27.1432 23.976 27.3352 23.976C27.3885 23.976 27.4579 23.9867 27.5432 24.008L31.2072 25.048ZM38.8392 25.016C38.8392 25.368 38.6632 25.544 38.3112 25.544H37.3192C36.9672 25.544 36.7912 25.368 36.7912 25.016V23.352L36.3112 24.152C36.1832 24.344 36.0179 24.44 35.8152 24.44C35.7619 24.44 35.6925 24.4293 35.6072 24.408L34.9032 24.2C34.6579 24.1147 34.5352 23.9813 34.5352 23.8C34.5352 23.704 34.5672 23.6027 34.6312 23.496C35.1005 22.6533 35.5699 21.8747 36.0392 21.16L36.7912 19.88V18.296H34.6952C34.3432 18.296 34.1672 18.136 34.1672 17.816C34.1672 17.496 34.3432 17.336 34.6952 17.336H36.7912V14.344C36.7912 13.992 36.9672 13.816 37.3192 13.816H38.3112C38.6632 13.816 38.8392 13.992 38.8392 14.344V17.336H39.2712C40.4339 16.3653 41.5539 15.88 42.6312 15.88C43.3565 15.88 44.0125 16.0187 44.5992 16.296C45.1859 16.5733 45.6925 16.9573 46.1192 17.448C46.5565 17.928 46.8872 18.488 47.1112 19.128C47.3459 19.7573 47.4632 20.4347 47.4632 21.16C47.4632 22.4613 46.9939 23.4853 46.0552 24.232C45.1165 24.9787 43.8099 25.3893 42.1352 25.464C41.7725 25.4853 41.5912 25.3307 41.5912 25C41.5912 24.6907 41.7672 24.5253 42.1192 24.504C43.2499 24.44 44.0819 24.136 44.6152 23.592C45.1485 23.048 45.4152 22.2373 45.4152 21.16C45.4152 20.392 45.2979 19.6827 45.0632 19.032C44.8285 18.3707 44.5032 17.8427 44.0872 17.448C43.6712 17.0427 43.1859 16.84 42.6312 16.84C42.2045 16.84 41.6605 17.1173 40.9992 17.672C40.3485 18.216 39.6285 19.016 38.8392 20.072V25.016ZM51.5538 21.464C51.4685 21.7947 51.2605 21.9333 50.9298 21.88L50.0018 21.768C49.7031 21.736 49.5538 21.5867 49.5538 21.32C49.5538 21.288 49.5645 21.2293 49.5858 21.144L50.7858 16.744H49.7938C49.4418 16.744 49.2658 16.584 49.2658 16.264C49.2658 15.944 49.4418 15.784 49.7938 15.784H51.0418L51.6658 13.512C51.7511 13.1813 51.9591 13.0427 52.2898 13.096L53.2178 13.208C53.5165 13.24 53.6658 13.3893 53.6658 13.656C53.6658 13.688 53.6551 13.7467 53.6338 13.832L53.1058 15.784H54.4818C54.8338 15.784 55.0098 15.944 55.0098 16.264C55.0098 16.584 54.8338 16.744 54.4818 16.744H52.8338L51.5538 21.464ZM61.1858 17.736C61.2711 17.8533 61.3138 17.96 61.3138 18.056C61.3138 18.2373 61.1965 18.3707 60.9618 18.456L60.3218 18.68C60.2471 18.712 60.1671 18.728 60.0818 18.728C59.9005 18.728 59.7458 18.6373 59.6178 18.456L57.3458 15.304C57.2605 15.1867 57.2178 15.08 57.2178 14.984C57.2178 14.8027 57.3351 14.6693 57.5698 14.584L58.2098 14.36C58.2951 14.328 58.3751 14.312 58.4498 14.312C58.6311 14.312 58.7858 14.4027 58.9138 14.584L61.1858 17.736ZM60.4818 23C60.5991 23.1173 60.6578 23.2293 60.6578 23.336C60.6578 23.5067 60.5458 23.6347 60.3218 23.72L59.7938 23.928C59.7191 23.96 59.6338 23.976 59.5378 23.976C59.3778 23.976 59.2231 23.9013 59.0738 23.752C58.7538 23.4213 58.4071 23.1173 58.0338 22.84V23.032C58.0338 23.8533 57.7565 24.488 57.2018 24.936C56.6471 25.384 55.8845 25.608 54.9138 25.608C54.2631 25.608 53.6711 25.4907 53.1378 25.256C52.6045 25.032 52.1778 24.7173 51.8578 24.312C51.5378 23.9067 51.3778 23.4373 51.3778 22.904C51.3778 22.4453 51.5325 22.0453 51.8418 21.704C52.1511 21.352 52.5778 21.08 53.1218 20.888C53.6765 20.696 54.3058 20.6 55.0098 20.6C55.3191 20.6 55.6445 20.632 55.9858 20.696V17.816C55.9858 17.464 56.1618 17.288 56.5138 17.288H57.5058C57.8578 17.288 58.0338 17.464 58.0338 17.816V21.384C58.5351 21.6293 58.9938 21.896 59.4098 22.184C59.8365 22.472 60.1938 22.744 60.4818 23ZM53.4258 22.904C53.4258 23.16 53.4685 23.4267 53.5538 23.704C53.6391 23.9707 53.7885 24.1947 54.0018 24.376C54.2258 24.5573 54.5298 24.648 54.9138 24.648C55.2871 24.648 55.5591 24.5307 55.7298 24.296C55.9005 24.0613 55.9858 23.64 55.9858 23.032V21.736C55.6231 21.6187 55.2978 21.56 55.0098 21.56C54.4231 21.56 54.0125 21.6613 53.7778 21.864C53.5431 22.0667 53.4258 22.4133 53.4258 22.904ZM67.4296 23.352C67.5469 23.288 67.6536 23.256 67.7496 23.256C67.8989 23.256 68.0376 23.32 68.1656 23.448L68.2936 23.56C68.4216 23.6667 68.4856 23.7893 68.4856 23.928C68.4856 24.0773 68.3896 24.2 68.1976 24.296C67.8989 24.424 67.5896 24.5467 67.2696 24.664C66.9602 24.7813 66.6402 24.8827 66.3096 24.968C66.2136 25.0107 66.1016 25.032 65.9736 25.032C65.8669 25.032 65.7549 25.0107 65.6376 24.968L65.1256 24.808C64.8376 24.7227 64.6722 24.5467 64.6296 24.28C64.3629 22.8827 64.1496 21.4267 63.9896 19.912C63.8296 18.3973 63.7176 16.776 63.6536 15.048C63.6322 14.6747 63.8029 14.488 64.1656 14.488L65.1576 14.472C65.5096 14.472 65.6909 14.648 65.7016 15C65.8082 18.2853 66.1016 21.2027 66.5816 23.752C66.7096 23.6987 66.8429 23.64 66.9816 23.576C67.1309 23.5013 67.2802 23.4267 67.4296 23.352ZM76.2776 22.68C76.3309 23.0427 76.1709 23.2347 75.7976 23.256L74.8056 23.32C74.4749 23.3307 74.2829 23.1707 74.2296 22.84C74.1016 21.8267 73.9416 20.824 73.7496 19.832C73.5682 18.8293 73.3549 17.8427 73.1096 16.872C73.0989 16.84 73.0882 16.808 73.0776 16.776C73.0776 16.744 73.0776 16.712 73.0776 16.68C73.0776 16.424 73.2269 16.28 73.5256 16.248L74.4536 16.136C74.7842 16.0827 74.9922 16.2373 75.0776 16.6C75.3549 17.656 75.5896 18.6853 75.7816 19.688C75.9736 20.6907 76.1389 21.688 76.2776 22.68ZM87.7738 21.016C87.7631 20.9733 87.7525 20.936 87.7418 20.904C87.7418 20.872 87.7418 20.84 87.7418 20.808C87.7418 20.5733 87.8698 20.424 88.1258 20.36L88.9418 20.152C88.9845 20.1413 89.0218 20.136 89.0538 20.136C89.0858 20.1253 89.1178 20.12 89.1498 20.12C89.3631 20.12 89.5178 20.232 89.6138 20.456C89.7631 20.8187 89.8805 21.224 89.9658 21.672C90.0511 22.1093 90.0938 22.536 90.0938 22.952C90.0938 23.8267 89.6511 24.4773 88.7658 24.904C87.8911 25.3307 86.6111 25.544 84.9258 25.544C83.5178 25.544 82.4191 25.2133 81.6298 24.552C80.8405 23.8907 80.4458 22.952 80.4458 21.736C80.4458 21.288 80.5525 20.5413 80.7658 19.496H79.3258C78.9738 19.496 78.7978 19.336 78.7978 19.016C78.7978 18.696 78.9738 18.536 79.3258 18.536H80.9738C81.0911 17.9813 81.2351 17.3787 81.4058 16.728H79.5498C79.1978 16.728 79.0218 16.568 79.0218 16.248C79.0218 15.928 79.1978 15.768 79.5498 15.768H81.6458C81.7738 15.2987 81.9071 14.8133 82.0458 14.312C82.1311 13.9707 82.3391 13.8267 82.6698 13.88L83.5978 13.992C83.8858 14.024 84.0298 14.1733 84.0298 14.44C84.0298 14.4827 84.0191 14.5467 83.9978 14.632C83.8911 15.016 83.7898 15.3947 83.6938 15.768H88.8298C89.1818 15.768 89.3578 15.928 89.3578 16.248C89.3578 16.568 89.1818 16.728 88.8298 16.728H83.4378C83.2778 17.368 83.1338 17.9707 83.0058 18.536H88.4938C88.8458 18.536 89.0218 18.696 89.0218 19.016C89.0218 19.336 88.8458 19.496 88.4938 19.496H82.8138C82.6005 20.5413 82.4938 21.288 82.4938 21.736C82.4938 22.7173 82.6911 23.4373 83.0858 23.896C83.4911 24.3547 84.1045 24.584 84.9258 24.584C85.7898 24.584 86.4458 24.5413 86.8938 24.456C87.3418 24.36 87.6458 24.1947 87.8058 23.96C87.9658 23.7253 88.0458 23.3893 88.0458 22.952C88.0458 22.7067 88.0191 22.3973 87.9658 22.024C87.9125 21.64 87.8485 21.304 87.7738 21.016ZM102.023 25.256C101.906 25.4053 101.767 25.48 101.607 25.48C101.511 25.48 101.41 25.4533 101.303 25.4L100.823 25.176C100.621 25.08 100.519 24.952 100.519 24.792C100.519 24.7067 100.562 24.5947 100.647 24.456C100.871 24.1253 101.069 23.736 101.239 23.288C101.41 22.8293 101.543 22.3387 101.639 21.816C101.735 21.2933 101.783 20.776 101.783 20.264C101.783 18.952 101.543 17.8853 101.063 17.064C100.583 16.2427 99.9059 15.7253 99.0312 15.512C99.2872 16.9307 99.4152 18.2 99.4152 19.32C99.4152 21.1013 99.1059 22.5093 98.4872 23.544C97.8792 24.5787 96.9779 25.096 95.7832 25.096C95.0579 25.096 94.4232 24.92 93.8792 24.568C93.3352 24.216 92.9139 23.736 92.6152 23.128C92.3165 22.5093 92.1672 21.8 92.1672 21C92.1672 20.104 92.3219 19.2613 92.6312 18.472C92.9405 17.6827 93.3672 16.9893 93.9112 16.392C94.4659 15.784 95.1005 15.3093 95.8152 14.968C96.5405 14.6267 97.3139 14.456 98.1352 14.456C99.3085 14.456 100.322 14.6907 101.175 15.16C102.029 15.6187 102.685 16.2853 103.143 17.16C103.602 18.024 103.831 19.0587 103.831 20.264C103.831 22.2373 103.229 23.9013 102.023 25.256ZM94.2152 21C94.2152 21.5653 94.2899 22.088 94.4392 22.568C94.5885 23.0373 94.7805 23.416 95.0152 23.704C95.2605 23.992 95.5165 24.136 95.7832 24.136C96.0819 24.136 96.3432 23.9173 96.5672 23.48C96.8019 23.032 96.9832 22.4293 97.1112 21.672C97.2499 20.9147 97.3192 20.0613 97.3192 19.112C97.3192 18.568 97.2925 18.008 97.2392 17.432C97.1965 16.856 97.1219 16.2693 97.0152 15.672C96.4925 15.928 96.0179 16.3227 95.5912 16.856C95.1752 17.3893 94.8392 18.0187 94.5832 18.744C94.3379 19.4587 94.2152 20.2107 94.2152 21Z" fill="white"/>
</svg>
