<svg width="234" height="108" viewBox="0 0 234 108" fill="none" xmlns="http://www.w3.org/2000/svg">
<rect x="198" width="36" height="36" rx="4" fill="#6B8F71"/>
<path d="M225 27L219 21M207 16C207 16.9193 207.181 17.8295 207.533 18.6788C207.885 19.5281 208.4 20.2997 209.05 20.9497C209.7 21.5998 210.472 22.1154 211.321 22.4672C212.17 22.8189 213.081 23 214 23C214.919 23 215.83 22.8189 216.679 22.4672C217.528 22.1154 218.3 21.5998 218.95 20.9497C219.6 20.2997 220.115 19.5281 220.467 18.6788C220.819 17.8295 221 16.9193 221 16C221 15.0807 220.819 14.1705 220.467 13.3212C220.115 12.4719 219.6 11.7003 218.95 11.0503C218.3 10.4002 217.528 9.88463 216.679 9.53284C215.83 9.18106 214.919 9 214 9C213.081 9 212.17 9.18106 211.321 9.53284C210.472 9.88463 209.7 10.4002 209.05 11.0503C208.4 11.7003 207.885 12.4719 207.533 13.3212C207.181 14.1705 207 15.0807 207 16Z" stroke="white" stroke-width="2" stroke-linecap="round" stroke-linejoin="round"/>
<rect x="0.5" y="36.5" width="197" height="71" rx="3.5" fill="white" stroke="#4F4737"/>
<path d="M16.7643 97.144C16.7643 97.496 16.5883 97.672 16.2363 97.672H15.2443C14.8923 97.672 14.7163 97.496 14.7163 97.144V86.024C14.7163 85.672 14.8923 85.496 15.2443 85.496H16.2363C16.5883 85.496 16.7643 85.672 16.7643 86.024V90.568L22.5563 92.44C22.8016 92.5253 22.9243 92.6533 22.9243 92.824C22.9243 92.9093 22.8923 93 22.8283 93.096L22.7643 93.176C22.6469 93.3573 22.4923 93.448 22.3003 93.448C22.2683 93.448 22.2309 93.448 22.1883 93.448C22.1563 93.4373 22.1189 93.4267 22.0763 93.416L16.7643 91.704V97.144ZM25.8381 93.352C25.7315 93.416 25.6195 93.448 25.5021 93.448C25.3528 93.448 25.2195 93.3947 25.1021 93.288L24.9421 93.16C24.7928 93.032 24.7181 92.9093 24.7181 92.792C24.7181 92.664 24.8088 92.5413 24.9901 92.424L36.2221 85.928C36.3395 85.864 36.4515 85.832 36.5581 85.832C36.7075 85.832 36.8408 85.8853 36.9581 85.992L37.1181 86.12C37.2675 86.248 37.3421 86.3707 37.3421 86.488C37.3421 86.616 37.2515 86.7387 37.0701 86.856L32.6221 89.432C32.7075 89.5173 32.7501 89.64 32.7501 89.8V97C32.7501 97.352 32.5741 97.528 32.2221 97.528H31.2301C30.8781 97.528 30.7021 97.352 30.7021 97V90.536L25.8381 93.352ZM50.3326 91.832C50.418 91.7893 50.514 91.768 50.6206 91.768C50.7806 91.768 50.9246 91.832 51.0526 91.96L51.1326 92.04C51.25 92.1573 51.3086 92.2747 51.3086 92.392C51.3086 92.552 51.2073 92.68 51.0046 92.776L40.8126 97.448C40.7273 97.4907 40.642 97.512 40.5566 97.512C40.3113 97.512 40.1886 97.3573 40.1886 97.048V86.136C40.1886 85.784 40.3646 85.608 40.7166 85.608H41.7086C42.0606 85.608 42.2366 85.784 42.2366 86.136V95.528L50.3326 91.832ZM58.1291 91.88C58.1398 91.912 58.1451 91.9547 58.1451 92.008C58.1451 92.2853 57.9851 92.44 57.6651 92.472L56.7051 92.552C56.3745 92.584 56.1771 92.4293 56.1131 92.088L55.6811 89.624C55.6705 89.592 55.6651 89.5493 55.6651 89.496C55.6651 89.2187 55.8251 89.064 56.1451 89.032L57.1051 88.952C57.4358 88.92 57.6331 89.0747 57.6971 89.416L58.1291 91.88ZM55.5051 92.28C55.5158 92.3227 55.5211 92.3813 55.5211 92.456C55.5211 92.712 55.3771 92.856 55.0891 92.888L54.1611 93C53.8305 93.032 53.6225 92.888 53.5371 92.568L52.9291 90.104C52.9185 90.072 52.9131 90.04 52.9131 90.008C52.9131 89.976 52.9131 89.9493 52.9131 89.928C52.9131 89.672 53.0571 89.528 53.3451 89.496L54.2731 89.384C54.5931 89.352 54.7958 89.496 54.8811 89.816L55.5051 92.28ZM58.9771 97.144C58.8705 97.3787 58.6998 97.496 58.4651 97.496C58.4438 97.496 58.4171 97.496 58.3851 97.496C58.3531 97.496 58.3265 97.4907 58.3051 97.48L57.4891 97.288C57.2331 97.224 57.1051 97.0907 57.1051 96.888C57.1051 96.792 57.1265 96.7013 57.1691 96.616L60.4011 89.944C60.5078 89.7093 60.6785 89.592 60.9131 89.592C60.9345 89.592 60.9611 89.592 60.9931 89.592C61.0251 89.592 61.0518 89.5973 61.0731 89.608L61.8891 89.8C62.1451 89.864 62.2731 89.9973 62.2731 90.2C62.2731 90.296 62.2518 90.3867 62.2091 90.472L58.9771 97.144ZM67.983 97.144C67.983 97.496 67.807 97.672 67.455 97.672H66.463C66.111 97.672 65.935 97.496 65.935 97.144V86.024C65.935 85.672 66.111 85.496 66.463 85.496H67.455C67.807 85.496 67.983 85.672 67.983 86.024V90.568L73.775 92.44C74.0203 92.5253 74.143 92.6533 74.143 92.824C74.143 92.9093 74.111 93 74.047 93.096L73.983 93.176C73.8657 93.3573 73.711 93.448 73.519 93.448C73.487 93.448 73.4497 93.448 73.407 93.448C73.375 93.4373 73.3377 93.4267 73.295 93.416L67.983 91.704V97.144ZM87.0249 89.896C86.5235 89.896 86.0649 89.7893 85.6489 89.576C85.2329 89.3627 84.9022 89.0747 84.6569 88.712C84.4222 88.3387 84.3049 87.9173 84.3049 87.448C84.3049 86.9893 84.4222 86.5787 84.6569 86.216C84.9022 85.8427 85.2329 85.5493 85.6489 85.336C86.0649 85.1227 86.5235 85.016 87.0249 85.016C87.5369 85.016 87.9955 85.1227 88.4009 85.336C88.8169 85.5493 89.1475 85.8427 89.3929 86.216C89.6382 86.5787 89.7609 86.9893 89.7609 87.448C89.7609 87.9173 89.6382 88.3387 89.3929 88.712C89.1475 89.0747 88.8169 89.3627 88.4009 89.576C87.9955 89.7893 87.5369 89.896 87.0249 89.896ZM86.9769 89.08C87.1689 89.08 87.3555 89.0053 87.5369 88.856C87.7289 88.696 87.8835 88.4933 88.0009 88.248C88.1289 88.0027 88.1929 87.736 88.1929 87.448C88.1929 87.16 88.1342 86.8933 88.0169 86.648C87.8995 86.4027 87.7449 86.2053 87.5529 86.056C87.3715 85.9067 87.1795 85.832 86.9769 85.832C86.7955 85.832 86.6089 85.9067 86.4169 86.056C86.2249 86.2053 86.0702 86.4027 85.9529 86.648C85.8355 86.8933 85.7769 87.16 85.7769 87.448C85.7769 87.736 85.8355 88.0027 85.9529 88.248C86.0809 88.4933 86.2355 88.696 86.4169 88.856C86.6089 89.0053 86.7955 89.08 86.9769 89.08ZM89.0729 95.896C89.1582 95.992 89.2009 96.0987 89.2009 96.216C89.2009 96.3867 89.0889 96.5147 88.8649 96.6L88.2569 96.808C88.1609 96.84 88.0755 96.856 88.0009 96.856C87.8302 96.856 87.6809 96.7707 87.5529 96.6L81.7929 89.128L77.8729 95.672C77.7342 95.8747 77.5689 95.976 77.3769 95.976C77.3449 95.976 77.3129 95.976 77.2809 95.976C77.2489 95.9653 77.2169 95.9547 77.1849 95.944L76.4649 95.752C76.2195 95.688 76.0969 95.56 76.0969 95.368C76.0969 95.272 76.1289 95.1707 76.1929 95.064L81.2009 86.68C81.2969 86.5093 81.4142 86.424 81.5529 86.424C81.6915 86.424 81.8195 86.4987 81.9369 86.648L89.0729 95.896ZM102.753 90.92C103.105 90.92 103.281 91.08 103.281 91.4C103.281 91.72 103.105 91.88 102.753 91.88H91.9694C91.6174 91.88 91.4414 91.72 91.4414 91.4C91.4414 91.08 91.6174 90.92 91.9694 90.92H102.753ZM117.852 96.088C117.863 96.12 117.868 96.152 117.868 96.184C117.879 96.216 117.884 96.248 117.884 96.28C117.884 96.536 117.74 96.68 117.452 96.712L116.508 96.824C116.188 96.8667 115.986 96.7333 115.9 96.424L113.244 87.016C113.234 86.984 113.223 86.952 113.212 86.92C113.212 86.888 113.212 86.856 113.212 86.824C113.212 86.568 113.356 86.424 113.644 86.392L114.588 86.28C114.908 86.2373 115.111 86.376 115.196 86.696L117.852 96.088ZM107.244 96.456C107.148 96.7653 106.946 96.8987 106.636 96.856L105.708 96.744C105.41 96.712 105.26 96.5627 105.26 96.296C105.26 96.264 105.271 96.2053 105.292 96.12L107.996 86.728C108.092 86.4187 108.295 86.2853 108.604 86.328L109.532 86.44C109.831 86.472 109.98 86.6213 109.98 86.888C109.98 86.92 109.97 86.9787 109.948 87.064L107.244 96.456ZM117.036 88.52C116.535 88.52 116.076 88.4133 115.66 88.2C115.244 87.9867 114.914 87.6987 114.668 87.336C114.434 86.9627 114.316 86.5413 114.316 86.072C114.316 85.6133 114.434 85.2027 114.668 84.84C114.914 84.4667 115.244 84.1733 115.66 83.96C116.076 83.7467 116.535 83.64 117.036 83.64C117.548 83.64 118.007 83.7467 118.412 83.96C118.828 84.1733 119.159 84.4667 119.404 84.84C119.65 85.2027 119.772 85.6133 119.772 86.072C119.772 86.5413 119.65 86.9627 119.404 87.336C119.159 87.6987 118.828 87.9867 118.412 88.2C118.007 88.4133 117.548 88.52 117.036 88.52ZM116.988 87.704C117.18 87.704 117.367 87.6293 117.548 87.48C117.74 87.32 117.895 87.1173 118.012 86.872C118.14 86.6267 118.204 86.36 118.204 86.072C118.204 85.784 118.146 85.5173 118.028 85.272C117.911 85.0267 117.756 84.8293 117.564 84.68C117.383 84.5307 117.191 84.456 116.988 84.456C116.807 84.456 116.62 84.5307 116.428 84.68C116.236 84.8293 116.082 85.0267 115.964 85.272C115.847 85.5173 115.788 85.784 115.788 86.072C115.788 86.36 115.847 86.6267 115.964 86.872C116.092 87.1173 116.247 87.32 116.428 87.48C116.62 87.6293 116.807 87.704 116.988 87.704ZM131.925 90.92C132.277 90.92 132.453 91.08 132.453 91.4C132.453 91.72 132.277 91.88 131.925 91.88H121.141C120.789 91.88 120.613 91.72 120.613 91.4C120.613 91.08 120.789 90.92 121.141 90.92H131.925Z" fill="#4F4737"/>
<path d="M21.1962 60.904C21.2176 61.2453 21.0523 61.4267 20.7003 61.448L19.7083 61.48C19.3563 61.5013 19.1696 61.3307 19.1483 60.968L18.9403 56.76H13.6923C13.3403 56.76 13.1643 56.6 13.1643 56.28C13.1643 55.96 13.3403 55.8 13.6923 55.8H18.8923L18.7483 52.856H13.8523C13.5003 52.856 13.3243 52.696 13.3243 52.376C13.3243 52.056 13.5003 51.896 13.8523 51.896H18.7003L18.6203 50.248C18.5989 49.9067 18.7643 49.7253 19.1163 49.704L20.1083 49.672C20.4603 49.6507 20.6469 49.8213 20.6683 50.184L20.7483 51.896H25.1643C25.5163 51.896 25.6923 52.056 25.6923 52.376C25.6923 52.696 25.5163 52.856 25.1643 52.856H20.7963L20.9403 55.8H26.0603C26.4123 55.8 26.5883 55.96 26.5883 56.28C26.5883 56.6 26.4123 56.76 26.0603 56.76H20.9883L21.1962 60.904ZM33.801 55.88C33.8117 55.912 33.817 55.9547 33.817 56.008C33.817 56.2853 33.657 56.44 33.337 56.472L32.377 56.552C32.0463 56.584 31.849 56.4293 31.785 56.088L31.353 53.624C31.3423 53.592 31.337 53.5493 31.337 53.496C31.337 53.2187 31.497 53.064 31.817 53.032L32.777 52.952C33.1077 52.92 33.305 53.0747 33.369 53.416L33.801 55.88ZM31.177 56.28C31.1877 56.3227 31.193 56.3813 31.193 56.456C31.193 56.712 31.049 56.856 30.761 56.888L29.833 57C29.5023 57.032 29.2943 56.888 29.209 56.568L28.601 54.104C28.5903 54.072 28.585 54.04 28.585 54.008C28.585 53.976 28.585 53.9493 28.585 53.928C28.585 53.672 28.729 53.528 29.017 53.496L29.945 53.384C30.265 53.352 30.4677 53.496 30.553 53.816L31.177 56.28ZM34.649 61.144C34.5423 61.3787 34.3717 61.496 34.137 61.496C34.1157 61.496 34.089 61.496 34.057 61.496C34.025 61.496 33.9983 61.4907 33.977 61.48L33.161 61.288C32.905 61.224 32.777 61.0907 32.777 60.888C32.777 60.792 32.7983 60.7013 32.841 60.616L36.073 53.944C36.1797 53.7093 36.3503 53.592 36.585 53.592C36.6063 53.592 36.633 53.592 36.665 53.592C36.697 53.592 36.7237 53.5973 36.745 53.608L37.561 53.8C37.817 53.864 37.945 53.9973 37.945 54.2C37.945 54.296 37.9237 54.3867 37.881 54.472L34.649 61.144ZM45.5909 61.256C45.4629 61.416 45.3135 61.496 45.1429 61.496C45.0682 61.496 44.9829 61.48 44.8869 61.448L44.3269 61.224C44.1029 61.128 43.9909 61 43.9909 60.84C43.9909 60.7333 44.0389 60.6213 44.1349 60.504C44.5935 59.928 44.9722 59.384 45.2709 58.872C45.5695 58.36 45.8042 57.8373 45.9749 57.304C46.1562 56.7707 46.2895 56.184 46.3749 55.544H40.5349C40.1829 55.544 40.0069 55.384 40.0069 55.064C40.0069 54.744 40.1829 54.584 40.5349 54.584H46.4709C46.5135 54.0933 46.5402 53.5653 46.5509 53C46.5722 52.424 46.5829 51.7947 46.5829 51.112L42.9509 52.088C42.9082 52.0987 42.8709 52.1093 42.8389 52.12C42.8069 52.12 42.7749 52.12 42.7429 52.12C42.5509 52.12 42.3909 52.0187 42.2629 51.816C42.1989 51.6987 42.1669 51.6027 42.1669 51.528C42.1669 51.3253 42.2949 51.192 42.5509 51.128L50.7109 48.92C50.7535 48.9093 50.7909 48.904 50.8229 48.904C50.8549 48.8933 50.8869 48.888 50.9189 48.888C51.1109 48.888 51.2709 48.9893 51.3989 49.192C51.4629 49.2987 51.4949 49.3947 51.4949 49.48C51.4949 49.6827 51.3669 49.816 51.1109 49.88L48.4709 50.6C48.5775 50.728 48.6309 50.9253 48.6309 51.192C48.6309 51.864 48.6202 52.4827 48.5989 53.048C48.5775 53.6027 48.5509 54.1147 48.5189 54.584H53.2709C53.6229 54.584 53.7989 54.744 53.7989 55.064C53.7989 55.384 53.6229 55.544 53.2709 55.544H48.4069C48.3002 56.312 48.1349 56.9947 47.9109 57.592C47.6975 58.1893 47.3989 58.776 47.0149 59.352C46.6415 59.928 46.1669 60.5627 45.5909 61.256ZM61.1184 52.52C61.2997 52.6373 61.3904 52.76 61.3904 52.888C61.3904 53.016 61.3157 53.1387 61.1664 53.256L60.9744 53.416C60.8464 53.512 60.7184 53.56 60.5904 53.56C60.473 53.56 60.3557 53.5227 60.2384 53.448L55.9984 50.872C55.817 50.7547 55.7264 50.632 55.7264 50.504C55.7264 50.376 55.801 50.2533 55.9504 50.136L56.1424 49.976C56.2704 49.88 56.3984 49.832 56.5264 49.832C56.6437 49.832 56.761 49.8693 56.8784 49.944L61.1184 52.52ZM66.2864 54.248C66.4037 54.1733 66.5264 54.136 66.6544 54.136C66.7824 54.136 66.905 54.1787 67.0224 54.264L67.2304 54.424C67.3797 54.5413 67.4544 54.664 67.4544 54.792C67.4544 54.9307 67.369 55.0533 67.1984 55.16L57.7904 61.08C57.673 61.1547 57.5504 61.192 57.4224 61.192C57.2944 61.192 57.1717 61.1493 57.0544 61.064L56.8464 60.904C56.697 60.7867 56.6224 60.664 56.6224 60.536C56.6224 60.3973 56.7077 60.2747 56.8784 60.168L66.2864 54.248ZM80.353 53.896C79.8517 53.896 79.393 53.7893 78.977 53.576C78.561 53.3627 78.2303 53.0747 77.985 52.712C77.7503 52.3387 77.633 51.9173 77.633 51.448C77.633 50.9893 77.7503 50.5787 77.985 50.216C78.2303 49.8427 78.561 49.5493 78.977 49.336C79.393 49.1227 79.8517 49.016 80.353 49.016C80.865 49.016 81.3237 49.1227 81.729 49.336C82.145 49.5493 82.4757 49.8427 82.721 50.216C82.9663 50.5787 83.089 50.9893 83.089 51.448C83.089 51.9173 82.9663 52.3387 82.721 52.712C82.4757 53.0747 82.145 53.3627 81.729 53.576C81.3237 53.7893 80.865 53.896 80.353 53.896ZM80.305 53.08C80.497 53.08 80.6837 53.0053 80.865 52.856C81.057 52.696 81.2117 52.4933 81.329 52.248C81.457 52.0027 81.521 51.736 81.521 51.448C81.521 51.16 81.4623 50.8933 81.345 50.648C81.2277 50.4027 81.073 50.2053 80.881 50.056C80.6997 49.9067 80.5077 49.832 80.305 49.832C80.1237 49.832 79.937 49.9067 79.745 50.056C79.553 50.2053 79.3983 50.4027 79.281 50.648C79.1637 50.8933 79.105 51.16 79.105 51.448C79.105 51.736 79.1637 52.0027 79.281 52.248C79.409 52.4933 79.5637 52.696 79.745 52.856C79.937 53.0053 80.1237 53.08 80.305 53.08ZM82.401 59.896C82.4863 59.992 82.529 60.0987 82.529 60.216C82.529 60.3867 82.417 60.5147 82.193 60.6L81.585 60.808C81.489 60.84 81.4037 60.856 81.329 60.856C81.1583 60.856 81.009 60.7707 80.881 60.6L75.121 53.128L71.201 59.672C71.0623 59.8747 70.897 59.976 70.705 59.976C70.673 59.976 70.641 59.976 70.609 59.976C70.577 59.9653 70.545 59.9547 70.513 59.944L69.793 59.752C69.5477 59.688 69.425 59.56 69.425 59.368C69.425 59.272 69.457 59.1707 69.521 59.064L74.529 50.68C74.625 50.5093 74.7423 50.424 74.881 50.424C75.0197 50.424 75.1477 50.4987 75.265 50.648L82.401 59.896ZM96.0815 54.92C96.4335 54.92 96.6095 55.08 96.6095 55.4C96.6095 55.72 96.4335 55.88 96.0815 55.88H85.2975C84.9455 55.88 84.7695 55.72 84.7695 55.4C84.7695 55.08 84.9455 54.92 85.2975 54.92H96.0815ZM111.18 60.088C111.191 60.12 111.196 60.152 111.196 60.184C111.207 60.216 111.212 60.248 111.212 60.28C111.212 60.536 111.068 60.68 110.78 60.712L109.836 60.824C109.516 60.8667 109.314 60.7333 109.228 60.424L106.572 51.016C106.562 50.984 106.551 50.952 106.54 50.92C106.54 50.888 106.54 50.856 106.54 50.824C106.54 50.568 106.684 50.424 106.972 50.392L107.916 50.28C108.236 50.2373 108.439 50.376 108.524 50.696L111.18 60.088ZM100.572 60.456C100.476 60.7653 100.274 60.8987 99.9644 60.856L99.0364 60.744C98.7377 60.712 98.5884 60.5627 98.5884 60.296C98.5884 60.264 98.599 60.2053 98.6204 60.12L101.324 50.728C101.42 50.4187 101.623 50.2853 101.932 50.328L102.86 50.44C103.159 50.472 103.308 50.6213 103.308 50.888C103.308 50.92 103.298 50.9787 103.276 51.064L100.572 60.456ZM110.364 52.52C109.863 52.52 109.404 52.4133 108.988 52.2C108.572 51.9867 108.242 51.6987 107.996 51.336C107.762 50.9627 107.644 50.5413 107.644 50.072C107.644 49.6133 107.762 49.2027 107.996 48.84C108.242 48.4667 108.572 48.1733 108.988 47.96C109.404 47.7467 109.863 47.64 110.364 47.64C110.876 47.64 111.335 47.7467 111.74 47.96C112.156 48.1733 112.487 48.4667 112.732 48.84C112.978 49.2027 113.1 49.6133 113.1 50.072C113.1 50.5413 112.978 50.9627 112.732 51.336C112.487 51.6987 112.156 51.9867 111.74 52.2C111.335 52.4133 110.876 52.52 110.364 52.52ZM110.316 51.704C110.508 51.704 110.695 51.6293 110.876 51.48C111.068 51.32 111.223 51.1173 111.34 50.872C111.468 50.6267 111.532 50.36 111.532 50.072C111.532 49.784 111.474 49.5173 111.356 49.272C111.239 49.0267 111.084 48.8293 110.892 48.68C110.711 48.5307 110.519 48.456 110.316 48.456C110.135 48.456 109.948 48.5307 109.756 48.68C109.564 48.8293 109.41 49.0267 109.292 49.272C109.175 49.5173 109.116 49.784 109.116 50.072C109.116 50.36 109.175 50.6267 109.292 50.872C109.42 51.1173 109.575 51.32 109.756 51.48C109.948 51.6293 110.135 51.704 110.316 51.704ZM125.253 54.92C125.605 54.92 125.781 55.08 125.781 55.4C125.781 55.72 125.605 55.88 125.253 55.88H114.469C114.117 55.88 113.941 55.72 113.941 55.4C113.941 55.08 114.117 54.92 114.469 54.92H125.253Z" fill="#4F4737"/>
<rect x="0.5" y="0.5" width="197" height="35" rx="3.5" fill="white" stroke="#4F4737"/>
<path d="M23.8843 17.896C23.3829 17.896 22.9243 17.7893 22.5083 17.576C22.0923 17.3627 21.7616 17.0747 21.5163 16.712C21.2816 16.3387 21.1643 15.9173 21.1643 15.448C21.1643 14.9893 21.2816 14.5787 21.5163 14.216C21.7616 13.8427 22.0923 13.5493 22.5083 13.336C22.9243 13.1227 23.3829 13.016 23.8843 13.016C24.3963 13.016 24.8549 13.1227 25.2603 13.336C25.6763 13.5493 26.0069 13.8427 26.2523 14.216C26.4976 14.5787 26.6203 14.9893 26.6203 15.448C26.6203 15.9173 26.4976 16.3387 26.2523 16.712C26.0069 17.0747 25.6763 17.3627 25.2603 17.576C24.8549 17.7893 24.3963 17.896 23.8843 17.896ZM23.8363 17.08C24.0283 17.08 24.2149 17.0053 24.3963 16.856C24.5883 16.696 24.7429 16.4933 24.8603 16.248C24.9883 16.0027 25.0523 15.736 25.0523 15.448C25.0523 15.16 24.9936 14.8933 24.8763 14.648C24.7589 14.4027 24.6043 14.2053 24.4123 14.056C24.2309 13.9067 24.0389 13.832 23.8363 13.832C23.6549 13.832 23.4683 13.9067 23.2763 14.056C23.0843 14.2053 22.9296 14.4027 22.8123 14.648C22.6949 14.8933 22.6363 15.16 22.6363 15.448C22.6363 15.736 22.6949 16.0027 22.8123 16.248C22.9403 16.4933 23.0949 16.696 23.2763 16.856C23.4683 17.0053 23.6549 17.08 23.8363 17.08ZM25.9323 23.896C26.0176 23.992 26.0603 24.0987 26.0603 24.216C26.0603 24.3867 25.9483 24.5147 25.7243 24.6L25.1163 24.808C25.0203 24.84 24.9349 24.856 24.8603 24.856C24.6896 24.856 24.5403 24.7707 24.4123 24.6L18.6523 17.128L14.7323 23.672C14.5936 23.8747 14.4283 23.976 14.2363 23.976C14.2043 23.976 14.1723 23.976 14.1403 23.976C14.1083 23.9653 14.0763 23.9547 14.0443 23.944L13.3243 23.752C13.0789 23.688 12.9563 23.56 12.9563 23.368C12.9563 23.272 12.9883 23.1707 13.0523 23.064L18.0603 14.68C18.1563 14.5093 18.2736 14.424 18.4123 14.424C18.5509 14.424 18.6789 14.4987 18.7963 14.648L25.9323 23.896ZM39.6128 18.92C39.9648 18.92 40.1408 19.08 40.1408 19.4C40.1408 19.72 39.9648 19.88 39.6128 19.88H28.8288C28.4768 19.88 28.3008 19.72 28.3008 19.4C28.3008 19.08 28.4768 18.92 28.8288 18.92H39.6128ZM54.7116 24.088C54.7223 24.12 54.7276 24.152 54.7276 24.184C54.7383 24.216 54.7436 24.248 54.7436 24.28C54.7436 24.536 54.5996 24.68 54.3116 24.712L53.3676 24.824C53.0476 24.8667 52.845 24.7333 52.7596 24.424L50.1036 15.016C50.093 14.984 50.0823 14.952 50.0716 14.92C50.0716 14.888 50.0716 14.856 50.0716 14.824C50.0716 14.568 50.2156 14.424 50.5036 14.392L51.4476 14.28C51.7676 14.2373 51.9703 14.376 52.0556 14.696L54.7116 24.088ZM44.1036 24.456C44.0076 24.7653 43.805 24.8987 43.4956 24.856L42.5676 24.744C42.269 24.712 42.1196 24.5627 42.1196 24.296C42.1196 24.264 42.1303 24.2053 42.1516 24.12L44.8556 14.728C44.9516 14.4187 45.1543 14.2853 45.4636 14.328L46.3916 14.44C46.6903 14.472 46.8396 14.6213 46.8396 14.888C46.8396 14.92 46.829 14.9787 46.8076 15.064L44.1036 24.456ZM53.8956 16.52C53.3943 16.52 52.9356 16.4133 52.5196 16.2C52.1036 15.9867 51.773 15.6987 51.5276 15.336C51.293 14.9627 51.1756 14.5413 51.1756 14.072C51.1756 13.6133 51.293 13.2027 51.5276 12.84C51.773 12.4667 52.1036 12.1733 52.5196 11.96C52.9356 11.7467 53.3943 11.64 53.8956 11.64C54.4076 11.64 54.8663 11.7467 55.2716 11.96C55.6876 12.1733 56.0183 12.4667 56.2636 12.84C56.509 13.2027 56.6316 13.6133 56.6316 14.072C56.6316 14.5413 56.509 14.9627 56.2636 15.336C56.0183 15.6987 55.6876 15.9867 55.2716 16.2C54.8663 16.4133 54.4076 16.52 53.8956 16.52ZM53.8476 15.704C54.0396 15.704 54.2263 15.6293 54.4076 15.48C54.5996 15.32 54.7543 15.1173 54.8716 14.872C54.9996 14.6267 55.0636 14.36 55.0636 14.072C55.0636 13.784 55.005 13.5173 54.8876 13.272C54.7703 13.0267 54.6156 12.8293 54.4236 12.68C54.2423 12.5307 54.0503 12.456 53.8476 12.456C53.6663 12.456 53.4796 12.5307 53.2876 12.68C53.0956 12.8293 52.941 13.0267 52.8236 13.272C52.7063 13.5173 52.6476 13.784 52.6476 14.072C52.6476 14.36 52.7063 14.6267 52.8236 14.872C52.9516 15.1173 53.1063 15.32 53.2876 15.48C53.4796 15.6293 53.6663 15.704 53.8476 15.704ZM68.7846 18.92C69.1366 18.92 69.3126 19.08 69.3126 19.4C69.3126 19.72 69.1366 19.88 68.7846 19.88H58.0006C57.6486 19.88 57.4726 19.72 57.4726 19.4C57.4726 19.08 57.6486 18.92 58.0006 18.92H68.7846Z" fill="#4F4737"/>
</svg>
