<svg width="420" height="324" viewBox="0 0 420 324" fill="none" xmlns="http://www.w3.org/2000/svg">
<rect x="4" y="2" width="412" height="316" fill="#D7C9AA"/>
<g filter="url(#filter0_d_277_314)">
<rect x="4" y="178" width="412" height="140" rx="4" fill="white"/>
<path d="M38.38 202.9C38.22 203.1 38.0267 203.2 37.8 203.2C37.7067 203.2 37.6 203.18 37.48 203.14L36.76 202.86C36.48 202.74 36.34 202.58 36.34 202.38C36.34 202.233 36.4 202.093 36.52 201.96L42.46 194.7C42.62 194.5 42.8133 194.4 43.04 194.4C43.1333 194.4 43.24 194.42 43.36 194.46L44.08 194.74C44.36 194.86 44.5 195.02 44.5 195.22C44.5 195.247 44.5 195.26 44.5 195.26C44.5267 195.287 44.5533 195.32 44.58 195.36L49.9 201.78C50.02 201.913 50.08 202.053 50.08 202.2C50.08 202.4 49.94 202.56 49.66 202.68L48.98 202.96C48.86 203 48.7533 203.02 48.66 203.02C48.4333 203.02 48.24 202.92 48.08 202.72L43.28 196.92L38.38 202.9ZM38.14 198.16C38.3267 198.293 38.42 198.44 38.42 198.6C38.42 198.787 38.3133 198.947 38.1 199.08L37.74 199.3C37.5933 199.393 37.4467 199.44 37.3 199.44C37.14 199.44 36.9867 199.387 36.84 199.28L33.5 196.84C33.3133 196.707 33.22 196.56 33.22 196.4C33.22 196.213 33.3267 196.053 33.54 195.92L33.9 195.7C34.0467 195.607 34.1933 195.56 34.34 195.56C34.5 195.56 34.6533 195.613 34.8 195.72L38.14 198.16ZM46.58 201.96C47.02 201.96 47.24 202.16 47.24 202.56C47.24 202.96 47.02 203.16 46.58 203.16H39.82C39.38 203.16 39.16 202.96 39.16 202.56C39.16 202.16 39.38 201.96 39.82 201.96H46.58ZM44.06 211.28C44.06 211.72 43.84 211.94 43.4 211.94H42.16C41.72 211.94 41.5 211.72 41.5 211.28V205.72V205.66H39.04C38.6 205.66 38.38 205.46 38.38 205.06C38.38 204.66 38.6 204.46 39.04 204.46H47.88C48.3333 204.46 48.5467 204.68 48.52 205.12L48.42 209.66C48.3933 210.127 48.1533 210.327 47.7 210.26L45.4 209.9C45.0267 209.86 44.84 209.693 44.84 209.4C44.84 209.373 44.84 209.347 44.84 209.32C44.8533 209.28 44.8667 209.24 44.88 209.2V209.18C45 208.793 45.2 208.62 45.48 208.66L45.88 208.72L45.94 205.66H44.06V205.72V211.28ZM37 207.2C37.16 207.04 37.3333 206.96 37.52 206.96C37.6533 206.96 37.7867 207 37.92 207.08L38.42 207.34C38.66 207.46 38.78 207.613 38.78 207.8C38.78 207.947 38.7 208.093 38.54 208.24L35.16 211.38C35 211.54 34.8267 211.62 34.64 211.62C34.52 211.62 34.3867 211.58 34.24 211.5L33.74 211.24C33.5 211.12 33.38 210.967 33.38 210.78C33.38 210.62 33.46 210.473 33.62 210.34L37 207.2ZM59.62 211.44C59.4733 211.547 59.3267 211.6 59.18 211.6C59.0333 211.6 58.8733 211.547 58.7 211.44L58.36 211.22C58.1467 211.073 58.04 210.913 58.04 210.74C58.04 210.567 58.14 210.413 58.34 210.28L62.62 207.28C62.66 207.253 62.7 207.227 62.74 207.2V207.1H60.66C60.62 207.473 60.4 207.66 60 207.66H58.76C58.32 207.66 58.1 207.44 58.1 207V198.98C58.1 198.54 58.32 198.32 58.76 198.32H60C60.44 198.32 60.66 198.527 60.66 198.94H62.74V197.64H58.32C57.88 197.64 57.66 197.44 57.66 197.04C57.66 196.64 57.88 196.44 58.32 196.44H62.74V195.42C62.74 194.98 62.96 194.76 63.4 194.76H64.64C65.08 194.76 65.3 194.98 65.3 195.42V196.44H69.46C69.9 196.44 70.12 196.64 70.12 197.04C70.12 197.44 69.9 197.64 69.46 197.64H65.3V198.94H68.98C69.42 198.94 69.64 199.16 69.64 199.6V206.52C69.64 206.96 69.42 207.18 68.98 207.18H67.74C67.5933 207.18 67.4733 207.153 67.38 207.1H65.3V207.14C65.42 207.167 65.5467 207.227 65.68 207.32L69.48 210.28C69.6667 210.427 69.76 210.58 69.76 210.74C69.76 210.9 69.6467 211.053 69.42 211.2L69.04 211.44C68.8933 211.533 68.7467 211.58 68.6 211.58C68.44 211.58 68.28 211.52 68.12 211.4L65.3 209.2V211.52C65.3 211.96 65.08 212.18 64.64 212.18H63.4C62.96 212.18 62.74 211.96 62.74 211.52V209.26L59.62 211.44ZM57 198.12C57.1333 198.253 57.2 198.4 57.2 198.56C57.2 198.76 57.0667 198.92 56.8 199.04L56.18 199.3C56.0733 199.353 55.96 199.38 55.84 199.38C55.6533 199.38 55.4667 199.287 55.28 199.1L53.2 196.88C53.0667 196.747 53 196.6 53 196.44C53 196.24 53.1333 196.08 53.4 195.96L54.02 195.7C54.1267 195.647 54.24 195.62 54.36 195.62C54.5467 195.62 54.7333 195.713 54.92 195.9L57 198.12ZM60.66 202.14H62.74V200.14H60.66V202.14ZM67.08 200.14H65.3V202.14H67.08V200.14ZM60.66 205.9H62.74V203.34H60.66V205.9ZM65.3 205.9H67.08V203.34H65.3V205.9ZM55.4 207.2C55.5467 206.973 55.74 206.86 55.98 206.86C56.02 206.86 56.06 206.86 56.1 206.86C56.1533 206.86 56.2067 206.873 56.26 206.9L57.06 207.16C57.3533 207.253 57.5 207.42 57.5 207.66C57.5 207.78 57.4533 207.907 57.36 208.04L55.16 211.18C55.0133 211.407 54.8133 211.52 54.56 211.52C54.52 211.52 54.4733 211.513 54.42 211.5C54.38 211.5 54.3333 211.493 54.28 211.48L53.48 211.22C53.1867 211.127 53.04 210.96 53.04 210.72C53.04 210.6 53.0867 210.473 53.18 210.34L55.4 207.2ZM75.14 211.72C75.1 212.16 74.8667 212.367 74.44 212.34L73.2 212.3C72.7467 212.273 72.54 212.04 72.58 211.6L73.7 197.76C73.74 197.32 73.9733 197.113 74.4 197.14L75.64 197.18C75.8933 197.193 76.0733 197.287 76.18 197.46H81.36C81.32 197.367 81.3 197.26 81.3 197.14V195.48C81.3 195.04 81.52 194.82 81.96 194.82H83.2C83.64 194.82 83.86 195.04 83.86 195.48V197.14C83.86 197.26 83.84 197.367 83.8 197.46H89.82C90.26 197.46 90.48 197.66 90.48 198.06C90.48 198.46 90.26 198.66 89.82 198.66H76.2L75.14 211.72ZM76.1 202.82C76.1 202.38 76.32 202.16 76.76 202.16H78C78.1467 202.16 78.2667 202.187 78.36 202.24H81.7V201.54H76.92C76.48 201.54 76.26 201.34 76.26 200.94C76.26 200.54 76.48 200.34 76.92 200.34H81.7V199.56C81.7 199.12 81.92 198.9 82.36 198.9H83.6C84.04 198.9 84.26 199.12 84.26 199.56V200.34H89C89.44 200.34 89.66 200.54 89.66 200.94C89.66 201.34 89.44 201.54 89 201.54H84.26V202.24H89.16C89.6 202.24 89.82 202.46 89.82 202.9V208.04C89.82 208.48 89.6 208.7 89.16 208.7H87.92H87.9H87.88H84.26V209.36H89.48C89.92 209.36 90.14 209.56 90.14 209.96C90.14 210.36 89.92 210.56 89.48 210.56H84.26V211.64C84.26 212.08 84.04 212.3 83.6 212.3H82.36C81.92 212.3 81.7 212.08 81.7 211.64V210.56H76.46C76.02 210.56 75.8 210.36 75.8 209.96C75.8 209.56 76.02 209.36 76.46 209.36H81.7V208.7H78.52C78.4 208.833 78.2267 208.9 78 208.9H76.76C76.32 208.9 76.1 208.68 76.1 208.24V202.82ZM78.66 204.82H81.7V203.44H78.66V204.82ZM87.26 203.44H84.26V204.82H87.26V203.44ZM78.66 207.5H81.7V206.02H78.66V207.5ZM84.26 207.5H87.26V206.02H84.26V207.5Z" fill="#2F2A1F" fill-opacity="0.7"/>
<rect x="20.5" y="226.5" width="379" height="73" rx="3.5" stroke="#4F4737" stroke-dasharray="5 5"/>
</g>
<g filter="url(#filter1_d_277_314)">
<rect x="4" y="2" width="412" height="140" rx="4" fill="white"/>
<path d="M38.38 26.9C38.22 27.1 38.0267 27.2 37.8 27.2C37.7067 27.2 37.6 27.18 37.48 27.14L36.76 26.86C36.48 26.74 36.34 26.58 36.34 26.38C36.34 26.2333 36.4 26.0933 36.52 25.96L42.46 18.7C42.62 18.5 42.8133 18.4 43.04 18.4C43.1333 18.4 43.24 18.42 43.36 18.46L44.08 18.74C44.36 18.86 44.5 19.02 44.5 19.22C44.5 19.2467 44.5 19.26 44.5 19.26C44.5267 19.2867 44.5533 19.32 44.58 19.36L49.9 25.78C50.02 25.9133 50.08 26.0533 50.08 26.2C50.08 26.4 49.94 26.56 49.66 26.68L48.98 26.96C48.86 27 48.7533 27.02 48.66 27.02C48.4333 27.02 48.24 26.92 48.08 26.72L43.28 20.92L38.38 26.9ZM38.14 22.16C38.3267 22.2933 38.42 22.44 38.42 22.6C38.42 22.7867 38.3133 22.9467 38.1 23.08L37.74 23.3C37.5933 23.3933 37.4467 23.44 37.3 23.44C37.14 23.44 36.9867 23.3867 36.84 23.28L33.5 20.84C33.3133 20.7067 33.22 20.56 33.22 20.4C33.22 20.2133 33.3267 20.0533 33.54 19.92L33.9 19.7C34.0467 19.6067 34.1933 19.56 34.34 19.56C34.5 19.56 34.6533 19.6133 34.8 19.72L38.14 22.16ZM46.58 25.96C47.02 25.96 47.24 26.16 47.24 26.56C47.24 26.96 47.02 27.16 46.58 27.16H39.82C39.38 27.16 39.16 26.96 39.16 26.56C39.16 26.16 39.38 25.96 39.82 25.96H46.58ZM44.06 35.28C44.06 35.72 43.84 35.94 43.4 35.94H42.16C41.72 35.94 41.5 35.72 41.5 35.28V29.72V29.66H39.04C38.6 29.66 38.38 29.46 38.38 29.06C38.38 28.66 38.6 28.46 39.04 28.46H47.88C48.3333 28.46 48.5467 28.68 48.52 29.12L48.42 33.66C48.3933 34.1267 48.1533 34.3267 47.7 34.26L45.4 33.9C45.0267 33.86 44.84 33.6933 44.84 33.4C44.84 33.3733 44.84 33.3467 44.84 33.32C44.8533 33.28 44.8667 33.24 44.88 33.2V33.18C45 32.7933 45.2 32.62 45.48 32.66L45.88 32.72L45.94 29.66H44.06V29.72V35.28ZM37 31.2C37.16 31.04 37.3333 30.96 37.52 30.96C37.6533 30.96 37.7867 31 37.92 31.08L38.42 31.34C38.66 31.46 38.78 31.6133 38.78 31.8C38.78 31.9467 38.7 32.0933 38.54 32.24L35.16 35.38C35 35.54 34.8267 35.62 34.64 35.62C34.52 35.62 34.3867 35.58 34.24 35.5L33.74 35.24C33.5 35.12 33.38 34.9667 33.38 34.78C33.38 34.62 33.46 34.4733 33.62 34.34L37 31.2ZM58.94 22.76C58.94 23.2 58.72 23.42 58.28 23.42H57.04C56.6 23.42 56.38 23.2 56.38 22.76V21.98H53.36C52.92 21.98 52.7 21.78 52.7 21.38C52.7 20.98 52.92 20.78 53.36 20.78H56.38V19.48C56.38 19.04 56.6 18.82 57.04 18.82H58.28C58.72 18.82 58.94 19.04 58.94 19.48V20.78H64.32V19.42C64.32 18.98 64.54 18.76 64.98 18.76H66.22C66.66 18.76 66.88 18.98 66.88 19.42V20.78H69.64C70.08 20.78 70.3 20.98 70.3 21.38C70.3 21.78 70.08 21.98 69.64 21.98H66.88V22.76C66.88 23.2 66.66 23.42 66.22 23.42H64.98C64.54 23.42 64.32 23.2 64.32 22.76V21.98H58.94V22.76ZM55.36 35.36C55.32 35.7867 55.0933 35.9933 54.68 35.98L53.44 35.94C53.2267 35.9267 53.06 35.86 52.94 35.74C52.8333 35.62 52.7867 35.4533 52.8 35.24L53.5 26C53.5133 25.8133 53.5667 25.6733 53.66 25.58C53.62 25.5 53.6 25.4067 53.6 25.3C53.6 24.9 53.82 24.7 54.26 24.7H62.14L61.66 23.48C61.62 23.3733 61.6 23.2733 61.6 23.18C61.6 22.9 61.7667 22.7267 62.1 22.66L63.14 22.46C63.18 22.4467 63.24 22.44 63.32 22.44C63.6267 22.44 63.84 22.6 63.96 22.92L64.66 24.7H69.48C69.92 24.7 70.14 24.9 70.14 25.3C70.14 25.7 69.92 25.9 69.48 25.9H65.14L66.6 29.58L67.64 27.72C67.7867 27.4533 67.9867 27.32 68.24 27.32C68.28 27.32 68.32 27.3267 68.36 27.34C68.4 27.34 68.44 27.3467 68.48 27.36L69.42 27.6C69.74 27.68 69.9 27.8467 69.9 28.1C69.9 28.1933 69.86 28.3133 69.78 28.46L67.66 32.24L68.46 34.24L69.06 34.08C69.1667 34.0533 69.24 34.04 69.28 34.04C69.5467 34.04 69.7533 34.18 69.9 34.46C69.9667 34.5933 70 34.7 70 34.78C70 35.0467 69.84 35.22 69.52 35.3L67.22 35.88C67.18 35.8933 67.14 35.9 67.1 35.9C67.06 35.9133 67.02 35.92 66.98 35.92C66.7133 35.92 66.52 35.7667 66.4 35.46L66.18 34.9L65.92 35.38C65.7733 35.6467 65.5733 35.78 65.32 35.78C65.28 35.78 65.24 35.7733 65.2 35.76C65.16 35.76 65.12 35.7533 65.08 35.74L64.14 35.5C63.82 35.42 63.66 35.2533 63.66 35C63.66 34.8933 63.7 34.7733 63.78 34.64L65.12 32.24L62.62 25.9H56.04C56.0533 25.9667 56.0533 26.04 56.04 26.12L55.36 35.36ZM69.84 23.26C69.96 23.3933 70.02 23.5333 70.02 23.68C70.02 23.8933 69.8867 24.0533 69.62 24.16L68.92 24.44C68.8 24.48 68.6933 24.5 68.6 24.5C68.3733 24.5 68.18 24.4067 68.02 24.22L67.6 23.72C67.48 23.5733 67.42 23.4333 67.42 23.3C67.42 23.0867 67.5533 22.9267 67.82 22.82L68.52 22.54C68.64 22.5 68.7467 22.48 68.84 22.48C69.0533 22.48 69.24 22.5733 69.4 22.76L69.84 23.26ZM61.68 34.14V34.2H62.3C62.74 34.2 62.96 34.4 62.96 34.8C62.96 35.2 62.74 35.4 62.3 35.4H58.32C58.2267 35.44 58.12 35.46 58 35.46H56.76C56.32 35.46 56.1 35.24 56.1 34.8V27.82C56.1 27.38 56.32 27.16 56.76 27.16H57.84C57.9067 27.1467 57.9733 27.14 58.04 27.14H62.26C62.7 27.14 62.92 27.34 62.92 27.74C62.92 28.14 62.7 28.34 62.26 28.34H61.74V28.4V29.44V29.5H62.42C62.86 29.5 63.08 29.72 63.08 30.16V32.66C63.08 33.1 62.86 33.32 62.42 33.32H61.68V34.14ZM59.58 28.4V28.34H58.66V29.5H59.58V29.44V28.4ZM60.52 30.7H58.66V31.94H60.52V30.7ZM59.52 33.2V33.14H58.66V34.2H59.52V34.14V33.2ZM75.14 35.72C75.1 36.16 74.8667 36.3667 74.44 36.34L73.2 36.3C72.7467 36.2733 72.54 36.04 72.58 35.6L73.7 21.76C73.74 21.32 73.9733 21.1133 74.4 21.14L75.64 21.18C75.8933 21.1933 76.0733 21.2867 76.18 21.46H81.36C81.32 21.3667 81.3 21.26 81.3 21.14V19.48C81.3 19.04 81.52 18.82 81.96 18.82H83.2C83.64 18.82 83.86 19.04 83.86 19.48V21.14C83.86 21.26 83.84 21.3667 83.8 21.46H89.82C90.26 21.46 90.48 21.66 90.48 22.06C90.48 22.46 90.26 22.66 89.82 22.66H76.2L75.14 35.72ZM76.1 26.82C76.1 26.38 76.32 26.16 76.76 26.16H78C78.1467 26.16 78.2667 26.1867 78.36 26.24H81.7V25.54H76.92C76.48 25.54 76.26 25.34 76.26 24.94C76.26 24.54 76.48 24.34 76.92 24.34H81.7V23.56C81.7 23.12 81.92 22.9 82.36 22.9H83.6C84.04 22.9 84.26 23.12 84.26 23.56V24.34H89C89.44 24.34 89.66 24.54 89.66 24.94C89.66 25.34 89.44 25.54 89 25.54H84.26V26.24H89.16C89.6 26.24 89.82 26.46 89.82 26.9V32.04C89.82 32.48 89.6 32.7 89.16 32.7H87.92H87.9H87.88H84.26V33.36H89.48C89.92 33.36 90.14 33.56 90.14 33.96C90.14 34.36 89.92 34.56 89.48 34.56H84.26V35.64C84.26 36.08 84.04 36.3 83.6 36.3H82.36C81.92 36.3 81.7 36.08 81.7 35.64V34.56H76.46C76.02 34.56 75.8 34.36 75.8 33.96C75.8 33.56 76.02 33.36 76.46 33.36H81.7V32.7H78.52C78.4 32.8333 78.2267 32.9 78 32.9H76.76C76.32 32.9 76.1 32.68 76.1 32.24V26.82ZM78.66 28.82H81.7V27.44H78.66V28.82ZM87.26 27.44H84.26V28.82H87.26V27.44ZM78.66 31.5H81.7V30.02H78.66V31.5ZM84.26 31.5H87.26V30.02H84.26V31.5Z" fill="#2F2A1F" fill-opacity="0.7"/>
<rect x="20" y="50" width="380" height="74.0775" rx="4" fill="white"/>
<rect x="20.5" y="50.5" width="379" height="73.0775" rx="3.5" fill="#F8F5F2" stroke="#FEFCE8"/>
<path d="M87.04 105.42C87.04 105.728 86.886 105.882 86.578 105.882H85.71C85.4767 105.882 85.332 105.784 85.276 105.588H78.682C78.6167 105.747 78.4767 105.826 78.262 105.826H77.394C77.086 105.826 76.932 105.672 76.932 105.364V101.248C76.932 100.94 77.086 100.786 77.394 100.786H78.262C78.43 100.786 78.5513 100.837 78.626 100.94H86.578C86.886 100.94 87.04 101.094 87.04 101.402V105.42ZM85.248 101.78H78.724V102.858H85.248V101.78ZM78.724 104.748H85.248V103.698H78.724V104.748ZM82.252 112.112C82.252 112.42 82.098 112.574 81.79 112.574H80.922C80.614 112.574 80.46 112.42 80.46 112.112V111.72L76.512 112.294C76.232 112.331 76.05 112.219 75.966 111.958C75.9567 111.93 75.9473 111.907 75.938 111.888C75.938 111.86 75.938 111.837 75.938 111.818C75.938 111.603 76.0687 111.482 76.33 111.454L76.89 111.37C76.8807 111.333 76.876 111.286 76.876 111.23V107.17V107.128H76.47C76.162 107.128 76.008 106.988 76.008 106.708C76.008 106.428 76.162 106.288 76.47 106.288H87.586C87.894 106.288 88.048 106.428 88.048 106.708C88.048 106.988 87.894 107.128 87.586 107.128H82.252V107.17V112.112ZM78.668 107.17V107.8H80.46V107.17V107.128H78.668V107.17ZM84.016 112.504C83.904 112.663 83.7733 112.742 83.624 112.742C83.5587 112.742 83.484 112.728 83.4 112.7L82.84 112.504C82.6347 112.429 82.532 112.317 82.532 112.168C82.532 112.084 82.5693 111.991 82.644 111.888L83.708 110.418L83.204 109.984C83.0827 109.881 83.022 109.774 83.022 109.662C83.022 109.531 83.1013 109.424 83.26 109.34L83.582 109.172C83.6847 109.116 83.7827 109.088 83.876 109.088C83.9973 109.088 84.1093 109.135 84.212 109.228L84.436 109.424L85.094 108.514H83.078C82.77 108.514 82.616 108.374 82.616 108.094C82.616 107.814 82.77 107.674 83.078 107.674H86.802C87.0727 107.674 87.208 107.767 87.208 107.954C87.208 108.019 87.1707 108.113 87.096 108.234L85.556 110.362L87.32 111.86C87.4413 111.963 87.502 112.07 87.502 112.182C87.502 112.313 87.4227 112.42 87.264 112.504L86.942 112.672C86.8487 112.728 86.7507 112.756 86.648 112.756C86.5267 112.756 86.4147 112.709 86.312 112.616L84.842 111.37L84.016 112.504ZM78.668 109.48H80.46V108.64H78.668V109.48ZM78.668 110.32V111.104L80.46 110.852V110.32H78.668ZM93.606 112.308C93.606 112.616 93.4707 112.77 93.2 112.77H92.416C92.1453 112.77 92.01 112.616 92.01 112.308V108.318C92.01 108.299 92.01 108.285 92.01 108.276L90.316 108.402C90.036 108.421 89.896 108.332 89.896 108.136C89.896 108.052 89.9287 107.959 89.994 107.856L91.38 105.854L91.366 105.84L90.078 104.244C89.994 104.132 89.952 104.025 89.952 103.922C89.952 103.819 89.994 103.712 90.078 103.6L92.528 100.632C92.64 100.492 92.7753 100.422 92.934 100.422C92.9993 100.422 93.074 100.436 93.158 100.464L93.634 100.66C93.83 100.744 93.928 100.856 93.928 100.996C93.928 101.08 93.886 101.173 93.802 101.276L91.632 103.922L92.234 104.65L92.85 103.754C92.9527 103.595 93.088 103.516 93.256 103.516C93.284 103.516 93.312 103.516 93.34 103.516C93.3773 103.516 93.4147 103.525 93.452 103.544L94.04 103.726C94.2453 103.801 94.348 103.917 94.348 104.076C94.348 104.16 94.3153 104.249 94.25 104.342L92.108 107.422L93.704 107.296L93.382 106.218C93.3727 106.19 93.368 106.148 93.368 106.092C93.368 105.905 93.494 105.798 93.746 105.77L94.558 105.686C94.8473 105.658 95.0293 105.765 95.104 106.008L95.65 107.87C95.6687 107.926 95.678 107.973 95.678 108.01C95.678 108.187 95.5473 108.29 95.286 108.318L94.474 108.402C94.334 108.411 94.2173 108.393 94.124 108.346C94.0307 108.29 93.9747 108.22 93.956 108.136L93.592 108.164C93.6013 108.211 93.606 108.262 93.606 108.318V112.308ZM96.812 109.424C96.7 109.583 96.5647 109.662 96.406 109.662C96.3407 109.662 96.2707 109.648 96.196 109.62L95.636 109.438C95.4307 109.363 95.328 109.251 95.328 109.102C95.328 109.018 95.3653 108.925 95.44 108.822L97.624 105.77L97.064 105.112L96.854 105.602C96.77 105.807 96.63 105.91 96.434 105.91C96.3687 105.91 96.3173 105.905 96.28 105.896L95.566 105.756C95.3327 105.7 95.216 105.579 95.216 105.392C95.216 105.355 95.2207 105.317 95.23 105.28C95.2487 105.243 95.2627 105.205 95.272 105.168L97.134 100.996C97.218 100.791 97.358 100.688 97.554 100.688C97.6193 100.688 97.6707 100.693 97.708 100.702L98.422 100.842C98.6553 100.898 98.772 101.019 98.772 101.206C98.772 101.243 98.7673 101.281 98.758 101.318C98.7487 101.346 98.7347 101.383 98.716 101.43L98.38 102.186H101.32C101.581 102.186 101.712 102.275 101.712 102.452C101.712 102.527 101.675 102.625 101.6 102.746L99.43 105.77L102.034 108.822C102.118 108.915 102.16 109.009 102.16 109.102C102.16 109.251 102.067 109.363 101.88 109.438L101.39 109.634C101.306 109.662 101.231 109.676 101.166 109.676C101.017 109.676 100.886 109.606 100.774 109.466L98.604 106.918L96.812 109.424ZM97.848 103.908L98.45 104.622L99.598 103.026H98.002L97.68 103.754C97.736 103.791 97.792 103.843 97.848 103.908ZM100.158 109.606C100.317 109.69 100.396 109.797 100.396 109.928C100.396 110.04 100.331 110.147 100.2 110.25L100.032 110.39C99.9293 110.483 99.8127 110.53 99.682 110.53C99.5793 110.53 99.4813 110.497 99.388 110.432L97.68 109.41C97.5213 109.326 97.442 109.219 97.442 109.088C97.442 108.976 97.5073 108.869 97.638 108.766L97.806 108.626C97.9087 108.533 98.0253 108.486 98.156 108.486C98.2587 108.486 98.3567 108.519 98.45 108.584L100.158 109.606ZM91.674 111.706C91.646 111.995 91.52 112.135 91.296 112.126L90.624 112.084C90.372 112.065 90.26 111.902 90.288 111.594L90.442 109.48C90.47 109.181 90.596 109.041 90.82 109.06L91.492 109.102C91.744 109.121 91.856 109.284 91.828 109.592L91.674 111.706ZM95.496 111.37C95.524 111.687 95.4027 111.855 95.132 111.874L94.39 111.916C94.1473 111.935 94.012 111.79 93.984 111.482L93.83 109.732C93.802 109.415 93.9187 109.247 94.18 109.228L94.922 109.186C95.174 109.177 95.314 109.321 95.342 109.62L95.496 111.37ZM100.018 111.86C100.177 111.944 100.256 112.051 100.256 112.182C100.256 112.294 100.191 112.401 100.06 112.504L99.892 112.644C99.7893 112.737 99.6727 112.784 99.542 112.784C99.4393 112.784 99.3413 112.751 99.248 112.686L97.414 111.58C97.2553 111.496 97.176 111.389 97.176 111.258C97.176 111.146 97.2413 111.039 97.372 110.936L97.54 110.796C97.6427 110.703 97.7593 110.656 97.89 110.656C97.9927 110.656 98.0907 110.689 98.184 110.754L100.018 111.86ZM104.834 112.7C104.675 112.719 104.545 112.686 104.442 112.602C104.349 112.518 104.302 112.392 104.302 112.224C104.302 112.019 104.433 111.893 104.694 111.846C105.683 111.65 106.533 111.132 107.242 110.292L105.982 109.9C105.767 109.825 105.66 109.713 105.66 109.564C105.66 109.508 105.683 109.433 105.73 109.34L105.772 109.27C105.884 109.102 106.019 109.018 106.178 109.018C106.253 109.018 106.323 109.032 106.388 109.06L107.816 109.508C108.031 109.144 108.227 108.747 108.404 108.318H106.71C106.635 108.383 106.533 108.416 106.402 108.416H105.534C105.226 108.416 105.072 108.262 105.072 107.954V103.18C105.072 102.872 105.226 102.718 105.534 102.718H106.402C106.561 102.718 106.682 102.765 106.766 102.858H109.482C109.491 102.522 109.501 102.181 109.51 101.836C109.51 101.808 109.51 101.789 109.51 101.78H104.386C104.078 101.78 103.924 101.64 103.924 101.36C103.924 101.08 104.078 100.94 104.386 100.94H115.488C115.796 100.94 115.95 101.08 115.95 101.36C115.95 101.64 115.796 101.78 115.488 101.78H111.274C111.283 101.864 111.288 101.962 111.288 102.074C111.279 102.345 111.269 102.606 111.26 102.858H114.55C114.858 102.858 115.012 103.012 115.012 103.32V107.954C115.012 108.262 114.858 108.416 114.55 108.416H113.682C113.551 108.416 113.449 108.383 113.374 108.318H110.196C109.944 108.925 109.65 109.475 109.314 109.97L115.628 111.916C115.843 111.991 115.95 112.103 115.95 112.252C115.95 112.308 115.927 112.383 115.88 112.476L115.838 112.546C115.726 112.714 115.591 112.798 115.432 112.798C115.367 112.798 115.297 112.784 115.222 112.756L108.684 110.74C107.695 111.804 106.411 112.457 104.834 112.7ZM106.864 105.294H109.23C109.305 104.79 109.365 104.258 109.412 103.698H106.864V105.294ZM113.22 103.698H111.204C111.157 104.258 111.092 104.79 111.008 105.294H113.22V103.698ZM106.864 107.478H108.712C108.852 107.058 108.969 106.61 109.062 106.134H106.864V107.478ZM110.504 107.478H113.22V106.134H110.854C110.751 106.61 110.635 107.058 110.504 107.478ZM119.24 112.294C119.128 112.434 118.993 112.504 118.834 112.504C118.769 112.504 118.694 112.49 118.61 112.462L118.106 112.266C117.91 112.182 117.812 112.065 117.812 111.916C117.812 111.813 117.849 111.72 117.924 111.636L119.954 109.088H118.134C117.826 109.088 117.672 108.948 117.672 108.668C117.672 108.388 117.826 108.248 118.134 108.248H120.318V107.184V107.142H118.134C117.826 107.142 117.672 107.002 117.672 106.722C117.672 106.442 117.826 106.302 118.134 106.302H118.792V106.288L118.638 103.18V103.11H118.456C118.148 103.11 117.994 102.97 117.994 102.69C117.994 102.41 118.148 102.27 118.456 102.27H120.206V102.228V100.87C120.206 100.562 120.36 100.408 120.668 100.408H121.536C121.844 100.408 121.998 100.562 121.998 100.87V102.228V102.27H123.608C123.916 102.27 124.07 102.41 124.07 102.69C124.07 102.821 124.033 102.923 123.958 102.998C123.883 103.073 123.785 103.11 123.664 103.11C123.673 103.138 123.673 103.18 123.664 103.236L123.174 106.302H123.566C123.874 106.302 124.028 106.442 124.028 106.722C124.028 107.002 123.874 107.142 123.566 107.142H122.11V107.184V108.248H123.328C123.636 108.248 123.79 108.388 123.79 108.668C123.79 108.948 123.636 109.088 123.328 109.088H122.11L123.608 110.25C123.739 110.353 123.804 110.455 123.804 110.558C123.804 110.679 123.72 110.791 123.552 110.894L123.272 111.062C123.179 111.127 123.081 111.16 122.978 111.16C122.847 111.16 122.731 111.113 122.628 111.02L122.11 110.614V112.532C122.11 112.84 121.956 112.994 121.648 112.994H120.78C120.472 112.994 120.318 112.84 120.318 112.532V110.95L119.24 112.294ZM125.68 112.294C125.661 112.611 125.498 112.761 125.19 112.742L124.322 112.714C124.014 112.695 123.869 112.537 123.888 112.238L124.35 103.698C124.359 103.577 124.392 103.479 124.448 103.404C124.439 103.376 124.434 103.348 124.434 103.32C124.434 103.189 124.513 103.082 124.672 102.998L129.082 100.562C129.185 100.506 129.273 100.478 129.348 100.478C129.469 100.478 129.591 100.529 129.712 100.632L129.838 100.744C129.959 100.856 130.02 100.963 130.02 101.066C130.02 101.197 129.941 101.304 129.782 101.388L126.058 103.446C126.123 103.521 126.151 103.623 126.142 103.754L126.072 105.042H129.684C129.992 105.042 130.146 105.182 130.146 105.462C130.146 105.742 129.992 105.882 129.684 105.882H129.138V105.924V112.49C129.138 112.798 128.984 112.952 128.676 112.952H127.808C127.5 112.952 127.346 112.798 127.346 112.49V105.924V105.882H126.03L125.68 112.294ZM120.584 106.232V106.302H121.41C121.401 106.274 121.401 106.232 121.41 106.176L121.9 103.11H120.43V103.124L120.584 106.232ZM143.04 112.518C143.04 112.826 142.886 112.98 142.578 112.98H141.71C141.402 112.98 141.248 112.826 141.248 112.518V112.42H134.724C134.705 112.709 134.551 112.854 134.262 112.854H133.394C133.086 112.854 132.932 112.7 132.932 112.392V101.528C132.932 101.22 133.086 101.066 133.394 101.066H134.262C134.43 101.066 134.551 101.117 134.626 101.22H142.578C142.886 101.22 143.04 101.374 143.04 101.682V112.518ZM141.248 102.06H134.724V106.484H141.248V102.06ZM134.724 111.58H141.248V107.324H134.724V111.58ZM150.88 105.336C150.88 105.205 150.927 105.093 151.02 105C151.113 104.907 151.225 104.86 151.356 104.86H152.28C152.411 104.86 152.523 104.907 152.616 105C152.709 105.093 152.756 105.205 152.756 105.336V105.98C152.756 106.111 152.709 106.223 152.616 106.316C152.523 106.409 152.411 106.456 152.28 106.456H151.356C151.225 106.456 151.113 106.409 151.02 106.316C150.927 106.223 150.88 106.111 150.88 105.98V105.336ZM150.88 109.9C150.88 109.769 150.927 109.657 151.02 109.564C151.113 109.471 151.225 109.424 151.356 109.424H152.28C152.411 109.424 152.523 109.471 152.616 109.564C152.709 109.657 152.756 109.769 152.756 109.9V110.544C152.756 110.675 152.709 110.787 152.616 110.88C152.523 110.973 152.411 111.02 152.28 111.02H151.356C151.225 111.02 151.113 110.973 151.02 110.88C150.927 110.787 150.88 110.675 150.88 110.544V109.9ZM161.324 106.414C161.212 106.526 161.095 106.582 160.974 106.582C160.89 106.582 160.797 106.554 160.694 106.498L160.316 106.316C160.148 106.232 160.064 106.12 160.064 105.98C160.064 105.877 160.115 105.775 160.218 105.672L165.622 100.506C165.734 100.394 165.851 100.338 165.972 100.338C166.065 100.338 166.159 100.366 166.252 100.422L166.63 100.604C166.798 100.688 166.882 100.8 166.882 100.94V100.954L166.896 100.968L171.754 105.546C171.857 105.649 171.908 105.751 171.908 105.854C171.908 105.994 171.824 106.106 171.656 106.19L171.278 106.372C171.166 106.419 171.073 106.442 170.998 106.442C170.867 106.442 170.751 106.391 170.648 106.288L166.014 101.92L161.324 106.414ZM169.122 105.672C169.43 105.672 169.584 105.812 169.584 106.092C169.584 106.372 169.43 106.512 169.122 106.512H162.808C162.5 106.512 162.346 106.372 162.346 106.092C162.346 105.812 162.5 105.672 162.808 105.672H169.122ZM166.322 112.574C166.201 112.695 166.075 112.756 165.944 112.756C165.888 112.756 165.804 112.733 165.692 112.686L165.3 112.504C165.123 112.42 165.034 112.308 165.034 112.168C165.034 112.065 165.085 111.963 165.188 111.86L168.73 108.318H161.436C161.128 108.318 160.974 108.178 160.974 107.898C160.974 107.618 161.128 107.478 161.436 107.478H170.634C170.895 107.478 171.026 107.567 171.026 107.744C171.026 107.847 170.975 107.949 170.872 108.052L166.322 112.574ZM185.04 112.518C185.04 112.826 184.886 112.98 184.578 112.98H183.71C183.402 112.98 183.248 112.826 183.248 112.518V112.42H176.724C176.705 112.709 176.551 112.854 176.262 112.854H175.394C175.086 112.854 174.932 112.7 174.932 112.392V101.528C174.932 101.22 175.086 101.066 175.394 101.066H176.262C176.43 101.066 176.551 101.117 176.626 101.22H184.578C184.886 101.22 185.04 101.374 185.04 101.682V112.518ZM183.248 102.06H176.724V106.484H183.248V102.06ZM176.724 111.58H183.248V107.324H176.724V111.58Z" fill="#2F2A1F" fill-opacity="0.7"/>
<path d="M89.06 66.18C89.0733 66.2333 89.08 66.3067 89.08 66.4C89.08 66.7067 88.9067 66.8933 88.56 66.96L87.98 67.06C87.5533 67.1267 87.2933 66.9533 87.2 66.54L86.18 62.62C86.1667 62.58 86.1533 62.54 86.14 62.5C86.14 62.46 86.14 62.42 86.14 62.38C86.14 62.0867 86.32 61.9067 86.68 61.84L87.26 61.74C87.6867 61.6733 87.9467 61.8467 88.04 62.26L89.06 66.18ZM86.86 67.4C86.8733 67.4533 86.88 67.5267 86.88 67.62C86.88 67.9533 86.7 68.14 86.34 68.18L85.76 68.26C85.3467 68.3267 85.0933 68.1533 85 67.74L83.96 63.54C83.9467 63.4867 83.94 63.4133 83.94 63.32C83.94 62.9867 84.12 62.8 84.48 62.76L85.06 62.68C85.4867 62.6133 85.7467 62.7867 85.84 63.2L86.86 67.4ZM80.76 78.18C80.76 78.62 80.54 78.84 80.1 78.84H78.86C78.42 78.84 78.2 78.62 78.2 78.18V64.28C78.2 63.84 78.42 63.62 78.86 63.62H80.1C80.54 63.62 80.76 63.84 80.76 64.28V69.96L88 72.3C88.3067 72.4067 88.46 72.5667 88.46 72.78C88.46 72.8867 88.42 73 88.34 73.12L88.26 73.22C88.1133 73.4467 87.92 73.56 87.68 73.56C87.64 73.56 87.5933 73.56 87.54 73.56C87.5 73.5467 87.4533 73.5333 87.4 73.52L80.76 71.38V78.18ZM105.982 71.54C106.089 71.4867 106.209 71.46 106.342 71.46C106.542 71.46 106.722 71.54 106.882 71.7L106.982 71.8C107.129 71.9467 107.202 72.0933 107.202 72.24C107.202 72.44 107.076 72.6 106.822 72.72L94.0822 78.56C93.9755 78.6133 93.8689 78.64 93.7622 78.64C93.4555 78.64 93.3022 78.4467 93.3022 78.06V64.42C93.3022 63.98 93.5222 63.76 93.9622 63.76H95.2022C95.6422 63.76 95.8622 63.98 95.8622 64.42V76.16L105.982 71.54ZM115.728 71.6C115.741 71.64 115.748 71.6933 115.748 71.76C115.748 72.1067 115.548 72.3 115.148 72.34L113.948 72.44C113.534 72.48 113.288 72.2867 113.208 71.86L112.668 68.78C112.654 68.74 112.648 68.6867 112.648 68.62C112.648 68.2733 112.848 68.08 113.248 68.04L114.448 67.94C114.861 67.9 115.108 68.0933 115.188 68.52L115.728 71.6ZM112.448 72.1C112.461 72.1533 112.468 72.2267 112.468 72.32C112.468 72.64 112.288 72.82 111.928 72.86L110.768 73C110.354 73.04 110.094 72.86 109.988 72.46L109.228 69.38C109.214 69.34 109.208 69.3 109.208 69.26C109.208 69.22 109.208 69.1867 109.208 69.16C109.208 68.84 109.388 68.66 109.748 68.62L110.908 68.48C111.308 68.44 111.561 68.62 111.668 69.02L112.448 72.1ZM116.788 78.18C116.654 78.4733 116.441 78.62 116.148 78.62C116.121 78.62 116.088 78.62 116.048 78.62C116.008 78.62 115.974 78.6133 115.948 78.6L114.928 78.36C114.608 78.28 114.448 78.1133 114.448 77.86C114.448 77.74 114.474 77.6267 114.528 77.52L118.568 69.18C118.701 68.8867 118.914 68.74 119.208 68.74C119.234 68.74 119.268 68.74 119.308 68.74C119.348 68.74 119.381 68.7467 119.408 68.76L120.428 69C120.748 69.08 120.908 69.2467 120.908 69.5C120.908 69.62 120.881 69.7333 120.828 69.84L116.788 78.18ZM130.145 65.9C130.412 66.02 130.545 66.18 130.545 66.38C130.545 66.5 130.485 66.6333 130.365 66.78L130.245 66.92C130.085 67.0933 129.905 67.18 129.705 67.18C129.612 67.18 129.485 67.1467 129.325 67.08L124.605 64.94C124.338 64.82 124.205 64.66 124.205 64.46C124.205 64.3267 124.265 64.1933 124.385 64.06L124.505 63.92C124.665 63.7467 124.845 63.66 125.045 63.66C125.138 63.66 125.265 63.6933 125.425 63.76L130.145 65.9ZM129.665 71.08C129.945 71.2 130.085 71.36 130.085 71.56C130.085 71.68 130.032 71.8067 129.925 71.94L129.805 72.06C129.645 72.26 129.452 72.36 129.225 72.36C129.132 72.36 129.032 72.34 128.925 72.3L124.005 70.34C123.725 70.22 123.585 70.06 123.585 69.86C123.585 69.74 123.638 69.6133 123.745 69.48L123.865 69.36C124.025 69.16 124.218 69.06 124.445 69.06C124.552 69.06 124.652 69.08 124.745 69.12L129.665 71.08ZM137.985 71.92C138.145 71.8533 138.278 71.82 138.385 71.82C138.585 71.82 138.758 71.8933 138.905 72.04L139.065 72.18C139.212 72.3267 139.285 72.4733 139.285 72.62C139.285 72.82 139.165 72.98 138.925 73.1L127.145 79.08C126.985 79.1467 126.852 79.18 126.745 79.18C126.545 79.18 126.372 79.1067 126.225 78.96L126.065 78.82C125.918 78.6733 125.845 78.5267 125.845 78.38C125.845 78.18 125.965 78.02 126.205 77.9L137.985 71.92ZM149.074 67.4C149.3 67.5467 149.414 67.7 149.414 67.86C149.414 68.02 149.32 68.1733 149.134 68.32L148.894 68.52C148.734 68.64 148.574 68.7 148.414 68.7C148.267 68.7 148.12 68.6533 147.974 68.56L142.674 65.34C142.447 65.1933 142.334 65.04 142.334 64.88C142.334 64.72 142.427 64.5667 142.614 64.42L142.854 64.22C143.014 64.1 143.174 64.04 143.334 64.04C143.48 64.04 143.627 64.0867 143.774 64.18L149.074 67.4ZM155.534 69.56C155.68 69.4667 155.834 69.42 155.994 69.42C156.154 69.42 156.307 69.4733 156.454 69.58L156.714 69.78C156.9 69.9267 156.994 70.08 156.994 70.24C156.994 70.4133 156.887 70.5667 156.674 70.7L144.914 78.1C144.767 78.1933 144.614 78.24 144.454 78.24C144.294 78.24 144.14 78.1867 143.994 78.08L143.734 77.88C143.547 77.7333 143.454 77.58 143.454 77.42C143.454 77.2467 143.56 77.0933 143.774 76.96L155.534 69.56ZM178.437 63.7C178.45 63.7533 178.457 63.8267 178.457 63.92C178.457 64.2267 178.284 64.4133 177.937 64.48L177.357 64.58C176.93 64.6467 176.67 64.4733 176.577 64.06L175.557 60.14C175.544 60.1 175.53 60.06 175.517 60.02C175.517 59.98 175.517 59.94 175.517 59.9C175.517 59.6067 175.697 59.4267 176.057 59.36L176.637 59.26C177.064 59.1933 177.324 59.3667 177.417 59.78L178.437 63.7ZM176.237 64.92C176.25 64.9733 176.257 65.0467 176.257 65.14C176.257 65.4733 176.077 65.66 175.717 65.7L175.137 65.78C174.724 65.8467 174.47 65.6733 174.377 65.26L173.337 61.06C173.324 61.0067 173.317 60.9333 173.317 60.84C173.317 60.5067 173.497 60.32 173.857 60.28L174.437 60.2C174.864 60.1333 175.124 60.3067 175.217 60.72L176.237 64.92ZM161.937 71.62C161.777 71.86 161.584 71.98 161.357 71.98C161.264 71.98 161.164 71.96 161.057 71.92L160.237 71.66C159.93 71.5533 159.777 71.3867 159.777 71.16C159.777 71.04 159.824 70.9133 159.917 70.78L164.557 63.76C164.717 63.52 164.91 63.4 165.137 63.4C165.244 63.4 165.344 63.42 165.437 63.46L166.257 63.72C166.564 63.8267 166.717 63.9933 166.717 64.22C166.717 64.3267 166.67 64.4533 166.577 64.6L166.497 64.72H175.717C176.09 64.72 176.277 64.86 176.277 65.14C176.277 65.2467 176.237 65.3733 176.157 65.52L168.157 78.38C167.997 78.6333 167.797 78.76 167.557 78.76C167.49 78.76 167.404 78.7467 167.297 78.72L166.437 78.46C166.13 78.3533 165.977 78.1867 165.977 77.96C165.977 77.8533 166.017 77.7333 166.097 77.6L173.337 65.92H165.697L161.937 71.62Z" fill="#2F2A1F" fill-opacity="0.7"/>
<path d="M357 101.01H358.667M358.667 101.01H372M358.667 101.01V112.381C358.667 112.812 358.842 113.225 359.155 113.53C359.467 113.835 359.891 114.006 360.333 114.006H368.667C369.109 114.006 369.533 113.835 369.845 113.53C370.158 113.225 370.333 112.812 370.333 112.381V101.01M361.167 101.01V99.3852C361.167 98.9544 361.342 98.5412 361.655 98.2365C361.967 97.9319 362.391 97.7607 362.833 97.7607H366.167C366.609 97.7607 367.033 97.9319 367.345 98.2365C367.658 98.5412 367.833 98.9544 367.833 99.3852V101.01M362.833 105.071V109.945M366.167 105.071V109.945" stroke="#2F2A1F" stroke-opacity="0.7" stroke-width="2" stroke-linecap="round" stroke-linejoin="round"/>
<path d="M378.333 70.9998C378.333 74.536 376.929 77.9274 374.428 80.4279C371.928 82.9283 368.536 84.3331 365 84.3331C361.464 84.3331 358.072 82.9283 355.572 80.4279C353.071 77.9274 351.667 74.536 351.667 70.9998C351.667 67.4636 353.071 64.0722 355.572 61.5717C358.072 59.0712 361.464 57.6664 365 57.6664C366.267 57.6664 367.5 57.8498 368.667 58.1831L371.283 55.5664C369.291 54.7448 367.155 54.3256 365 54.3331C362.811 54.3331 360.644 54.7642 358.622 55.6018C356.6 56.4394 354.763 57.667 353.215 59.2147C350.089 62.3403 348.333 66.5795 348.333 70.9998C348.333 75.42 350.089 79.6593 353.215 82.7849C354.763 84.3325 356.6 85.5602 358.622 86.3978C360.644 87.2353 362.811 87.6664 365 87.6664C369.42 87.6664 373.66 85.9105 376.785 82.7849C379.911 79.6593 381.667 75.42 381.667 70.9998M358.183 67.7998L355.833 70.1664L363.333 77.6664L380 60.9998L377.65 58.6331L363.333 72.9498L358.183 67.7998Z" fill="#2F2A1F" fill-opacity="0.7"/>
<g filter="url(#filter2_d_277_314)">
<circle cx="48" cy="86" r="20" fill="white"/>
<g clip-path="url(#clip0_277_314)">
<path d="M43 84L48 79L53 84" stroke="#4F4737" stroke-width="2" stroke-linecap="round" stroke-linejoin="round"/>
<path d="M43 90L48 95L53 90" stroke="#4F4737" stroke-width="2" stroke-linecap="round" stroke-linejoin="round"/>
</g>
</g>
</g>
<rect width="50" height="50" transform="translate(106 186)" fill="white"/>
<path d="M141.417 205.792C141.417 203.292 143.5 202.667 144.583 202.667C146.331 202.667 147.667 204.067 147.667 205.792V219.333C147.667 227.667 141.138 231.833 133.083 231.833C125.029 231.833 122.258 229.75 116.008 219.333L112.735 213.906C111.619 212.098 112.512 209.752 114.571 209.085C115.244 208.866 115.968 208.859 116.645 209.065C117.323 209.271 117.921 209.679 118.358 210.235L122.667 215.235M122.667 215.167V197.5" stroke="black" stroke-width="2" stroke-linecap="round" stroke-linejoin="round"/>
<path d="M141.417 208.917V201.625C141.417 200.796 141.087 200.002 140.501 199.415C139.915 198.829 139.12 198.5 138.292 198.5C137.463 198.5 136.668 198.829 136.082 199.415C135.496 200.002 135.167 200.796 135.167 201.625V208.917V199.542C135.167 198.713 134.837 197.918 134.251 197.332C133.665 196.746 132.87 196.417 132.042 196.417C131.213 196.417 130.418 196.746 129.832 197.332C129.246 197.918 128.917 198.713 128.917 199.542V208.917V191.208C128.917 190.38 128.587 189.585 128.001 188.999C127.415 188.413 126.62 188.083 125.792 188.083C124.963 188.083 124.168 188.413 123.582 188.999C122.996 189.585 122.667 190.38 122.667 191.208V208.917" stroke="black" stroke-width="2" stroke-linecap="round" stroke-linejoin="round"/>
<path d="M71.9558 112.001C72.5075 111.98 72.972 112.411 72.9929 112.963C73.0134 113.514 72.5827 113.978 72.031 113.999L65.3767 114.25C66.4316 115.297 67.9287 116.82 69.7185 118.749C73.3273 122.638 78.1369 128.183 82.9372 134.803C92.508 148.004 102.173 165.658 101.998 183.074C101.823 200.458 92.1805 219.483 82.7077 234.056C77.9566 241.366 73.2184 247.6 69.6677 252.008C67.8919 254.212 66.4117 255.96 65.3747 257.159C64.8562 257.758 64.4476 258.22 64.1687 258.533C64.0293 258.689 63.922 258.809 63.8493 258.889C63.8131 258.929 63.7851 258.961 63.7663 258.981C63.7571 258.991 63.7497 258.999 63.7448 259.005C63.7425 259.007 63.7403 259.009 63.739 259.01L63.738 259.012C63.7339 259.009 63.6825 258.963 62.9997 258.338C62.2626 257.663 62.2623 257.662 62.2624 257.662L62.2683 257.656L62.3659 257.549C62.4357 257.471 62.5401 257.355 62.6765 257.202C62.9492 256.896 63.3505 256.442 63.862 255.85C64.8855 254.667 66.3505 252.937 68.1101 250.753C71.6301 246.384 76.3259 240.205 81.031 232.967C90.471 218.444 99.8289 199.831 99.9978 183.054C100.166 166.309 90.8318 149.099 81.3181 135.977C76.5763 129.437 71.8209 123.956 68.2517 120.109C66.5524 118.278 65.1223 116.819 64.0925 115.794L64.3366 122.294C64.3574 122.846 63.9266 123.31 63.3747 123.331C62.8231 123.351 62.3593 122.921 62.3386 122.369L62.0007 113.375C61.9804 112.823 62.4111 112.359 62.9626 112.339L71.9558 112.001Z" fill="#2F2A1F"/>
<defs>
<filter id="filter0_d_277_314" x="0" y="176" width="420" height="148" filterUnits="userSpaceOnUse" color-interpolation-filters="sRGB">
<feFlood flood-opacity="0" result="BackgroundImageFix"/>
<feColorMatrix in="SourceAlpha" type="matrix" values="0 0 0 0 0 0 0 0 0 0 0 0 0 0 0 0 0 0 127 0" result="hardAlpha"/>
<feOffset dy="2"/>
<feGaussianBlur stdDeviation="2"/>
<feComposite in2="hardAlpha" operator="out"/>
<feColorMatrix type="matrix" values="0 0 0 0 0 0 0 0 0 0 0 0 0 0 0 0 0 0 0.25 0"/>
<feBlend mode="normal" in2="BackgroundImageFix" result="effect1_dropShadow_277_314"/>
<feBlend mode="normal" in="SourceGraphic" in2="effect1_dropShadow_277_314" result="shape"/>
</filter>
<filter id="filter1_d_277_314" x="0" y="0" width="420" height="148" filterUnits="userSpaceOnUse" color-interpolation-filters="sRGB">
<feFlood flood-opacity="0" result="BackgroundImageFix"/>
<feColorMatrix in="SourceAlpha" type="matrix" values="0 0 0 0 0 0 0 0 0 0 0 0 0 0 0 0 0 0 127 0" result="hardAlpha"/>
<feOffset dy="2"/>
<feGaussianBlur stdDeviation="2"/>
<feComposite in2="hardAlpha" operator="out"/>
<feColorMatrix type="matrix" values="0 0 0 0 0 0 0 0 0 0 0 0 0 0 0 0 0 0 0.25 0"/>
<feBlend mode="normal" in2="BackgroundImageFix" result="effect1_dropShadow_277_314"/>
<feBlend mode="normal" in="SourceGraphic" in2="effect1_dropShadow_277_314" result="shape"/>
</filter>
<filter id="filter2_d_277_314" x="26" y="66" width="44" height="44" filterUnits="userSpaceOnUse" color-interpolation-filters="sRGB">
<feFlood flood-opacity="0" result="BackgroundImageFix"/>
<feColorMatrix in="SourceAlpha" type="matrix" values="0 0 0 0 0 0 0 0 0 0 0 0 0 0 0 0 0 0 127 0" result="hardAlpha"/>
<feOffset dy="2"/>
<feGaussianBlur stdDeviation="1"/>
<feComposite in2="hardAlpha" operator="out"/>
<feColorMatrix type="matrix" values="0 0 0 0 0 0 0 0 0 0 0 0 0 0 0 0 0 0 0.25 0"/>
<feBlend mode="normal" in2="BackgroundImageFix" result="effect1_dropShadow_277_314"/>
<feBlend mode="normal" in="SourceGraphic" in2="effect1_dropShadow_277_314" result="shape"/>
</filter>
<clipPath id="clip0_277_314">
<rect width="24" height="24" fill="white" transform="translate(36 75)"/>
</clipPath>
</defs>
</svg>
