<svg width="122" height="36" viewBox="0 0 122 36" fill="none" xmlns="http://www.w3.org/2000/svg">
<path d="M0 4C0 1.79086 1.79086 0 4 0H118C120.209 0 122 1.79086 122 4V36H0V4Z" fill="#6B8F71"/>
<path d="M59.304 18.856C59.656 18.856 59.832 19.016 59.832 19.336C59.832 19.656 59.656 19.816 59.304 19.816H46.6C46.248 19.816 46.072 19.656 46.072 19.336C46.072 19.016 46.248 18.856 46.6 18.856H59.304ZM67.88 16.92V16.968H68.712C69.064 16.968 69.24 17.128 69.24 17.448C69.24 17.768 69.064 17.928 68.712 17.928H64.312C64.2267 17.992 64.1147 18.024 63.976 18.024H62.984C62.632 18.024 62.456 17.848 62.456 17.496V12.408C62.456 12.056 62.632 11.88 62.984 11.88H63.976C64.1147 11.88 64.2267 11.912 64.312 11.976H68.664C69.016 11.976 69.192 12.136 69.192 12.456C69.192 12.776 69.016 12.936 68.664 12.936H67.912V12.984V13.608V13.656H68.792C69.144 13.656 69.32 13.832 69.32 14.184V15.88C69.32 16.232 69.144 16.408 68.792 16.408H67.88V16.92ZM71.528 15.592C71.496 15.9333 71.3093 16.0933 70.968 16.072L69.976 16.024C69.6133 16.0027 69.448 15.816 69.48 15.464L69.8 12.456C69.832 12.1147 70.0187 11.9547 70.36 11.976L71.352 12.024C71.704 12.0453 71.864 12.232 71.832 12.584L71.768 13.256H75.24C75.592 13.256 75.768 13.416 75.768 13.736C75.768 14.056 75.592 14.216 75.24 14.216H71.672L71.528 15.592ZM65.864 12.984V12.936H64.504V13.656H65.864V13.608V12.984ZM67.272 14.616H64.504V15.352H67.272V14.616ZM65.832 16.36V16.312H64.504V16.968H65.832V16.92V16.36ZM74.92 16.6C75.272 16.6 75.448 16.76 75.448 17.08C75.448 17.4 75.272 17.56 74.92 17.56H71.224C70.872 17.56 70.696 17.4 70.696 17.08C70.696 16.76 70.872 16.6 71.224 16.6H74.92ZM63.352 25.592C63.2667 25.6347 63.1707 25.656 63.064 25.656C62.8933 25.656 62.744 25.5867 62.616 25.448L62.536 25.368C62.4293 25.2613 62.376 25.1493 62.376 25.032C62.376 24.872 62.4827 24.744 62.696 24.648L64.648 23.768H64.056C63.704 23.768 63.528 23.592 63.528 23.24V18.728C63.528 18.376 63.704 18.2 64.056 18.2H65.048C65.2293 18.2 65.368 18.2533 65.464 18.36H73.912C74.264 18.36 74.44 18.536 74.44 18.888V23.288C74.44 23.64 74.264 23.816 73.912 23.816H72.92C72.792 23.816 72.6853 23.7893 72.6 23.736H71.352V23.784V24.536H73.992V24.296C73.992 24.136 74.168 24.056 74.52 24.056H75.512C75.864 24.056 76.04 24.232 76.04 24.584V24.968C76.04 25.32 75.864 25.496 75.512 25.496H69.832C69.48 25.496 69.304 25.32 69.304 24.968V23.784V23.736H67.288C67.2453 23.8213 67.16 23.8907 67.032 23.944L63.352 25.592ZM72.392 19.32H65.576V19.864H72.392V19.32ZM65.576 21.304H72.392V20.824H65.576V21.304ZM65.576 22.776H72.392V22.264H65.576V22.776Z" fill="white"/>
</svg>
