<svg width="300" height="76" viewBox="0 0 300 76" fill="none" xmlns="http://www.w3.org/2000/svg">
<path d="M296 0.5C297.933 0.500001 299.5 2.067 299.5 4V72C299.5 73.933 297.933 75.5 296 75.5H200.5V0.5H296Z" fill="#F8F5F2" stroke="#FEFCE8"/>
<path d="M283.333 19.9998C283.333 23.536 281.929 26.9274 279.428 29.4279C276.928 31.9283 273.536 33.3331 270 33.3331C266.464 33.3331 263.072 31.9283 260.572 29.4279C258.071 26.9274 256.667 23.536 256.667 19.9998C256.667 16.4636 258.071 13.0722 260.572 10.5717C263.072 8.0712 266.464 6.66644 270 6.66644C271.267 6.66644 272.5 6.84977 273.667 7.18311L276.283 4.56644C274.291 3.74479 272.155 3.32562 270 3.33311C267.811 3.33311 265.644 3.7642 263.622 4.60178C261.6 5.43936 259.763 6.66702 258.215 8.21466C255.089 11.3403 253.333 15.5795 253.333 19.9998C253.333 24.42 255.089 28.6593 258.215 31.7849C259.763 33.3325 261.6 34.5602 263.622 35.3978C265.644 36.2353 267.811 36.6664 270 36.6664C274.42 36.6664 278.66 34.9105 281.785 31.7849C284.911 28.6593 286.667 24.42 286.667 19.9998M263.183 16.7998L260.833 19.1664L268.333 26.6664L285 9.99977L282.65 7.63311L268.333 21.9498L263.183 16.7998Z" fill="#6B8F71"/>
<path d="M263 52.3333H264.667M264.667 52.3333H278M264.667 52.3333V64C264.667 64.442 264.842 64.866 265.155 65.1785C265.467 65.4911 265.891 65.6667 266.333 65.6667H274.667C275.109 65.6667 275.533 65.4911 275.845 65.1785C276.158 64.866 276.333 64.442 276.333 64V52.3333M267.167 52.3333V50.6667C267.167 50.2246 267.342 49.8007 267.655 49.4882C267.967 49.1756 268.391 49 268.833 49H272.167C272.609 49 273.033 49.1756 273.345 49.4882C273.658 49.8007 273.833 50.2246 273.833 50.6667V52.3333M268.833 56.5V61.5M272.167 56.5V61.5" stroke="#4F4737" stroke-width="2" stroke-linecap="round" stroke-linejoin="round"/>
<path d="M165 41.3332H135M165 41.3332L160 46.3332M165 41.3332L160 36.3332M140 29.6665L135 24.6665M135 24.6665L140 19.6665M135 24.6665H165" stroke="#4F4737" stroke-width="2" stroke-linecap="round" stroke-linejoin="round"/>
<mask id="path-5-inside-1_242_447" fill="white">
<path d="M0 0H96C98.2091 0 100 1.79086 100 4V72C100 74.2091 98.2091 76 96 76H0V0Z"/>
</mask>
<path d="M0 0H96C98.2091 0 100 1.79086 100 4V72C100 74.2091 98.2091 76 96 76H0V0Z" fill="#F8F5F2"/>
<path d="M0 -1H96C98.7614 -1 101 1.23858 101 4H99C99 2.34315 97.6569 1 96 1H0V-1ZM101 72C101 74.7614 98.7614 77 96 77H0V75H96C97.6569 75 99 73.6569 99 72H101ZM0 76V0V76ZM96 -1C98.7614 -1 101 1.23858 101 4V72C101 74.7614 98.7614 77 96 77V75C97.6569 75 99 73.6569 99 72V4C99 2.34315 97.6569 1 96 1V-1Z" fill="#FEFCE8" mask="url(#path-5-inside-1_242_447)"/>
<path d="M63 52.3333H64.6667M64.6667 52.3333H78M64.6667 52.3333V64C64.6667 64.442 64.8423 64.866 65.1548 65.1785C65.4674 65.4911 65.8913 65.6667 66.3333 65.6667H74.6667C75.1087 65.6667 75.5326 65.4911 75.8452 65.1785C76.1577 64.866 76.3333 64.442 76.3333 64V52.3333M67.1667 52.3333V50.6667C67.1667 50.2246 67.3423 49.8007 67.6548 49.4882C67.9674 49.1756 68.3913 49 68.8333 49H72.1667C72.6087 49 73.0326 49.1756 73.3452 49.4882C73.6577 49.8007 73.8333 50.2246 73.8333 50.6667V52.3333M68.8333 56.5V61.5M72.1667 56.5V61.5" stroke="#4F4737" stroke-width="2" stroke-linecap="round" stroke-linejoin="round"/>
<path d="M71 34.3335C67.4638 34.3335 64.0724 32.9287 61.5719 30.4283C59.0714 27.9278 57.6667 24.5364 57.6667 21.0002C57.6667 17.4639 59.0714 14.0726 61.5719 11.5721C64.0724 9.07159 67.4638 7.66683 71 7.66683C74.5362 7.66683 77.9276 9.07159 80.4281 11.5721C82.9286 14.0726 84.3333 17.4639 84.3333 21.0002C84.3333 24.5364 82.9286 27.9278 80.4281 30.4283C77.9276 32.9287 74.5362 34.3335 71 34.3335ZM71 4.3335C68.8113 4.3335 66.644 4.76459 64.6219 5.60217C62.5998 6.43975 60.7625 7.66741 59.2149 9.21505C56.0893 12.3407 54.3333 16.5799 54.3333 21.0002C54.3333 25.4204 56.0893 29.6597 59.2149 32.7853C60.7625 34.3329 62.5998 35.5606 64.6219 36.3982C66.644 37.2357 68.8113 37.6668 71 37.6668C75.4203 37.6668 79.6595 35.9109 82.7851 32.7853C85.9107 29.6597 87.6667 25.4204 87.6667 21.0002C87.6667 18.8115 87.2356 16.6442 86.398 14.6221C85.5604 12.6 84.3328 10.7627 82.7851 9.21505C81.2375 7.66741 79.4001 6.43975 77.3781 5.60217C75.356 4.76459 73.1887 4.3335 71 4.3335Z" fill="#4F4737"/>
</svg>
