<svg width="180" height="44" viewBox="0 0 180 44" fill="none" xmlns="http://www.w3.org/2000/svg">
<rect width="180" height="44" rx="22" fill="#6B8F71"/>
<circle cx="42" cy="22" r="20" fill="#D7C9AA" fill-opacity="0.3"/>
<g clip-path="url(#clip0_283_300)">
<path d="M33 30.0001L34.3 26.1001C33.1764 24.4384 32.77 22.4705 33.1562 20.5624C33.5424 18.6543 34.6951 16.9358 36.3998 15.7264C38.1045 14.517 40.2453 13.899 42.4241 13.9873C44.6029 14.0757 46.6715 14.8643 48.2453 16.2066C49.819 17.549 50.7909 19.3536 50.9801 21.2851C51.1693 23.2165 50.563 25.1433 49.2739 26.7072C47.9848 28.2711 46.1007 29.3657 43.9718 29.7874C41.8429 30.2092 39.6142 29.9294 37.7 29.0001L33 30.0001Z" stroke="white" stroke-width="2" stroke-linecap="round" stroke-linejoin="round"/>
<path d="M42 22V22.01" stroke="white" stroke-width="2" stroke-linecap="round" stroke-linejoin="round"/>
<path d="M38 22V22.01" stroke="white" stroke-width="2" stroke-linecap="round" stroke-linejoin="round"/>
<path d="M46 22V22.01" stroke="white" stroke-width="2" stroke-linecap="round" stroke-linejoin="round"/>
</g>
<path d="M76.7157 28.04C76.865 28.04 76.993 28.088 77.0997 28.184C77.2064 28.2693 77.2597 28.3813 77.2597 28.52C77.2597 28.6587 77.2064 28.776 77.0997 28.872C76.993 28.9573 76.865 29 76.7157 29H70.5237C70.3744 29 70.2464 28.9467 70.1397 28.84C70.033 28.7333 69.9797 28.6053 69.9797 28.456V17.384C69.9797 17.2347 70.033 17.1067 70.1397 17C70.2464 16.8933 70.3744 16.84 70.5237 16.84H71.4837C71.633 16.84 71.761 16.8933 71.8677 17C71.9744 17.1067 72.0277 17.2347 72.0277 17.384V28.04H76.7157ZM81.7422 27.976C81.7422 28.008 81.7422 28.0293 81.7422 28.04H82.4302C82.5795 28.04 82.7075 28.088 82.8142 28.184C82.9209 28.2693 82.9742 28.3813 82.9742 28.52C82.9742 28.6587 82.9209 28.776 82.8142 28.872C82.7075 28.9573 82.5795 29 82.4302 29H79.0062C78.8569 29 78.7289 28.9573 78.6222 28.872C78.5155 28.776 78.4622 28.6587 78.4622 28.52C78.4622 28.3813 78.5155 28.2693 78.6222 28.184C78.7289 28.088 78.8569 28.04 79.0062 28.04H79.6942V27.976V17.864C79.6942 17.832 79.6942 17.8107 79.6942 17.8H79.0062C78.8569 17.8 78.7289 17.7573 78.6222 17.672C78.5155 17.576 78.4622 17.4587 78.4622 17.32C78.4622 17.1813 78.5155 17.0693 78.6222 16.984C78.7289 16.888 78.8569 16.84 79.0062 16.84H82.4302C82.5795 16.84 82.7075 16.888 82.8142 16.984C82.9209 17.0693 82.9742 17.1813 82.9742 17.32C82.9742 17.4587 82.9209 17.576 82.8142 17.672C82.7075 17.7573 82.5795 17.8 82.4302 17.8H81.7422V17.864V27.976ZM91.1409 17.368C91.1409 17.016 91.3169 16.84 91.6689 16.84H92.3409C92.6929 16.84 92.8689 17.016 92.8689 17.368V28.472C92.8689 28.824 92.6929 29 92.3409 29H91.1889C90.9009 29 90.6929 28.872 90.5649 28.616L85.9889 19.512V28.472C85.9889 28.824 85.8129 29 85.4609 29H84.7889C84.4369 29 84.2609 28.824 84.2609 28.472V17.368C84.2609 17.016 84.4369 16.84 84.7889 16.84H85.9409C86.2289 16.84 86.4369 16.968 86.5649 17.224L91.1409 26.328V17.368ZM101.072 28.04C101.424 28.04 101.6 28.2 101.6 28.52C101.6 28.84 101.424 29 101.072 29H94.8321C94.4801 29 94.3041 28.824 94.3041 28.472V17.368C94.3041 17.016 94.4801 16.84 94.8321 16.84H101.072C101.424 16.84 101.6 17 101.6 17.32C101.6 17.64 101.424 17.8 101.072 17.8H96.3521V22.536H100.64C100.992 22.536 101.168 22.696 101.168 23.016C101.168 23.336 100.992 23.496 100.64 23.496H96.3521V28.04H101.072ZM114.657 27.496C114.753 27.6027 114.801 27.7093 114.801 27.816C114.801 27.9867 114.695 28.1147 114.481 28.2L113.921 28.424C113.825 28.456 113.74 28.472 113.665 28.472C113.495 28.472 113.345 28.392 113.217 28.232C112.279 27.1227 111.377 26.0347 110.513 24.968C109.649 23.8907 108.823 22.8187 108.033 21.752C107.5 22.744 106.935 23.7307 106.337 24.712C105.751 25.6827 105.127 26.6533 104.465 27.624C104.337 27.816 104.188 27.912 104.017 27.912C103.943 27.912 103.863 27.896 103.777 27.864L103.105 27.656C102.871 27.5707 102.753 27.4427 102.753 27.272C102.753 27.1653 102.791 27.0587 102.865 26.952C103.537 25.96 104.199 24.904 104.849 23.784C105.5 22.664 106.135 21.4907 106.753 20.264C106.871 20.008 107.073 19.8747 107.361 19.864L108.273 19.832C108.551 19.8107 108.785 19.9387 108.977 20.216C109.959 21.5707 110.924 22.8507 111.873 24.056C112.823 25.2613 113.751 26.408 114.657 27.496ZM121.5 29.352C121.5 29.704 121.324 29.88 120.972 29.88H120.3C119.948 29.88 119.772 29.704 119.772 29.352V28.024H117.404C117.052 28.024 116.876 27.864 116.876 27.544C116.876 27.224 117.052 27.064 117.404 27.064H119.772V26.04H119.004C118.93 26.072 118.844 26.088 118.748 26.088H117.756C117.404 26.088 117.228 25.912 117.228 25.56V19.736C117.228 19.384 117.404 19.208 117.756 19.208H118.748C118.972 19.208 119.127 19.288 119.212 19.448H119.772V18.376H117.644C117.292 18.376 117.116 18.216 117.116 17.896C117.116 17.576 117.292 17.416 117.644 17.416H119.772V16.264C119.772 15.912 119.948 15.736 120.3 15.736H120.972C121.324 15.736 121.5 15.912 121.5 16.264V17.416H123.564C123.916 17.416 124.092 17.576 124.092 17.896C124.092 18.216 123.916 18.376 123.564 18.376H121.5V19.448H123.532C123.884 19.448 124.06 19.624 124.06 19.976V25.672C124.06 26.024 123.884 26.2 123.532 26.2H122.54C122.359 26.2 122.22 26.1467 122.124 26.04H121.5V27.064H123.564C123.916 27.064 124.092 27.224 124.092 27.544C124.092 27.864 123.916 28.024 123.564 28.024H121.5V29.352ZM130.22 16.888C130.572 16.888 130.748 17.048 130.748 17.368C130.748 17.688 130.572 17.848 130.22 17.848H125.244C124.892 17.848 124.716 17.688 124.716 17.368C124.716 17.048 124.892 16.888 125.244 16.888H130.22ZM119.276 22.216H119.772V20.408H119.276V22.216ZM122.012 20.408H121.5V22.216H122.012V20.408ZM130.748 29.032C130.802 29.3947 130.647 29.592 130.284 29.624L129.324 29.704C128.983 29.736 128.786 29.5813 128.732 29.24L128.716 29.096L124.988 29.48C124.828 29.5013 124.7 29.4747 124.604 29.4C124.519 29.3253 124.476 29.2187 124.476 29.08C124.476 29.0587 124.476 29.032 124.476 29C124.476 28.968 124.482 28.9413 124.492 28.92L125.916 22.328H125.244C124.892 22.328 124.716 22.168 124.716 21.848C124.716 21.528 124.892 21.368 125.244 21.368H130.268C130.62 21.368 130.796 21.528 130.796 21.848C130.796 22.168 130.62 22.328 130.268 22.328H127.948V22.344C127.948 22.408 127.943 22.4613 127.932 22.504L126.668 28.328L128.556 28.12L127.996 24.584C127.943 24.2213 128.098 24.024 128.46 23.992L129.42 23.912C129.762 23.88 129.959 24.0347 130.012 24.376L130.748 29.032ZM119.276 25.08H119.772V23.176H119.276V25.08ZM121.5 25.08H122.012V23.176H121.5V25.08ZM136.716 19.032C136.738 19.0747 136.754 19.1173 136.764 19.16C136.775 19.2027 136.78 19.2453 136.78 19.288C136.78 19.5013 136.647 19.64 136.38 19.704L135.564 19.864C135.543 19.8747 135.516 19.88 135.484 19.88C135.452 19.88 135.426 19.88 135.404 19.88C135.18 19.88 135.015 19.7627 134.908 19.528L133.628 16.728C133.596 16.6427 133.58 16.5627 133.58 16.488C133.58 16.264 133.714 16.12 133.98 16.056L134.78 15.896C134.802 15.8853 134.828 15.88 134.86 15.88C134.892 15.88 134.919 15.88 134.94 15.88C135.164 15.88 135.33 15.9973 135.436 16.232L136.716 19.032ZM138.428 27.512C138.3 27.5653 138.194 27.592 138.108 27.592C137.959 27.592 137.82 27.5227 137.692 27.384L137.612 27.288C137.506 27.1813 137.452 27.0693 137.452 26.952C137.452 26.792 137.548 26.664 137.74 26.568C138.412 26.216 138.972 25.8 139.42 25.32C139.868 24.8293 140.226 24.2533 140.492 23.592H138.732C138.38 23.592 138.204 23.432 138.204 23.112C138.204 22.792 138.38 22.632 138.732 22.632H140.796C140.988 21.864 141.1 20.952 141.132 19.896C141.132 19.864 141.132 19.8427 141.132 19.832H138.124C137.772 19.832 137.596 19.672 137.596 19.352C137.596 19.032 137.772 18.872 138.124 18.872H139.02L138.364 16.712C138.354 16.6693 138.343 16.632 138.332 16.6C138.332 16.568 138.332 16.536 138.332 16.504C138.332 16.2587 138.471 16.12 138.748 16.088L139.66 15.96C139.98 15.9067 140.188 16.0347 140.284 16.344L140.988 18.664C141.01 18.7067 141.02 18.744 141.02 18.776C141.02 18.808 141.02 18.84 141.02 18.872H143.356V18.856C143.356 18.824 143.356 18.792 143.356 18.76C143.367 18.728 143.378 18.696 143.388 18.664L144.092 16.344C144.188 16.0347 144.396 15.9013 144.716 15.944L145.628 16.088C145.916 16.12 146.06 16.264 146.06 16.52C146.06 16.552 146.055 16.584 146.044 16.616C146.044 16.648 146.039 16.68 146.028 16.712L145.372 18.872H146.22C146.572 18.872 146.748 19.032 146.748 19.352C146.748 19.672 146.572 19.832 146.22 19.832H143.18C143.18 19.864 143.18 19.9013 143.18 19.944C143.148 20.9787 143.036 21.8747 142.844 22.632H145.628C145.98 22.632 146.156 22.792 146.156 23.112C146.156 23.432 145.98 23.592 145.628 23.592H143.74L146.428 26.648C146.524 26.776 146.572 26.888 146.572 26.984C146.572 27.1547 146.466 27.2827 146.252 27.368L145.724 27.592C145.682 27.6027 145.634 27.6187 145.58 27.64C145.538 27.6507 145.495 27.656 145.452 27.656C145.282 27.656 145.132 27.5813 145.004 27.432L142.22 24.264C141.858 24.9467 141.367 25.5493 140.748 26.072C140.13 26.584 139.356 27.064 138.428 27.512ZM146.092 28.28C146.423 28.2267 146.631 28.3653 146.716 28.696C146.727 28.728 146.732 28.776 146.732 28.84C146.732 29.0747 146.583 29.208 146.284 29.24L141.964 29.784C141.89 29.7947 141.82 29.8 141.756 29.8C141.703 29.8107 141.644 29.816 141.58 29.816C141.538 29.816 141.495 29.816 141.452 29.816C141.42 29.816 141.378 29.8107 141.324 29.8L133.516 29.016C133.228 28.984 133.084 28.872 133.084 28.68C133.084 28.5627 133.138 28.4507 133.244 28.344L134.636 26.76L133.644 25.24C133.559 25.1013 133.516 24.9733 133.516 24.856C133.516 24.76 133.548 24.648 133.612 24.52L135.116 21.608H133.436C133.084 21.608 132.908 21.448 132.908 21.128C132.908 20.808 133.084 20.648 133.436 20.648H136.94C137.25 20.648 137.404 20.7653 137.404 21C137.404 21.0747 137.378 21.1653 137.324 21.272L135.468 24.888L136.46 26.408C136.546 26.5467 136.588 26.664 136.588 26.76C136.588 26.8773 136.53 27.0053 136.412 27.144L135.452 28.232L141.612 28.84L146.092 28.28Z" fill="#F8F5F2"/>
<defs>
<clipPath id="clip0_283_300">
<rect width="24" height="24" fill="white" transform="translate(30 10)"/>
</clipPath>
</defs>
</svg>
