<svg width="177" height="36" viewBox="0 0 177 36" fill="none" xmlns="http://www.w3.org/2000/svg">
<path d="M0 4C0 1.79086 1.79086 0 4 0H173C175.209 0 177 1.79086 177 4V36H0V4Z" fill="#6B8F71"/>
<path d="M60.0043 25.224C59.8763 25.3627 59.7323 25.432 59.5723 25.432C59.4976 25.432 59.3963 25.4053 59.2683 25.352L58.8043 25.144C58.591 25.048 58.4843 24.92 58.4843 24.76C58.4843 24.664 58.543 24.5467 58.6603 24.408L67.5723 15.288H58.4843C58.1323 15.288 57.9563 15.128 57.9563 14.808C57.9563 14.488 58.1323 14.328 58.4843 14.328H69.7323C70.031 14.328 70.1803 14.4293 70.1803 14.632C70.1803 14.728 70.1216 14.8453 70.0043 14.984L65.1403 19.976L70.2283 24.408C70.3563 24.5147 70.4203 24.632 70.4203 24.76C70.4203 24.8987 70.3296 25.0267 70.1483 25.144L69.7803 25.352C69.7163 25.384 69.6523 25.4107 69.5883 25.432C69.535 25.4533 69.4816 25.464 69.4283 25.464C69.311 25.464 69.183 25.4053 69.0443 25.288L64.1163 21L60.0043 25.224ZM76.1471 25.144C76.1471 25.496 75.9711 25.672 75.6191 25.672H74.6271C74.2751 25.672 74.0991 25.496 74.0991 25.144V14.024C74.0991 13.672 74.2751 13.496 74.6271 13.496H75.6191C75.9711 13.496 76.1471 13.672 76.1471 14.024V18.568L81.9391 20.44C82.1844 20.5253 82.3071 20.6533 82.3071 20.824C82.3071 20.9093 82.2751 21 82.2111 21.096L82.1471 21.176C82.0297 21.3573 81.8751 21.448 81.6831 21.448C81.6511 21.448 81.6137 21.448 81.5711 21.448C81.5391 21.4373 81.5017 21.4267 81.4591 21.416L76.1471 19.704V25.144ZM89.6369 19.88C89.6476 19.912 89.6529 19.9547 89.6529 20.008C89.6529 20.2853 89.4929 20.44 89.1729 20.472L88.2129 20.552C87.8823 20.584 87.6849 20.4293 87.6209 20.088L87.1889 17.624C87.1783 17.592 87.1729 17.5493 87.1729 17.496C87.1729 17.2187 87.3329 17.064 87.6529 17.032L88.6129 16.952C88.9436 16.92 89.1409 17.0747 89.2049 17.416L89.6369 19.88ZM87.0129 20.28C87.0236 20.3227 87.0289 20.3813 87.0289 20.456C87.0289 20.712 86.8849 20.856 86.5969 20.888L85.6689 21C85.3383 21.032 85.1303 20.888 85.0449 20.568L84.4369 18.104C84.4263 18.072 84.4209 18.04 84.4209 18.008C84.4209 17.976 84.4209 17.9493 84.4209 17.928C84.4209 17.672 84.5649 17.528 84.8529 17.496L85.7809 17.384C86.1009 17.352 86.3036 17.496 86.3889 17.816L87.0129 20.28ZM90.4849 25.144C90.3783 25.3787 90.2076 25.496 89.9729 25.496C89.9516 25.496 89.9249 25.496 89.8929 25.496C89.8609 25.496 89.8343 25.4907 89.8129 25.48L88.9969 25.288C88.7409 25.224 88.6129 25.0907 88.6129 24.888C88.6129 24.792 88.6343 24.7013 88.6769 24.616L91.9089 17.944C92.0156 17.7093 92.1863 17.592 92.4209 17.592C92.4423 17.592 92.4689 17.592 92.5009 17.592C92.5329 17.592 92.5596 17.5973 92.5809 17.608L93.3969 17.8C93.6529 17.864 93.7809 17.9973 93.7809 18.2C93.7809 18.296 93.7596 18.3867 93.7169 18.472L90.4849 25.144ZM97.6668 19.896C97.5388 20.088 97.3841 20.184 97.2028 20.184C97.1281 20.184 97.0481 20.168 96.9628 20.136L96.3068 19.928C96.0615 19.8427 95.9388 19.7093 95.9388 19.528C95.9388 19.432 95.9761 19.3307 96.0508 19.224L99.7628 13.608C99.8908 13.416 100.045 13.32 100.227 13.32C100.312 13.32 100.392 13.336 100.467 13.368L101.123 13.576C101.368 13.6613 101.491 13.7947 101.491 13.976C101.491 14.0613 101.453 14.1627 101.379 14.28L101.315 14.376H108.691C108.989 14.376 109.139 14.488 109.139 14.712C109.139 14.7973 109.107 14.8987 109.043 15.016L102.643 25.304C102.515 25.5067 102.355 25.608 102.163 25.608C102.109 25.608 102.04 25.5973 101.955 25.576L101.267 25.368C101.021 25.2827 100.899 25.1493 100.899 24.968C100.899 24.8827 100.931 24.7867 100.995 24.68L106.787 15.336H100.675L97.6668 19.896ZM124.562 18.856C124.914 18.856 125.09 19.016 125.09 19.336C125.09 19.656 124.914 19.816 124.562 19.816H111.858C111.506 19.816 111.33 19.656 111.33 19.336C111.33 19.016 111.506 18.856 111.858 18.856H124.562ZM133.138 16.92V16.968H133.97C134.322 16.968 134.498 17.128 134.498 17.448C134.498 17.768 134.322 17.928 133.97 17.928H129.57C129.484 17.992 129.372 18.024 129.234 18.024H128.242C127.89 18.024 127.714 17.848 127.714 17.496V12.408C127.714 12.056 127.89 11.88 128.242 11.88H129.234C129.372 11.88 129.484 11.912 129.57 11.976H133.922C134.274 11.976 134.45 12.136 134.45 12.456C134.45 12.776 134.274 12.936 133.922 12.936H133.17V12.984V13.608V13.656H134.05C134.402 13.656 134.578 13.832 134.578 14.184V15.88C134.578 16.232 134.402 16.408 134.05 16.408H133.138V16.92ZM136.786 15.592C136.754 15.9333 136.567 16.0933 136.226 16.072L135.234 16.024C134.871 16.0027 134.706 15.816 134.738 15.464L135.058 12.456C135.09 12.1147 135.276 11.9547 135.618 11.976L136.61 12.024C136.962 12.0453 137.122 12.232 137.09 12.584L137.026 13.256H140.498C140.85 13.256 141.026 13.416 141.026 13.736C141.026 14.056 140.85 14.216 140.498 14.216H136.93L136.786 15.592ZM131.122 12.984V12.936H129.762V13.656H131.122V13.608V12.984ZM132.53 14.616H129.762V15.352H132.53V14.616ZM131.09 16.36V16.312H129.762V16.968H131.09V16.92V16.36ZM140.178 16.6C140.53 16.6 140.706 16.76 140.706 17.08C140.706 17.4 140.53 17.56 140.178 17.56H136.482C136.13 17.56 135.954 17.4 135.954 17.08C135.954 16.76 136.13 16.6 136.482 16.6H140.178ZM128.61 25.592C128.524 25.6347 128.428 25.656 128.322 25.656C128.151 25.656 128.002 25.5867 127.874 25.448L127.794 25.368C127.687 25.2613 127.634 25.1493 127.634 25.032C127.634 24.872 127.74 24.744 127.954 24.648L129.906 23.768H129.314C128.962 23.768 128.786 23.592 128.786 23.24V18.728C128.786 18.376 128.962 18.2 129.314 18.2H130.306C130.487 18.2 130.626 18.2533 130.722 18.36H139.17C139.522 18.36 139.698 18.536 139.698 18.888V23.288C139.698 23.64 139.522 23.816 139.17 23.816H138.178C138.05 23.816 137.943 23.7893 137.858 23.736H136.61V23.784V24.536H139.25V24.296C139.25 24.136 139.426 24.056 139.778 24.056H140.77C141.122 24.056 141.298 24.232 141.298 24.584V24.968C141.298 25.32 141.122 25.496 140.77 25.496H135.09C134.738 25.496 134.562 25.32 134.562 24.968V23.784V23.736H132.546C132.503 23.8213 132.418 23.8907 132.29 23.944L128.61 25.592ZM137.65 19.32H130.834V19.864H137.65V19.32ZM130.834 21.304H137.65V20.824H130.834V21.304ZM130.834 22.776H137.65V22.264H130.834V22.776Z" fill="white"/>
<path d="M37 13H50" stroke="white" stroke-width="2" stroke-linecap="round" stroke-linejoin="round"/>
<path d="M37 19H50" stroke="white" stroke-width="2" stroke-linecap="round" stroke-linejoin="round"/>
<path d="M37 25H50" stroke="white" stroke-width="2" stroke-linecap="round" stroke-linejoin="round"/>
<path d="M32 13H32.01" stroke="white" stroke-width="2" stroke-linecap="round" stroke-linejoin="round"/>
<path d="M32 19H32.01" stroke="white" stroke-width="2" stroke-linecap="round" stroke-linejoin="round"/>
<path d="M32 25H32.01" stroke="white" stroke-width="2" stroke-linecap="round" stroke-linejoin="round"/>
</svg>
