<svg width="177" height="36" viewBox="0 0 177 36" fill="none" xmlns="http://www.w3.org/2000/svg">
<path d="M0 4C0 1.79086 1.79086 0 4 0H173C175.209 0 177 1.79086 177 4V36H0V4Z" fill="#6B8F71"/>
<path d="M68.5834 15.72C68.5834 16.072 68.4074 16.248 68.0554 16.248H67.0634C66.8181 16.248 66.6581 16.1573 66.5834 15.976H57.4474C57.3728 16.1573 57.2128 16.248 56.9674 16.248H55.9754C55.6234 16.248 55.4474 16.072 55.4474 15.72V12.648C55.4474 12.296 55.6234 12.12 55.9754 12.12H56.9674C57.1914 12.12 57.3461 12.2 57.4314 12.36H68.0554C68.4074 12.36 68.5834 12.536 68.5834 12.888V15.72ZM59.2554 13.368V13.32H57.4954V15.016H59.2554V14.968V13.368ZM61.3034 14.968V15.016H62.9674V14.968V13.368V13.32H61.3034V13.368V14.968ZM65.0154 14.968V15.016H66.5354V13.32H65.0154V13.368V14.968ZM56.4714 17.08C56.4714 16.728 56.6474 16.552 56.9994 16.552H57.9914C58.1941 16.552 58.3381 16.616 58.4234 16.744H67.0474C67.3994 16.744 67.5754 16.92 67.5754 17.272V23.272C67.5754 23.624 67.3994 23.8 67.0474 23.8H66.0554C65.8528 23.8 65.7088 23.736 65.6234 23.608H58.4234C58.3381 23.736 58.1941 23.8 57.9914 23.8H56.9994C56.6474 23.8 56.4714 23.624 56.4714 23.272V17.08ZM65.5274 17.704H58.5194V18.664H65.5274V17.704ZM58.5194 20.68H65.5274V19.624H58.5194V20.68ZM58.5194 22.648H65.5274V21.64H58.5194V22.648ZM56.8074 25.928C56.7648 25.9387 56.7274 25.944 56.6954 25.944C56.6634 25.9547 56.6314 25.96 56.5994 25.96C56.4074 25.96 56.2474 25.8587 56.1194 25.656C56.0554 25.5387 56.0234 25.4373 56.0234 25.352C56.0234 25.16 56.1461 25.032 56.3914 24.968L59.7994 24.008C59.8421 23.9973 59.8794 23.992 59.9114 23.992C59.9434 23.9813 59.9754 23.976 60.0074 23.976C60.1994 23.976 60.3594 24.0773 60.4874 24.28C60.5514 24.3867 60.5834 24.488 60.5834 24.584C60.5834 24.776 60.4608 24.904 60.2154 24.968L56.8074 25.928ZM67.8634 25.048C68.1194 25.112 68.2474 25.24 68.2474 25.432C68.2474 25.5173 68.2208 25.6027 68.1674 25.688L68.1194 25.752C67.9914 25.9547 67.8314 26.056 67.6394 26.056C67.5861 26.056 67.5168 26.0453 67.4314 26.024L63.7674 24.984C63.5114 24.92 63.3834 24.792 63.3834 24.6C63.3834 24.5147 63.4101 24.4293 63.4634 24.344L63.5114 24.28C63.6394 24.0773 63.7994 23.976 63.9914 23.976C64.0448 23.976 64.1141 23.9867 64.1994 24.008L67.8634 25.048ZM75.3514 23.352C75.4688 23.288 75.5754 23.256 75.6714 23.256C75.8208 23.256 75.9594 23.32 76.0874 23.448L76.2154 23.56C76.3434 23.6667 76.4074 23.7893 76.4074 23.928C76.4074 24.0773 76.3114 24.2 76.1194 24.296C75.8208 24.424 75.5114 24.5467 75.1914 24.664C74.8821 24.7813 74.5621 24.8827 74.2314 24.968C74.1354 25.0107 74.0234 25.032 73.8954 25.032C73.7888 25.032 73.6768 25.0107 73.5594 24.968L73.0474 24.808C72.7594 24.7227 72.5941 24.5467 72.5514 24.28C72.2848 22.8827 72.0714 21.4267 71.9114 19.912C71.7514 18.3973 71.6394 16.776 71.5754 15.048C71.5541 14.6747 71.7248 14.488 72.0874 14.488L73.0794 14.472C73.4314 14.472 73.6128 14.648 73.6234 15C73.7301 18.2853 74.0234 21.2027 74.5034 23.752C74.6314 23.6987 74.7648 23.64 74.9034 23.576C75.0528 23.5013 75.2021 23.4267 75.3514 23.352ZM84.1994 22.68C84.2528 23.0427 84.0928 23.2347 83.7194 23.256L82.7274 23.32C82.3968 23.3307 82.2048 23.1707 82.1514 22.84C82.0234 21.8267 81.8634 20.824 81.6714 19.832C81.4901 18.8293 81.2768 17.8427 81.0314 16.872C81.0208 16.84 81.0101 16.808 80.9994 16.776C80.9994 16.744 80.9994 16.712 80.9994 16.68C80.9994 16.424 81.1488 16.28 81.4474 16.248L82.3754 16.136C82.7061 16.0827 82.9141 16.2373 82.9994 16.6C83.2768 17.656 83.5114 18.6853 83.7034 19.688C83.8954 20.6907 84.0608 21.688 84.1994 22.68ZM95.6957 21.016C95.685 20.9733 95.6744 20.936 95.6637 20.904C95.6637 20.872 95.6637 20.84 95.6637 20.808C95.6637 20.5733 95.7917 20.424 96.0477 20.36L96.8637 20.152C96.9064 20.1413 96.9437 20.136 96.9757 20.136C97.0077 20.1253 97.0397 20.12 97.0717 20.12C97.285 20.12 97.4397 20.232 97.5357 20.456C97.685 20.8187 97.8024 21.224 97.8877 21.672C97.973 22.1093 98.0157 22.536 98.0157 22.952C98.0157 23.8267 97.573 24.4773 96.6877 24.904C95.813 25.3307 94.533 25.544 92.8477 25.544C91.4397 25.544 90.341 25.2133 89.5517 24.552C88.7624 23.8907 88.3677 22.952 88.3677 21.736C88.3677 21.288 88.4744 20.5413 88.6877 19.496H87.2477C86.8957 19.496 86.7197 19.336 86.7197 19.016C86.7197 18.696 86.8957 18.536 87.2477 18.536H88.8957C89.013 17.9813 89.157 17.3787 89.3277 16.728H87.4717C87.1197 16.728 86.9437 16.568 86.9437 16.248C86.9437 15.928 87.1197 15.768 87.4717 15.768H89.5677C89.6957 15.2987 89.829 14.8133 89.9677 14.312C90.053 13.9707 90.261 13.8267 90.5917 13.88L91.5197 13.992C91.8077 14.024 91.9517 14.1733 91.9517 14.44C91.9517 14.4827 91.941 14.5467 91.9197 14.632C91.813 15.016 91.7117 15.3947 91.6157 15.768H96.7517C97.1037 15.768 97.2797 15.928 97.2797 16.248C97.2797 16.568 97.1037 16.728 96.7517 16.728H91.3597C91.1997 17.368 91.0557 17.9707 90.9277 18.536H96.4157C96.7677 18.536 96.9437 18.696 96.9437 19.016C96.9437 19.336 96.7677 19.496 96.4157 19.496H90.7357C90.5224 20.5413 90.4157 21.288 90.4157 21.736C90.4157 22.7173 90.613 23.4373 91.0077 23.896C91.413 24.3547 92.0264 24.584 92.8477 24.584C93.7117 24.584 94.3677 24.5413 94.8157 24.456C95.2637 24.36 95.5677 24.1947 95.7277 23.96C95.8877 23.7253 95.9677 23.3893 95.9677 22.952C95.9677 22.7067 95.941 22.3973 95.8877 22.024C95.8344 21.64 95.7704 21.304 95.6957 21.016ZM109.945 25.256C109.828 25.4053 109.689 25.48 109.529 25.48C109.433 25.48 109.332 25.4533 109.225 25.4L108.745 25.176C108.542 25.08 108.441 24.952 108.441 24.792C108.441 24.7067 108.484 24.5947 108.569 24.456C108.793 24.1253 108.99 23.736 109.161 23.288C109.332 22.8293 109.465 22.3387 109.561 21.816C109.657 21.2933 109.705 20.776 109.705 20.264C109.705 18.952 109.465 17.8853 108.985 17.064C108.505 16.2427 107.828 15.7253 106.953 15.512C107.209 16.9307 107.337 18.2 107.337 19.32C107.337 21.1013 107.028 22.5093 106.409 23.544C105.801 24.5787 104.9 25.096 103.705 25.096C102.98 25.096 102.345 24.92 101.801 24.568C101.257 24.216 100.836 23.736 100.537 23.128C100.238 22.5093 100.089 21.8 100.089 21C100.089 20.104 100.244 19.2613 100.553 18.472C100.862 17.6827 101.289 16.9893 101.833 16.392C102.388 15.784 103.022 15.3093 103.737 14.968C104.462 14.6267 105.236 14.456 106.057 14.456C107.23 14.456 108.244 14.6907 109.097 15.16C109.95 15.6187 110.606 16.2853 111.065 17.16C111.524 18.024 111.753 19.0587 111.753 20.264C111.753 22.2373 111.15 23.9013 109.945 25.256ZM102.137 21C102.137 21.5653 102.212 22.088 102.361 22.568C102.51 23.0373 102.702 23.416 102.937 23.704C103.182 23.992 103.438 24.136 103.705 24.136C104.004 24.136 104.265 23.9173 104.489 23.48C104.724 23.032 104.905 22.4293 105.033 21.672C105.172 20.9147 105.241 20.0613 105.241 19.112C105.241 18.568 105.214 18.008 105.161 17.432C105.118 16.856 105.044 16.2693 104.937 15.672C104.414 15.928 103.94 16.3227 103.513 16.856C103.097 17.3893 102.761 18.0187 102.505 18.744C102.26 19.4587 102.137 20.2107 102.137 21ZM116.715 20.472C116.715 20.824 116.539 21 116.187 21H115.195C114.843 21 114.667 20.824 114.667 20.472V14.456C114.667 14.104 114.843 13.928 115.195 13.928H116.187C116.539 13.928 116.715 14.104 116.715 14.456V20.472ZM120.315 25.416C120.187 25.6187 120.021 25.72 119.819 25.72C119.765 25.72 119.696 25.7093 119.611 25.688L118.923 25.48C118.677 25.3947 118.555 25.2613 118.555 25.08C118.555 24.984 118.587 24.8827 118.651 24.776C119.056 24.1147 119.392 23.5013 119.659 22.936C119.925 22.3707 120.139 21.8053 120.299 21.24C120.459 20.6747 120.576 20.072 120.651 19.432C120.725 18.792 120.773 18.072 120.795 17.272C120.827 16.4613 120.843 15.528 120.843 14.472C120.843 14.1093 121.019 13.928 121.371 13.928H122.363C122.715 13.928 122.891 14.184 122.891 14.696C122.88 15.848 122.853 16.8453 122.811 17.688C122.779 18.5307 122.709 19.2773 122.603 19.928C122.507 20.5787 122.363 21.1867 122.171 21.752C121.979 22.3173 121.733 22.8933 121.435 23.48C121.136 24.056 120.763 24.7013 120.315 25.416ZM127.676 25.224C127.548 25.3627 127.404 25.432 127.244 25.432C127.17 25.432 127.068 25.4053 126.94 25.352L126.476 25.144C126.263 25.048 126.156 24.92 126.156 24.76C126.156 24.664 126.215 24.5467 126.332 24.408L135.244 15.288H126.156C125.804 15.288 125.628 15.128 125.628 14.808C125.628 14.488 125.804 14.328 126.156 14.328H137.404C137.703 14.328 137.852 14.4293 137.852 14.632C137.852 14.728 137.794 14.8453 137.676 14.984L132.812 19.976L137.9 24.408C138.028 24.5147 138.092 24.632 138.092 24.76C138.092 24.8987 138.002 25.0267 137.82 25.144L137.452 25.352C137.388 25.384 137.324 25.4107 137.26 25.432C137.207 25.4533 137.154 25.464 137.1 25.464C136.983 25.464 136.855 25.4053 136.716 25.288L131.788 21L127.676 25.224ZM143.819 25.144C143.819 25.496 143.643 25.672 143.291 25.672H142.299C141.947 25.672 141.771 25.496 141.771 25.144V14.024C141.771 13.672 141.947 13.496 142.299 13.496H143.291C143.643 13.496 143.819 13.672 143.819 14.024V18.568L149.611 20.44C149.856 20.5253 149.979 20.6533 149.979 20.824C149.979 20.9093 149.947 21 149.883 21.096L149.819 21.176C149.702 21.3573 149.547 21.448 149.355 21.448C149.323 21.448 149.286 21.448 149.243 21.448C149.211 21.4373 149.174 21.4267 149.131 21.416L143.819 19.704V25.144Z" fill="white"/>
<g clip-path="url(#clip0_237_351)">
<path d="M35 27C36.1046 27 37 26.1046 37 25C37 23.8954 36.1046 23 35 23C33.8954 23 33 23.8954 33 25C33 26.1046 33.8954 27 35 27Z" stroke="white" stroke-width="2" stroke-linecap="round" stroke-linejoin="round"/>
<path d="M43 27C44.1046 27 45 26.1046 45 25C45 23.8954 44.1046 23 43 23C41.8954 23 41 23.8954 41 25C41 26.1046 41.8954 27 43 27Z" stroke="white" stroke-width="2" stroke-linecap="round" stroke-linejoin="round"/>
<path d="M29 9H31L33 21C33.2157 21.6135 33.6249 22.1402 34.166 22.501C34.7071 22.8617 35.3507 23.0368 36 23H43C43.6493 23.0368 44.2929 22.8617 44.834 22.501C45.3751 22.1402 45.7843 21.6135 46 21L47 14H31.8" stroke="white" stroke-width="2" stroke-linecap="round" stroke-linejoin="round"/>
</g>
<defs>
<clipPath id="clip0_237_351">
<rect width="24" height="24" fill="white" transform="translate(26 6)"/>
</clipPath>
</defs>
</svg>
