<svg width="122" height="36" viewBox="0 0 122 36" fill="none" xmlns="http://www.w3.org/2000/svg">
<path d="M0 4C0 1.79086 1.79086 0 4 0H118C120.209 0 122 1.79086 122 4V36H0V4Z" fill="#6B8F71"/>
<path d="M47.6381 15.72C47.6381 16.072 47.4621 16.248 47.1101 16.248H46.1181C45.8728 16.248 45.7128 16.1573 45.6381 15.976H36.5021C36.4275 16.1573 36.2675 16.248 36.0221 16.248H35.0301C34.6781 16.248 34.5021 16.072 34.5021 15.72V12.648C34.5021 12.296 34.6781 12.12 35.0301 12.12H36.0221C36.2461 12.12 36.4008 12.2 36.4861 12.36H47.1101C47.4621 12.36 47.6381 12.536 47.6381 12.888V15.72ZM38.3101 13.368V13.32H36.5501V15.016H38.3101V14.968V13.368ZM40.3581 14.968V15.016H42.0221V14.968V13.368V13.32H40.3581V13.368V14.968ZM44.0701 14.968V15.016H45.5901V13.32H44.0701V13.368V14.968ZM35.5261 17.08C35.5261 16.728 35.7021 16.552 36.0541 16.552H37.0461C37.2488 16.552 37.3928 16.616 37.4781 16.744H46.1021C46.4541 16.744 46.6301 16.92 46.6301 17.272V23.272C46.6301 23.624 46.4541 23.8 46.1021 23.8H45.1101C44.9075 23.8 44.7635 23.736 44.6781 23.608H37.4781C37.3928 23.736 37.2488 23.8 37.0461 23.8H36.0541C35.7021 23.8 35.5261 23.624 35.5261 23.272V17.08ZM44.5821 17.704H37.5741V18.664H44.5821V17.704ZM37.5741 20.68H44.5821V19.624H37.5741V20.68ZM37.5741 22.648H44.5821V21.64H37.5741V22.648ZM35.8621 25.928C35.8195 25.9387 35.7821 25.944 35.7501 25.944C35.7181 25.9547 35.6861 25.96 35.6541 25.96C35.4621 25.96 35.3021 25.8587 35.1741 25.656C35.1101 25.5387 35.0781 25.4373 35.0781 25.352C35.0781 25.16 35.2008 25.032 35.4461 24.968L38.8541 24.008C38.8968 23.9973 38.9341 23.992 38.9661 23.992C38.9981 23.9813 39.0301 23.976 39.0621 23.976C39.2541 23.976 39.4141 24.0773 39.5421 24.28C39.6061 24.3867 39.6381 24.488 39.6381 24.584C39.6381 24.776 39.5155 24.904 39.2701 24.968L35.8621 25.928ZM46.9181 25.048C47.1741 25.112 47.3021 25.24 47.3021 25.432C47.3021 25.5173 47.2755 25.6027 47.2221 25.688L47.1741 25.752C47.0461 25.9547 46.8861 26.056 46.6941 26.056C46.6408 26.056 46.5715 26.0453 46.4861 26.024L42.8221 24.984C42.5661 24.92 42.4381 24.792 42.4381 24.6C42.4381 24.5147 42.4648 24.4293 42.5181 24.344L42.5661 24.28C42.6941 24.0773 42.8541 23.976 43.0461 23.976C43.0995 23.976 43.1688 23.9867 43.2541 24.008L46.9181 25.048ZM59.9101 15.416C60.1661 15.48 60.2941 15.608 60.2941 15.8C60.2941 15.8853 60.2728 15.9653 60.2301 16.04L60.1981 16.104C60.0701 16.3067 59.9101 16.408 59.7181 16.408C59.6861 16.408 59.6541 16.408 59.6221 16.408C59.5901 16.3973 59.5528 16.3867 59.5101 16.376C58.1555 16.0027 56.8168 15.6773 55.4941 15.4C54.1715 15.112 52.8541 14.8667 51.5421 14.664C51.2435 14.632 51.0941 14.4987 51.0941 14.264C51.0941 14.2427 51.0941 14.2213 51.0941 14.2C51.1048 14.168 51.1155 14.136 51.1261 14.104V14.088C51.2221 13.768 51.4355 13.64 51.7661 13.704C53.1528 13.9067 54.5235 14.1573 55.8781 14.456C57.2435 14.744 58.5875 15.064 59.9101 15.416ZM55.6701 25.448C55.5741 25.4907 55.4728 25.512 55.3661 25.512C55.2061 25.512 55.0621 25.448 54.9341 25.32L54.8381 25.224C54.7208 25.1067 54.6621 24.9947 54.6621 24.888C54.6621 24.7173 54.7741 24.584 54.9981 24.488C56.3955 23.7947 57.4355 23.1067 58.1181 22.424C58.8008 21.7307 59.1421 21.0267 59.1421 20.312C59.1421 19.672 58.8755 19.192 58.3421 18.872C57.8195 18.5413 57.1315 18.376 56.2781 18.376C55.5741 18.376 54.7955 18.488 53.9421 18.712C53.0888 18.936 52.2088 19.272 51.3021 19.72C51.1955 19.784 51.0835 19.816 50.9661 19.816C50.8488 19.816 50.7155 19.7573 50.5661 19.64L50.4381 19.528C50.3101 19.4107 50.2461 19.2933 50.2461 19.176C50.2461 19.016 50.3475 18.888 50.5501 18.792C51.4888 18.344 52.4541 18.0133 53.4461 17.8C54.4381 17.5867 55.3821 17.48 56.2781 17.48C57.1955 17.48 58.0221 17.592 58.7581 17.816C59.5048 18.0293 60.0968 18.344 60.5341 18.76C60.9715 19.176 61.1901 19.6933 61.1901 20.312C61.1901 21.1653 60.7208 22.024 59.7821 22.888C58.8541 23.7413 57.4835 24.5947 55.6701 25.448ZM72.0629 21.016C72.0522 20.9733 72.0415 20.936 72.0309 20.904C72.0309 20.872 72.0309 20.84 72.0309 20.808C72.0309 20.5733 72.1589 20.424 72.4149 20.36L73.2309 20.152C73.2735 20.1413 73.3109 20.136 73.3429 20.136C73.3749 20.1253 73.4069 20.12 73.4389 20.12C73.6522 20.12 73.8069 20.232 73.9029 20.456C74.0522 20.8187 74.1695 21.224 74.2549 21.672C74.3402 22.1093 74.3829 22.536 74.3829 22.952C74.3829 23.8267 73.9402 24.4773 73.0549 24.904C72.1802 25.3307 70.9002 25.544 69.2149 25.544C67.8069 25.544 66.7082 25.2133 65.9189 24.552C65.1295 23.8907 64.7349 22.952 64.7349 21.736C64.7349 21.288 64.8415 20.5413 65.0549 19.496H63.6149C63.2629 19.496 63.0869 19.336 63.0869 19.016C63.0869 18.696 63.2629 18.536 63.6149 18.536H65.2629C65.3802 17.9813 65.5242 17.3787 65.6949 16.728H63.8389C63.4869 16.728 63.3109 16.568 63.3109 16.248C63.3109 15.928 63.4869 15.768 63.8389 15.768H65.9349C66.0629 15.2987 66.1962 14.8133 66.3349 14.312C66.4202 13.9707 66.6282 13.8267 66.9589 13.88L67.8869 13.992C68.1749 14.024 68.3189 14.1733 68.3189 14.44C68.3189 14.4827 68.3082 14.5467 68.2869 14.632C68.1802 15.016 68.0789 15.3947 67.9829 15.768H73.1189C73.4709 15.768 73.6469 15.928 73.6469 16.248C73.6469 16.568 73.4709 16.728 73.1189 16.728H67.7269C67.5669 17.368 67.4229 17.9707 67.2949 18.536H72.7829C73.1349 18.536 73.3109 18.696 73.3109 19.016C73.3109 19.336 73.1349 19.496 72.7829 19.496H67.1029C66.8895 20.5413 66.7829 21.288 66.7829 21.736C66.7829 22.7173 66.9802 23.4373 67.3749 23.896C67.7802 24.3547 68.3935 24.584 69.2149 24.584C70.0789 24.584 70.7349 24.5413 71.1829 24.456C71.6309 24.36 71.9349 24.1947 72.0949 23.96C72.2549 23.7253 72.3349 23.3893 72.3349 22.952C72.3349 22.7067 72.3082 22.3973 72.2549 22.024C72.2015 21.64 72.1375 21.304 72.0629 21.016ZM86.3123 25.256C86.1949 25.4053 86.0563 25.48 85.8963 25.48C85.8003 25.48 85.6989 25.4533 85.5923 25.4L85.1123 25.176C84.9096 25.08 84.8083 24.952 84.8083 24.792C84.8083 24.7067 84.8509 24.5947 84.9363 24.456C85.1603 24.1253 85.3576 23.736 85.5283 23.288C85.6989 22.8293 85.8323 22.3387 85.9283 21.816C86.0243 21.2933 86.0723 20.776 86.0723 20.264C86.0723 18.952 85.8323 17.8853 85.3523 17.064C84.8723 16.2427 84.1949 15.7253 83.3203 15.512C83.5763 16.9307 83.7043 18.2 83.7043 19.32C83.7043 21.1013 83.3949 22.5093 82.7763 23.544C82.1683 24.5787 81.2669 25.096 80.0723 25.096C79.3469 25.096 78.7123 24.92 78.1683 24.568C77.6243 24.216 77.2029 23.736 76.9043 23.128C76.6056 22.5093 76.4563 21.8 76.4563 21C76.4563 20.104 76.6109 19.2613 76.9203 18.472C77.2296 17.6827 77.6563 16.9893 78.2003 16.392C78.7549 15.784 79.3896 15.3093 80.1043 14.968C80.8296 14.6267 81.6029 14.456 82.4243 14.456C83.5976 14.456 84.6109 14.6907 85.4643 15.16C86.3176 15.6187 86.9736 16.2853 87.4323 17.16C87.8909 18.024 88.1203 19.0587 88.1203 20.264C88.1203 22.2373 87.5176 23.9013 86.3123 25.256ZM78.5043 21C78.5043 21.5653 78.5789 22.088 78.7283 22.568C78.8776 23.0373 79.0696 23.416 79.3043 23.704C79.5496 23.992 79.8056 24.136 80.0723 24.136C80.3709 24.136 80.6323 23.9173 80.8563 23.48C81.0909 23.032 81.2723 22.4293 81.4003 21.672C81.5389 20.9147 81.6083 20.0613 81.6083 19.112C81.6083 18.568 81.5816 18.008 81.5283 17.432C81.4856 16.856 81.4109 16.2693 81.3043 15.672C80.7816 15.928 80.3069 16.3227 79.8802 16.856C79.4643 17.3893 79.1283 18.0187 78.8723 18.744C78.6269 19.4587 78.5043 20.2107 78.5043 21Z" fill="white"/>
</svg>
