<svg width="180" height="44" viewBox="0 0 180 44" fill="none" xmlns="http://www.w3.org/2000/svg">
<rect width="180" height="44" rx="22" fill="#6B8F71"/>
<circle cx="42" cy="22" r="20" fill="#D7C9AA" fill-opacity="0.3"/>
<path d="M43.992 27H46.992M46.992 27H49.992M46.992 27V24M46.992 27V30" stroke="#F8F5F2" stroke-width="2" stroke-linecap="round" stroke-linejoin="round"/>
<path d="M34 19.4V14.6C34 14.4409 34.0632 14.2883 34.1757 14.1757C34.2883 14.0632 34.4409 14 34.6 14H39.4C39.5591 14 39.7117 14.0632 39.8243 14.1757C39.9368 14.2883 40 14.4409 40 14.6V19.4C40 19.5591 39.9368 19.7117 39.8243 19.8243C39.7117 19.9368 39.5591 20 39.4 20H34.6C34.4409 20 34.2883 19.9368 34.1757 19.8243C34.0632 19.7117 34 19.5591 34 19.4ZM34 29.4V24.6C34 24.4409 34.0632 24.2883 34.1757 24.1757C34.2883 24.0632 34.4409 24 34.6 24H39.4C39.5591 24 39.7117 24.0632 39.8243 24.1757C39.9368 24.2883 40 24.4409 40 24.6V29.4C40 29.5591 39.9368 29.7117 39.8243 29.8243C39.7117 29.9368 39.5591 30 39.4 30H34.6C34.4409 30 34.2883 29.9368 34.1757 29.8243C34.0632 29.7117 34 29.5591 34 29.4ZM44 19.4V14.6C44 14.4409 44.0632 14.2883 44.1757 14.1757C44.2883 14.0632 44.4409 14 44.6 14H49.4C49.5591 14 49.7117 14.0632 49.8243 14.1757C49.9368 14.2883 50 14.4409 50 14.6V19.4C50 19.5591 49.9368 19.7117 49.8243 19.8243C49.7117 19.9368 49.5591 20 49.4 20H44.6C44.4409 20 44.2883 19.9368 44.1757 19.8243C44.0632 19.7117 44 19.5591 44 19.4Z" stroke="#F8F5F2" stroke-width="2"/>
<path d="M73.908 29.336C73.908 29.688 73.732 29.864 73.38 29.864H72.388C72.036 29.864 71.86 29.688 71.86 29.336V22.904L71.492 23.496C71.364 23.6987 71.204 23.8 71.012 23.8C70.9587 23.8 70.8893 23.7893 70.804 23.768L70.116 23.56C69.8707 23.4747 69.748 23.3413 69.748 23.16C69.748 23.0747 69.78 22.9787 69.844 22.872L73.956 16.248C74.084 16.0453 74.244 15.944 74.436 15.944C74.4893 15.944 74.5587 15.9547 74.644 15.976L75.332 16.184C75.5773 16.2693 75.7 16.4027 75.7 16.584C75.7 16.6587 75.668 16.7547 75.604 16.872L73.796 19.784C73.8707 19.88 73.908 20.0027 73.908 20.152V29.336ZM76.42 24.136C76.324 24.4453 76.1107 24.5733 75.78 24.52L74.884 24.376C74.596 24.3227 74.452 24.1787 74.452 23.944C74.452 23.8907 74.4627 23.8213 74.484 23.736L76.948 16.392C77.044 16.0827 77.2573 15.9547 77.588 16.008L78.484 16.152C78.772 16.2053 78.916 16.3493 78.916 16.584C78.916 16.6373 78.9053 16.7067 78.884 16.792L78.132 19.016H82.74C83.092 19.016 83.268 19.176 83.268 19.496C83.268 19.816 83.092 19.976 82.74 19.976H80.292V20.024V22.664H82.74C83.092 22.664 83.268 22.824 83.268 23.144C83.268 23.464 83.092 23.624 82.74 23.624H80.292V26.424H82.74C83.092 26.424 83.268 26.584 83.268 26.904C83.268 27.224 83.092 27.384 82.74 27.384H80.292V29.336C80.292 29.688 80.116 29.864 79.764 29.864H78.772C78.42 29.864 78.244 29.688 78.244 29.336V20.024V19.976H77.812L76.42 24.136ZM98.244 17.016C98.4253 17.1333 98.516 17.2613 98.516 17.4C98.516 17.5173 98.452 17.6347 98.324 17.752L98.164 17.88C98.0253 17.9973 97.8867 18.056 97.748 18.056C97.6627 18.056 97.5613 18.024 97.444 17.96L95.492 16.888C95.3107 16.7707 95.22 16.6427 95.22 16.504C95.22 16.376 95.284 16.2587 95.412 16.152L95.572 16.024C95.7107 15.9067 95.8493 15.848 95.988 15.848C96.084 15.848 96.1853 15.88 96.292 15.944L98.244 17.016ZM87.748 29.272C87.7373 29.6027 87.556 29.768 87.204 29.768L86.228 29.752C85.8653 29.752 85.6947 29.5707 85.716 29.208L86.164 19.4C86.1747 19.272 86.2067 19.1653 86.26 19.08C86.2067 19.016 86.18 18.9253 86.18 18.808C86.18 18.488 86.356 18.328 86.708 18.328H92.436L91.908 16.696C91.8867 16.6107 91.876 16.5413 91.876 16.488C91.876 16.2427 92.02 16.104 92.308 16.072L93.204 15.944C93.2253 15.944 93.2467 15.944 93.268 15.944C93.3 15.9333 93.3213 15.928 93.332 15.928C93.588 15.928 93.7533 16.0613 93.828 16.328L94.468 18.328H98.884C99.236 18.328 99.412 18.488 99.412 18.808C99.412 19.128 99.236 19.288 98.884 19.288H94.772L96.148 23.56L97.604 21.224C97.732 21.0213 97.892 20.92 98.084 20.92C98.1373 20.92 98.2067 20.9307 98.292 20.952L98.98 21.16C99.2253 21.2453 99.348 21.3787 99.348 21.56C99.348 21.6347 99.316 21.7307 99.252 21.848L96.836 25.704L97.636 28.184L98.548 27.944C98.6333 27.9227 98.692 27.912 98.724 27.912C98.9373 27.912 99.1027 28.024 99.22 28.248C99.2733 28.3547 99.3 28.44 99.3 28.504C99.3 28.7173 99.172 28.856 98.916 28.92L96.564 29.528C96.532 29.5387 96.5 29.544 96.468 29.544C96.436 29.544 96.4093 29.544 96.388 29.544C96.1533 29.544 95.9933 29.416 95.908 29.16L95.492 27.864L94.628 29.256C94.5 29.4587 94.34 29.56 94.148 29.56C94.0947 29.56 94.0253 29.5493 93.94 29.528L93.252 29.32C93.0067 29.2347 92.884 29.1013 92.884 28.92C92.884 28.8347 92.916 28.7387 92.98 28.632L94.804 25.72L92.74 19.288H88.18C88.1907 19.3413 88.196 19.4 88.196 19.464L88.068 22.216H91.94C92.3027 22.216 92.468 22.3973 92.436 22.76L91.94 29.032C91.908 29.3413 91.764 29.496 91.508 29.496C91.476 29.496 91.4173 29.4853 91.332 29.464L88.804 28.84C88.5373 28.776 88.404 28.648 88.404 28.456C88.404 28.4133 88.4093 28.376 88.42 28.344C88.4413 28.312 88.4573 28.2747 88.468 28.232L88.484 28.184C88.6013 27.96 88.7667 27.848 88.98 27.848C89.012 27.848 89.044 27.8533 89.076 27.864C89.108 27.864 89.14 27.8693 89.172 27.88L89.972 28.072L90.372 23.176H88.02L87.748 29.272ZM108.5 24.248C108.159 24.248 107.865 24.1253 107.62 23.88C107.375 23.6347 107.252 23.3413 107.252 23C107.252 22.6587 107.375 22.3653 107.62 22.12C107.865 21.8747 108.159 21.752 108.5 21.752C108.841 21.752 109.135 21.8747 109.38 22.12C109.625 22.3653 109.748 22.6587 109.748 23C109.748 23.3413 109.625 23.6347 109.38 23.88C109.135 24.1253 108.841 24.248 108.5 24.248ZM121.396 19.032C121.417 19.0747 121.433 19.1173 121.444 19.16C121.455 19.2027 121.46 19.2453 121.46 19.288C121.46 19.5013 121.327 19.64 121.06 19.704L120.244 19.864C120.223 19.8747 120.196 19.88 120.164 19.88C120.132 19.88 120.105 19.88 120.084 19.88C119.86 19.88 119.695 19.7627 119.588 19.528L118.308 16.728C118.276 16.6427 118.26 16.5627 118.26 16.488C118.26 16.264 118.393 16.12 118.66 16.056L119.46 15.896C119.481 15.8853 119.508 15.88 119.54 15.88C119.572 15.88 119.599 15.88 119.62 15.88C119.844 15.88 120.009 15.9973 120.116 16.232L121.396 19.032ZM131.06 27.16C131.06 27.512 130.884 27.688 130.532 27.688H129.54C129.263 27.688 129.092 27.5707 129.028 27.336H124.596C124.532 27.5707 124.361 27.688 124.084 27.688H123.092C122.74 27.688 122.564 27.512 122.564 27.16V17.752C122.564 17.4 122.74 17.224 123.092 17.224H124.084C124.329 17.224 124.489 17.3147 124.564 17.496H125.604C125.636 17.4213 125.7 17.336 125.796 17.24L127.092 16.072C127.22 15.944 127.359 15.88 127.508 15.88C127.615 15.88 127.721 15.912 127.828 15.976L128.228 16.168C128.431 16.264 128.532 16.3867 128.532 16.536C128.532 16.6427 128.463 16.7653 128.324 16.904L127.668 17.496H130.532C130.884 17.496 131.06 17.672 131.06 18.024V21.544C131.06 21.896 130.884 22.072 130.532 22.072H129.54C129.284 22.072 129.119 21.9707 129.044 21.768H124.612V22.984H130.532C130.884 22.984 131.06 23.16 131.06 23.512V27.16ZM129.012 18.456H124.612V20.808H129.012V18.456ZM130.772 28.28C131.103 28.2267 131.311 28.3653 131.396 28.696C131.407 28.728 131.412 28.776 131.412 28.84C131.412 29.0747 131.263 29.208 130.964 29.24L126.644 29.784C126.569 29.7947 126.5 29.8 126.436 29.8C126.383 29.8107 126.324 29.816 126.26 29.816C126.217 29.816 126.175 29.816 126.132 29.816C126.1 29.816 126.057 29.8107 126.004 29.8L118.196 29.016C117.908 28.984 117.764 28.872 117.764 28.68C117.764 28.5627 117.817 28.4507 117.924 28.344L119.316 26.76L118.324 25.24C118.239 25.1013 118.196 24.9733 118.196 24.856C118.196 24.76 118.228 24.648 118.292 24.52L119.796 21.608H118.116C117.764 21.608 117.588 21.448 117.588 21.128C117.588 20.808 117.764 20.648 118.116 20.648H121.62C121.929 20.648 122.084 20.7653 122.084 21C122.084 21.0747 122.057 21.1653 122.004 21.272L120.148 24.888L121.14 26.408C121.225 26.5467 121.268 26.664 121.268 26.76C121.268 26.8773 121.209 27.0053 121.092 27.144L120.132 28.232L126.292 28.84L130.772 28.28ZM129.012 23.944H124.612V26.376H129.012V23.944ZM136.132 29.448C136.079 29.7787 135.881 29.928 135.54 29.896L134.58 29.832C134.217 29.8 134.063 29.6027 134.116 29.24L135.636 19.72H134.452C134.1 19.72 133.924 19.56 133.924 19.24C133.924 18.92 134.1 18.76 134.452 18.76H135.796L136.164 16.456C136.217 16.1253 136.415 15.976 136.756 16.008L137.716 16.072C138.079 16.104 138.233 16.3013 138.18 16.664L137.844 18.76H140.548C140.911 18.76 141.076 18.9413 141.044 19.304L140.308 28.984C140.297 29.1547 140.239 29.2827 140.132 29.368C140.025 29.4533 139.887 29.4853 139.716 29.464L137.38 29.144C137.071 29.112 136.916 28.9787 136.916 28.744C136.916 28.7013 136.927 28.648 136.948 28.584V28.568C137.044 28.2587 137.252 28.1253 137.572 28.168L138.308 28.28L138.98 19.72H137.684L136.132 29.448ZM141.348 18.248C141.348 17.896 141.524 17.72 141.876 17.72H142.868C143.092 17.72 143.247 17.8 143.332 17.96H146.532C146.884 17.96 147.06 18.136 147.06 18.488V29.16C147.06 29.512 146.884 29.688 146.532 29.688H145.54C145.188 29.688 145.012 29.512 145.012 29.16H143.396C143.396 29.512 143.22 29.688 142.868 29.688H141.876C141.524 29.688 141.348 29.512 141.348 29.16V18.248ZM145.012 18.92H143.396V28.2H145.012V18.92Z" fill="#F8F5F2"/>
</svg>
